<?xml version="1.0" encoding="UTF-8" standalone="no"?>
<!-- Created with Inkscape (http://www.inkscape.org/) -->

<svg
   xmlns:a="http://ns.adobe.com/AdobeSVGViewerExtensions/3.0/"
   xmlns:dc="http://purl.org/dc/elements/1.1/"
   xmlns:cc="http://creativecommons.org/ns#"
   xmlns:rdf="http://www.w3.org/1999/02/22-rdf-syntax-ns#"
   xmlns:svg="http://www.w3.org/2000/svg"
   xmlns="http://www.w3.org/2000/svg"
   xmlns:xlink="http://www.w3.org/1999/xlink"
   xmlns:sodipodi="http://sodipodi.sourceforge.net/DTD/sodipodi-0.dtd"
   xmlns:inkscape="http://www.inkscape.org/namespaces/inkscape"
   id="svg2876"
   height="16"
   width="16"
   version="1.1"
   inkscape:version="0.48.5 r10040"
   sodipodi:docname="classwithprops.svg"
   inkscape:export-filename="/home/bbou/Desktop/head.png"
   inkscape:export-xdpi="90"
   inkscape:export-ydpi="90">
  <sodipodi:namedview
     pagecolor="#ffffff"
     bordercolor="#666666"
     borderopacity="1"
     objecttolerance="10"
     gridtolerance="10"
     guidetolerance="10"
     inkscape:pageopacity="0"
     inkscape:pageshadow="2"
     inkscape:window-width="788"
     inkscape:window-height="794"
     id="namedview23"
     showgrid="false"
     inkscape:zoom="20.85965"
     inkscape:cx="8"
     inkscape:cy="2.5762712"
     inkscape:window-x="827"
     inkscape:window-y="153"
     inkscape:window-maximized="0"
     inkscape:current-layer="svg2876" />
  <defs
     id="defs2878">
    <radialGradient
       id="radialGradient2872"
       gradientUnits="userSpaceOnUse"
       cx="13.139"
       cy="25.625"
       r="13.931"
       gradientTransform="matrix(0,0.92615,-1.0546,0,32.403,-9.3346)">
      <stop
         id="stop3692"
         style="stop-color:#ffeb9f"
         offset="0" />
      <stop
         id="stop3694"
         style="stop-color:#ffd57e"
         offset=".26238" />
      <stop
         id="stop3696"
         style="stop-color:#ffbc43"
         offset=".66094" />
      <stop
         id="stop3698"
         style="stop-color:#ff921a"
         offset="1" />
    </radialGradient>
    <linearGradient
       id="linearGradient2874"
       y2="9.58"
       gradientUnits="userSpaceOnUse"
       y1="36.255"
       gradientTransform="matrix(0.55048,0,0,0.57816,-3.8262,-5.2762)"
       x2="21.483"
       x1="21.483">
      <stop
         id="stop3605"
         style="stop-color:#a7651c"
         offset="0" />
      <stop
         id="stop3607"
         style="stop-color:#c8a700"
         offset="1" />
    </linearGradient>
    <linearGradient
       id="linearGradient3674"
       y2="33.955"
       gradientUnits="userSpaceOnUse"
       x2="15.215"
       gradientTransform="matrix(0.48936,0,0,0.48936,1.7132,22.728)"
       y1="22.292"
       x1="11.566">
      <stop
         id="stop2687"
         style="stop-color:#fff;stop-opacity:.27451"
         offset="0" />
      <stop
         id="stop2689"
         style="stop-color:#fff;stop-opacity:0"
         offset="1" />
    </linearGradient>
    <linearGradient
       id="linearGradient3677"
       y2="34.714"
       gradientUnits="userSpaceOnUse"
       x2="24.046"
       gradientTransform="matrix(0.55048,0,0,0.57816,-3.8262,-5.2762)"
       y1="11.673"
       x1="24.046">
      <stop
         id="stop3644"
         style="stop-color:#fff"
         offset="0" />
      <stop
         id="stop3646"
         style="stop-color:#fff;stop-opacity:0"
         offset="1" />
    </linearGradient>
    <radialGradient
       r="135"
       fy="545.93359"
       fx="102.14286"
       cy="545.93359"
       cx="102.14286"
       gradientUnits="userSpaceOnUse"
       id="radialGradient3136"
       xlink:href="#linearGradient18791-8"
       inkscape:collect="always" />
    <linearGradient
       y2="535.2193"
       x2="605.71429"
       y1="535.2193"
       x1="154.28572"
       gradientUnits="userSpaceOnUse"
       id="linearGradient3134"
       xlink:href="#linearGradient15834-3"
       inkscape:collect="always" />
    <radialGradient
       r="135"
       fy="545.93359"
       fx="102.14286"
       cy="545.93359"
       cx="102.14286"
       gradientUnits="userSpaceOnUse"
       id="radialGradient3132"
       xlink:href="#linearGradient20749-8"
       inkscape:collect="always" />
    <radialGradient
       r="135"
       fy="545.93359"
       fx="102.14286"
       cy="545.93359"
       cx="102.14286"
       gradientUnits="userSpaceOnUse"
       id="radialGradient3112"
       xlink:href="#linearGradient18791-8"
       inkscape:collect="always" />
    <linearGradient
       y2="535.2193"
       x2="605.71429"
       y1="535.2193"
       x1="154.28572"
       gradientUnits="userSpaceOnUse"
       id="linearGradient3110"
       xlink:href="#linearGradient15834-3"
       inkscape:collect="always" />
    <radialGradient
       r="135"
       fy="545.93359"
       fx="102.14286"
       cy="545.93359"
       cx="102.14286"
       gradientUnits="userSpaceOnUse"
       id="radialGradient3108"
       xlink:href="#linearGradient20749-8"
       inkscape:collect="always" />
    <radialGradient
       r="135"
       fy="545.93359"
       fx="102.14286"
       cy="545.93359"
       cx="102.14286"
       gradientUnits="userSpaceOnUse"
       id="radialGradient3088"
       xlink:href="#linearGradient18791-8"
       inkscape:collect="always" />
    <linearGradient
       y2="535.2193"
       x2="605.71429"
       y1="535.2193"
       x1="154.28572"
       gradientUnits="userSpaceOnUse"
       id="linearGradient3086"
       xlink:href="#linearGradient15834-3"
       inkscape:collect="always" />
    <radialGradient
       r="135"
       fy="545.93359"
       fx="102.14286"
       cy="545.93359"
       cx="102.14286"
       gradientUnits="userSpaceOnUse"
       id="radialGradient3084"
       xlink:href="#linearGradient20749-8"
       inkscape:collect="always" />
    <linearGradient
       inkscape:collect="always"
       id="linearGradient20749">
      <stop
         style="stop-color: rgb(153, 153, 153); stop-opacity: 1;"
         offset="0"
         id="stop20751" />
      <stop
         style="stop-color: rgb(153, 153, 153); stop-opacity: 0;"
         offset="1"
         id="stop20753" />
    </linearGradient>
    <linearGradient
       inkscape:collect="always"
       id="linearGradient18791">
      <stop
         style="stop-color: rgb(255, 255, 255); stop-opacity: 1;"
         offset="0"
         id="stop18793" />
      <stop
         style="stop-color: rgb(255, 255, 255); stop-opacity: 0;"
         offset="1"
         id="stop18795" />
    </linearGradient>
    <linearGradient
       id="linearGradient15834">
      <stop
         id="stop15842"
         offset="0"
         style="stop-color:#772b00;stop-opacity:1;" />
      <stop
         style="stop-color:#da441b;stop-opacity:1;"
         offset="0.5"
         id="stop15848" />
      <stop
         id="stop15850"
         offset="0.75"
         style="stop-color: rgb(210, 64, 15); stop-opacity: 1;" />
      <stop
         style="stop-color: rgb(212, 67, 22); stop-opacity: 0.614583;"
         offset="0.9375"
         id="stop15852" />
      <stop
         style="stop-color:#c33900;stop-opacity:0.21875;"
         offset="1"
         id="stop15838" />
    </linearGradient>
    <radialGradient
       inkscape:collect="always"
       xlink:href="#linearGradient20749"
       id="radialGradient3459"
       gradientUnits="userSpaceOnUse"
       cx="102.14286"
       cy="545.93359"
       fx="102.14286"
       fy="545.93359"
       r="135" />
    <linearGradient
       inkscape:collect="always"
       xlink:href="#linearGradient15834"
       id="linearGradient3461"
       gradientUnits="userSpaceOnUse"
       x1="154.28572"
       y1="535.2193"
       x2="605.71429"
       y2="535.2193" />
    <radialGradient
       inkscape:collect="always"
       xlink:href="#linearGradient18791"
       id="radialGradient3463"
       gradientUnits="userSpaceOnUse"
       cx="102.14286"
       cy="545.93359"
       fx="102.14286"
       fy="545.93359"
       r="135" />
    <radialGradient
       inkscape:collect="always"
       xlink:href="#linearGradient20749-8"
       id="radialGradient3459-1"
       gradientUnits="userSpaceOnUse"
       cx="102.14286"
       cy="545.93359"
       fx="102.14286"
       fy="545.93359"
       r="135" />
    <linearGradient
       inkscape:collect="always"
       id="linearGradient20749-8">
      <stop
         style="stop-color: rgb(153, 153, 153); stop-opacity: 1;"
         offset="0"
         id="stop20751-96" />
      <stop
         style="stop-color: rgb(153, 153, 153); stop-opacity: 0;"
         offset="1"
         id="stop20753-4" />
    </linearGradient>
    <linearGradient
       inkscape:collect="always"
       xlink:href="#linearGradient15834-3"
       id="linearGradient3461-3"
       gradientUnits="userSpaceOnUse"
       x1="154.28572"
       y1="535.2193"
       x2="605.71429"
       y2="535.2193" />
    <linearGradient
       id="linearGradient15834-3">
      <stop
         id="stop15842-3"
         offset="0"
         style="stop-color:#772b00;stop-opacity:1;" />
      <stop
         style="stop-color:#da441b;stop-opacity:1;"
         offset="0.5"
         id="stop15848-8" />
      <stop
         id="stop15850-6"
         offset="0.75"
         style="stop-color: rgb(210, 64, 15); stop-opacity: 1;" />
      <stop
         style="stop-color: rgb(212, 67, 22); stop-opacity: 0.614583;"
         offset="0.9375"
         id="stop15852-0" />
      <stop
         style="stop-color:#c33900;stop-opacity:0.21875;"
         offset="1"
         id="stop15838-4" />
    </linearGradient>
    <linearGradient
       inkscape:collect="always"
       id="linearGradient18791-8">
      <stop
         style="stop-color: rgb(255, 255, 255); stop-opacity: 1;"
         offset="0"
         id="stop18793-8" />
      <stop
         style="stop-color: rgb(255, 255, 255); stop-opacity: 0;"
         offset="1"
         id="stop18795-9" />
    </linearGradient>
    <radialGradient
       r="135"
       fy="545.93359"
       fx="102.14286"
       cy="545.93359"
       cx="102.14286"
       gradientUnits="userSpaceOnUse"
       id="radialGradient3610"
       xlink:href="#linearGradient18791-8"
       inkscape:collect="always" />
    <marker
       inkscape:stockid="Arrow2Mendrt"
       orient="auto"
       refY="0.0"
       refX="0.0"
       id="Arrow2Mendrt"
       style="overflow:visible;">
      <path
         id="path4928"
         style="stroke-linejoin:round;fill-rule:evenodd;stroke:#0042b1;stroke-width:0.62500000;fill:#0042b1"
         d="M 8.7185878,4.0337352 L -2.2072895,0.016013256 L 8.7185884,-4.0017078 C 6.9730900,-1.6296469 6.9831476,1.6157441 8.7185878,4.0337352 z "
         transform="scale(0.6) rotate(180) translate(0,0)" />
    </marker>
    <radialGradient
       inkscape:collect="always"
       xlink:href="#linearGradient20749-8"
       id="radialGradient3706"
       gradientUnits="userSpaceOnUse"
       cx="102.14286"
       cy="545.93359"
       fx="102.14286"
       fy="545.93359"
       r="135" />
    <linearGradient
       inkscape:collect="always"
       xlink:href="#linearGradient15834-3"
       id="linearGradient3708"
       gradientUnits="userSpaceOnUse"
       x1="154.28572"
       y1="535.2193"
       x2="605.71429"
       y2="535.2193" />
    <radialGradient
       inkscape:collect="always"
       xlink:href="#linearGradient18791-8"
       id="radialGradient3710"
       gradientUnits="userSpaceOnUse"
       cx="102.14286"
       cy="545.93359"
       fx="102.14286"
       fy="545.93359"
       r="135" />
    <linearGradient
       y2="1091.1465"
       x2="1052.4604"
       y1="1108.3965"
       x1="1088.7104"
       gradientTransform="matrix(0,-1,-1,0,1146.8999,1120.8999)"
       gradientUnits="userSpaceOnUse"
       id="linearGradient3081"
       xlink:href="#XMLID_12_"
       inkscape:collect="always" />
    <linearGradient
       y2="93.1007"
       x2="1204.1443"
       y1="37.4331"
       x1="1186.144"
       gradientTransform="matrix(-1,0,0,1,1233.999,0)"
       gradientUnits="userSpaceOnUse"
       id="linearGradient3079"
       xlink:href="#XMLID_11_"
       inkscape:collect="always" />
    <linearGradient
       y2="1100.4159"
       x2="1034.4413"
       y1="1089.166"
       x1="1067.9409"
       gradientTransform="matrix(0,-1,-1,0,1146.8999,1120.8999)"
       gradientUnits="userSpaceOnUse"
       id="linearGradient3077"
       xlink:href="#XMLID_10_"
       inkscape:collect="always" />
    <linearGradient
       y2="1035.8748"
       x2="1052.8583"
       y1="1144.3633"
       x1="1065.3569"
       gradientTransform="matrix(0,-1,-1,0,1146.8999,1120.8999)"
       gradientUnits="userSpaceOnUse"
       id="linearGradient3075"
       xlink:href="#XMLID_9_"
       inkscape:collect="always" />
    <linearGradient
       y2="1091.1465"
       x2="1052.4604"
       y1="1108.3965"
       x1="1088.7104"
       gradientTransform="matrix(0,-1,-1,0,1146.8999,1120.8999)"
       gradientUnits="userSpaceOnUse"
       id="linearGradient3059"
       xlink:href="#XMLID_12_"
       inkscape:collect="always" />
    <linearGradient
       y2="93.1007"
       x2="1204.1443"
       y1="37.4331"
       x1="1186.144"
       gradientTransform="matrix(-1,0,0,1,1233.999,0)"
       gradientUnits="userSpaceOnUse"
       id="linearGradient3057"
       xlink:href="#XMLID_11_"
       inkscape:collect="always" />
    <linearGradient
       y2="1100.4159"
       x2="1034.4413"
       y1="1089.166"
       x1="1067.9409"
       gradientTransform="matrix(0,-1,-1,0,1146.8999,1120.8999)"
       gradientUnits="userSpaceOnUse"
       id="linearGradient3055"
       xlink:href="#XMLID_10_"
       inkscape:collect="always" />
    <linearGradient
       y2="1035.8748"
       x2="1052.8583"
       y1="1144.3633"
       x1="1065.3569"
       gradientTransform="matrix(0,-1,-1,0,1146.8999,1120.8999)"
       gradientUnits="userSpaceOnUse"
       id="linearGradient3053"
       xlink:href="#XMLID_9_"
       inkscape:collect="always" />
    <linearGradient
       y2="1091.1465"
       x2="1052.4604"
       y1="1108.3965"
       x1="1088.7104"
       gradientTransform="matrix(0,-1,-1,0,1146.8999,1120.8999)"
       gradientUnits="userSpaceOnUse"
       id="linearGradient3037"
       xlink:href="#XMLID_12_"
       inkscape:collect="always" />
    <linearGradient
       y2="93.1007"
       x2="1204.1443"
       y1="37.4331"
       x1="1186.144"
       gradientTransform="matrix(-1,0,0,1,1233.999,0)"
       gradientUnits="userSpaceOnUse"
       id="linearGradient3035"
       xlink:href="#XMLID_11_"
       inkscape:collect="always" />
    <linearGradient
       y2="1100.4159"
       x2="1034.4413"
       y1="1089.166"
       x1="1067.9409"
       gradientTransform="matrix(0,-1,-1,0,1146.8999,1120.8999)"
       gradientUnits="userSpaceOnUse"
       id="linearGradient3033"
       xlink:href="#XMLID_10_"
       inkscape:collect="always" />
    <linearGradient
       y2="1035.8748"
       x2="1052.8583"
       y1="1144.3633"
       x1="1065.3569"
       gradientTransform="matrix(0,-1,-1,0,1146.8999,1120.8999)"
       gradientUnits="userSpaceOnUse"
       id="linearGradient3031"
       xlink:href="#XMLID_9_"
       inkscape:collect="always" />
    <linearGradient
       y2="1091.1465"
       x2="1052.4604"
       y1="1108.3965"
       x1="1088.7104"
       gradientTransform="matrix(0,-1,-1,0,1146.8999,1120.8999)"
       gradientUnits="userSpaceOnUse"
       id="linearGradient2894"
       xlink:href="#XMLID_12_"
       inkscape:collect="always" />
    <linearGradient
       y2="93.1007"
       x2="1204.1443"
       y1="37.4331"
       x1="1186.144"
       gradientTransform="matrix(-1,0,0,1,1233.999,0)"
       gradientUnits="userSpaceOnUse"
       id="linearGradient2892"
       xlink:href="#XMLID_11_"
       inkscape:collect="always" />
    <linearGradient
       y2="1100.4159"
       x2="1034.4413"
       y1="1089.166"
       x1="1067.9409"
       gradientTransform="matrix(0,-1,-1,0,1146.8999,1120.8999)"
       gradientUnits="userSpaceOnUse"
       id="linearGradient2890"
       xlink:href="#XMLID_10_"
       inkscape:collect="always" />
    <linearGradient
       y2="1035.8748"
       x2="1052.8583"
       y1="1144.3633"
       x1="1065.3569"
       gradientTransform="matrix(0,-1,-1,0,1146.8999,1120.8999)"
       gradientUnits="userSpaceOnUse"
       id="linearGradient2888"
       xlink:href="#XMLID_9_"
       inkscape:collect="always" />
    <inkscape:perspective
       id="perspective74"
       inkscape:persp3d-origin="64 : 42.666667 : 1"
       inkscape:vp_z="128 : 64 : 1"
       inkscape:vp_y="0 : 1000 : 0"
       inkscape:vp_x="0 : 64 : 1"
       sodipodi:type="inkscape:persp3d" />
    <linearGradient
       y2="245.0005"
       x2="-228"
       y1="11"
       x1="-228"
       gradientTransform="translate(357,0)"
       gradientUnits="userSpaceOnUse"
       id="linearGradient3718"
       xlink:href="#XMLID_3_"
       inkscape:collect="always" />
    <linearGradient
       y2="226.9473"
       x2="-130.0527"
       y1="29.0527"
       x1="-327.9473"
       gradientTransform="translate(357,0)"
       gradientUnits="userSpaceOnUse"
       id="linearGradient3714"
       xlink:href="#XMLID_4_"
       inkscape:collect="always" />
    <linearGradient
       x1="-327.9473"
       y1="29.0527"
       x2="-130.0527"
       y2="226.9473"
       id="XMLID_4_"
       gradientUnits="userSpaceOnUse"
       gradientTransform="translate(357,0)">
      <stop
         style="stop-color:#ffffff;stop-opacity:1"
         offset="0"
         id="stop3276" />
      <stop
         style="stop-color:#dadada;stop-opacity:1"
         offset="1"
         id="stop3277" />
      <a:midPointStop
         id="midPointStop3278"
         style="stop-color:#FFFFFF"
         offset="0" />
      <a:midPointStop
         id="midPointStop3279"
         style="stop-color:#FFFFFF"
         offset="0.5" />
      <a:midPointStop
         id="midPointStop3280"
         style="stop-color:#DADADA"
         offset="1" />
    </linearGradient>
    <linearGradient
       x1="-228"
       y1="11"
       x2="-228"
       y2="245.0005"
       id="XMLID_3_"
       gradientUnits="userSpaceOnUse"
       gradientTransform="translate(357,0)">
      <stop
         style="stop-color:#494949;stop-opacity:1"
         offset="0"
         id="stop3268" />
      <stop
         style="stop-color:#000000;stop-opacity:1"
         offset="1"
         id="stop3269" />
      <a:midPointStop
         id="midPointStop3270"
         style="stop-color:#494949"
         offset="0" />
      <a:midPointStop
         id="midPointStop3271"
         style="stop-color:#494949"
         offset="0.5" />
      <a:midPointStop
         id="midPointStop3272"
         style="stop-color:#000000"
         offset="1" />
    </linearGradient>
    <linearGradient
       gradientUnits="userSpaceOnUse"
       id="XMLID_2_"
       y2="185.75"
       x2="249.582"
       y1="185.75"
       x1="121.918">
      <stop
         id="stop173"
         offset="0"
         style="stop-color:#ffff66;stop-opacity:1" />
      <stop
         id="stop174"
         offset="1"
         style="stop-color:#ffcc66;stop-opacity:1" />
    </linearGradient>
    <inkscape:perspective
       id="perspective456"
       inkscape:persp3d-origin="30 : 20 : 1"
       inkscape:vp_z="60 : 30 : 1"
       inkscape:vp_y="0 : 1000 : 0"
       inkscape:vp_x="0 : 30 : 1"
       sodipodi:type="inkscape:persp3d" />
    <clipPath
       id="clipPath3851"
       clipPathUnits="userSpaceOnUse">
      <rect
         ry="1.6549494"
         rx="8.2531538"
         y="1.2120939"
         x="-125.73676"
         height="178.81424"
         width="189.89505"
         id="rect3853"
         style="fill:#d45500;fill-opacity:1" />
    </clipPath>
    <linearGradient
       y2="12"
       x2="31.5"
       y1="63"
       x1="31.5"
       gradientTransform="matrix(0.69631731,0,0,0.73642635,28.971376,23.90669)"
       gradientUnits="userSpaceOnUse"
       id="linearGradient3843"
       xlink:href="#linearGradient2816"
       inkscape:collect="always" />
    <radialGradient
       r="54.179893"
       fy="65.015877"
       fx="62.984127"
       cy="65.015877"
       cx="62.984127"
       gradientTransform="matrix(0.69631731,0,0,0.73642635,28.332992,17.546143)"
       gradientUnits="userSpaceOnUse"
       id="radialGradient3841"
       xlink:href="#linearGradient2794"
       inkscape:collect="always" />
    <linearGradient
       id="linearGradient3700-7-9">
      <stop
         offset="0"
         style="stop-color:#383838;stop-opacity:1"
         id="stop3702-2" />
      <stop
         offset="1"
         style="stop-color:#797979;stop-opacity:1"
         id="stop3704-7-6" />
    </linearGradient>
    <linearGradient
       y2="902.36218"
       x2="48"
       y1="1052.3622"
       x1="48"
       gradientTransform="matrix(1.1609931,0,0,0.24238505,-7.853936,797.28527)"
       gradientUnits="userSpaceOnUse"
       id="linearGradient4484"
       xlink:href="#linearGradient3700-7-9"
       inkscape:collect="always" />
    <linearGradient
       id="linearGradient4075-2-6">
      <stop
         offset="0"
         style="stop-color:#ffdf60;stop-opacity:1"
         id="stop4077-6-9" />
      <stop
         offset="1"
         style="stop-color:#ffd917;stop-opacity:1"
         id="stop4079-1-9" />
    </linearGradient>
    <clipPath
       id="clipPath4066-3">
      <rect
         style="opacity:0.5;color:#000000;fill:#ff00ff;fill-opacity:1;fill-rule:nonzero;stroke:none;stroke-width:8;marker:none;visibility:visible;display:inline;overflow:visible;enable-background:accumulate"
         id="rect4068-1"
         y="48"
         x="6"
         ry="6"
         rx="6"
         height="38"
         width="84" />
    </clipPath>
    <linearGradient
       id="linearGradient4075-2">
      <stop
         offset="0"
         style="stop-color:#ffdf60;stop-opacity:1"
         id="stop4077-6" />
      <stop
         offset="1"
         style="stop-color:#ffd917;stop-opacity:1"
         id="stop4079-1" />
    </linearGradient>
    <clipPath
       id="clipPath4066">
      <rect
         style="opacity:0.5;color:#000000;fill:#ff00ff;fill-opacity:1;fill-rule:nonzero;stroke:none;stroke-width:8;marker:none;visibility:visible;display:inline;overflow:visible;enable-background:accumulate"
         id="rect4068"
         y="48"
         x="6"
         ry="6"
         rx="6"
         height="38"
         width="84" />
    </clipPath>
    <linearGradient
       gradientUnits="userSpaceOnUse"
       xlink:href="#linearGradient2816"
       id="linearGradient2822"
       y2="12"
       x2="31.5"
       y1="63"
       x1="31.5" />
    <radialGradient
       gradientUnits="userSpaceOnUse"
       xlink:href="#linearGradient2794"
       id="radialGradient2812"
       fy="65.015877"
       fx="62.984127"
       r="54.179893"
       cy="65.015877"
       cx="62.984127" />
    <linearGradient
       gradientUnits="userSpaceOnUse"
       xlink:href="#linearGradient2760"
       id="linearGradient2766"
       y2="8.9609833"
       x2="6.9292336"
       y1="121.07077"
       x1="6.9292336" />
    <linearGradient
       id="linearGradient2760">
      <stop
         id="stop2762"
         offset="0"
         style="stop-color:red;stop-opacity:1" />
      <stop
         id="stop2768"
         offset="0.61160713"
         style="stop-color:#a20000;stop-opacity:1" />
      <stop
         id="stop2764"
         offset="1"
         style="stop-color:#f66;stop-opacity:1" />
    </linearGradient>
    <linearGradient
       id="linearGradient2794">
      <stop
         id="stop2796"
         offset="0"
         style="stop-color:#545454;stop-opacity:1" />
      <stop
         id="stop2804"
         offset="0.9464286"
         style="stop-color:#545454;stop-opacity:1" />
      <stop
         id="stop2798"
         offset="1"
         style="stop-color:#c5c5c5;stop-opacity:0" />
    </linearGradient>
    <linearGradient
       id="linearGradient2816">
      <stop
         id="stop2818"
         offset="0"
         style="stop-color:#f07836;stop-opacity:1;" />
      <stop
         id="stop2820"
         offset="1"
         style="stop-color:white;stop-opacity:1" />
    </linearGradient>
  </defs>
  <metadata
     id="metadata2881">
    <rdf:RDF>
      <cc:Work
         rdf:about="">
        <dc:format>image/svg+xml</dc:format>
        <dc:type
           rdf:resource="http://purl.org/dc/dcmitype/StillImage" />
        <dc:title />
      </cc:Work>
    </rdf:RDF>
  </metadata>
  <g
     transform="matrix(0.18761205,0,0,0.18761205,-5.9205847,-4.60004)"
     id="g3836">
    <path
       inkscape:connector-curvature="0"
       d="m 109.91633,65.425548 a 37.726399,39.899503 0 0 1 -75.452798,0 37.726399,39.899503 0 1 1 75.452798,0 z"
       style="fill:url(#radialGradient3841);fill-opacity:1;fill-rule:nonzero;stroke:none"
       id="path2790" />
    <path
       inkscape:connector-curvature="0"
       d="m 112.34681,67.694316 a 37.726397,39.899501 0 0 1 -75.452794,0 37.726397,39.899501 0 1 1 75.452794,0 z"
       style="fill:#ff6600;fill-opacity:1;fill-rule:nonzero;stroke:#740000;stroke-width:2.6853416;stroke-linecap:butt;stroke-linejoin:round;stroke-miterlimit:4;stroke-opacity:1;stroke-dasharray:none;stroke-dashoffset:0"
       id="path1873" />
    <path
       inkscape:connector-curvature="0"
       d="m 95.469679,51.522678 a 22.282154,18.778872 0 0 1 -44.564308,0 22.282154,18.778872 0 1 1 44.564308,0 z"
       style="fill:url(#linearGradient3843);fill-opacity:1;fill-rule:nonzero;stroke:none"
       id="path2814" />
  </g>
  <g
     id="g3097"
     transform="matrix(0.02992585,0,0,0.02992585,8.5084746,8.5762712)">
    <rect
       width="256"
       height="256"
       x="0"
       y="0"
       style="fill:none"
       id="_x3C_Slice_x3E_" />
    <g
       transform="matrix(1.6892148,0,0,1.6892148,-187.28783,-186.20308)"
       id="g169"
       style="stroke:#000000">
      <path
         id="path170"
         style="opacity:0.2;stroke:none"
         d="m 175.822,131.428 c 0,0 0,16.447 0,27.528 -7.835,-7.835 -19.465,-19.466 -19.465,-19.466 -4.65,-4.65 -12.217,-4.65 -16.868,0 -2.253,2.253 -3.493,5.248 -3.493,8.435 0,3.186 1.24,6.181 3.493,8.434 0,0 11.63,11.63 19.465,19.465 -11.081,0 -27.526,0 -27.526,0 -6.577,0 -11.928,5.35 -11.928,11.927 0,6.577 5.351,11.927 11.928,11.927 0,0 16.447,0 27.527,0 -7.835,7.835 -19.465,19.467 -19.465,19.467 -2.326,2.325 -3.488,5.379 -3.488,8.433 0,3.055 1.162,6.108 3.488,8.434 2.252,2.253 5.248,3.494 8.434,3.494 3.186,0 6.181,-1.241 8.434,-3.494 0,0 11.63,-11.629 19.465,-19.464 0,11.079 0,27.527 0,27.527 0,6.576 5.352,11.927 11.928,11.927 6.576,0 11.928,-5.351 11.928,-11.927 0,0 0,-16.447 0,-27.527 7.835,7.835 19.465,19.464 19.465,19.464 2.252,2.253 5.248,3.494 8.434,3.494 3.186,0 6.181,-1.241 8.434,-3.494 2.252,-2.252 3.493,-5.247 3.493,-8.434 0,-3.186 -1.241,-6.181 -3.493,-8.434 0,0 -11.631,-11.631 -19.466,-19.466 11.081,0 27.528,0 27.528,0 6.577,0 11.928,-5.35 11.928,-11.927 0,-6.577 -5.351,-11.927 -11.928,-11.927 0,0 -16.446,0 -27.527,0 7.836,-7.835 19.465,-19.465 19.465,-19.465 2.326,-2.325 3.488,-5.38 3.488,-8.434 0,-3.055 -1.162,-6.109 -3.488,-8.435 -4.65,-4.65 -12.217,-4.65 -16.867,0 0,0 -11.63,11.63 -19.465,19.465 0,-11.08 0,-27.527 0,-27.527 0,-6.577 -5.352,-11.928 -11.928,-11.928 -6.576,0 -11.93,5.351 -11.93,11.928 z"
         inkscape:connector-curvature="0" />
      <path
         id="path171"
         style="fill:#e65c00;stroke:none"
         d="m 173.822,129.428 c 0,0 0,16.447 0,27.528 -7.835,-7.835 -19.465,-19.466 -19.465,-19.466 -4.65,-4.65 -12.217,-4.65 -16.868,0 -2.253,2.253 -3.493,5.248 -3.493,8.435 0,3.186 1.24,6.181 3.493,8.434 0,0 11.63,11.63 19.465,19.465 -11.081,0 -27.526,0 -27.526,0 -6.577,0 -11.928,5.35 -11.928,11.927 0,6.577 5.351,11.927 11.928,11.927 0,0 16.447,0 27.527,0 -7.835,7.835 -19.465,19.467 -19.465,19.467 -2.326,2.325 -3.488,5.379 -3.488,8.433 0,3.055 1.162,6.108 3.488,8.434 2.252,2.253 5.248,3.494 8.434,3.494 3.186,0 6.181,-1.241 8.434,-3.494 0,0 11.63,-11.629 19.465,-19.464 0,11.079 0,27.527 0,27.527 0,6.576 5.352,11.927 11.928,11.927 6.576,0 11.928,-5.351 11.928,-11.927 0,0 0,-16.447 0,-27.527 7.835,7.835 19.465,19.464 19.465,19.464 2.252,2.253 5.248,3.494 8.434,3.494 3.186,0 6.181,-1.241 8.434,-3.494 2.252,-2.252 3.493,-5.247 3.493,-8.434 0,-3.186 -1.241,-6.181 -3.493,-8.434 0,0 -11.631,-11.631 -19.466,-19.466 11.081,0 27.528,0 27.528,0 6.577,0 11.928,-5.35 11.928,-11.927 0,-6.577 -5.351,-11.927 -11.928,-11.927 0,0 -16.446,0 -27.527,0 7.836,-7.835 19.465,-19.465 19.465,-19.465 2.326,-2.325 3.488,-5.38 3.488,-8.434 0,-3.055 -1.162,-6.109 -3.488,-8.435 -4.65,-4.65 -12.217,-4.65 -16.867,0 0,0 -11.63,11.63 -19.465,19.465 0,-11.08 0,-27.527 0,-27.527 0,-6.577 -5.352,-11.928 -11.928,-11.928 -6.576,0 -11.93,5.351 -11.93,11.928 z"
         inkscape:connector-curvature="0" />
      <linearGradient
         gradientUnits="userSpaceOnUse"
         id="linearGradient5966"
         y2="185.75"
         x2="249.582"
         y1="185.75"
         x1="121.918">
        <stop
           id="stop5968"
           offset="0"
           style="stop-color:#ffff66;stop-opacity:1" />
        <stop
           id="stop5970"
           offset="1"
           style="stop-color:#ffcc66;stop-opacity:1" />
      </linearGradient>
      <path
         id="path178"
         style="fill:url(#XMLID_2_);stroke:none"
         d="m 242.072,178.24 -38.191,0 27.006,-27.006 c 2.932,-2.933 2.932,-7.688 0,-10.62 -2.934,-2.933 -7.688,-2.933 -10.621,0 l -27.006,27.006 0,-38.192 c 0,-4.148 -3.362,-7.51 -7.51,-7.51 -4.148,0 -7.51,3.362 -7.51,7.51 l 0,38.193 -27.006,-27.007 c -2.934,-2.933 -7.688,-2.933 -10.621,0 -2.933,2.933 -2.933,7.688 0,10.62 l 27.006,27.006 -38.191,0 c -4.148,0 -7.51,3.362 -7.51,7.51 0,4.148 3.361,7.51 7.51,7.51 l 38.193,0 -27.008,27.007 c -2.932,2.933 -2.932,7.688 0,10.62 2.934,2.933 7.688,2.933 10.621,0 l 27.006,-27.006 0,38.192 c 0,4.147 3.362,7.509 7.51,7.509 4.148,0 7.51,-3.361 7.51,-7.509 l 0,-38.192 27.006,27.006 c 2.933,2.933 7.688,2.933 10.62,0 2.932,-2.933 2.933,-7.688 0,-10.62 l -27.007,-27.007 38.193,0 c 4.148,0 7.51,-3.362 7.51,-7.51 0,-4.148 -3.361,-7.51 -7.51,-7.51 z"
         inkscape:connector-curvature="0" />
      <path
         id="path179"
         style="fill:#ffff99;stroke:none"
         d="m 180.891,129.428 0,44.593 -31.531,-31.532 c -1.895,-1.895 -4.978,-1.895 -6.872,0 -0.917,0.918 -1.423,2.139 -1.423,3.437 0,1.298 0.506,2.518 1.423,3.436 l 31.53,31.53 -44.59,0 c -2.68,0 -4.859,2.181 -4.859,4.859 0,2.68 2.18,4.859 4.859,4.859 l 44.592,0 -31.531,31.531 c -1.895,1.895 -1.895,4.978 0,6.872 0.918,0.917 2.137,1.423 3.436,1.423 1.298,0 2.518,-0.506 3.436,-1.423 l 31.531,-31.53 0,44.591 c 0,2.68 2.18,4.858 4.859,4.858 2.679,0 4.859,-2.179 4.859,-4.858 l 0,-44.591 31.53,31.53 c 0.918,0.917 2.138,1.423 3.437,1.423 1.298,0 2.518,-0.506 3.436,-1.423 0.918,-0.918 1.424,-2.138 1.424,-3.437 0,-1.298 -0.506,-2.518 -1.424,-3.436 l -31.531,-31.531 44.592,0 c 2.68,0 4.859,-2.18 4.859,-4.859 0,-2.679 -2.18,-4.859 -4.859,-4.859 l -44.59,0 31.529,-31.53 c 1.895,-1.895 1.896,-4.978 0,-6.872 -1.895,-1.895 -4.977,-1.895 -6.872,0 l -31.53,31.53 0,-44.591 c 0,-2.68 -2.18,-4.86 -4.859,-4.86 -2.679,0 -4.861,2.18 -4.861,4.86 z"
         inkscape:connector-curvature="0" />
    </g>
  </g>
</svg>
