<svg xmlns="http://www.w3.org/2000/svg" xmlns:xlink="http://www.w3.org/1999/xlink" width="48" height="48"><defs><linearGradient id="a"><stop offset="0" style="stop-color:#fff;stop-opacity:1"/><stop offset="1" style="stop-color:#fff;stop-opacity:0"/></linearGradient><linearGradient xlink:href="#a" id="h" x1="62.746" x2="62.609" y1="-13.445" y2="7.107" gradientTransform="matrix(2.344 0 0 2.344 -121.799 31.23)" gradientUnits="userSpaceOnUse"/><linearGradient id="b"><stop offset="0" style="stop-color:#a40000;stop-opacity:1"/><stop offset="1" style="stop-color:#c22f2f;stop-opacity:1"/></linearGradient><linearGradient xlink:href="#b" id="g" x1="15.047" x2="15.047" y1="44.788" y2="3.885" gradientTransform="matrix(1.08053 0 0 1.0805 -1.508 -3.35)" gradientUnits="userSpaceOnUse"/><linearGradient id="c"><stop offset="0" style="stop-color:#e78181;stop-opacity:1"/><stop offset=".253" style="stop-color:#e15f5f;stop-opacity:1"/><stop offset=".683" style="stop-color:#c22f2f;stop-opacity:1"/><stop offset="1" style="stop-color:#a40000;stop-opacity:1"/></linearGradient><linearGradient id="d"><stop offset="0" style="stop-color:#000;stop-opacity:1"/><stop offset="1" style="stop-color:#000;stop-opacity:0"/></linearGradient><radialGradient xlink:href="#c" id="f" cx="62.202" cy="-5.713" r="9.755" fx="62.202" fy="-5.713" gradientTransform="matrix(-7.56578 0 0 -4.82305 494.609 -26.555)" gradientUnits="userSpaceOnUse"/><radialGradient xlink:href="#d" id="e" cx="6.703" cy="73.616" r="7.228" fx="6.703" fy="73.616" gradientTransform="scale(1.90221 .5257)" gradientUnits="userSpaceOnUse"/></defs><path d="M26.5 38.7a13.75 3.8 0 1 1-27.5 0 13.75 3.8 0 1 1 27.5 0z" style="opacity:.5;fill:url(#e);fill-opacity:1;fill-rule:nonzero;stroke:none;stroke-width:.80000001;stroke-linecap:butt;stroke-linejoin:miter;marker:none;marker-start:none;marker-mid:none;marker-end:none;stroke-miterlimit:4;stroke-dashoffset:0;stroke-opacity:1;visibility:visible;display:inline;overflow:visible" transform="matrix(1.6 0 0 1.8421 3.6 -30.29)"/><path d="M45.5 23c0 11.874-9.627 21.5-21.5 21.5-11.874 0-21.5-9.626-21.5-21.5C2.5 11.124 12.126 1.5 24 1.5c11.873 0 21.5 9.625 21.5 21.5z" style="fill:url(#f);fill-opacity:1;fill-rule:nonzero;stroke:url(#g);stroke-width:1.00004065;stroke-miterlimit:4;stroke-dasharray:none"/><path d="M44.499 23c0 11.321-9.179 20.5-20.5 20.5C12.68 43.5 3.5 34.321 3.5 23 3.5 11.677 12.678 2.5 24 2.5c11.32 0 20.499 9.178 20.499 20.5z" style="opacity:.6;fill:none;fill-opacity:1;fill-rule:nonzero;stroke:url(#h);stroke-width:1.00004995;stroke-miterlimit:4;stroke-dasharray:none;stroke-opacity:1"/><path d="M16.472 11 13 14.472l7.163 7.126c.22.223.22.581 0 .804L13 29.528 16.472 33l7.126-7.126a.572.572 0 0 1 .804 0L31.528 33 35 29.528l-7.126-7.126a.572.572 0 0 1 0-.804L35 14.472 31.528 11l-7.126 7.126a.572.572 0 0 1-.804 0L16.472 11z" style="opacity:.2;fill:#000;fill-opacity:1;fill-rule:evenodd;stroke:none;stroke-width:1;stroke-linecap:round;stroke-linejoin:round;stroke-miterlimit:4;stroke-dasharray:none;stroke-opacity:1"/><path d="M16.472 12 13 15.472l7.163 7.126c.22.223.22.581 0 .804L13 30.528 16.472 34l7.126-7.126a.572.572 0 0 1 .804 0L31.528 34 35 30.528l-7.126-7.126a.572.572 0 0 1 0-.804L35 15.472 31.528 12l-7.126 7.126a.572.572 0 0 1-.804 0L16.472 12z" style="fill:#fff;fill-opacity:1;fill-rule:evenodd;stroke:none;stroke-width:1;stroke-linecap:round;stroke-linejoin:round;stroke-miterlimit:4;stroke-dasharray:none;stroke-opacity:1"/></svg>