<?xml version="1.0" encoding="UTF-8" standalone="no"?>
<svg
   xmlns:dc="http://purl.org/dc/elements/1.1/"
   xmlns:cc="http://creativecommons.org/ns#"
   xmlns:rdf="http://www.w3.org/1999/02/22-rdf-syntax-ns#"
   xmlns:svg="http://www.w3.org/2000/svg"
   xmlns="http://www.w3.org/2000/svg"
   xmlns:xlink="http://www.w3.org/1999/xlink"
   xmlns:sodipodi="http://sodipodi.sourceforge.net/DTD/sodipodi-0.dtd"
   xmlns:inkscape="http://www.inkscape.org/namespaces/inkscape"
   version="1.1"
   width="128"
   height="128"
   viewBox="0 0 128 128"
   overflow="visible"
   enable-background="new 0 0 128 128"
   xml:space="preserve"
   id="svg2"
   inkscape:version="0.48.4 r9939"
   sodipodi:docname="focus.svg"><metadata
     id="metadata72"><rdf:RDF><cc:Work
         rdf:about=""><dc:format>image/svg+xml</dc:format><dc:type
           rdf:resource="http://purl.org/dc/dcmitype/StillImage" /><dc:title /></cc:Work></rdf:RDF></metadata><defs
     id="defs70"><inkscape:perspective
       sodipodi:type="inkscape:persp3d"
       inkscape:vp_x="0 : 64 : 1"
       inkscape:vp_y="0 : 1000 : 0"
       inkscape:vp_z="128 : 64 : 1"
       inkscape:persp3d-origin="64 : 42.666667 : 1"
       id="perspective74" /><linearGradient
       inkscape:collect="always"
       xlink:href="#XMLID_9_"
       id="linearGradient2888"
       gradientUnits="userSpaceOnUse"
       gradientTransform="matrix(0,-1,-1,0,1146.8999,1120.8999)"
       x1="1065.3569"
       y1="1144.3633"
       x2="1052.8583"
       y2="1035.8748" /><linearGradient
       inkscape:collect="always"
       xlink:href="#XMLID_10_"
       id="linearGradient2890"
       gradientUnits="userSpaceOnUse"
       gradientTransform="matrix(0,-1,-1,0,1146.8999,1120.8999)"
       x1="1067.9409"
       y1="1089.166"
       x2="1034.4413"
       y2="1100.4159" /><linearGradient
       inkscape:collect="always"
       xlink:href="#XMLID_11_"
       id="linearGradient2892"
       gradientUnits="userSpaceOnUse"
       gradientTransform="matrix(-1,0,0,1,1233.999,0)"
       x1="1186.144"
       y1="37.4331"
       x2="1204.1443"
       y2="93.1007" /><linearGradient
       inkscape:collect="always"
       xlink:href="#XMLID_12_"
       id="linearGradient2894"
       gradientUnits="userSpaceOnUse"
       gradientTransform="matrix(0,-1,-1,0,1146.8999,1120.8999)"
       x1="1088.7104"
       y1="1108.3965"
       x2="1052.4604"
       y2="1091.1465" /><linearGradient
       inkscape:collect="always"
       xlink:href="#XMLID_9_"
       id="linearGradient3031"
       gradientUnits="userSpaceOnUse"
       gradientTransform="matrix(0,-1,-1,0,1146.8999,1120.8999)"
       x1="1065.3569"
       y1="1144.3633"
       x2="1052.8583"
       y2="1035.8748" /><linearGradient
       inkscape:collect="always"
       xlink:href="#XMLID_10_"
       id="linearGradient3033"
       gradientUnits="userSpaceOnUse"
       gradientTransform="matrix(0,-1,-1,0,1146.8999,1120.8999)"
       x1="1067.9409"
       y1="1089.166"
       x2="1034.4413"
       y2="1100.4159" /><linearGradient
       inkscape:collect="always"
       xlink:href="#XMLID_11_"
       id="linearGradient3035"
       gradientUnits="userSpaceOnUse"
       gradientTransform="matrix(-1,0,0,1,1233.999,0)"
       x1="1186.144"
       y1="37.4331"
       x2="1204.1443"
       y2="93.1007" /><linearGradient
       inkscape:collect="always"
       xlink:href="#XMLID_12_"
       id="linearGradient3037"
       gradientUnits="userSpaceOnUse"
       gradientTransform="matrix(0,-1,-1,0,1146.8999,1120.8999)"
       x1="1088.7104"
       y1="1108.3965"
       x2="1052.4604"
       y2="1091.1465" /><linearGradient
       inkscape:collect="always"
       xlink:href="#XMLID_9_"
       id="linearGradient3053"
       gradientUnits="userSpaceOnUse"
       gradientTransform="matrix(0,-1,-1,0,1146.8999,1120.8999)"
       x1="1065.3569"
       y1="1144.3633"
       x2="1052.8583"
       y2="1035.8748" /><linearGradient
       inkscape:collect="always"
       xlink:href="#XMLID_10_"
       id="linearGradient3055"
       gradientUnits="userSpaceOnUse"
       gradientTransform="matrix(0,-1,-1,0,1146.8999,1120.8999)"
       x1="1067.9409"
       y1="1089.166"
       x2="1034.4413"
       y2="1100.4159" /><linearGradient
       inkscape:collect="always"
       xlink:href="#XMLID_11_"
       id="linearGradient3057"
       gradientUnits="userSpaceOnUse"
       gradientTransform="matrix(-1,0,0,1,1233.999,0)"
       x1="1186.144"
       y1="37.4331"
       x2="1204.1443"
       y2="93.1007" /><linearGradient
       inkscape:collect="always"
       xlink:href="#XMLID_12_"
       id="linearGradient3059"
       gradientUnits="userSpaceOnUse"
       gradientTransform="matrix(0,-1,-1,0,1146.8999,1120.8999)"
       x1="1088.7104"
       y1="1108.3965"
       x2="1052.4604"
       y2="1091.1465" /><linearGradient
       inkscape:collect="always"
       xlink:href="#XMLID_9_"
       id="linearGradient3075"
       gradientUnits="userSpaceOnUse"
       gradientTransform="matrix(0,-1,-1,0,1146.8999,1120.8999)"
       x1="1065.3569"
       y1="1144.3633"
       x2="1052.8583"
       y2="1035.8748" /><linearGradient
       inkscape:collect="always"
       xlink:href="#XMLID_10_"
       id="linearGradient3077"
       gradientUnits="userSpaceOnUse"
       gradientTransform="matrix(0,-1,-1,0,1146.8999,1120.8999)"
       x1="1067.9409"
       y1="1089.166"
       x2="1034.4413"
       y2="1100.4159" /><linearGradient
       inkscape:collect="always"
       xlink:href="#XMLID_11_"
       id="linearGradient3079"
       gradientUnits="userSpaceOnUse"
       gradientTransform="matrix(-1,0,0,1,1233.999,0)"
       x1="1186.144"
       y1="37.4331"
       x2="1204.1443"
       y2="93.1007" /><linearGradient
       inkscape:collect="always"
       xlink:href="#XMLID_12_"
       id="linearGradient3081"
       gradientUnits="userSpaceOnUse"
       gradientTransform="matrix(0,-1,-1,0,1146.8999,1120.8999)"
       x1="1088.7104"
       y1="1108.3965"
       x2="1052.4604"
       y2="1091.1465" /></defs><sodipodi:namedview
     pagecolor="#ffffff"
     bordercolor="#666666"
     borderopacity="1"
     objecttolerance="10"
     gridtolerance="10"
     guidetolerance="10"
     inkscape:pageopacity="0"
     inkscape:pageshadow="2"
     inkscape:window-width="1867"
     inkscape:window-height="1176"
     id="namedview68"
     showgrid="false"
     inkscape:zoom="5.3695921"
     inkscape:cx="64"
     inkscape:cy="64"
     inkscape:window-x="53"
     inkscape:window-y="24"
     inkscape:window-maximized="1"
     inkscape:current-layer="svg2" /><linearGradient
     id="XMLID_9_"
     gradientUnits="userSpaceOnUse"
     x1="1065.3569"
     y1="1144.3633"
     x2="1052.8583"
     y2="1035.8748"
     gradientTransform="matrix(0 -1 -1 0 1146.8999 1120.8999)"><stop
       offset="0"
       style="stop-color:#D15F00"
       id="stop9" /><stop
       offset="1"
       style="stop-color:#D96E00"
       id="stop11" /></linearGradient><linearGradient
     id="XMLID_10_"
     gradientUnits="userSpaceOnUse"
     x1="1067.9409"
     y1="1089.166"
     x2="1034.4413"
     y2="1100.4159"
     gradientTransform="matrix(0 -1 -1 0 1146.8999 1120.8999)"><stop
       offset="0"
       style="stop-color:#ED7C00"
       id="stop16" /><stop
       offset="1"
       style="stop-color:#F89000"
       id="stop18" /></linearGradient><linearGradient
     id="XMLID_11_"
     gradientUnits="userSpaceOnUse"
     x1="1186.144"
     y1="37.4331"
     x2="1204.1443"
     y2="93.1007"
     gradientTransform="matrix(-1 0 0 1 1233.999 0)"><stop
       offset="0"
       style="stop-color:#ED7C00"
       id="stop23" /><stop
       offset="1"
       style="stop-color:#FFA000"
       id="stop25" /></linearGradient><linearGradient
     id="XMLID_12_"
     gradientUnits="userSpaceOnUse"
     x1="1088.7104"
     y1="1108.3965"
     x2="1052.4604"
     y2="1091.1465"
     gradientTransform="matrix(0 -1 -1 0 1146.8999 1120.8999)"><stop
       offset="0"
       style="stop-color:#FABD8C"
       id="stop30" /><stop
       offset="1"
       style="stop-color:#F8A039"
       id="stop32" /></linearGradient><g
     id="g2880"
     transform="matrix(0.38852346,0.39564568,-0.44454538,0.4576835,36.51405,-20.574353)"
     inkscape:export-filename="/home/bbou/Desktop/go16.png"
     inkscape:export-xdpi="14.903112"
     inkscape:export-ydpi="14.903112"><path
       id="path4"
       d="m 112.816,65.314 -45,45 c -0.574,0.575 -1.43,0.745 -2.18,0.434 -0.75,-0.31 -1.237,-1.035 -1.237,-1.848 0,0 0,-23.15 0,-25 -1.936,0 -61,0 -61,0 -1.103,0 -2,-0.897 -2,-2 V 46 c 0,-1.103 0.897,-2 2,-2 0,0 59.064,0 61,0 0,-1.85 0,-25.1 0,-25.1 0,-0.813 0.487,-1.538 1.239,-1.848 0.002,-0.002 0.764,-0.152 0.764,-0.152 0.535,0 1.037,0.208 1.414,0.586 l 45,45 c 0.78,0.78 0.78,2.049 0,2.828 z"
       style="opacity:0.2"
       inkscape:connector-curvature="0" /><path
       id="path6"
       d="m 112.109,64.607 -45,45 c -0.285,0.286 -0.716,0.372 -1.09,0.217 -0.373,-0.154 -0.617,-0.52 -0.617,-0.924 0,0 0,-24.146 0,-26 -1.939,0 -62.003,0 -62.003,0 -0.552,0 -1,-0.447 -1,-1 V 46 c 0,-0.553 0.448,-1 1,-1 0,0 60.063,0 62.003,0 0,-1.854 0,-26.1 0,-26.1 0,-0.404 0.244,-0.77 0.617,-0.924 0.125,-0.051 0.254,-0.076 0.383,-0.076 0.261,0 0.516,0.102 0.707,0.293 l 45,45 c 0.391,0.391 0.391,1.024 0,1.414 z"
       style="opacity:0.2"
       inkscape:connector-curvature="0" /><path
       id="path13"
       d="m 112.109,63.607 -45,45 c -0.285,0.286 -0.716,0.372 -1.09,0.217 -0.373,-0.154 -0.617,-0.52 -0.617,-0.924 0,0 0,-24.146 0,-26 -1.939,0 -62.003,0 -62.003,0 -0.552,0 -1,-0.447 -1,-1 V 45 c 0,-0.553 0.448,-1 1,-1 0,0 60.063,0 62.003,0 0,-1.854 0,-26.1 0,-26.1 0,-0.404 0.244,-0.77 0.617,-0.924 0.125,-0.051 0.254,-0.076 0.383,-0.076 0.261,0 0.516,0.102 0.707,0.293 l 45,45 c 0.391,0.391 0.391,1.024 0,1.414 z"
       style="fill:url(#linearGradient2888)"
       inkscape:connector-curvature="0" /><polygon
       id="polygon20"
       points="3.399,80.9 3.399,45 66.402,45 66.402,17.9 111.402,62.9 66.402,107.9 66.402,80.9 "
       style="fill:url(#linearGradient2890)" /><path
       id="path27"
       d="m 66.402,44 h 1 V 18.9 l -1,-1 V 44 z M 3.399,45 v 35.9 h 63.003 v 27 l 1,-1 v -27 H 4.399 V 45 h -1 z"
       style="fill:url(#linearGradient2892)"
       inkscape:connector-curvature="0" /><path
       id="path34"
       d="M 59.909,68.053 C 83.903,63 111.402,62.9 111.402,62.9 l -45,-45 V 45 H 3.399 v 35.9 h 15.667 c 0,0 16.851,-7.795 40.843,-12.847 z"
       style="fill:url(#linearGradient2894)"
       inkscape:connector-curvature="0" /></g><linearGradient
     id="XMLID_13_"
     gradientUnits="userSpaceOnUse"
     x1="476.646"
     y1="-186.8867"
     x2="571.3139"
     y2="-188.5537"
     gradientTransform="matrix(0 -1 1 0 307.9995 579.9995)"><stop
       offset="0"
       style="stop-color:#D15F00"
       id="stop41" /><stop
       offset="1"
       style="stop-color:#D96E00"
       id="stop43" /></linearGradient><linearGradient
     id="XMLID_14_"
     gradientUnits="userSpaceOnUse"
     x1="471.7505"
     y1="-185.8018"
     x2="559.9184"
     y2="-189.3018"
     gradientTransform="matrix(0 -1 1 0 307.9995 579.9995)"><stop
       offset="0"
       style="stop-color:#ED7C00"
       id="stop48" /><stop
       offset="1"
       style="stop-color:#F89000"
       id="stop50" /></linearGradient><linearGradient
     id="XMLID_15_"
     gradientUnits="userSpaceOnUse"
     x1="521.7349"
     y1="-219.6787"
     x2="511.4856"
     y2="-142.6846"
     gradientTransform="matrix(0 -1 1 0 307.9995 579.9995)"><stop
       offset="0"
       style="stop-color:#ED7C00"
       id="stop55" /><stop
       offset="1"
       style="stop-color:#FFB700"
       id="stop57" /></linearGradient><linearGradient
     id="XMLID_16_"
     gradientUnits="userSpaceOnUse"
     x1="585.6167"
     y1="-210.9102"
     x2="517.6165"
     y2="-176.535"
     gradientTransform="matrix(0 -1 1 0 307.9995 579.9995)"><stop
       offset="0"
       style="stop-color:#FABD8C"
       id="stop62" /><stop
       offset="1"
       style="stop-color:#F8A039"
       id="stop64" /></linearGradient><g
     inkscape:export-ydpi="14.903112"
     inkscape:export-xdpi="14.903112"
     inkscape:export-filename="/home/bbou/Desktop/go16.png"
     transform="matrix(0.38852346,-0.39564568,-0.44454538,-0.4576835,36.141581,149.26528)"
     id="g3017"><path
       inkscape:connector-curvature="0"
       style="opacity:0.2"
       d="m 112.816,65.314 -45,45 c -0.574,0.575 -1.43,0.745 -2.18,0.434 -0.75,-0.31 -1.237,-1.035 -1.237,-1.848 0,0 0,-23.15 0,-25 -1.936,0 -61,0 -61,0 -1.103,0 -2,-0.897 -2,-2 V 46 c 0,-1.103 0.897,-2 2,-2 0,0 59.064,0 61,0 0,-1.85 0,-25.1 0,-25.1 0,-0.813 0.487,-1.538 1.239,-1.848 0.002,-0.002 0.764,-0.152 0.764,-0.152 0.535,0 1.037,0.208 1.414,0.586 l 45,45 c 0.78,0.78 0.78,2.049 0,2.828 z"
       id="path3019" /><path
       inkscape:connector-curvature="0"
       style="opacity:0.2"
       d="m 112.109,64.607 -45,45 c -0.285,0.286 -0.716,0.372 -1.09,0.217 -0.373,-0.154 -0.617,-0.52 -0.617,-0.924 0,0 0,-24.146 0,-26 -1.939,0 -62.003,0 -62.003,0 -0.552,0 -1,-0.447 -1,-1 V 46 c 0,-0.553 0.448,-1 1,-1 0,0 60.063,0 62.003,0 0,-1.854 0,-26.1 0,-26.1 0,-0.404 0.244,-0.77 0.617,-0.924 0.125,-0.051 0.254,-0.076 0.383,-0.076 0.261,0 0.516,0.102 0.707,0.293 l 45,45 c 0.391,0.391 0.391,1.024 0,1.414 z"
       id="path3021" /><path
       inkscape:connector-curvature="0"
       style="fill:url(#linearGradient3031)"
       d="m 112.109,63.607 -45,45 c -0.285,0.286 -0.716,0.372 -1.09,0.217 -0.373,-0.154 -0.617,-0.52 -0.617,-0.924 0,0 0,-24.146 0,-26 -1.939,0 -62.003,0 -62.003,0 -0.552,0 -1,-0.447 -1,-1 V 45 c 0,-0.553 0.448,-1 1,-1 0,0 60.063,0 62.003,0 0,-1.854 0,-26.1 0,-26.1 0,-0.404 0.244,-0.77 0.617,-0.924 0.125,-0.051 0.254,-0.076 0.383,-0.076 0.261,0 0.516,0.102 0.707,0.293 l 45,45 c 0.391,0.391 0.391,1.024 0,1.414 z"
       id="path3023" /><polygon
       style="fill:url(#linearGradient3033)"
       points="66.402,17.9 111.402,62.9 66.402,107.9 66.402,80.9 3.399,80.9 3.399,45 66.402,45 "
       id="polygon3025" /><path
       inkscape:connector-curvature="0"
       style="fill:url(#linearGradient3035)"
       d="m 66.402,44 h 1 V 18.9 l -1,-1 V 44 z M 3.399,45 v 35.9 h 63.003 v 27 l 1,-1 v -27 H 4.399 V 45 h -1 z"
       id="path3027" /><path
       inkscape:connector-curvature="0"
       style="fill:url(#linearGradient3037)"
       d="M 59.909,68.053 C 83.903,63 111.402,62.9 111.402,62.9 l -45,-45 V 45 H 3.399 v 35.9 h 15.667 c 0,0 16.851,-7.795 40.843,-12.847 z"
       id="path3029" /></g><g
     id="g3039"
     transform="matrix(-0.38852346,0.39564568,0.44454538,0.4576835,91.454866,-21.133062)"
     inkscape:export-filename="/home/bbou/Desktop/go16.png"
     inkscape:export-xdpi="14.903112"
     inkscape:export-ydpi="14.903112"><path
       id="path3041"
       d="m 112.816,65.314 -45,45 c -0.574,0.575 -1.43,0.745 -2.18,0.434 -0.75,-0.31 -1.237,-1.035 -1.237,-1.848 0,0 0,-23.15 0,-25 -1.936,0 -61,0 -61,0 -1.103,0 -2,-0.897 -2,-2 V 46 c 0,-1.103 0.897,-2 2,-2 0,0 59.064,0 61,0 0,-1.85 0,-25.1 0,-25.1 0,-0.813 0.487,-1.538 1.239,-1.848 0.002,-0.002 0.764,-0.152 0.764,-0.152 0.535,0 1.037,0.208 1.414,0.586 l 45,45 c 0.78,0.78 0.78,2.049 0,2.828 z"
       style="opacity:0.2"
       inkscape:connector-curvature="0" /><path
       id="path3043"
       d="m 112.109,64.607 -45,45 c -0.285,0.286 -0.716,0.372 -1.09,0.217 -0.373,-0.154 -0.617,-0.52 -0.617,-0.924 0,0 0,-24.146 0,-26 -1.939,0 -62.003,0 -62.003,0 -0.552,0 -1,-0.447 -1,-1 V 46 c 0,-0.553 0.448,-1 1,-1 0,0 60.063,0 62.003,0 0,-1.854 0,-26.1 0,-26.1 0,-0.404 0.244,-0.77 0.617,-0.924 0.125,-0.051 0.254,-0.076 0.383,-0.076 0.261,0 0.516,0.102 0.707,0.293 l 45,45 c 0.391,0.391 0.391,1.024 0,1.414 z"
       style="opacity:0.2"
       inkscape:connector-curvature="0" /><path
       id="path3045"
       d="m 112.109,63.607 -45,45 c -0.285,0.286 -0.716,0.372 -1.09,0.217 -0.373,-0.154 -0.617,-0.52 -0.617,-0.924 0,0 0,-24.146 0,-26 -1.939,0 -62.003,0 -62.003,0 -0.552,0 -1,-0.447 -1,-1 V 45 c 0,-0.553 0.448,-1 1,-1 0,0 60.063,0 62.003,0 0,-1.854 0,-26.1 0,-26.1 0,-0.404 0.244,-0.77 0.617,-0.924 0.125,-0.051 0.254,-0.076 0.383,-0.076 0.261,0 0.516,0.102 0.707,0.293 l 45,45 c 0.391,0.391 0.391,1.024 0,1.414 z"
       style="fill:url(#linearGradient3053)"
       inkscape:connector-curvature="0" /><polygon
       id="polygon3047"
       points="3.399,80.9 3.399,45 66.402,45 66.402,17.9 111.402,62.9 66.402,107.9 66.402,80.9 "
       style="fill:url(#linearGradient3055)" /><path
       id="path3049"
       d="m 66.402,44 h 1 V 18.9 l -1,-1 V 44 z M 3.399,45 v 35.9 h 63.003 v 27 l 1,-1 v -27 H 4.399 V 45 h -1 z"
       style="fill:url(#linearGradient3057)"
       inkscape:connector-curvature="0" /><path
       id="path3051"
       d="M 59.909,68.053 C 83.903,63 111.402,62.9 111.402,62.9 l -45,-45 V 45 H 3.399 v 35.9 h 15.667 c 0,0 16.851,-7.795 40.843,-12.847 z"
       style="fill:url(#linearGradient3059)"
       inkscape:connector-curvature="0" /></g><g
     inkscape:export-ydpi="14.903112"
     inkscape:export-xdpi="14.903112"
     inkscape:export-filename="/home/bbou/Desktop/go16.png"
     transform="matrix(-0.38852346,-0.39564568,0.44454538,-0.4576835,92.013568,149.07904)"
     id="g3061"><path
       inkscape:connector-curvature="0"
       style="opacity:0.2"
       d="m 112.816,65.314 -45,45 c -0.574,0.575 -1.43,0.745 -2.18,0.434 -0.75,-0.31 -1.237,-1.035 -1.237,-1.848 0,0 0,-23.15 0,-25 -1.936,0 -61,0 -61,0 -1.103,0 -2,-0.897 -2,-2 V 46 c 0,-1.103 0.897,-2 2,-2 0,0 59.064,0 61,0 0,-1.85 0,-25.1 0,-25.1 0,-0.813 0.487,-1.538 1.239,-1.848 0.002,-0.002 0.764,-0.152 0.764,-0.152 0.535,0 1.037,0.208 1.414,0.586 l 45,45 c 0.78,0.78 0.78,2.049 0,2.828 z"
       id="path3063" /><path
       inkscape:connector-curvature="0"
       style="opacity:0.2"
       d="m 112.109,64.607 -45,45 c -0.285,0.286 -0.716,0.372 -1.09,0.217 -0.373,-0.154 -0.617,-0.52 -0.617,-0.924 0,0 0,-24.146 0,-26 -1.939,0 -62.003,0 -62.003,0 -0.552,0 -1,-0.447 -1,-1 V 46 c 0,-0.553 0.448,-1 1,-1 0,0 60.063,0 62.003,0 0,-1.854 0,-26.1 0,-26.1 0,-0.404 0.244,-0.77 0.617,-0.924 0.125,-0.051 0.254,-0.076 0.383,-0.076 0.261,0 0.516,0.102 0.707,0.293 l 45,45 c 0.391,0.391 0.391,1.024 0,1.414 z"
       id="path3065" /><path
       inkscape:connector-curvature="0"
       style="fill:url(#linearGradient3075)"
       d="m 112.109,63.607 -45,45 c -0.285,0.286 -0.716,0.372 -1.09,0.217 -0.373,-0.154 -0.617,-0.52 -0.617,-0.924 0,0 0,-24.146 0,-26 -1.939,0 -62.003,0 -62.003,0 -0.552,0 -1,-0.447 -1,-1 V 45 c 0,-0.553 0.448,-1 1,-1 0,0 60.063,0 62.003,0 0,-1.854 0,-26.1 0,-26.1 0,-0.404 0.244,-0.77 0.617,-0.924 0.125,-0.051 0.254,-0.076 0.383,-0.076 0.261,0 0.516,0.102 0.707,0.293 l 45,45 c 0.391,0.391 0.391,1.024 0,1.414 z"
       id="path3067" /><polygon
       style="fill:url(#linearGradient3077)"
       points="66.402,17.9 111.402,62.9 66.402,107.9 66.402,80.9 3.399,80.9 3.399,45 66.402,45 "
       id="polygon3069" /><path
       inkscape:connector-curvature="0"
       style="fill:url(#linearGradient3079)"
       d="m 66.402,44 h 1 V 18.9 l -1,-1 V 44 z M 3.399,45 v 35.9 h 63.003 v 27 l 1,-1 v -27 H 4.399 V 45 h -1 z"
       id="path3071" /><path
       inkscape:connector-curvature="0"
       style="fill:url(#linearGradient3081)"
       d="M 59.909,68.053 C 83.903,63 111.402,62.9 111.402,62.9 l -45,-45 V 45 H 3.399 v 35.9 h 15.667 c 0,0 16.851,-7.795 40.843,-12.847 z"
       id="path3073" /></g></svg>