<svg xmlns="http://www.w3.org/2000/svg" xmlns:xlink="http://www.w3.org/1999/xlink" xml:space="preserve" width="128" height="128" overflow="visible"><defs><linearGradient xlink:href="#a" id="e" x1="1065.357" x2="1052.858" y1="1144.363" y2="1035.875" gradientTransform="matrix(0 -1 -1 0 1146.9 1120.9)" gradientUnits="userSpaceOnUse"/><linearGradient xlink:href="#b" id="f" x1="1067.941" x2="1034.441" y1="1089.166" y2="1100.416" gradientTransform="matrix(0 -1 -1 0 1146.9 1120.9)" gradientUnits="userSpaceOnUse"/><linearGradient xlink:href="#c" id="g" x1="1186.144" x2="1204.144" y1="37.433" y2="93.101" gradientTransform="matrix(-1 0 0 1 1233.999 0)" gradientUnits="userSpaceOnUse"/><linearGradient xlink:href="#d" id="h" x1="1088.71" x2="1052.46" y1="1108.397" y2="1091.147" gradientTransform="matrix(0 -1 -1 0 1146.9 1120.9)" gradientUnits="userSpaceOnUse"/><linearGradient xlink:href="#a" id="i" x1="1065.357" x2="1052.858" y1="1144.363" y2="1035.875" gradientTransform="matrix(0 -1 -1 0 1146.9 1120.9)" gradientUnits="userSpaceOnUse"/><linearGradient xlink:href="#b" id="j" x1="1067.941" x2="1034.441" y1="1089.166" y2="1100.416" gradientTransform="matrix(0 -1 -1 0 1146.9 1120.9)" gradientUnits="userSpaceOnUse"/><linearGradient xlink:href="#c" id="k" x1="1186.144" x2="1204.144" y1="37.433" y2="93.101" gradientTransform="matrix(-1 0 0 1 1233.999 0)" gradientUnits="userSpaceOnUse"/><linearGradient xlink:href="#d" id="l" x1="1088.71" x2="1052.46" y1="1108.397" y2="1091.147" gradientTransform="matrix(0 -1 -1 0 1146.9 1120.9)" gradientUnits="userSpaceOnUse"/><linearGradient xlink:href="#a" id="m" x1="1065.357" x2="1052.858" y1="1144.363" y2="1035.875" gradientTransform="matrix(0 -1 -1 0 1146.9 1120.9)" gradientUnits="userSpaceOnUse"/><linearGradient xlink:href="#b" id="n" x1="1067.941" x2="1034.441" y1="1089.166" y2="1100.416" gradientTransform="matrix(0 -1 -1 0 1146.9 1120.9)" gradientUnits="userSpaceOnUse"/><linearGradient xlink:href="#c" id="o" x1="1186.144" x2="1204.144" y1="37.433" y2="93.101" gradientTransform="matrix(-1 0 0 1 1233.999 0)" gradientUnits="userSpaceOnUse"/><linearGradient xlink:href="#d" id="p" x1="1088.71" x2="1052.46" y1="1108.397" y2="1091.147" gradientTransform="matrix(0 -1 -1 0 1146.9 1120.9)" gradientUnits="userSpaceOnUse"/><linearGradient xlink:href="#a" id="q" x1="1065.357" x2="1052.858" y1="1144.363" y2="1035.875" gradientTransform="matrix(0 -1 -1 0 1146.9 1120.9)" gradientUnits="userSpaceOnUse"/><linearGradient xlink:href="#b" id="r" x1="1067.941" x2="1034.441" y1="1089.166" y2="1100.416" gradientTransform="matrix(0 -1 -1 0 1146.9 1120.9)" gradientUnits="userSpaceOnUse"/><linearGradient xlink:href="#c" id="s" x1="1186.144" x2="1204.144" y1="37.433" y2="93.101" gradientTransform="matrix(-1 0 0 1 1233.999 0)" gradientUnits="userSpaceOnUse"/><linearGradient xlink:href="#d" id="t" x1="1088.71" x2="1052.46" y1="1108.397" y2="1091.147" gradientTransform="matrix(0 -1 -1 0 1146.9 1120.9)" gradientUnits="userSpaceOnUse"/></defs><linearGradient id="a" x1="1065.357" x2="1052.858" y1="1144.363" y2="1035.875" gradientTransform="matrix(0 -1 -1 0 1146.9 1120.9)" gradientUnits="userSpaceOnUse"><stop offset="0" style="stop-color:#d15f00"/><stop offset="1" style="stop-color:#d96e00"/></linearGradient><linearGradient id="b" x1="1067.941" x2="1034.441" y1="1089.166" y2="1100.416" gradientTransform="matrix(0 -1 -1 0 1146.9 1120.9)" gradientUnits="userSpaceOnUse"><stop offset="0" style="stop-color:#ed7c00"/><stop offset="1" style="stop-color:#f89000"/></linearGradient><linearGradient id="c" x1="1186.144" x2="1204.144" y1="37.433" y2="93.101" gradientTransform="matrix(-1 0 0 1 1233.999 0)" gradientUnits="userSpaceOnUse"><stop offset="0" style="stop-color:#ed7c00"/><stop offset="1" style="stop-color:#ffa000"/></linearGradient><linearGradient id="d" x1="1088.71" x2="1052.46" y1="1108.397" y2="1091.147" gradientTransform="matrix(0 -1 -1 0 1146.9 1120.9)" gradientUnits="userSpaceOnUse"><stop offset="0" style="stop-color:#fabd8c"/><stop offset="1" style="stop-color:#f8a039"/></linearGradient><path d="m112.816 65.314-45 45a1.993 1.993 0 0 1-2.18.434 1.995 1.995 0 0 1-1.237-1.848v-25h-61c-1.103 0-2-.897-2-2V46c0-1.103.897-2 2-2h61V18.9c0-.813.487-1.538 1.239-1.848.002-.002.764-.152.764-.152.535 0 1.037.208 1.414.586l45 45c.78.78.78 2.049 0 2.828z" style="opacity:.2" transform="matrix(.38852 .39565 -.44455 .45768 36.514 -20.574)"/><path d="m112.109 64.607-45 45a1 1 0 0 1-1.707-.707v-26H3.399a1 1 0 0 1-1-1V46a1 1 0 0 1 1-1h62.003V18.9a1 1 0 0 1 1.707-.707l45 45a.999.999 0 0 1 0 1.414z" style="opacity:.2" transform="matrix(.38852 .39565 -.44455 .45768 36.514 -20.574)"/><path d="m112.109 63.607-45 45a1 1 0 0 1-1.707-.707v-26H3.399a1 1 0 0 1-1-1V45a1 1 0 0 1 1-1h62.003V17.9a1 1 0 0 1 1.707-.707l45 45a.999.999 0 0 1 0 1.414z" style="fill:url(#e)" transform="matrix(.38852 .39565 -.44455 .45768 36.514 -20.574)"/><path d="M3.399 80.9V45h63.003V17.9l45 45-45 45v-27z" style="fill:url(#f)" transform="matrix(.38852 .39565 -.44455 .45768 36.514 -20.574)"/><path d="M66.402 44h1V18.9l-1-1V44zM3.399 45v35.9h63.003v27l1-1v-27H4.399V45h-1z" style="fill:url(#g)" transform="matrix(.38852 .39565 -.44455 .45768 36.514 -20.574)"/><path d="M59.909 68.053C83.903 63 111.402 62.9 111.402 62.9l-45-45V45H3.399v35.9h15.667s16.851-7.795 40.843-12.847z" style="fill:url(#h)" transform="matrix(.38852 .39565 -.44455 .45768 36.514 -20.574)"/><path d="m112.816 65.314-45 45a1.993 1.993 0 0 1-2.18.434 1.995 1.995 0 0 1-1.237-1.848v-25h-61c-1.103 0-2-.897-2-2V46c0-1.103.897-2 2-2h61V18.9c0-.813.487-1.538 1.239-1.848.002-.002.764-.152.764-.152.535 0 1.037.208 1.414.586l45 45c.78.78.78 2.049 0 2.828z" style="opacity:.2" transform="matrix(.38852 -.39565 -.44455 -.45768 36.142 149.265)"/><path d="m112.109 64.607-45 45a1 1 0 0 1-1.707-.707v-26H3.399a1 1 0 0 1-1-1V46a1 1 0 0 1 1-1h62.003V18.9a1 1 0 0 1 1.707-.707l45 45a.999.999 0 0 1 0 1.414z" style="opacity:.2" transform="matrix(.38852 -.39565 -.44455 -.45768 36.142 149.265)"/><path d="m112.109 63.607-45 45a1 1 0 0 1-1.707-.707v-26H3.399a1 1 0 0 1-1-1V45a1 1 0 0 1 1-1h62.003V17.9a1 1 0 0 1 1.707-.707l45 45a.999.999 0 0 1 0 1.414z" style="fill:url(#i)" transform="matrix(.38852 -.39565 -.44455 -.45768 36.142 149.265)"/><path d="m66.402 17.9 45 45-45 45v-27H3.399V45h63.003z" style="fill:url(#j)" transform="matrix(.38852 -.39565 -.44455 -.45768 36.142 149.265)"/><path d="M66.402 44h1V18.9l-1-1V44zM3.399 45v35.9h63.003v27l1-1v-27H4.399V45h-1z" style="fill:url(#k)" transform="matrix(.38852 -.39565 -.44455 -.45768 36.142 149.265)"/><path d="M59.909 68.053C83.903 63 111.402 62.9 111.402 62.9l-45-45V45H3.399v35.9h15.667s16.851-7.795 40.843-12.847z" style="fill:url(#l)" transform="matrix(.38852 -.39565 -.44455 -.45768 36.142 149.265)"/><path d="m112.816 65.314-45 45a1.993 1.993 0 0 1-2.18.434 1.995 1.995 0 0 1-1.237-1.848v-25h-61c-1.103 0-2-.897-2-2V46c0-1.103.897-2 2-2h61V18.9c0-.813.487-1.538 1.239-1.848.002-.002.764-.152.764-.152.535 0 1.037.208 1.414.586l45 45c.78.78.78 2.049 0 2.828z" style="opacity:.2" transform="matrix(-.38852 .39565 .44455 .45768 91.455 -21.133)"/><path d="m112.109 64.607-45 45a1 1 0 0 1-1.707-.707v-26H3.399a1 1 0 0 1-1-1V46a1 1 0 0 1 1-1h62.003V18.9a1 1 0 0 1 1.707-.707l45 45a.999.999 0 0 1 0 1.414z" style="opacity:.2" transform="matrix(-.38852 .39565 .44455 .45768 91.455 -21.133)"/><path d="m112.109 63.607-45 45a1 1 0 0 1-1.707-.707v-26H3.399a1 1 0 0 1-1-1V45a1 1 0 0 1 1-1h62.003V17.9a1 1 0 0 1 1.707-.707l45 45a.999.999 0 0 1 0 1.414z" style="fill:url(#m)" transform="matrix(-.38852 .39565 .44455 .45768 91.455 -21.133)"/><path d="M3.399 80.9V45h63.003V17.9l45 45-45 45v-27z" style="fill:url(#n)" transform="matrix(-.38852 .39565 .44455 .45768 91.455 -21.133)"/><path d="M66.402 44h1V18.9l-1-1V44zM3.399 45v35.9h63.003v27l1-1v-27H4.399V45h-1z" style="fill:url(#o)" transform="matrix(-.38852 .39565 .44455 .45768 91.455 -21.133)"/><path d="M59.909 68.053C83.903 63 111.402 62.9 111.402 62.9l-45-45V45H3.399v35.9h15.667s16.851-7.795 40.843-12.847z" style="fill:url(#p)" transform="matrix(-.38852 .39565 .44455 .45768 91.455 -21.133)"/><path d="m112.816 65.314-45 45a1.993 1.993 0 0 1-2.18.434 1.995 1.995 0 0 1-1.237-1.848v-25h-61c-1.103 0-2-.897-2-2V46c0-1.103.897-2 2-2h61V18.9c0-.813.487-1.538 1.239-1.848.002-.002.764-.152.764-.152.535 0 1.037.208 1.414.586l45 45c.78.78.78 2.049 0 2.828z" style="opacity:.2" transform="matrix(-.38852 -.39565 .44455 -.45768 92.014 149.079)"/><path d="m112.109 64.607-45 45a1 1 0 0 1-1.707-.707v-26H3.399a1 1 0 0 1-1-1V46a1 1 0 0 1 1-1h62.003V18.9a1 1 0 0 1 1.707-.707l45 45a.999.999 0 0 1 0 1.414z" style="opacity:.2" transform="matrix(-.38852 -.39565 .44455 -.45768 92.014 149.079)"/><path d="m112.109 63.607-45 45a1 1 0 0 1-1.707-.707v-26H3.399a1 1 0 0 1-1-1V45a1 1 0 0 1 1-1h62.003V17.9a1 1 0 0 1 1.707-.707l45 45a.999.999 0 0 1 0 1.414z" style="fill:url(#q)" transform="matrix(-.38852 -.39565 .44455 -.45768 92.014 149.079)"/><path d="m66.402 17.9 45 45-45 45v-27H3.399V45h63.003z" style="fill:url(#r)" transform="matrix(-.38852 -.39565 .44455 -.45768 92.014 149.079)"/><path d="M66.402 44h1V18.9l-1-1V44zM3.399 45v35.9h63.003v27l1-1v-27H4.399V45h-1z" style="fill:url(#s)" transform="matrix(-.38852 -.39565 .44455 -.45768 92.014 149.079)"/><path d="M59.909 68.053C83.903 63 111.402 62.9 111.402 62.9l-45-45V45H3.399v35.9h15.667s16.851-7.795 40.843-12.847z" style="fill:url(#t)" transform="matrix(-.38852 -.39565 .44455 -.45768 92.014 149.079)"/></svg>