<svg xmlns="http://www.w3.org/2000/svg" xmlns:xlink="http://www.w3.org/1999/xlink" xml:space="preserve" width="480" height="480" version="1.0"><defs><radialGradient id="f" cx="240" cy="240" r="225" gradientUnits="userSpaceOnUse"><stop offset="0" stop-color="#0083ff" stop-opacity="0"/><stop offset="1" stop-color="#0054ff" stop-opacity=".412"/></radialGradient><radialGradient xlink:href="#a" id="d" cx="196.07" cy="167.5" r="240" gradientTransform="matrix(-.5679 -1.4348 1.4011 -.55456 -81.877 420.14)" gradientUnits="userSpaceOnUse"/><radialGradient xlink:href="#a" id="e" cx="240" cy="240" r="240" gradientUnits="userSpaceOnUse"/><linearGradient id="a"><stop offset="0" stop-color="#fff" stop-opacity=".794"/><stop offset=".838" stop-color="#fff" stop-opacity="0"/><stop offset="1" stop-color="#fff" stop-opacity="0"/></linearGradient><linearGradient id="c" x1="27.401" x2="452.6" y1="311.83" y2="311.83" gradientTransform="translate(48.814 48.814)scale(.79661)" gradientUnits="userSpaceOnUse"><stop offset="0" stop-color="#0048cd"/><stop offset="1" stop-color="#002aa0"/></linearGradient><linearGradient id="b" x1="38.881" x2="441.12" y1="152.75" y2="152.75" gradientTransform="translate(48.814 48.814)scale(.79661)" gradientUnits="userSpaceOnUse"><stop offset="0" stop-color="#5e99dd"/><stop offset="1" stop-color="#0461c9"/></linearGradient></defs><path d="M240 48.814C134.577 48.814 48.814 134.577 48.814 240S134.577 431.186 240 431.186 431.186 345.423 431.186 240 345.423 48.814 240 48.814z" style="fill:#003fc0"/><path d="M419.237 240c0 98.835-80.402 179.237-179.237 179.237S60.763 338.835 60.763 240 141.165 60.763 240 60.763 419.237 141.165 419.237 240z" style="fill:#649efa"/><path d="M240 270.343c62.271 0 115.755-35.394 160.214-85.261C377.352 118.572 314.172 70.64 240 70.64S102.648 118.57 79.786 185.08c44.459 49.868 97.943 85.262 160.214 85.262z" style="fill:url(#b)"/><path d="M240 270.343c-62.271 0-115.755-35.394-160.214-85.261-5.921 17.23-9.145 35.704-9.145 54.918 0 93.387 75.972 169.36 169.36 169.36 93.387 0 169.36-75.973 169.36-169.36 0-19.214-3.227-37.688-9.146-54.918-44.459 49.867-97.943 85.26-160.214 85.26z" style="fill:url(#c)"/><path d="M465 240c0 124.07-100.93 225-225 225S15 364.07 15 240 115.93 15 240 15s225 100.93 225 225z" style="fill:url(#d);fill-rule:evenodd" transform="translate(48.814 48.814)scale(.79661)"/><path d="M240 0C107.66 0 0 107.66 0 240s107.66 240 240 240 240-107.66 240-240S372.34 0 240 0z" style="fill:url(#e);fill-rule:evenodd" transform="translate(48.814 48.814)scale(.79661)"/><path d="M465 240c0 124.07-100.93 225-225 225S15 364.07 15 240 115.93 15 240 15s225 100.93 225 225z" style="fill:url(#f);fill-rule:evenodd" transform="translate(48.814 48.814)scale(.79661)"/><g style="stroke:#0064d4;stroke-width:1.25531912"><path d="M203.24 253.14c0-30.39-1-30.89-28.9-34.38v-16.94h107.12v157.94c0 28.4 2.49 30.89 28.9 33.88v19.43H174.34v-19.43c26.41-2.99 28.9-5.48 28.9-33.88V253.14zm81.21-136.52c0 23.92-18.93 43.35-43.35 43.35-23.41 0-43.34-19.43-43.34-43.35 0-24.408 19.93-43.341 43.34-43.341 24.42 0 43.35 18.933 43.35 43.341z" style="fill:#fff;stroke:#0064d4;stroke-width:6.27659559" transform="translate(48.814 48.814)scale(.79661)"/></g></svg>