<?xml version="1.0" encoding="UTF-8" standalone="no"?>
<!-- Created with Inkscape (http://www.inkscape.org/) -->

<svg
   xmlns:dc="http://purl.org/dc/elements/1.1/"
   xmlns:cc="http://creativecommons.org/ns#"
   xmlns:rdf="http://www.w3.org/1999/02/22-rdf-syntax-ns#"
   xmlns:svg="http://www.w3.org/2000/svg"
   xmlns="http://www.w3.org/2000/svg"
   xmlns:xlink="http://www.w3.org/1999/xlink"
   xmlns:sodipodi="http://sodipodi.sourceforge.net/DTD/sodipodi-0.dtd"
   xmlns:inkscape="http://www.inkscape.org/namespaces/inkscape"
   id="svg2810"
   xml:space="preserve"
   height="480"
   width="480"
   version="1.0"
   viewBox="0 0 480 480"
   inkscape:version="0.48.4 r9939"
   sodipodi:docname="menu_info.svg"><sodipodi:namedview
     pagecolor="#ffffff"
     bordercolor="#666666"
     borderopacity="1"
     objecttolerance="10"
     gridtolerance="10"
     guidetolerance="10"
     inkscape:pageopacity="0"
     inkscape:pageshadow="2"
     inkscape:window-width="640"
     inkscape:window-height="480"
     id="namedview33"
     showgrid="false"
     inkscape:zoom="0.49166667"
     inkscape:cx="240"
     inkscape:cy="240"
     inkscape:window-x="63"
     inkscape:window-y="34"
     inkscape:window-maximized="0"
     inkscape:current-layer="svg2810" /><metadata
     id="metadata2348"><rdf:RDF><cc:Work
         rdf:about=""><dc:format>image/svg+xml</dc:format><dc:type
           rdf:resource="http://purl.org/dc/dcmitype/StillImage" /></cc:Work></rdf:RDF></metadata><defs
     id="defs2836"><linearGradient
       id="linearGradient3850"><stop
         id="stop3852"
         stop-color="#fff"
         stop-opacity=".79381"
         offset="0" /><stop
         id="stop4351"
         stop-color="#fff"
         stop-opacity="0"
         offset=".83784" /><stop
         id="stop3854"
         stop-color="#fff"
         stop-opacity="0"
         offset="1" /></linearGradient><radialGradient
       id="radialGradient2351"
       gradientUnits="userSpaceOnUse"
       cy="240"
       cx="240"
       r="225"><stop
         id="stop6898"
         stop-color="#0083ff"
         stop-opacity="0"
         offset="0" /><stop
         id="stop6900"
         stop-color="#0054ff"
         stop-opacity=".41237"
         offset="1" /></radialGradient><linearGradient
       id="linearGradient2356"
       y2="311.83"
       gradientUnits="userSpaceOnUse"
       x2="452.6"
       y1="311.83"
       x1="27.401"
       gradientTransform="matrix(0.79661017,0,0,0.79661017,48.813559,48.813559)"><stop
         id="stop5816"
         stop-color="#0048cd"
         offset="0" /><stop
         id="stop5818"
         stop-color="#002aa0"
         offset="1" /></linearGradient><linearGradient
       id="linearGradient2359"
       y2="152.75"
       gradientUnits="userSpaceOnUse"
       x2="441.12"
       y1="152.75"
       x1="38.881"
       gradientTransform="matrix(0.79661017,0,0,0.79661017,48.813559,48.813559)"><stop
         id="stop5824"
         stop-color="#5e99dd"
         offset="0" /><stop
         id="stop5826"
         stop-color="#0461c9"
         offset="1" /></linearGradient><radialGradient
       id="radialGradient2376"
       xlink:href="#linearGradient3850"
       gradientUnits="userSpaceOnUse"
       cy="167.5"
       cx="196.07"
       gradientTransform="matrix(-0.5679,-1.4348,1.4011,-0.55456,-81.877,420.14)"
       r="240" /><radialGradient
       id="radialGradient2379"
       xlink:href="#linearGradient3850"
       gradientUnits="userSpaceOnUse"
       cy="240"
       cx="240"
       r="240" /></defs><path
     id="path2818"
     d="M 240,48.813559 C 134.57661,48.813559 48.813559,134.57661 48.813559,240 48.813559,345.42339 134.57661,431.18644 240,431.18644 345.42339,431.18644 431.18644,345.42339 431.18644,240 431.18644,134.57661 345.42339,48.813559 240,48.813559 z"
     inkscape:connector-curvature="0"
     style="fill:#003fc0" /><path
     id="path2820"
     d="M 419.23729,240 C 419.23729,338.83542 338.83542,419.23729 240,419.23729 141.16458,419.23729 60.762712,338.83542 60.762712,240 60.762712,141.16458 141.16458,60.762712 240,60.762712 c 98.83542,0 179.23729,80.401868 179.23729,179.237288 z"
     inkscape:connector-curvature="0"
     style="fill:#649efa" /><path
     id="path2826"
     d="m 240,270.34288 c 62.27102,0 115.75542,-35.39339 160.21424,-85.26119 C 377.35153,118.57192 314.17237,70.640678 240,70.640678 165.82763,70.641475 102.64847,118.57192 79.785763,185.08169 124.24458,234.94949 177.72898,270.34288 240,270.34288 z"
     style="fill:url(#linearGradient2359)"
     inkscape:connector-curvature="0" /><path
     id="path2828"
     d="m 240,270.34288 c -62.27102,0 -115.75542,-35.39339 -160.214237,-85.26119 -5.921204,17.23068 -9.144288,35.70407 -9.144288,54.91831 0,93.38661 75.971915,169.35932 169.359325,169.35932 93.3874,0 169.35932,-75.97271 169.35932,-169.35932 0,-19.21424 -3.22627,-37.68763 -9.14509,-54.91831 -44.45881,49.8678 -97.94322,85.26119 -160.21423,85.26119 z"
     style="fill:url(#linearGradient2356)"
     inkscape:connector-curvature="0" /><g
     id="layer4"
     transform="matrix(0.79661017,0,0,0.79661017,48.813559,48.813559)"><path
       id="path3848"
       d="M 465,240 C 465,364.07 364.07,465 240,465 115.93,465 15,364.07 15,240 15,115.93 115.93,15 240,15 364.07,15 465,115.93 465,240 z"
       style="fill:url(#radialGradient2376);fill-rule:evenodd"
       inkscape:connector-curvature="0" /></g><g
     id="layer3"
     transform="matrix(0.79661017,0,0,0.79661017,48.813559,48.813559)"><path
       id="path3846"
       d="M 240,0 C 107.66,0 0,107.66 0,240 0,372.34 107.66,480 240,480 372.34,480 480,372.34 480,240 480,107.66 372.34,0 240,0 z"
       style="fill:url(#radialGradient2379);fill-rule:evenodd"
       inkscape:connector-curvature="0" /></g><g
     id="layer1"
     transform="matrix(0.79661017,0,0,0.79661017,48.813559,48.813559)"><path
       id="path6894"
       d="M 465,240 C 465,364.07 364.07,465 240,465 115.93,465 15,364.07 15,240 15,115.93 115.93,15 240,15 364.07,15 465,115.93 465,240 z"
       style="fill:url(#radialGradient2351);fill-rule:evenodd"
       inkscape:connector-curvature="0" /></g><g
     id="layer2"
     transform="matrix(0.79661017,0,0,0.79661017,48.813559,48.813559)"><g
       id="g2831"
       style="stroke:#0064d4;stroke-width:1.25531912"><path
         id="path2833"
         d="m 203.24,253.14 c 0,-30.39 -1,-30.89 -28.9,-34.38 v -16.94 h 107.12 v 157.94 c 0,28.4 2.49,30.89 28.9,33.88 v 19.43 H 174.34 v -19.43 c 26.41,-2.99 28.9,-5.48 28.9,-33.88 V 253.14 z m 81.21,-136.52 c 0,23.92 -18.93,43.35 -43.35,43.35 -23.41,0 -43.34,-19.43 -43.34,-43.35 0,-24.408 19.93,-43.341 43.34,-43.341 24.42,0 43.35,18.933 43.35,43.341 z"
         inkscape:connector-curvature="0"
         style="fill:#ffffff;stroke:#0064d4;stroke-width:6.27659559" /></g></g></svg>