<?xml version="1.0" encoding="UTF-8" standalone="no"?>
<!--
  - Copyright (c) 2022. Bernard Bou
  -->

<!-- Created with Inkscape (http://www.inkscape.org/) -->

<svg
   xmlns:a="http://ns.adobe.com/AdobeSVGViewerExtensions/3.0/"
   xmlns:dc="http://purl.org/dc/elements/1.1/"
   xmlns:cc="http://creativecommons.org/ns#"
   xmlns:rdf="http://www.w3.org/1999/02/22-rdf-syntax-ns#"
   xmlns:svg="http://www.w3.org/2000/svg"
   xmlns="http://www.w3.org/2000/svg"
   xmlns:xlink="http://www.w3.org/1999/xlink"
   xmlns:sodipodi="http://sodipodi.sourceforge.net/DTD/sodipodi-0.dtd"
   xmlns:inkscape="http://www.inkscape.org/namespaces/inkscape"
   width="48"
   height="48"
   id="svg45213"
   sodipodi:version="0.32"
   inkscape:version="0.47pre4 r22446"
   version="1.0"
   sodipodi:docname="internet.svg">
  <defs
     id="defs45215">
    <inkscape:perspective
       sodipodi:type="inkscape:persp3d"
       inkscape:vp_x="0 : 24 : 1"
       inkscape:vp_y="0 : 1000 : 0"
       inkscape:vp_z="48 : 24 : 1"
       inkscape:persp3d-origin="24 : 16 : 1"
       id="perspective192" />
    <radialGradient
       gradientUnits="userSpaceOnUse"
       gradientTransform="matrix(1.2202,0,0,1.2202,-110.2149,-100.653)"
       fy="187.32471"
       fx="277.23291"
       r="1.4807"
       cy="187.32471"
       cx="277.23291"
       id="XMLID_3835_">
      <stop
         id="stop8384"
         style="stop-color:#C9FFC9"
         offset="0" />
      <stop
         id="stop8386"
         style="stop-color:#23A11F"
         offset="1" />
      <a:midPointStop
         style="stop-color:#C9FFC9"
         offset="0" />
      <a:midPointStop
         style="stop-color:#C9FFC9"
         offset="0.5" />
      <a:midPointStop
         style="stop-color:#23A11F"
         offset="1" />
    </radialGradient>
    <linearGradient
       y2="124.4473"
       x2="230.6402"
       y1="106.9272"
       x1="213.1201"
       gradientUnits="userSpaceOnUse"
       id="XMLID_3829_">
      <stop
         id="stop8340"
         style="stop-color:#D9D9D9"
         offset="0" />
      <stop
         id="stop8342"
         style="stop-color:#FFFFFF"
         offset="1" />
      <a:midPointStop
         style="stop-color:#D9D9D9"
         offset="0" />
      <a:midPointStop
         style="stop-color:#D9D9D9"
         offset="0.5" />
      <a:midPointStop
         style="stop-color:#FFFFFF"
         offset="1" />
    </linearGradient>
    <linearGradient
       y2="96.230103"
       x2="229.9906"
       y1="112.9888"
       x1="213.2319"
       gradientUnits="userSpaceOnUse"
       id="XMLID_3828_">
      <stop
         id="stop8326"
         style="stop-color:#F2F2F2"
         offset="0" />
      <stop
         id="stop8328"
         style="stop-color:#E5E5E5"
         offset="1" />
      <a:midPointStop
         style="stop-color:#F2F2F2"
         offset="0" />
      <a:midPointStop
         style="stop-color:#F2F2F2"
         offset="0.5" />
      <a:midPointStop
         style="stop-color:#E5E5E5"
         offset="1" />
    </linearGradient>
    <linearGradient
       y2="120.4316"
       x2="234.4409"
       y1="120.4316"
       x1="222.2739"
       gradientUnits="userSpaceOnUse"
       id="XMLID_3827_">
      <stop
         id="stop8317"
         style="stop-color:#D9D9D9"
         offset="0" />
      <stop
         id="stop8319"
         style="stop-color:#FFFFFF"
         offset="0.1966" />
      <stop
         id="stop8321"
         style="stop-color:#999999"
         offset="1" />
      <a:midPointStop
         style="stop-color:#D9D9D9"
         offset="0" />
      <a:midPointStop
         style="stop-color:#D9D9D9"
         offset="0.5" />
      <a:midPointStop
         style="stop-color:#FFFFFF"
         offset="0.1966" />
      <a:midPointStop
         style="stop-color:#FFFFFF"
         offset="0.5" />
      <a:midPointStop
         style="stop-color:#999999"
         offset="1" />
    </linearGradient>
    <linearGradient
       y2="124.4493"
       x2="230.64211"
       y1="106.9292"
       x1="213.1221"
       gradientUnits="userSpaceOnUse"
       id="XMLID_3825_">
      <stop
         id="stop8307"
         style="stop-color:#D9D9D9"
         offset="0" />
      <stop
         id="stop8309"
         style="stop-color:#FFFFFF"
         offset="1" />
      <a:midPointStop
         style="stop-color:#D9D9D9"
         offset="0" />
      <a:midPointStop
         style="stop-color:#D9D9D9"
         offset="0.5" />
      <a:midPointStop
         style="stop-color:#FFFFFF"
         offset="1" />
    </linearGradient>
    <radialGradient
       gradientUnits="userSpaceOnUse"
       fy="117.0933"
       fx="202.4023"
       r="17.726"
       cy="117.0933"
       cx="202.4023"
       id="XMLID_3841_">
      <stop
         id="stop8473"
         style="stop-color:#D3EDD5"
         offset="0" />
      <stop
         id="stop8475"
         style="stop-color:#CEEBD0"
         offset="0.0883" />
      <stop
         id="stop8477"
         style="stop-color:#C1E5C2"
         offset="0.1891" />
      <stop
         id="stop8479"
         style="stop-color:#ABDCAB"
         offset="0.296" />
      <stop
         id="stop8481"
         style="stop-color:#8CCE8B"
         offset="0.4073" />
      <stop
         id="stop8483"
         style="stop-color:#64BD62"
         offset="0.522" />
      <stop
         id="stop8485"
         style="stop-color:#34A830"
         offset="0.6377" />
      <stop
         id="stop8487"
         style="stop-color:#23A11F"
         offset="0.6742" />
      <stop
         id="stop8489"
         style="stop-color:#209C1D"
         offset="0.687" />
      <stop
         id="stop8491"
         style="stop-color:#128110"
         offset="0.7628" />
      <stop
         id="stop8493"
         style="stop-color:#086D07"
         offset="0.8399" />
      <stop
         id="stop8495"
         style="stop-color:#026202"
         offset="0.9183" />
      <stop
         id="stop8497"
         style="stop-color:#005E00"
         offset="1" />
      <a:midPointStop
         style="stop-color:#D3EDD5"
         offset="0" />
      <a:midPointStop
         style="stop-color:#D3EDD5"
         offset="0.6798" />
      <a:midPointStop
         style="stop-color:#23A11F"
         offset="0.6742" />
      <a:midPointStop
         style="stop-color:#23A11F"
         offset="0.2844" />
      <a:midPointStop
         style="stop-color:#005E00"
         offset="1" />
    </radialGradient>
    <linearGradient
       y2="135.3821"
       x2="205.7733"
       y1="114.5459"
       x1="206.8652"
       gradientUnits="userSpaceOnUse"
       id="XMLID_3840_">
      <stop
         id="stop8443"
         style="stop-color:#65BD7B"
         offset="0" />
      <stop
         id="stop8445"
         style="stop-color:#61BB75"
         offset="7.366776e-003" />
      <stop
         id="stop8447"
         style="stop-color:#46B050"
         offset="0.0565" />
      <stop
         id="stop8449"
         style="stop-color:#33A835"
         offset="0.1023" />
      <stop
         id="stop8451"
         style="stop-color:#27A325"
         offset="0.1429" />
      <stop
         id="stop8453"
         style="stop-color:#23A11F"
         offset="0.1742" />
      <stop
         id="stop8455"
         style="stop-color:#1D881D"
         offset="0.2984" />
      <stop
         id="stop8457"
         style="stop-color:#15651B"
         offset="0.4982" />
      <stop
         id="stop8459"
         style="stop-color:#0F4C19"
         offset="0.6873" />
      <stop
         id="stop8461"
         style="stop-color:#0B3D18"
         offset="0.8596" />
      <stop
         id="stop8463"
         style="stop-color:#0A3818"
         offset="1" />
      <a:midPointStop
         style="stop-color:#65BD7B"
         offset="0" />
      <a:midPointStop
         style="stop-color:#65BD7B"
         offset="0.3483" />
      <a:midPointStop
         style="stop-color:#23A11F"
         offset="0.1742" />
      <a:midPointStop
         style="stop-color:#23A11F"
         offset="0.336" />
      <a:midPointStop
         style="stop-color:#0A3818"
         offset="1" />
    </linearGradient>
    <radialGradient
       gradientUnits="userSpaceOnUse"
       fy="118.021"
       fx="204.252"
       r="13.8036"
       cy="118.021"
       cx="204.252"
       id="XMLID_3837_">
      <stop
         id="stop8411"
         style="stop-color:#DFEAEB"
         offset="0" />
      <stop
         id="stop8413"
         style="stop-color:#B7E9FF"
         offset="0.3034" />
      <stop
         id="stop8415"
         style="stop-color:#3C97F6"
         offset="0.5281" />
      <stop
         id="stop8417"
         style="stop-color:#032C87"
         offset="0.8258" />
      <stop
         id="stop8419"
         style="stop-color:#0342D3"
         offset="1" />
      <a:midPointStop
         style="stop-color:#DFEAEB"
         offset="0" />
      <a:midPointStop
         style="stop-color:#DFEAEB"
         offset="0.5" />
      <a:midPointStop
         style="stop-color:#B7E9FF"
         offset="0.3034" />
      <a:midPointStop
         style="stop-color:#B7E9FF"
         offset="0.5" />
      <a:midPointStop
         style="stop-color:#3C97F6"
         offset="0.5281" />
      <a:midPointStop
         style="stop-color:#3C97F6"
         offset="0.5" />
      <a:midPointStop
         style="stop-color:#032C87"
         offset="0.8258" />
      <a:midPointStop
         style="stop-color:#032C87"
         offset="0.5" />
      <a:midPointStop
         style="stop-color:#0342D3"
         offset="1" />
    </radialGradient>
    <radialGradient
       gradientUnits="userSpaceOnUse"
       gradientTransform="matrix(0.7467,0,0,0.7467,170.265,126.0322)"
       fy="-11.0581"
       fx="45.235802"
       r="19.594299"
       cy="-11.0581"
       cx="45.235802"
       id="XMLID_3836_">
      <stop
         id="stop8393"
         style="stop-color:#FFFFFF"
         offset="0" />
      <stop
         id="stop8395"
         style="stop-color:#B7E9FF"
         offset="0.2079" />
      <stop
         id="stop8397"
         style="stop-color:#3C97F6"
         offset="0.4719" />
      <stop
         id="stop8399"
         style="stop-color:#032C87"
         offset="0.6685" />
      <stop
         id="stop8401"
         style="stop-color:#0342D3"
         offset="1" />
      <a:midPointStop
         style="stop-color:#FFFFFF"
         offset="0" />
      <a:midPointStop
         style="stop-color:#FFFFFF"
         offset="0.5" />
      <a:midPointStop
         style="stop-color:#B7E9FF"
         offset="0.2079" />
      <a:midPointStop
         style="stop-color:#B7E9FF"
         offset="0.5" />
      <a:midPointStop
         style="stop-color:#3C97F6"
         offset="0.4719" />
      <a:midPointStop
         style="stop-color:#3C97F6"
         offset="0.5" />
      <a:midPointStop
         style="stop-color:#032C87"
         offset="0.6685" />
      <a:midPointStop
         style="stop-color:#032C87"
         offset="0.5" />
      <a:midPointStop
         style="stop-color:#0342D3"
         offset="1" />
    </radialGradient>
    <linearGradient
       inkscape:collect="always"
       xlink:href="#XMLID_3827_"
       id="linearGradient14067"
       gradientUnits="userSpaceOnUse"
       x1="222.2739"
       y1="120.4316"
       x2="234.4409"
       y2="120.4316" />
    <linearGradient
       inkscape:collect="always"
       xlink:href="#XMLID_3828_"
       id="linearGradient14069"
       gradientUnits="userSpaceOnUse"
       x1="213.2319"
       y1="112.9888"
       x2="229.9906"
       y2="96.2301" />
    <linearGradient
       inkscape:collect="always"
       xlink:href="#XMLID_3827_"
       id="linearGradient14071"
       gradientUnits="userSpaceOnUse"
       x1="222.2739"
       y1="120.4316"
       x2="234.4409"
       y2="120.4316" />
    <linearGradient
       inkscape:collect="always"
       xlink:href="#XMLID_3828_"
       id="linearGradient14073"
       gradientUnits="userSpaceOnUse"
       x1="213.2319"
       y1="112.9888"
       x2="229.9906"
       y2="96.2301" />
    <radialGradient
       inkscape:collect="always"
       xlink:href="#XMLID_3835_"
       id="radialGradient14075"
       gradientUnits="userSpaceOnUse"
       gradientTransform="matrix(1.2202,0,0,1.2202,-110.2149,-100.653)"
       cx="277.23291"
       cy="187.32471"
       fx="277.23291"
       fy="187.32471"
       r="1.4807" />
    <radialGradient
       inkscape:collect="always"
       xlink:href="#XMLID_3836_"
       id="radialGradient14077"
       gradientUnits="userSpaceOnUse"
       gradientTransform="matrix(0.7467,0,0,0.7467,170.265,126.0322)"
       cx="45.235802"
       cy="-11.0581"
       fx="45.235802"
       fy="-11.0581"
       r="19.594299" />
    <linearGradient
       inkscape:collect="always"
       xlink:href="#XMLID_3840_"
       id="linearGradient14079"
       gradientUnits="userSpaceOnUse"
       x1="206.8652"
       y1="114.5459"
       x2="205.7733"
       y2="135.3821" />
    <linearGradient
       inkscape:collect="always"
       xlink:href="#XMLID_3825_"
       id="linearGradient3123"
       gradientUnits="userSpaceOnUse"
       x1="213.1221"
       y1="106.9292"
       x2="230.64211"
       y2="124.4493" />
    <linearGradient
       inkscape:collect="always"
       xlink:href="#XMLID_3829_"
       id="linearGradient3131"
       gradientUnits="userSpaceOnUse"
       x1="213.1201"
       y1="106.9272"
       x2="230.6402"
       y2="124.4473" />
    <radialGradient
       inkscape:collect="always"
       xlink:href="#XMLID_3836_"
       id="radialGradient3143"
       gradientUnits="userSpaceOnUse"
       gradientTransform="matrix(0.7467,0,0,0.7467,170.265,126.0322)"
       cx="45.235802"
       cy="-11.0581"
       fx="45.235802"
       fy="-11.0581"
       r="19.594299" />
    <radialGradient
       inkscape:collect="always"
       xlink:href="#XMLID_3837_"
       id="radialGradient3145"
       gradientUnits="userSpaceOnUse"
       cx="204.252"
       cy="118.021"
       fx="204.252"
       fy="118.021"
       r="13.8036" />
    <linearGradient
       inkscape:collect="always"
       xlink:href="#XMLID_3840_"
       id="linearGradient3147"
       gradientUnits="userSpaceOnUse"
       x1="206.8652"
       y1="114.5459"
       x2="205.7733"
       y2="135.3821" />
    <radialGradient
       inkscape:collect="always"
       xlink:href="#XMLID_3841_"
       id="radialGradient3149"
       gradientUnits="userSpaceOnUse"
       cx="202.4023"
       cy="117.0933"
       fx="202.4023"
       fy="117.0933"
       r="17.726" />
    <radialGradient
       id="radialGradient13834"
       cx="45.235802"
       cy="-11.0581"
       r="19.594299"
       fx="45.235802"
       fy="-11.0581"
       gradientTransform="matrix(0.7467,0,0,0.7467,170.265,126.0322)"
       gradientUnits="userSpaceOnUse">
      <stop
         offset="0"
         style="stop-color:#FFFFFF"
         id="stop13836" />
      <stop
         offset="0.2079"
         style="stop-color:#B7E9FF"
         id="stop13838" />
      <stop
         offset="0.4719"
         style="stop-color:#3C97F6"
         id="stop13840" />
      <stop
         offset="0.6685"
         style="stop-color:#032C87"
         id="stop13842" />
      <stop
         offset="1"
         style="stop-color:#0342D3"
         id="stop13844" />
      <a:midPointStop
         offset="0"
         style="stop-color:#FFFFFF" />
      <a:midPointStop
         offset="0.5"
         style="stop-color:#FFFFFF" />
      <a:midPointStop
         offset="0.2079"
         style="stop-color:#B7E9FF" />
      <a:midPointStop
         offset="0.5"
         style="stop-color:#B7E9FF" />
      <a:midPointStop
         offset="0.4719"
         style="stop-color:#3C97F6" />
      <a:midPointStop
         offset="0.5"
         style="stop-color:#3C97F6" />
      <a:midPointStop
         offset="0.6685"
         style="stop-color:#032C87" />
      <a:midPointStop
         offset="0.5"
         style="stop-color:#032C87" />
      <a:midPointStop
         offset="1"
         style="stop-color:#0342D3" />
    </radialGradient>
  </defs>
  <sodipodi:namedview
     id="base"
     pagecolor="#ffffff"
     bordercolor="#666666"
     borderopacity="1.0"
     inkscape:pageopacity="0.0"
     inkscape:pageshadow="2"
     inkscape:zoom="5.6568542"
     inkscape:cx="24"
     inkscape:cy="24"
     inkscape:document-units="px"
     inkscape:current-layer="layer1"
     inkscape:window-width="814"
     inkscape:window-height="584"
     inkscape:window-x="328"
     inkscape:window-y="92"
     showgrid="false"
     inkscape:window-maximized="0" />
  <metadata
     id="metadata45218">
    <rdf:RDF>
      <cc:Work
         rdf:about="">
        <dc:format>image/svg+xml</dc:format>
        <dc:type
           rdf:resource="http://purl.org/dc/dcmitype/StillImage" />
      </cc:Work>
    </rdf:RDF>
  </metadata>
  <g
     inkscape:label="Layer 1"
     inkscape:groupmode="layer"
     id="layer1">
    <g
       id="g8405"
       transform="matrix(2.0355079,0,0,2.0355079,-398.93501,-224.3985)">
      <defs
         id="defs8407">
        <circle
           id="XMLID_795_"
           cx="207.75"
           cy="122.13"
           r="9.6899996"
           sodipodi:cx="207.75"
           sodipodi:cy="122.13"
           sodipodi:rx="9.6899996"
           sodipodi:ry="9.6899996" />
      </defs>
      <radialGradient
         id="radialGradient13850"
         cx="204.252"
         cy="118.021"
         r="13.8036"
         fx="204.252"
         fy="118.021"
         gradientUnits="userSpaceOnUse">
        <stop
           offset="0"
           style="stop-color:#DFEAEB"
           id="stop13852" />
        <stop
           offset="0.3034"
           style="stop-color:#B7E9FF"
           id="stop13854" />
        <stop
           offset="0.5281"
           style="stop-color:#3C97F6"
           id="stop13856" />
        <stop
           offset="0.8258"
           style="stop-color:#032C87"
           id="stop13858" />
        <stop
           offset="1"
           style="stop-color:#0342D3"
           id="stop13860" />
        <a:midPointStop
           offset="0"
           style="stop-color:#DFEAEB" />
        <a:midPointStop
           offset="0.5"
           style="stop-color:#DFEAEB" />
        <a:midPointStop
           offset="0.3034"
           style="stop-color:#B7E9FF" />
        <a:midPointStop
           offset="0.5"
           style="stop-color:#B7E9FF" />
        <a:midPointStop
           offset="0.5281"
           style="stop-color:#3C97F6" />
        <a:midPointStop
           offset="0.5"
           style="stop-color:#3C97F6" />
        <a:midPointStop
           offset="0.8258"
           style="stop-color:#032C87" />
        <a:midPointStop
           offset="0.5"
           style="stop-color:#032C87" />
        <a:midPointStop
           offset="1"
           style="stop-color:#0342D3" />
      </radialGradient>
      <use
         xlink:href="#XMLID_795_"
         clip-rule="evenodd"
         id="use8421"
         style="fill:url(#radialGradient3145);fill-rule:evenodd"
         x="0"
         y="0"
         width="1005.92"
         height="376.97" />
      <clipPath
         id="XMLID_3838_">
        <use
           xlink:href="#XMLID_795_"
           id="use8424"
           x="0"
           y="0"
           width="1005.92"
           height="376.97" />
      </clipPath>
      <g
         clip-path="url(#XMLID_3838_)"
         id="g8426">
        <defs
           id="defs8428">
          <path
             id="XMLID_798_"
             d="m 216.73,121.25 c 0,5.63 -3.4,9.57 -8.98,9.96 -0.59,0.04 -0.68,-0.47 -0.1,-0.61 4.75,-1.12 7.96,-6.38 8.49,-9.41 0.05,-0.7 0.59,-0.54 0.59,0.06 z" />
        </defs>
        <clipPath
           id="XMLID_3839_">
          <use
             xlink:href="#XMLID_798_"
             id="use8432"
             x="0"
             y="0"
             width="1005.92"
             height="376.97" />
        </clipPath>
        <path
           clip-path="url(#XMLID_3839_)"
           d="m 216.73,121.25 c 0,5.63 -3.4,9.57 -8.98,9.96 -0.59,0.04 -0.68,-0.47 -0.1,-0.61 4.75,-1.12 7.96,-6.38 8.49,-9.41 0.05,-0.7 0.59,-0.54 0.59,0.06 z"
           id="path8434"
           style="fill:#3c97f6" />
        <path
           clip-path="url(#XMLID_3839_)"
           stroke-miterlimit="3.8637"
           d="m 216.99,121.29 c 0,5.63 -3.4,9.57 -8.98,9.96 -0.59,0.04 -0.68,-0.47 -0.1,-0.61 4.75,-1.12 7.96,-6.38 8.48,-9.41 0.06,-0.69 0.6,-0.53 0.6,0.06 z"
           id="path8436"
           style="fill:none;stroke:#2b76b4;stroke-width:2.96950006;stroke-miterlimit:3.86369991" />
        <path
           clip-path="url(#XMLID_3839_)"
           stroke-miterlimit="3.8637"
           d="m 216.86,121.27 c 0,5.63 -3.4,9.57 -8.98,9.96 -0.59,0.04 -0.68,-0.47 -0.1,-0.61 4.75,-1.12 7.96,-6.38 8.49,-9.41 0.05,-0.69 0.59,-0.54 0.59,0.06 z"
           id="path8438"
           style="fill:none;stroke:#1459a5;stroke-width:1.48479998;stroke-miterlimit:3.86369991" />
        <path
           clip-path="url(#XMLID_3839_)"
           stroke-miterlimit="3.8637"
           d="m 216.73,121.25 c 0,5.63 -3.4,9.57 -8.98,9.96 -0.59,0.04 -0.68,-0.47 -0.1,-0.61 4.75,-1.12 7.96,-6.38 8.49,-9.41 0.05,-0.7 0.59,-0.54 0.59,0.06 z"
           id="path8440"
           style="fill:none;stroke:#1d3f99;stroke-width:0;stroke-miterlimit:3.86369991" />
      </g>
      <linearGradient
         id="linearGradient13874"
         gradientUnits="userSpaceOnUse"
         x1="206.8652"
         y1="114.5459"
         x2="205.7733"
         y2="135.3821">
        <stop
           offset="0"
           style="stop-color:#65BD7B"
           id="stop13876" />
        <stop
           offset="7.366776e-003"
           style="stop-color:#61BB75"
           id="stop13878" />
        <stop
           offset="0.0565"
           style="stop-color:#46B050"
           id="stop13880" />
        <stop
           offset="0.1023"
           style="stop-color:#33A835"
           id="stop13882" />
        <stop
           offset="0.1429"
           style="stop-color:#27A325"
           id="stop13884" />
        <stop
           offset="0.1742"
           style="stop-color:#23A11F"
           id="stop13886" />
        <stop
           offset="0.2984"
           style="stop-color:#1D881D"
           id="stop13888" />
        <stop
           offset="0.4982"
           style="stop-color:#15651B"
           id="stop13890" />
        <stop
           offset="0.6873"
           style="stop-color:#0F4C19"
           id="stop13892" />
        <stop
           offset="0.8596"
           style="stop-color:#0B3D18"
           id="stop13894" />
        <stop
           offset="1"
           style="stop-color:#0A3818"
           id="stop13896" />
        <a:midPointStop
           offset="0"
           style="stop-color:#65BD7B" />
        <a:midPointStop
           offset="0.3483"
           style="stop-color:#65BD7B" />
        <a:midPointStop
           offset="0.1742"
           style="stop-color:#23A11F" />
        <a:midPointStop
           offset="0.336"
           style="stop-color:#23A11F" />
        <a:midPointStop
           offset="1"
           style="stop-color:#0A3818" />
      </linearGradient>
      <path
         clip-path="url(#XMLID_3838_)"
         d="m 204.25,115.42 0.08,0.08 c 0.15,0.13 0.31,0.39 0.02,0.5 l -0.08,0.05 c -0.41,0.22 -0.53,-0.11 -0.65,-0.39 -0.17,-0.14 -0.77,0.17 -0.74,-0.27 0,-0.06 0,-0.24 -0.05,-0.29 -0.71,-0.1 -1.23,0.36 -1.89,0.51 -0.24,0.06 -0.49,0.08 -0.7,0.22 -0.01,0.08 -0.05,0.15 -0.1,0.21 -0.28,-0.04 -0.25,-0.13 -0.13,-0.29 0.38,0.05 0.38,-0.29 1.28,-0.1 0.32,0.07 0.21,1.04 0.1,1.25 -0.3,0.57 -0.34,0.29 -0.25,0.94 0.03,0.2 -0.01,0.32 -0.11,0.49 -0.1,0.3 -0.42,0.27 -0.48,0.04 l -0.03,0.14 c -0.03,0.1 -0.06,0.22 -0.13,0.33 -0.68,1.1 -0.91,1.29 -0.66,2.7 0.08,0.47 0.14,0.89 0.07,1.37 -0.03,0.2 0.06,0.34 0.17,0.5 l 0.16,0.21 -0.15,-0.09 c -0.08,0.01 -0.13,0.3 -0.14,0.23 -0.07,-0.84 -0.2,-1.29 -0.18,-2.12 0.01,-0.45 0.55,-0.33 0.63,0.41 0.01,0.12 0.02,0.25 0.07,0.36 0.26,0.55 0.53,1.07 0.69,1.66 0.04,0.14 -0.02,0.53 0.02,0.59 0.24,0.38 0.39,0.74 0.79,0.99 0.18,0.11 0.49,-0.04 0.78,0.25 0.29,0.3 0.38,0.87 0.9,0.75 1,-0.25 0.65,0.46 0.79,0.79 0.28,0.17 0.41,0.02 0.69,0.41 0.06,0.09 0.16,0.28 0.27,0.3 0.16,-0.07 0.18,-0.19 0.42,-0.16 0.41,0.06 0.43,0.46 0.39,0.77 l -0.03,0.23 c -0.09,0.64 -0.73,0.75 -0.81,1.14 0.15,0.26 0.05,0.44 -0.16,0.61 -0.02,0.24 0.3,0.52 0.42,0.71 0.13,0.21 0.2,0.59 0.38,0.73 0.38,0.3 1.12,0.34 1.03,1.03 -0.11,0.77 -0.64,0.97 -1.08,1.46 0.73,0.02 1.38,-0.6 2.06,-0.83 0.52,-0.17 1.09,-0.15 1.58,-0.41 0.21,-0.11 0.32,-0.45 0.62,-0.63 0.61,-0.37 1.49,-0.6 1.72,-1.36 0.06,-0.21 0.12,-0.42 0.23,-0.62 0.24,-0.42 0.62,-0.73 0.85,-1.15 -0.6,-0.08 -1.36,-0.14 -1.45,-0.94 -0.82,-0.12 -1.15,0 -1.73,-0.59 -0.08,-0.08 -0.37,-0.39 -0.54,-0.32 -0.12,0.07 -0.08,0.05 -0.18,0.11 -0.45,0.27 -0.78,-0.11 -1.21,-0.17 -0.22,0.16 -0.04,0.31 -0.48,0.36 -0.25,0.03 -0.3,-0.27 -0.28,-0.45 l 0.01,-0.09 c -0.03,-0.04 -0.06,-0.08 -0.07,-0.13 0.1,0.06 0.2,0.12 0.3,0.17 -0.41,0.11 -0.77,0.89 -1.33,0.39 -0.17,-0.02 -0.28,0.09 -0.5,0.06 -0.61,-0.09 -1.21,-0.74 -0.71,-1.23 0.05,-0.17 -0.04,-0.28 -0.29,-0.42 l -0.14,0.02 -0.08,0 -0.32,-0.05 -0.21,-0.27 c -0.05,-0.22 0.03,-0.38 0.2,-0.51 0.09,-0.07 0.05,-0.04 0.13,-0.09 0.04,-0.12 0.05,-0.21 0.05,-0.29 l -0.23,-0.08 -0.06,0.06 c -0.2,0.2 -0.38,0.39 -0.71,0.34 -1.77,-0.25 -0.92,-3.54 0.66,-2.75 0.06,0.03 0.1,0.05 0.15,0.06 0.46,-0.44 1.5,0.12 1.41,0.75 -0.02,0.12 0.02,0.23 0.12,0.33 -0.07,-0.9 -0.29,-1.15 0.54,-1.59 l 0.19,-0.1 c 0.43,-0.22 0.36,-0.33 0.43,-0.79 0.07,-0.52 0.52,-0.77 0.96,-0.83 -0.1,-0.37 0.11,-0.59 0.46,-0.68 l 0.14,-0.03 c 0.15,-0.04 0.26,0.04 0.29,0.16 0.17,-0.04 0.38,-0.09 0.45,-0.22 -0.03,-0.03 -0.05,-0.07 -0.06,-0.11 0.1,0.06 0.19,0.12 0.29,0.18 -0.4,0.1 -0.88,0.14 -0.82,-0.47 -0.49,0.03 -0.34,-0.52 0.18,-0.65 l 0.13,-0.03 c 0.08,-0.02 0.19,0.04 0.25,0.07 0.44,-0.2 0.5,-0.14 0.57,0.32 l 0.08,0.01 c -0.06,-0.13 -0.01,-0.23 -0.03,-0.36 -0.08,-0.11 -0.49,-0.19 -0.64,-0.28 -0.34,-0.21 -0.57,-0.82 -0.8,-0.9 -0.24,0.21 -0.54,0.06 -0.73,-0.14 -0.1,-0.11 -0.06,-0.07 -0.15,-0.17 -0.15,-0.15 -0.19,-0.08 -0.37,-0.06 l 0.21,-0.25 c 0.02,0.28 0.35,0.56 -0.16,0.9 l -0.1,0.06 -0.08,0.05 c -0.09,0.06 -0.08,0.1 -0.05,0.21 l 0.04,0.12 c 0.15,0.59 -0.51,0.55 -0.67,0.03 -0.13,-0.43 -0.21,-0.36 -0.65,-0.52 -0.83,-0.3 -0.56,-1.05 0.07,-1.32 0.2,-0.09 0.65,-0.2 0.73,-0.4 -0.24,-0.42 0.7,-0.78 1.19,0.19 0.03,0.07 0.04,0.14 0.01,0.2 0.05,0.02 0.1,0.04 0.15,0.07 -0.01,-0.05 -0.01,-0.09 0.01,-0.13 l -0.2,-0.09 c -0.34,-0.15 -0.63,-0.53 -0.96,-0.58 -0.34,-0.05 -0.18,-0.59 -0.05,-0.76 -0.05,0 -0.08,0 -0.12,0.01 0.14,0.17 0.2,0.37 0.05,0.48 l -0.07,0.05 c 0.26,0.48 -0.4,0.78 -0.56,0.49 -0.16,-0.29 -0.34,-0.47 -0.29,-0.84 l 0.26,0.27 c 0.28,0.41 -0.21,0.63 -0.54,0.58 -0.26,-0.04 -0.77,-0.09 -0.42,-0.49 l 0.05,-0.05 0.01,-0.1 c -0.1,0 -0.28,-0.05 -0.39,-0.03 z m -4.47,0.37 0.06,-0.24 c 0.42,-0.37 0.83,-0.31 1.29,-0.49 0.55,-0.22 2.05,-0.98 2.22,0.09 l 0.1,-0.01 c 0.14,-0.01 0.3,0 0.47,0.13 0.11,0.08 0.15,0.2 0.19,0.32 0.02,-0.01 0.04,-0.02 0.07,-0.04 l -0.11,0.37 c -0.18,-0.24 -0.52,-0.46 -0.21,-0.81 0.29,-0.33 0.71,-0.1 1.06,-0.08 0.36,0.02 0.24,0.69 0.05,0.88 -0.03,0.03 -0.4,-0.33 -0.22,-0.31 0.38,0.05 0.26,0.09 0.53,-0.03 l -0.11,0.34 c -0.14,-0.25 -0.43,-0.66 0.08,-0.81 0.05,-0.01 0.09,-0.02 0.14,-0.03 l 0.11,-0.01 c 0.33,-0.02 0.21,0.31 0.3,0.49 0.05,0.1 0.13,0.2 0.2,0.32 l -0.24,-0.07 c -0.19,-0.19 -0.27,-0.24 -0.03,-0.46 -0.39,-0.55 0.42,-0.95 1.08,-0.59 0.39,0.21 -0.13,0.49 -0.18,0.67 0.33,0.12 0.54,0.42 0.85,0.56 0.23,0.1 0.93,0.45 0.69,0.78 0.2,0.35 -0.55,0.7 -0.73,0.46 -0.19,-0.25 -0.64,-0.29 -0.91,-0.46 -0.32,-0.2 -0.07,-0.42 0.16,-0.46 -0.02,-0.02 -0.05,-0.03 -0.07,-0.04 -0.18,0.77 -1.44,0.66 -1.29,1.11 0.14,0.13 0.63,0.16 0.91,0.45 0.13,0.13 0.16,0.3 0.22,0.47 0.02,0.06 0.01,0.06 0.01,0.06 -0.19,-0.09 -0.19,0.46 -0.27,0.17 l -0.03,-0.1 c -0.09,-0.31 -0.03,-0.56 0.24,-0.74 l 0.1,-0.06 0.08,-0.05 c 0.15,-0.1 -0.04,-0.3 -0.05,-0.48 -0.02,-0.41 0.71,-0.33 0.99,-0.05 0.11,0.12 0.05,0.06 0.15,0.17 0.03,0.03 0.06,0.06 0.1,0.08 0.48,-0.42 0.91,0.38 1.14,0.69 0.06,0.08 0.12,0.14 0.19,0.19 0.41,0.25 0.93,0.14 0.86,0.86 0.2,0.17 0.49,0.22 0.39,0.59 -0.1,0.35 -1.25,0.22 -1.37,-0.25 -0.13,0.05 -0.24,-0.01 -0.35,-0.06 -0.08,0.02 -0.13,0.03 -0.15,0.08 l -0.22,-0.37 c 0.42,-0.03 0.63,-0.02 0.55,0.45 l -0.01,0.08 c 0.11,-0.02 0.17,-0.04 0.23,-0.05 l 0.29,0.18 c -0.04,-0.02 -0.05,-0.06 -0.06,-0.1 0.48,0.28 -0.1,0.88 -0.66,1.01 -0.16,0.04 -0.45,0.14 -0.57,-0.03 l 0.06,0.15 c 0.32,0.83 -0.91,0.12 -1.02,0.86 -0.08,0.61 -0.08,0.84 -0.68,1.15 l -0.18,0.09 c -0.13,0.07 -0.26,0.15 -0.35,0.27 l 0.08,1.07 -0.01,0.07 c -0.24,0.99 -1.17,-0.04 -1.08,-0.65 0.03,-0.24 -0.42,-0.34 -0.57,-0.36 -0.38,0.37 -0.57,0.03 -0.91,-0.02 -0.74,-0.1 -1.2,1.77 -0.2,1.91 0.19,0.03 0.41,-0.45 0.67,-0.41 0.85,0.12 0.78,-0.03 0.74,0.6 -0.02,0.28 0,0.45 -0.24,0.63 -0.08,0.06 -0.04,0.03 -0.08,0.06 0.69,-0.12 1.34,0.7 0.81,1.23 -0.04,0.27 0.36,0.46 0.6,0.37 0.24,-0.08 0.42,-0.09 0.61,0.08 0.2,0.03 0.6,-0.42 0.88,-0.5 l 0.3,0.17 c -0.04,-0.02 -0.05,-0.06 -0.06,-0.1 0.06,0.03 0.1,0.07 0.13,0.12 0.42,-0.28 1.01,0.25 1.2,0.17 0.13,-0.08 0.07,-0.04 0.18,-0.11 0.77,-0.46 1.11,0.63 1.67,0.7 0.45,0.06 0.72,0.08 1.17,0.16 0.38,0.06 -0.01,0.73 0.65,0.82 0.19,0.03 0.68,0.02 0.9,0.21 l 0.06,0.06 c 0,0 0.13,0.21 0.09,0.3 -0.23,0.54 -0.69,0.88 -0.96,1.37 -0.22,0.39 -0.15,0.76 -0.52,1.14 -0.51,0.54 -1,0.66 -1.6,1.02 -0.24,0.14 -0.29,0.46 -0.64,0.64 -0.55,0.29 -1.09,0.25 -1.65,0.44 -0.84,0.28 -1.82,1.28 -2.73,0.71 -0.42,-0.26 0.52,-0.98 0.7,-1.15 1.02,-0.92 0.11,-0.87 -0.42,-1.29 -0.34,-0.26 -0.3,-0.55 -0.49,-0.85 -0.25,-0.4 -0.84,-0.91 -0.29,-1.37 -0.34,-0.64 0.71,-0.97 0.77,-1.42 l 0.03,-0.22 c 0.01,-0.06 0.01,-0.13 0.01,-0.19 -0.69,0.49 -0.87,-0.43 -1.19,-0.53 -0.24,-0.08 -0.45,-0.08 -0.56,-0.35 -0.07,-0.16 -0.06,-0.34 -0.06,-0.51 l -0.06,-0.03 c -0.74,0.1 -0.83,0.12 -1.31,-0.63 -0.31,-0.48 -0.44,-0.15 -0.85,-0.4 -0.49,-0.31 -0.65,-0.68 -0.94,-1.14 -0.2,-0.31 -0.02,-0.52 -0.08,-0.73 -0.08,-0.29 -0.18,-0.56 -0.3,-0.83 0.04,0.34 0.08,0.69 -0.39,0.62 -0.02,0 -0.14,-0.07 -0.16,-0.09 l -0.16,-0.22 c -0.45,-0.6 -0.19,-0.82 -0.25,-1.48 -0.09,-1.07 -0.45,-1.79 0.15,-2.86 0.14,-0.24 0.31,-0.47 0.49,-0.76 0.2,-0.32 0.17,-1.21 0.88,-0.85 0.3,0.04 0.18,0.42 0.16,0.59 l -0.47,-0.11 c 0.01,-0.04 0.03,-0.07 0.04,-0.1 0.2,-0.36 -0.27,-0.54 0.25,-1.27 0.25,-0.35 0.16,-0.4 0.14,-0.78 l -0.09,-0.02 c -0.19,-0.03 -1.8,0.62 -1.15,-0.3 l 0.02,0.08 z m 5.73,4.34 -0.01,0.06 -0.03,0.13 c -0.12,0.46 -0.59,0.67 -0.66,0.28 -0.07,-0.39 -0.18,-0.83 0.18,-1.11 l 0.08,-0.06 0.01,0.39 c -0.06,-0.04 -0.11,-0.08 -0.16,-0.13 -0.08,-0.06 -0.49,-0.07 -0.59,-0.07 -0.32,-0.01 -0.37,-0.36 -0.07,-0.47 0.44,-0.16 1.07,-0.55 1.37,0.06 0.11,0.23 0.13,0.22 0.39,0.32 0.19,0.08 0.66,0.34 0.4,0.6 l -0.12,0.12 c -0.14,0.13 -0.28,0.23 -0.47,0.28 -0.37,0.1 -0.26,-0.3 -0.32,-0.4 z m 0.35,-0.14 c -0.16,-0.06 -0.3,-0.12 -0.43,-0.22 -0.18,-0.14 -0.2,-0.33 -0.26,-0.39 -0.27,-0.04 -0.51,0.14 -0.75,0.23 l -0.07,-0.47 c 0.27,0.01 0.65,0 0.87,0.18 0.15,0.12 0.4,0.3 0.14,0.49 l -0.07,0.05 c -0.2,0.2 0.18,0.57 -0.34,0.47 0.03,-0.03 0.04,-0.09 0.05,-0.13 l 0.03,-0.12 c 0.06,-0.26 0.19,-0.51 0.51,-0.46 0.34,0.05 0.51,0.39 0.47,0.71 l -0.3,-0.27 c 0.06,-0.01 0.11,-0.04 0.15,-0.07 z m 1.18,0.09 c 0.48,0.24 -0.36,0.99 -1.23,0.86 -0.2,-0.03 -0.6,-0.09 -0.35,-0.41 0.34,-0.44 0.76,-0.54 1.26,-0.58 0.09,0 0.26,0.1 0.32,0.13 z m -0.22,0.43 -0.14,-0.07 c -0.4,0.04 -0.64,0.12 -0.84,0.38 l -0.16,-0.38 c 0.46,0.06 0.74,0.07 1.08,-0.3 l 0.06,0.37 z m 0.22,5.12 0.27,-0.31 c 0.34,-0.08 0.73,0.21 1.07,0.29 0.46,0.11 0.05,0.73 -0.6,0.76 -0.25,0.01 -0.5,-0.04 -0.75,-0.08 -0.2,-0.03 -0.28,-0.16 -0.25,-0.36 l 0.02,-0.09 c 0.1,-0.09 0.18,-0.16 0.24,-0.21 z m 0.73,0.27 c -0.08,-0.04 -0.16,-0.07 -0.24,-0.09 -0.02,0.11 -0.12,0.21 -0.23,0.21 -0.09,0 -0.14,0.02 -0.23,0.03 l 0.21,-0.25 c 0,0.07 -0.01,0.13 -0.02,0.2 -0.11,-0.01 -0.17,-0.06 -0.16,-0.17 0.21,0.03 0.44,0.08 0.67,0.07 z m -2.21,-0.66 c -0.11,0.09 -0.17,0.12 -0.21,0.13 l -0.09,0 c -0.69,-0.13 -0.98,-0.98 0.3,-0.8 0.36,0.05 0.56,0.19 0.87,0.36 0.27,0.15 0.71,0.19 0.65,0.64 -0.07,0.48 -0.63,0.35 -0.94,0.31 -0.19,-0.03 -0.27,-0.18 -0.18,-0.35 l 0.03,-0.06 c -0.13,-0.1 -0.25,-0.19 -0.43,-0.23 z m -0.31,-0.37 c 0.25,-0.23 0.58,-0.09 0.83,0.08 0.14,0.09 0.48,0.32 0.47,0.51 0,0.13 -0.11,0.19 -0.16,0.3 l -0.18,-0.34 0.18,0.02 c -0.31,-0.12 -0.55,-0.33 -0.89,-0.38 -0.2,-0.03 -0.3,-0.02 -0.54,0.02 l 0.2,-0.29 c 0.01,0.02 0.02,0.05 0.09,0.08 z m 2.25,-9.67 0.07,0.03 c 0.25,0.17 0.48,0.47 0.8,0.48 0.2,0 0.2,0.23 0.32,0.34 0.1,0.08 0.2,0.15 0.29,0.25 0.21,0.22 0.52,0.67 0.86,0.64 0.04,0 0.08,-0.01 0.14,-0.01 l -0.23,0.33 c -0.14,-0.36 -0.61,-0.58 -0.3,-1.09 0.02,-0.02 0.03,-0.05 0.05,-0.07 0.05,-0.07 0.03,-0.04 0.08,-0.1 0.03,-0.04 0.03,-0.05 0.03,-0.06 -0.03,-0.03 -0.51,-0.16 -0.61,-0.22 -0.47,-0.28 -0.88,-0.73 -1.5,-0.52 z m 0.23,0.77 c -0.13,-0.09 -0.24,-0.2 -0.39,-0.31 -1.39,-0.23 0.1,-1.53 1.4,-0.7 0.16,0.1 0.3,0.22 0.5,0.32 0.32,0.18 0.93,0.15 0.85,0.71 -0.02,0.11 -0.06,0.21 -0.13,0.29 -0.06,0.07 -0.03,0.04 -0.08,0.1 -0.1,0.15 0.26,0.54 0.32,0.69 0.13,0.32 -0.26,0.36 -0.47,0.34 -0.55,-0.08 -0.77,-0.43 -1.1,-0.79 -0.15,-0.17 -0.34,-0.23 -0.45,-0.45 -0.18,-0.03 -0.32,-0.11 -0.45,-0.2 z"
         id="path8465"
         style="fill:url(#linearGradient3147)" />
      <g
         clip-path="url(#XMLID_3838_)"
         id="g8467">
        <defs
           id="defs8469">
          <path
             id="XMLID_801_"
             d="m 199.93,115.63 c 0.06,0.15 -0.19,0.25 -0.02,0.28 0.37,0.05 0.58,-0.23 0.96,-0.17 0.12,0.02 0.18,0.04 0.31,0.07 -0.03,0.25 0.05,0.41 0.02,0.66 -0.05,0.37 -0.36,0.5 -0.41,0.88 -0.03,0.23 0.09,0.37 0.06,0.61 -0.01,0.11 -0.08,0.16 -0.11,0.26 l 0.04,-0.32 c -0.07,-0.01 -0.1,-0.05 -0.17,-0.06 -0.37,-0.05 -0.29,0.5 -0.48,0.8 -0.36,0.58 -0.67,0.9 -0.77,1.58 -0.14,0.99 0.29,1.58 0.15,2.58 -0.05,0.37 0.15,0.58 0.38,0.89 0.05,0.01 0.11,0.01 0.15,-0.02 -0.06,-0.83 -0.2,-1.27 -0.18,-2.09 0.21,0.28 0.09,0.56 0.24,0.87 0.29,0.61 0.49,0.96 0.68,1.62 0.07,0.24 -0.08,0.45 0.05,0.66 0.28,0.44 0.42,0.79 0.87,1.06 0.25,0.15 0.52,0 0.73,0.21 0.32,0.33 0.37,0.78 0.82,0.84 0.23,0.03 0.38,-0.09 0.61,-0.06 0.27,0.04 0.1,0.43 0.21,0.68 0.1,0.22 0.38,0.14 0.57,0.3 0.24,0.19 0.27,0.51 0.57,0.55 0.18,0.02 0.24,-0.18 0.42,-0.16 0.28,0.04 0.19,0.44 0.15,0.73 -0.08,0.55 -0.74,0.62 -0.82,1.17 -0.01,0.1 0.09,0.15 0.07,0.25 -0.02,0.14 -0.2,0.17 -0.22,0.31 -0.06,0.39 0.25,0.57 0.45,0.9 0.19,0.29 0.17,0.58 0.43,0.79 0.38,0.3 1,0.33 0.94,0.8 -0.11,0.79 -0.82,0.94 -1.24,1.62 0.07,0.05 0.11,0.09 0.2,0.1 0.95,0.13 1.42,-0.53 2.33,-0.83 0.62,-0.2 1.04,-0.12 1.62,-0.42 0.3,-0.16 0.34,-0.46 0.63,-0.64 0.61,-0.37 1.06,-0.46 1.55,-0.98 0.31,-0.33 0.26,-0.7 0.48,-1.09 0.32,-0.56 0.69,-0.76 0.95,-1.35 -0.07,-0.05 -0.11,-0.12 -0.21,-0.14 l -0.66,-0.09 c -0.41,-0.06 -0.71,-0.42 -0.66,-0.82 -0.45,-0.07 -0.71,-0.09 -1.17,-0.16 -0.58,-0.08 -0.7,-0.71 -1.27,-0.8 -0.25,-0.03 -0.36,0.24 -0.61,0.21 -0.33,-0.05 -0.49,-0.21 -0.81,-0.26 -0.2,-0.03 -0.3,0.16 -0.39,0.34 l -0.15,0.01 c -0.04,-0.13 0,-0.24 0.02,-0.38 0.01,-0.05 -0.08,-0.06 -0.09,-0.1 -0.41,0.11 -0.55,0.58 -0.98,0.52 -0.11,-0.01 -0.15,-0.13 -0.25,-0.14 -0.19,-0.03 -0.3,0.1 -0.5,0.07 -0.36,-0.05 -0.72,-0.31 -0.67,-0.67 0.02,-0.13 0.17,-0.17 0.19,-0.3 0.05,-0.33 -0.21,-0.54 -0.52,-0.69 l -0.22,0.04 -0.32,-0.04 c 0.01,-0.06 -0.02,-0.1 -0.01,-0.16 0.03,-0.23 0.34,-0.24 0.37,-0.47 0.03,-0.2 0,-0.33 0.08,-0.53 l -0.59,-0.08 c -0.25,0.15 -0.37,0.45 -0.67,0.41 -0.53,-0.08 -0.86,-0.61 -0.78,-1.14 0.09,-0.63 0.41,-1.34 1.04,-1.25 0.21,0.03 0.3,0.15 0.52,0.18 0.15,0.02 0.2,-0.19 0.35,-0.17 0.4,0.06 0.87,0.24 0.81,0.64 -0.05,0.36 0.21,0.62 0.54,0.78 0.03,-0.09 0.05,-0.14 0.07,-0.23 l -0.09,-1.15 c 0.31,-0.55 1.08,-0.47 1.17,-1.08 l 0.06,-0.41 c 0.07,-0.47 0.6,-0.69 1.07,-0.62 -0.03,-0.18 -0.14,-0.27 -0.12,-0.45 0.03,-0.19 0.25,-0.22 0.44,-0.26 0,0.08 0,0.14 0,0.22 0.43,-0.08 0.89,-0.15 0.95,-0.57 0.01,-0.05 -0.08,-0.06 -0.09,-0.1 -0.14,0.03 -0.24,0.07 -0.39,0.05 -0.2,-0.03 -0.14,-0.32 -0.09,-0.52 -0.12,-0.02 -0.2,-0.02 -0.32,-0.01 0.09,-0.14 0.22,-0.17 0.39,-0.2 l 0.2,0.1 c 0.12,-0.05 0.19,-0.09 0.31,-0.14 0.04,0.17 -0.01,0.4 0.17,0.42 l 0.77,0.11 c 0.05,-0.19 -0.21,-0.23 -0.35,-0.38 -0.12,-0.12 0.03,-0.31 -0.08,-0.45 -0.18,-0.24 -0.45,-0.2 -0.71,-0.35 -0.44,-0.27 -0.44,-0.87 -0.96,-0.94 -0.1,-0.01 -0.14,0.13 -0.23,0.11 -0.34,-0.05 -0.4,-0.46 -0.75,-0.5 -0.11,-0.02 -0.17,0.02 -0.28,0.03 0.01,0.18 0.14,0.28 0.12,0.45 -0.04,0.3 -0.47,0.29 -0.52,0.59 -0.03,0.19 0.07,0.29 0.08,0.48 -0.28,-0.01 -0.2,-0.4 -0.39,-0.6 -0.32,-0.34 -1.05,-0.24 -0.99,-0.71 0.09,-0.67 1.22,-0.45 1.32,-1.12 0.01,-0.05 -0.05,-0.08 -0.05,-0.13 0.08,-0.01 0.13,-0.05 0.22,-0.04 0.28,0.04 0.42,0.23 0.55,0.48 -0.17,0.05 -0.28,0.03 -0.44,0.08 0.37,0.22 0.72,0.17 0.98,0.52 l 0.35,-0.17 c -0.07,-0.13 -0.13,-0.21 -0.25,-0.31 0.07,-0.02 0.14,-0.02 0.22,-0.01 -0.17,-0.31 -0.5,-0.31 -0.8,-0.52 -0.3,-0.21 -0.44,-0.42 -0.8,-0.48 l 0.02,-0.17 c 0.03,-0.22 0.18,-0.3 0.32,-0.47 -0.09,-0.05 -0.15,-0.09 -0.26,-0.11 -0.23,-0.03 -0.52,-0.02 -0.56,0.21 -0.02,0.14 0.12,0.19 0.17,0.31 -0.1,0.08 -0.17,0.13 -0.25,0.22 0.08,0.07 0.16,0.16 0.14,0.27 -0.01,0.08 -0.09,0.09 -0.16,0.12 -0.14,-0.25 -0.31,-0.41 -0.27,-0.69 -0.13,0.01 -0.29,0.01 -0.31,0.14 -0.02,0.15 0.1,0.22 0.17,0.35 -0.13,0.05 -0.21,0.12 -0.35,0.09 l -0.31,-0.04 c 0.04,-0.08 0.12,-0.11 0.14,-0.21 l 0.05,-0.36 c -0.21,-0.01 -0.32,-0.06 -0.52,-0.09 -0.17,-0.02 -0.37,0.03 -0.4,0.2 -0.03,0.19 0.16,0.25 0.27,0.4 -0.09,0.03 -0.13,0.1 -0.23,0.09 -0.19,-0.03 -0.12,-0.3 -0.27,-0.41 -0.19,-0.15 -0.39,-0.05 -0.64,-0.05 0.02,-0.23 -0.04,-0.51 -0.27,-0.54 -0.65,-0.09 -1.02,0.18 -1.64,0.42 -0.43,0.17 -0.83,0.11 -1.19,0.44 z m 4.34,3.65 c 0.32,-0.12 0.52,-0.29 0.87,-0.24 0.22,0.03 0.2,0.31 0.37,0.44 0.24,0.19 0.48,0.17 0.67,0.38 -0.16,0.16 -0.27,0.27 -0.48,0.33 0.03,-0.2 -0.07,-0.41 -0.27,-0.44 -0.32,-0.04 -0.17,0.56 -0.46,0.7 -0.05,-0.25 -0.09,-0.41 -0.05,-0.66 0.02,-0.13 0.12,-0.2 0.22,-0.28 -0.11,-0.07 -0.17,-0.17 -0.3,-0.19 -0.18,-0.01 -0.39,-0.03 -0.57,-0.04 z m 2.39,0.82 0.2,0.1 c -0.3,0.33 -0.65,0.47 -1.09,0.41 l -0.2,-0.03 c 0.28,-0.36 0.62,-0.45 1.09,-0.48 z m 0.33,5.87 c -0.1,-0.01 -0.02,-0.16 -0.03,-0.25 0.09,-0.01 0.15,-0.03 0.25,-0.04 0,-0.08 0,-0.14 -0.01,-0.22 0.06,0.01 0.09,-0.02 0.16,-0.01 0.36,0.05 0.53,0.22 0.89,0.31 -0.28,0.41 -0.77,0.28 -1.26,0.21 z m -1.75,-0.94 c -0.19,-0.03 -0.34,-0.11 -0.38,-0.3 0.24,-0.04 0.37,-0.06 0.61,-0.02 0.33,0.05 0.5,0.17 0.79,0.33 0.22,0.12 0.56,0.15 0.52,0.4 -0.02,0.15 -0.2,0.17 -0.36,0.15 l -0.31,-0.04 c 0.04,-0.08 0.08,-0.13 0.14,-0.2 -0.27,-0.24 -0.44,-0.41 -0.8,-0.46 -0.07,-0.01 -0.16,0.13 -0.21,0.14 z m 2.12,-9.7 c 0.34,0.24 0.52,0.51 0.93,0.52 0.05,0.26 0.27,0.32 0.44,0.51 0.32,0.34 0.5,0.65 0.96,0.71 0.08,0.01 0.13,-0.01 0.21,-0.01 -0.12,-0.3 -0.41,-0.43 -0.37,-0.75 0.03,-0.2 0.22,-0.26 0.25,-0.46 0.05,-0.33 -0.45,-0.31 -0.73,-0.47 -0.4,-0.22 -0.61,-0.48 -1.07,-0.55 -0.42,-0.06 -0.83,-0.01 -1.03,0.36 0.11,0.06 0.29,0.13 0.41,0.14 z" />
        </defs>
        <radialGradient
           id="radialGradient13902"
           cx="202.4023"
           cy="117.0933"
           r="17.726"
           fx="202.4023"
           fy="117.0933"
           gradientUnits="userSpaceOnUse">
          <stop
             offset="0"
             style="stop-color:#D3EDD5"
             id="stop13904" />
          <stop
             offset="0.0883"
             style="stop-color:#CEEBD0"
             id="stop13906" />
          <stop
             offset="0.1891"
             style="stop-color:#C1E5C2"
             id="stop13908" />
          <stop
             offset="0.296"
             style="stop-color:#ABDCAB"
             id="stop13910" />
          <stop
             offset="0.4073"
             style="stop-color:#8CCE8B"
             id="stop13912" />
          <stop
             offset="0.522"
             style="stop-color:#64BD62"
             id="stop13914" />
          <stop
             offset="0.6377"
             style="stop-color:#34A830"
             id="stop13916" />
          <stop
             offset="0.6742"
             style="stop-color:#23A11F"
             id="stop13918" />
          <stop
             offset="0.687"
             style="stop-color:#209C1D"
             id="stop13920" />
          <stop
             offset="0.7628"
             style="stop-color:#128110"
             id="stop13922" />
          <stop
             offset="0.8399"
             style="stop-color:#086D07"
             id="stop13924" />
          <stop
             offset="0.9183"
             style="stop-color:#026202"
             id="stop13926" />
          <stop
             offset="1"
             style="stop-color:#005E00"
             id="stop13928" />
          <a:midPointStop
             offset="0"
             style="stop-color:#D3EDD5" />
          <a:midPointStop
             offset="0.6798"
             style="stop-color:#D3EDD5" />
          <a:midPointStop
             offset="0.6742"
             style="stop-color:#23A11F" />
          <a:midPointStop
             offset="0.2844"
             style="stop-color:#23A11F" />
          <a:midPointStop
             offset="1"
             style="stop-color:#005E00" />
        </radialGradient>
        <use
           xlink:href="#XMLID_801_"
           clip-rule="evenodd"
           id="use8499"
           style="fill:url(#radialGradient3149);fill-rule:evenodd"
           x="0"
           y="0"
           width="1005.92"
           height="376.97" />
        <clipPath
           id="XMLID_3842_">
          <use
             xlink:href="#XMLID_801_"
             id="use8502"
             x="0"
             y="0"
             width="1005.92"
             height="376.97" />
        </clipPath>
        <g
           clip-path="url(#XMLID_3842_)"
           a:adobe-blending-mode="screen"
           id="g8504"
           style="opacity:0.3">
          <defs
             id="defs8506">
            <path
               id="XMLID_804_"
               d="m 216.73,121.25 c 0,5.63 -3.4,9.57 -8.98,9.96 -0.59,0.04 -0.68,-0.47 -0.1,-0.61 4.75,-1.12 7.96,-6.38 8.49,-9.41 0.05,-0.7 0.59,-0.54 0.59,0.06 z"
               style="opacity:0.3" />
          </defs>
          <clipPath
             id="XMLID_3843_"
             a:adobe-blending-mode="normal">
            <use
               xlink:href="#XMLID_804_"
               id="use8510"
               x="0"
               y="0"
               width="1005.92"
               height="376.97" />
          </clipPath>
          <path
             clip-path="url(#XMLID_3843_)"
             a:adobe-blending-mode="normal"
             d="m 216.73,121.25 c 0,5.63 -3.4,9.57 -8.98,9.96 -0.59,0.04 -0.68,-0.47 -0.1,-0.61 4.75,-1.12 7.96,-6.38 8.49,-9.41 0.05,-0.7 0.59,-0.54 0.59,0.06 z"
             id="path8512"
             style="fill:#c9ffc9" />
          <path
             clip-path="url(#XMLID_3843_)"
             stroke-miterlimit="3.8637"
             a:adobe-blending-mode="normal"
             d="m 216.99,121.29 c 0,5.63 -3.4,9.57 -8.98,9.96 -0.59,0.04 -0.68,-0.47 -0.1,-0.61 4.75,-1.12 7.96,-6.38 8.48,-9.41 0.06,-0.69 0.6,-0.53 0.6,0.06 z"
             id="path8514"
             style="fill:none;stroke:#a7dbaa;stroke-width:2.96950006;stroke-miterlimit:3.86369991" />
          <path
             clip-path="url(#XMLID_3843_)"
             stroke-miterlimit="3.8637"
             a:adobe-blending-mode="normal"
             d="m 216.86,121.27 c 0,5.63 -3.4,9.57 -8.98,9.96 -0.59,0.04 -0.68,-0.47 -0.1,-0.61 4.75,-1.12 7.96,-6.38 8.49,-9.41 0.05,-0.69 0.59,-0.54 0.59,0.06 z"
             id="path8516"
             style="fill:none;stroke:#85cd92;stroke-width:1.48479998;stroke-miterlimit:3.86369991" />
          <path
             clip-path="url(#XMLID_3843_)"
             stroke-miterlimit="3.8637"
             a:adobe-blending-mode="normal"
             d="m 216.73,121.25 c 0,5.63 -3.4,9.57 -8.98,9.96 -0.59,0.04 -0.68,-0.47 -0.1,-0.61 4.75,-1.12 7.96,-6.38 8.49,-9.41 0.05,-0.7 0.59,-0.54 0.59,0.06 z"
             id="path8518"
             style="fill:none;stroke:#65bd7b;stroke-width:0;stroke-miterlimit:3.86369991" />
        </g>
      </g>
    </g>
  </g>
</svg>
