<svg xmlns="http://www.w3.org/2000/svg" xmlns:xlink="http://www.w3.org/1999/xlink" width="48" height="48" version="1.0"><defs><radialGradient id="c" cx="277.233" cy="187.325" r="1.481" fx="277.233" fy="187.325" gradientTransform="translate(-110.215 -100.653)scale(1.2202)" gradientUnits="userSpaceOnUse"><stop offset="0" style="stop-color:#c9ffc9"/><stop offset="1" style="stop-color:#23a11f"/></radialGradient><radialGradient id="i" cx="202.402" cy="117.093" r="17.726" fx="202.402" fy="117.093" gradientUnits="userSpaceOnUse"><stop offset="0" style="stop-color:#d3edd5"/><stop offset=".088" style="stop-color:#ceebd0"/><stop offset=".189" style="stop-color:#c1e5c2"/><stop offset=".296" style="stop-color:#abdcab"/><stop offset=".407" style="stop-color:#8cce8b"/><stop offset=".522" style="stop-color:#64bd62"/><stop offset=".638" style="stop-color:#34a830"/><stop offset=".674" style="stop-color:#23a11f"/><stop offset=".687" style="stop-color:#209c1d"/><stop offset=".763" style="stop-color:#128110"/><stop offset=".84" style="stop-color:#086d07"/><stop offset=".918" style="stop-color:#026202"/><stop offset="1" style="stop-color:#005e00"/></radialGradient><radialGradient id="h" cx="204.252" cy="118.021" r="13.804" fx="204.252" fy="118.021" gradientUnits="userSpaceOnUse"><stop offset="0" style="stop-color:#dfeaeb"/><stop offset=".303" style="stop-color:#b7e9ff"/><stop offset=".528" style="stop-color:#3c97f6"/><stop offset=".826" style="stop-color:#032c87"/><stop offset="1" style="stop-color:#0342d3"/></radialGradient><radialGradient id="d" cx="45.236" cy="-11.058" r="19.594" fx="45.236" fy="-11.058" gradientTransform="translate(170.265 126.032)scale(.7467)" gradientUnits="userSpaceOnUse"><stop offset="0" style="stop-color:#fff"/><stop offset=".208" style="stop-color:#b7e9ff"/><stop offset=".472" style="stop-color:#3c97f6"/><stop offset=".668" style="stop-color:#032c87"/><stop offset="1" style="stop-color:#0342d3"/></radialGradient><radialGradient xlink:href="#h" id="k" cx="204.252" cy="118.021" r="13.804" fx="204.252" fy="118.021" gradientUnits="userSpaceOnUse"/><radialGradient xlink:href="#i" id="q" cx="202.402" cy="117.093" r="17.726" fx="202.402" fy="117.093" gradientUnits="userSpaceOnUse"/><linearGradient id="g" x1="213.12" x2="230.64" y1="106.927" y2="124.447" gradientUnits="userSpaceOnUse"><stop offset="0" style="stop-color:#d9d9d9"/><stop offset="1" style="stop-color:#fff"/></linearGradient><linearGradient id="b" x1="213.232" x2="229.991" y1="112.989" y2="96.23" gradientUnits="userSpaceOnUse"><stop offset="0" style="stop-color:#f2f2f2"/><stop offset="1" style="stop-color:#e5e5e5"/></linearGradient><linearGradient id="a" x1="222.274" x2="234.441" y1="120.432" y2="120.432" gradientUnits="userSpaceOnUse"><stop offset="0" style="stop-color:#d9d9d9"/><stop offset=".197" style="stop-color:#fff"/><stop offset="1" style="stop-color:#999"/></linearGradient><linearGradient id="f" x1="213.122" x2="230.642" y1="106.929" y2="124.449" gradientUnits="userSpaceOnUse"><stop offset="0" style="stop-color:#d9d9d9"/><stop offset="1" style="stop-color:#fff"/></linearGradient><linearGradient id="e" x1="206.865" x2="205.773" y1="114.546" y2="135.382" gradientUnits="userSpaceOnUse"><stop offset="0" style="stop-color:#65bd7b"/><stop offset=".007" style="stop-color:#61bb75"/><stop offset=".057" style="stop-color:#46b050"/><stop offset=".102" style="stop-color:#33a835"/><stop offset=".143" style="stop-color:#27a325"/><stop offset=".174" style="stop-color:#23a11f"/><stop offset=".298" style="stop-color:#1d881d"/><stop offset=".498" style="stop-color:#15651b"/><stop offset=".687" style="stop-color:#0f4c19"/><stop offset=".86" style="stop-color:#0b3d18"/><stop offset="1" style="stop-color:#0a3818"/></linearGradient><linearGradient xlink:href="#e" id="o" x1="206.865" x2="205.773" y1="114.546" y2="135.382" gradientUnits="userSpaceOnUse"/></defs><g transform="matrix(2.0355 0 0 2.0355 -398.935 -224.399)"><defs><circle id="j" cx="207.75" cy="122.13" r="9.69"/></defs><use xlink:href="#j" width="1005.92" height="376.97" clip-rule="evenodd" style="fill:url(#k);fill-rule:evenodd"/><clipPath id="l"><use xlink:href="#j" width="1005.92" height="376.97"/></clipPath><g clip-path="url(#l)"><defs><path id="m" d="M216.73 121.25c0 5.63-3.4 9.57-8.98 9.96-.59.04-.68-.47-.1-.61 4.75-1.12 7.96-6.38 8.49-9.41.05-.7.59-.54.59.06z"/></defs><clipPath id="n"><use xlink:href="#m" width="1005.92" height="376.97"/></clipPath><path d="M216.73 121.25c0 5.63-3.4 9.57-8.98 9.96-.59.04-.68-.47-.1-.61 4.75-1.12 7.96-6.38 8.49-9.41.05-.7.59-.54.59.06z" clip-path="url(#n)" style="fill:#3c97f6"/><path stroke-miterlimit="3.864" d="M216.99 121.29c0 5.63-3.4 9.57-8.98 9.96-.59.04-.68-.47-.1-.61 4.75-1.12 7.96-6.38 8.48-9.41.06-.69.6-.53.6.06z" clip-path="url(#n)" style="fill:none;stroke:#2b76b4;stroke-width:2.96950006;stroke-miterlimit:3.86369991"/><path stroke-miterlimit="3.864" d="M216.86 121.27c0 5.63-3.4 9.57-8.98 9.96-.59.04-.68-.47-.1-.61 4.75-1.12 7.96-6.38 8.49-9.41.05-.69.59-.54.59.06z" clip-path="url(#n)" style="fill:none;stroke:#1459a5;stroke-width:1.48479998;stroke-miterlimit:3.86369991"/><path d="M216.73 121.25c0 5.63-3.4 9.57-8.98 9.96-.59.04-.68-.47-.1-.61 4.75-1.12 7.96-6.38 8.49-9.41.05-.7.59-.54.59.06z" clip-path="url(#n)" style="fill:none;stroke:#1d3f99;stroke-width:0;stroke-miterlimit:3.86369991"/></g><path d="m204.25 115.42.08.08c.15.13.31.39.02.5l-.08.05c-.41.22-.53-.11-.65-.39-.17-.14-.77.17-.74-.27 0-.06 0-.24-.05-.29-.71-.1-1.23.36-1.89.51-.24.06-.49.08-.7.22-.01.08-.05.15-.1.21-.28-.04-.25-.13-.13-.29.38.05.38-.29 1.28-.1.32.07.21 1.04.1 1.25-.3.57-.34.29-.25.94.03.2-.01.32-.11.49-.1.3-.42.27-.48.04l-.03.14c-.03.1-.06.22-.13.33-.68 1.1-.91 1.29-.66 2.7.08.47.14.89.07 1.37-.03.2.06.34.17.5l.16.21-.15-.09c-.08.01-.13.3-.14.23-.07-.84-.2-1.29-.18-2.12.01-.45.55-.33.63.41.01.12.02.25.07.36.26.55.53 1.07.69 1.66.04.14-.02.53.02.59.24.38.39.74.79.99.18.11.49-.04.78.25.29.3.38.87.9.75 1-.25.65.46.79.79.28.17.41.02.69.41.06.09.16.28.27.3.16-.07.18-.19.42-.16.41.06.43.46.39.77l-.03.23c-.09.64-.73.75-.81 1.14.15.26.05.44-.16.61-.02.24.3.52.42.71.13.21.2.59.38.73.38.3 1.12.34 1.03 1.03-.11.77-.64.97-1.08 1.46.73.02 1.38-.6 2.06-.83.52-.17 1.09-.15 1.58-.41.21-.11.32-.45.62-.63.61-.37 1.49-.6 1.72-1.36.06-.21.12-.42.23-.62.24-.42.62-.73.85-1.15-.6-.08-1.36-.14-1.45-.94-.82-.12-1.15 0-1.73-.59-.08-.08-.37-.39-.54-.32-.12.07-.08.05-.18.11-.45.27-.78-.11-1.21-.17-.22.16-.04.31-.48.36-.25.03-.3-.27-.28-.45l.01-.09c-.03-.04-.06-.08-.07-.13.1.06.2.12.3.17-.41.11-.77.89-1.33.39-.17-.02-.28.09-.5.06-.61-.09-1.21-.74-.71-1.23.05-.17-.04-.28-.29-.42l-.14.02h-.08l-.32-.05-.21-.27c-.05-.22.03-.38.2-.51.09-.07.05-.04.13-.09.04-.12.05-.21.05-.29l-.23-.08-.06.06c-.2.2-.38.39-.71.34-1.77-.25-.92-3.54.66-2.75.06.03.1.05.15.06.46-.44 1.5.12 1.41.75-.02.12.02.23.12.33-.07-.9-.29-1.15.54-1.59l.19-.1c.43-.22.36-.33.43-.79.07-.52.52-.77.96-.83-.1-.37.11-.59.46-.68l.14-.03c.15-.04.26.04.29.16.17-.04.38-.09.45-.22a.238.238 0 0 1-.06-.11c.1.06.19.12.29.18-.4.1-.88.14-.82-.47-.49.03-.34-.52.18-.65l.13-.03c.08-.02.19.04.25.07.44-.2.5-.14.57.32l.08.01c-.06-.13-.01-.23-.03-.36-.08-.11-.49-.19-.64-.28-.34-.21-.57-.82-.8-.9-.24.21-.54.06-.73-.14-.1-.11-.06-.07-.15-.17-.15-.15-.19-.08-.37-.06l.21-.25c.02.28.35.56-.16.9l-.1.06-.08.05c-.09.06-.08.1-.05.21l.04.12c.15.59-.51.55-.67.03-.13-.43-.21-.36-.65-.52-.83-.3-.56-1.05.07-1.32.2-.09.65-.2.73-.4-.24-.42.7-.78 1.19.19.03.07.04.14.01.2.05.02.1.04.15.07a.19.19 0 0 1 .01-.13l-.2-.09c-.34-.15-.63-.53-.96-.58-.34-.05-.18-.59-.05-.76-.05 0-.08 0-.12.01.14.17.2.37.05.48l-.07.05c.26.48-.4.78-.56.49-.16-.29-.34-.47-.29-.84l.26.27c.28.41-.21.63-.54.58-.26-.04-.77-.09-.42-.49l.05-.05.01-.1c-.1 0-.28-.05-.39-.03zm-4.47.37.06-.24c.42-.37.83-.31 1.29-.49.55-.22 2.05-.98 2.22.09l.1-.01c.14-.01.3 0 .47.13.11.08.15.2.19.32.02-.01.04-.02.07-.04l-.11.37c-.18-.24-.52-.46-.21-.81.29-.33.71-.1 1.06-.08.36.02.24.69.05.88-.03.03-.4-.33-.22-.31.38.05.26.09.53-.03l-.11.34c-.14-.25-.43-.66.08-.81l.14-.03.11-.01c.33-.02.21.31.3.49.05.1.13.2.2.32l-.24-.07c-.19-.19-.27-.24-.03-.46-.39-.55.42-.95 1.08-.59.39.21-.13.49-.18.67.33.12.54.42.85.56.23.1.93.45.69.78.2.35-.55.7-.73.46-.19-.25-.64-.29-.91-.46-.32-.2-.07-.42.16-.46-.02-.02-.05-.03-.07-.04-.18.77-1.44.66-1.29 1.11.14.13.63.16.91.45.13.13.16.3.22.47.02.06.01.06.01.06-.19-.09-.19.46-.27.17l-.03-.1c-.09-.31-.03-.56.24-.74l.1-.06.08-.05c.15-.1-.04-.3-.05-.48-.02-.41.71-.33.99-.05.11.12.05.06.15.17.03.03.06.06.1.08.48-.42.91.38 1.14.69.06.08.12.14.19.19.41.25.93.14.86.86.2.17.49.22.39.59-.1.35-1.25.22-1.37-.25-.13.05-.24-.01-.35-.06-.08.02-.13.03-.15.08l-.22-.37c.42-.03.63-.02.55.45l-.01.08c.11-.02.17-.04.23-.05l.29.18c-.04-.02-.05-.06-.06-.1.48.28-.1.88-.66 1.01-.16.04-.45.14-.57-.03l.06.15c.32.83-.91.12-1.02.86-.08.61-.08.84-.68 1.15l-.18.09c-.13.07-.26.15-.35.27l.08 1.07-.01.07c-.24.99-1.17-.04-1.08-.65.03-.24-.42-.34-.57-.36-.38.37-.57.03-.91-.02-.74-.1-1.2 1.77-.2 1.91.19.03.41-.45.67-.41.85.12.78-.03.74.6-.02.28 0 .45-.24.63l-.08.06c.69-.12 1.34.7.81 1.23-.04.27.36.46.6.37.24-.08.42-.09.61.08.2.03.6-.42.88-.5l.3.17c-.04-.02-.05-.06-.06-.1.06.03.1.07.13.12.42-.28 1.01.25 1.2.17.13-.08.07-.04.18-.11.77-.46 1.11.63 1.67.7.45.06.72.08 1.17.16.38.06-.01.73.65.82.19.03.68.02.9.21l.06.06s.13.21.09.3c-.23.54-.69.88-.96 1.37-.22.39-.15.76-.52 1.14-.51.54-1 .66-1.6 1.02-.24.14-.29.46-.64.64-.55.29-1.09.25-1.65.44-.84.28-1.82 1.28-2.73.71-.42-.26.52-.98.7-1.15 1.02-.92.11-.87-.42-1.29-.34-.26-.3-.55-.49-.85-.25-.4-.84-.91-.29-1.37-.34-.64.71-.97.77-1.42l.03-.22c.01-.06.01-.13.01-.19-.69.49-.87-.43-1.19-.53-.24-.08-.45-.08-.56-.35-.07-.16-.06-.34-.06-.51l-.06-.03c-.74.1-.83.12-1.31-.63-.31-.48-.44-.15-.85-.4-.49-.31-.65-.68-.94-1.14-.2-.31-.02-.52-.08-.73-.08-.29-.18-.56-.3-.83.04.34.08.69-.39.62-.02 0-.14-.07-.16-.09l-.16-.22c-.45-.6-.19-.82-.25-1.48-.09-1.07-.45-1.79.15-2.86.14-.24.31-.47.49-.76.2-.32.17-1.21.88-.85.3.04.18.42.16.59l-.47-.11c.01-.04.03-.07.04-.1.2-.36-.27-.54.25-1.27.25-.35.16-.4.14-.78l-.09-.02c-.19-.03-1.8.62-1.15-.3l.02.08zm5.73 4.34-.01.06-.03.13c-.12.46-.59.67-.66.28-.07-.39-.18-.83.18-1.11l.08-.06.01.39a1.01 1.01 0 0 1-.16-.13c-.08-.06-.49-.07-.59-.07-.32-.01-.37-.36-.07-.47.44-.16 1.07-.55 1.37.06.11.23.13.22.39.32.19.08.66.34.4.6l-.12.12c-.14.13-.28.23-.47.28-.37.1-.26-.3-.32-.4zm.35-.14c-.16-.06-.3-.12-.43-.22-.18-.14-.2-.33-.26-.39-.27-.04-.51.14-.75.23l-.07-.47c.27.01.65 0 .87.18.15.12.4.3.14.49l-.07.05c-.2.2.18.57-.34.47.03-.03.04-.09.05-.13l.03-.12c.06-.26.19-.51.51-.46.34.05.51.39.47.71l-.3-.27c.06-.01.11-.04.15-.07zm1.18.09c.48.24-.36.99-1.23.86-.2-.03-.6-.09-.35-.41.34-.44.76-.54 1.26-.58.09 0 .26.1.32.13zm-.22.43-.14-.07c-.4.04-.64.12-.84.38l-.16-.38c.46.06.74.07 1.08-.3l.06.37zm.22 5.12.27-.31c.34-.08.73.21 1.07.29.46.11.05.73-.6.76-.25.01-.5-.04-.75-.08-.2-.03-.28-.16-.25-.36l.02-.09c.1-.09.18-.16.24-.21zm.73.27c-.08-.04-.16-.07-.24-.09-.02.11-.12.21-.23.21-.09 0-.14.02-.23.03l.21-.25c0 .07-.01.13-.02.2-.11-.01-.17-.06-.16-.17.21.03.44.08.67.07zm-2.21-.66c-.11.09-.17.12-.21.13h-.09c-.69-.13-.98-.98.3-.8.36.05.56.19.87.36.27.15.71.19.65.64-.07.48-.63.35-.94.31-.19-.03-.27-.18-.18-.35l.03-.06c-.13-.1-.25-.19-.43-.23zm-.31-.37c.25-.23.58-.09.83.08.14.09.48.32.47.51 0 .13-.11.19-.16.3l-.18-.34.18.02c-.31-.12-.55-.33-.89-.38-.2-.03-.3-.02-.54.02l.2-.29c.01.02.02.05.09.08zm2.25-9.67.07.03c.25.17.48.47.8.48.2 0 .2.23.32.34.1.08.2.15.29.25.21.22.52.67.86.64.04 0 .08-.01.14-.01l-.23.33c-.14-.36-.61-.58-.3-1.09.02-.02.03-.05.05-.07.05-.07.03-.04.08-.1.03-.04.03-.05.03-.06-.03-.03-.51-.16-.61-.22-.47-.28-.88-.73-1.5-.52zm.23.77c-.13-.09-.24-.2-.39-.31-1.39-.23.1-1.53 1.4-.7.16.1.3.22.5.32.32.18.93.15.85.71-.02.11-.06.21-.13.29-.06.07-.03.04-.08.1-.1.15.26.54.32.69.13.32-.26.36-.47.34-.55-.08-.77-.43-1.1-.79-.15-.17-.34-.23-.45-.45-.18-.03-.32-.11-.45-.2z" clip-path="url(#l)" style="fill:url(#o)"/><g clip-path="url(#l)"><defs><path id="p" d="M199.93 115.63c.06.15-.19.25-.02.28.37.05.58-.23.96-.17.12.02.18.04.31.07-.03.25.05.41.02.66-.05.37-.36.5-.41.88-.03.23.09.37.06.61-.01.11-.08.16-.11.26l.04-.32c-.07-.01-.1-.05-.17-.06-.37-.05-.29.5-.48.8-.36.58-.67.9-.77 1.58-.14.99.29 1.58.15 2.58-.05.37.15.58.38.89.05.01.11.01.15-.02-.06-.83-.2-1.27-.18-2.09.21.28.09.56.24.87.29.61.49.96.68 1.62.07.24-.08.45.05.66.28.44.42.79.87 1.06.25.15.52 0 .73.21.32.33.37.78.82.84.23.03.38-.09.61-.06.27.04.1.43.21.68.1.22.38.14.57.3.24.19.27.51.57.55.18.02.24-.18.42-.16.28.04.19.44.15.73-.08.55-.74.62-.82 1.17-.01.1.09.15.07.25-.02.14-.2.17-.22.31-.06.39.25.57.45.9.19.29.17.58.43.79.38.3 1 .33.94.8-.11.79-.82.94-1.24 1.62.07.05.11.09.2.1.95.13 1.42-.53 2.33-.83.62-.2 1.04-.12 1.62-.42.3-.16.34-.46.63-.64.61-.37 1.06-.46 1.55-.98.31-.33.26-.7.48-1.09.32-.56.69-.76.95-1.35-.07-.05-.11-.12-.21-.14l-.66-.09c-.41-.06-.71-.42-.66-.82-.45-.07-.71-.09-1.17-.16-.58-.08-.7-.71-1.27-.8-.25-.03-.36.24-.61.21-.33-.05-.49-.21-.81-.26-.2-.03-.3.16-.39.34l-.15.01c-.04-.13 0-.24.02-.38.01-.05-.08-.06-.09-.1-.41.11-.55.58-.98.52-.11-.01-.15-.13-.25-.14-.19-.03-.3.1-.5.07-.36-.05-.72-.31-.67-.67.02-.13.17-.17.19-.3.05-.33-.21-.54-.52-.69l-.22.04-.32-.04c.01-.06-.02-.1-.01-.16.03-.23.34-.24.37-.47.03-.2 0-.33.08-.53l-.59-.08c-.25.15-.37.45-.67.41-.53-.08-.86-.61-.78-1.14.09-.63.41-1.34 1.04-1.25.21.03.3.15.52.18.15.02.2-.19.35-.17.4.06.87.24.81.64-.05.36.21.62.54.78.03-.09.05-.14.07-.23l-.09-1.15c.31-.55 1.08-.47 1.17-1.08l.06-.41c.07-.47.6-.69 1.07-.62-.03-.18-.14-.27-.12-.45.03-.19.25-.22.44-.26v.22c.43-.08.89-.15.95-.57.01-.05-.08-.06-.09-.1-.14.03-.24.07-.39.05-.2-.03-.14-.32-.09-.52-.12-.02-.2-.02-.32-.01.09-.14.22-.17.39-.2l.2.1c.12-.05.19-.09.31-.14.04.17-.01.4.17.42l.77.11c.05-.19-.21-.23-.35-.38-.12-.12.03-.31-.08-.45-.18-.24-.45-.2-.71-.35-.44-.27-.44-.87-.96-.94-.1-.01-.14.13-.23.11-.34-.05-.4-.46-.75-.5-.11-.02-.17.02-.28.03.01.18.14.28.12.45-.04.3-.47.29-.52.59-.03.19.07.29.08.48-.28-.01-.2-.4-.39-.6-.32-.34-1.05-.24-.99-.71.09-.67 1.22-.45 1.32-1.12.01-.05-.05-.08-.05-.13.08-.01.13-.05.22-.04.28.04.42.23.55.48-.17.05-.28.03-.44.08.37.22.72.17.98.52l.35-.17a.926.926 0 0 0-.25-.31c.07-.02.14-.02.22-.01-.17-.31-.5-.31-.8-.52-.3-.21-.44-.42-.8-.48l.02-.17c.03-.22.18-.3.32-.47-.09-.05-.15-.09-.26-.11-.23-.03-.52-.02-.56.21-.02.14.12.19.17.31-.1.08-.17.13-.25.22.08.07.16.16.14.27-.01.08-.09.09-.16.12-.14-.25-.31-.41-.27-.69-.13.01-.29.01-.31.14-.02.15.1.22.17.35-.13.05-.21.12-.35.09l-.31-.04c.04-.08.12-.11.14-.21l.05-.36c-.21-.01-.32-.06-.52-.09-.17-.02-.37.03-.4.2-.03.19.16.25.27.4-.09.03-.13.1-.23.09-.19-.03-.12-.3-.27-.41-.19-.15-.39-.05-.64-.05.02-.23-.04-.51-.27-.54-.65-.09-1.02.18-1.64.42-.43.17-.83.11-1.19.44zm4.34 3.65c.32-.12.52-.29.87-.24.22.03.2.31.37.44.24.19.48.17.67.38-.16.16-.27.27-.48.33.03-.2-.07-.41-.27-.44-.32-.04-.17.56-.46.7-.05-.25-.09-.41-.05-.66.02-.13.12-.2.22-.28-.11-.07-.17-.17-.3-.19-.18-.01-.39-.03-.57-.04zm2.39.82.2.1c-.3.33-.65.47-1.09.41l-.2-.03c.28-.36.62-.45 1.09-.48zm.33 5.87c-.1-.01-.02-.16-.03-.25.09-.01.15-.03.25-.04 0-.08 0-.14-.01-.22.06.01.09-.02.16-.01.36.05.53.22.89.31-.28.41-.77.28-1.26.21zm-1.75-.94c-.19-.03-.34-.11-.38-.3.24-.04.37-.06.61-.02.33.05.5.17.79.33.22.12.56.15.52.4-.02.15-.2.17-.36.15l-.31-.04c.04-.08.08-.13.14-.2-.27-.24-.44-.41-.8-.46-.07-.01-.16.13-.21.14zm2.12-9.7c.34.24.52.51.93.52.05.26.27.32.44.51.32.34.5.65.96.71.08.01.13-.01.21-.01-.12-.3-.41-.43-.37-.75.03-.2.22-.26.25-.46.05-.33-.45-.31-.73-.47-.4-.22-.61-.48-1.07-.55-.42-.06-.83-.01-1.03.36.11.06.29.13.41.14z"/></defs><use xlink:href="#p" width="1005.92" height="376.97" clip-rule="evenodd" style="fill:url(#q);fill-rule:evenodd"/><clipPath id="r"><use xlink:href="#p" width="1005.92" height="376.97"/></clipPath><g clip-path="url(#r)" style="opacity:.3"><defs><path id="s" d="M216.73 121.25c0 5.63-3.4 9.57-8.98 9.96-.59.04-.68-.47-.1-.61 4.75-1.12 7.96-6.38 8.49-9.41.05-.7.59-.54.59.06z" style="opacity:.3"/></defs><clipPath id="t"><use xlink:href="#s" width="1005.92" height="376.97"/></clipPath><path d="M216.73 121.25c0 5.63-3.4 9.57-8.98 9.96-.59.04-.68-.47-.1-.61 4.75-1.12 7.96-6.38 8.49-9.41.05-.7.59-.54.59.06z" clip-path="url(#t)" style="fill:#c9ffc9"/><path stroke-miterlimit="3.864" d="M216.99 121.29c0 5.63-3.4 9.57-8.98 9.96-.59.04-.68-.47-.1-.61 4.75-1.12 7.96-6.38 8.48-9.41.06-.69.6-.53.6.06z" clip-path="url(#t)" style="fill:none;stroke:#a7dbaa;stroke-width:2.96950006;stroke-miterlimit:3.86369991"/><path stroke-miterlimit="3.864" d="M216.86 121.27c0 5.63-3.4 9.57-8.98 9.96-.59.04-.68-.47-.1-.61 4.75-1.12 7.96-6.38 8.49-9.41.05-.69.59-.54.59.06z" clip-path="url(#t)" style="fill:none;stroke:#85cd92;stroke-width:1.48479998;stroke-miterlimit:3.86369991"/><path d="M216.73 121.25c0 5.63-3.4 9.57-8.98 9.96-.59.04-.68-.47-.1-.61 4.75-1.12 7.96-6.38 8.49-9.41.05-.7.59-.54.59.06z" clip-path="url(#t)" style="fill:none;stroke:#65bd7b;stroke-width:0;stroke-miterlimit:3.86369991"/></g></g></g></svg>