<svg xmlns="http://www.w3.org/2000/svg" xmlns:xlink="http://www.w3.org/1999/xlink" width="48" height="48" version="1.0"><defs><linearGradient id="c"><stop offset="0"/><stop offset="1" stop-opacity="0"/></linearGradient><linearGradient id="b"><stop offset="0" stop-color="#fff"/><stop offset="1" stop-color="#fff" stop-opacity="0"/></linearGradient><linearGradient id="a"><stop offset="0" stop-color="#888a85"/><stop offset="1" stop-color="#d3d7cf"/></linearGradient><linearGradient id="d"><stop offset="0" stop-color="#d3d7cf"/><stop offset="1" stop-color="#888a85"/></linearGradient><linearGradient xlink:href="#a" id="f" x1="22.965" x2="12.641" y1="35.311" y2="11.424" gradientTransform="rotate(-15 6.51 -27.277)" gradientUnits="userSpaceOnUse"/><linearGradient xlink:href="#b" id="g" x1="17.413" x2="17.028" y1="7.871" y2="52.505" gradientTransform="rotate(-15 6.51 -27.277)" gradientUnits="userSpaceOnUse"/><linearGradient xlink:href="#d" id="i" x1="21.788" x2="10.211" y1="21.877" y2="3.423" gradientTransform="rotate(-15 9.72 -32.246)scale(.94118)" gradientUnits="userSpaceOnUse"/><linearGradient xlink:href="#b" id="j" x1="16.488" x2="32.567" y1="13.971" y2="30.758" gradientTransform="rotate(-15 23.5 19)" gradientUnits="userSpaceOnUse"/><linearGradient xlink:href="#b" id="k" x1="28.357" x2="17.732" y1="22.795" y2="5.188" gradientTransform="rotate(-15 23.5 19)" gradientUnits="userSpaceOnUse"/><linearGradient xlink:href="#b" id="m" x1="14.375" x2="30.438" y1="31.062" y2="44.062" gradientUnits="userSpaceOnUse"/><linearGradient id="p" x1="20.807" x2="17.449" y1="36.825" y2="30.901" gradientUnits="userSpaceOnUse"><stop offset="0" stop-color="#eeeeec"/><stop offset="1" stop-color="#eeeeec" stop-opacity="0"/></linearGradient><linearGradient id="q" x1="17.66" x2="23.032" y1="36.68" y2="31.111" gradientUnits="userSpaceOnUse"><stop offset="0" stop-color="#eeeeec"/><stop offset="1" stop-color="#eeeeec" stop-opacity="0"/></linearGradient><linearGradient xlink:href="#a" id="o" x1="16.794" x2="22.053" y1="30.676" y2="37.128" gradientTransform="translate(-3 1)" gradientUnits="userSpaceOnUse"/><linearGradient xlink:href="#d" id="l" x1="14.496" x2="26.737" y1="29.88" y2="42.564" gradientTransform="translate(-3 1)" gradientUnits="userSpaceOnUse"/><radialGradient xlink:href="#c" id="h" cx="31" cy="12" r="11.125" gradientTransform="rotate(-15 30.641 13.478)scale(1.01195)" gradientUnits="userSpaceOnUse"/><radialGradient id="n" cx="42.5" cy="34.5" r="8.688" gradientTransform="matrix(1 0 0 .9964 -26 1.124)" gradientUnits="userSpaceOnUse"><stop offset="0"/><stop offset="1" stop-opacity="0"/></radialGradient><radialGradient xlink:href="#c" id="e" cx="15.312" cy="34.656" r="9.5" gradientTransform="matrix(1 0 0 1.0033 0 -.114)" gradientUnits="userSpaceOnUse"/></defs><path fill="url(#e)" d="M24.812 34.656a9.5 9.531 0 1 1-19 0 9.5 9.531 0 1 1 19 0z" opacity=".49" transform="matrix(1.3882 0 0 .49836 -4.756 25.479)"/><path fill="url(#e)" d="M24.812 34.656a9.5 9.531 0 1 1-19 0 9.5 9.531 0 1 1 19 0z" opacity=".247" transform="matrix(1.4737 0 0 .65574 10.434 15.525)"/><path fill="url(#f)" stroke="#2e3436" stroke-linecap="square" stroke-width="1.005" d="M31 .5c-.562 0-1.116.047-1.656.125l-.219 3.094c-.96.216-1.85.583-2.656 1.094L24.125 2.78C23 3.5 22.5 4 21.781 5.125l2.031 2.344a8.37 8.37 0 0 0-1.093 2.656l-3.094.219c-.078.54-.125 1.094-.125 1.656s.047 1.116.125 1.656l3.094.219c.215.96.583 1.85 1.093 2.656l-2.031 2.344C22.5 20 23 20.5 24.125 21.219l2.344-2.031c.806.51 1.696.878 2.656 1.093l.219 3.094c.54.078 1.094.125 1.656.125s1.116-.047 1.656-.125l.219-3.094a8.359 8.359 0 0 0 2.656-1.093l2.344 2.031C39 20.5 39.5 20 40.219 18.875l-2.031-2.344a8.359 8.359 0 0 0 1.093-2.656l3.094-.219c.078-.54.125-1.094.125-1.656s-.047-1.116-.125-1.656l-3.094-.219a8.37 8.37 0 0 0-1.093-2.656l2.031-2.344C39.569 4.017 39 3.5 37.875 2.781l-2.344 2.031a8.371 8.371 0 0 0-2.656-1.093L32.656.625A11.588 11.588 0 0 0 31 .5zm0 9a2.5 2.5 0 0 1 0 5 2.5 2.5 0 0 1 0-5z" transform="rotate(15 -28.766 27.596)"/><path fill="none" stroke="url(#g)" stroke-linecap="square" stroke-width="1.133" d="M31 1.438c-.26 0-.522.042-.781.062L30 4.563a7.455 7.455 0 0 0-3.531 1.468l-2.313-1.968a10.5 10.5 0 0 0-1.093 1.093l1.968 2.313A7.458 7.458 0 0 0 23.563 11l-3.063.219c-.021.259-.062.521-.062.781s.041.522.062.781l3.063.219a7.455 7.455 0 0 0 1.468 3.531l-1.968 2.313c.337.391.702.756 1.093 1.094l2.313-1.969A7.466 7.466 0 0 0 30 19.438l.219 3.062c.259.021.521.063.781.063s.522-.042.781-.063L32 19.438a7.466 7.466 0 0 0 3.531-1.469l2.313 1.969a10.66 10.66 0 0 0 1.094-1.094l-1.969-2.313A7.466 7.466 0 0 0 38.438 13l3.062-.219c.021-.259.063-.521.063-.781s-.042-.522-.063-.781L38.438 11a7.47 7.47 0 0 0-1.469-3.531l1.969-2.313a10.607 10.607 0 0 0-1.094-1.094l-2.313 1.97A7.455 7.455 0 0 0 32 4.561L31.781 1.5c-.259-.02-.521-.063-.781-.063z" transform="rotate(15 -28.766 27.596)"/><path fill="url(#h)" d="M31 .875c-.321 0-.584.044-.812.063l-.5.03-.032.5-.187 2.657c-1.06.21-2.042.64-2.907 1.219l-2.406-2.032-1.844 1.844 2.032 2.407a8.038 8.038 0 0 0-1.219 2.906l-2.656.187-.5.032-.031.5c-.019.228-.063.491-.063.812s.044.584.063.812l.031.5.5.032 2.656.187a8.045 8.045 0 0 0 1.219 2.907l-1.719 2.031-.313.375.313.375c.356.412.744.8 1.156 1.156l.375.313.375-.313 2.031-1.719a8.045 8.045 0 0 0 2.907 1.219l.187 2.656.032.5.5.031c.228.019.491.063.812.063s.584-.044.812-.063l.5-.031.032-.5.187-2.656a8.045 8.045 0 0 0 2.907-1.219l2.031 1.719.375.313.375-.313c.412-.356.8-.744 1.156-1.156l.313-.375-.313-.375-1.719-2.031a8.045 8.045 0 0 0 1.219-2.907l2.656-.187.5-.032.031-.5c.019-.228.063-.491.063-.812s-.044-.584-.063-.812l-.031-.5-.5-.032-2.656-.187a8.038 8.038 0 0 0-1.219-2.907l1.719-2.03.313-.376-.313-.375c-.356-.412-.744-.8-1.156-1.156l-.375-.313-.375.313-2.031 1.719a8.041 8.041 0 0 0-2.907-1.219l-.187-2.656-.032-.5-.5-.032C31.584.92 31.321.875 31 .875zM31 8.5c1.932 0 3.5 1.568 3.5 3.5s-1.568 3.5-3.5 3.5-3.5-1.568-3.5-3.5 1.568-3.5 3.5-3.5z" opacity=".8" transform="rotate(15 -28.766 27.596)"/><path fill="url(#i)" d="M31 4c-4.416 0-8 3.584-8 8s3.584 8 8 8 8-3.584 8-8-3.584-8-8-8zm0 5a3.001 3.001 0 0 1 0 6 3.001 3.001 0 0 1 0-6z" transform="rotate(15 -28.766 27.596)"/><path fill="none" stroke="url(#j)" stroke-linecap="square" stroke-width="1.133" d="M32 19a8.5 8.5 0 1 1-17 0 8.5 8.5 0 1 1 17 0z" transform="scale(.88235)rotate(15 -17.91 78.159)"/><path fill="none" stroke="url(#k)" stroke-linecap="square" stroke-width="2.429" d="M32 19a8.5 8.5 0 1 1-17 0 8.5 8.5 0 1 1 17 0z" transform="rotate(14.999 -55.292 106.493)scale(.41176)"/><path fill="url(#f)" stroke="#2e3436" stroke-linecap="square" stroke-width="1.005" d="M31 .5c-.562 0-1.116.047-1.656.125l-.219 3.094c-.96.216-1.85.583-2.656 1.094L24.125 2.78C23 3.5 22.5 4 21.781 5.125l2.031 2.344a8.37 8.37 0 0 0-1.093 2.656l-3.094.219c-.078.54-.125 1.094-.125 1.656s.047 1.116.125 1.656l3.094.219c.215.96.583 1.85 1.093 2.656l-2.031 2.344C22.5 20 23 20.5 24.125 21.219l2.344-2.031c.806.51 1.696.878 2.656 1.093l.219 3.094c.54.078 1.094.125 1.656.125s1.116-.047 1.656-.125l.219-3.094a8.359 8.359 0 0 0 2.656-1.093l2.344 2.031C39 20.5 39.5 20 40.219 18.875l-2.031-2.344a8.359 8.359 0 0 0 1.093-2.656l3.094-.219c.078-.54.125-1.094.125-1.656s-.047-1.116-.125-1.656l-3.094-.219a8.37 8.37 0 0 0-1.093-2.656l2.031-2.344C39.569 4.017 39 3.5 37.875 2.781l-2.344 2.031a8.371 8.371 0 0 0-2.656-1.093L32.656.625A11.588 11.588 0 0 0 31 .5zm0 9a2.5 2.5 0 0 1 0 5 2.5 2.5 0 0 1 0-5z" transform="rotate(15 21.702 -29.277)"/><path fill="none" stroke="url(#g)" stroke-linecap="square" stroke-width="1.133" d="M31 1.438c-.26 0-.522.042-.781.062L30 4.563a7.455 7.455 0 0 0-3.531 1.468l-2.313-1.968a10.5 10.5 0 0 0-1.093 1.093l1.968 2.313A7.458 7.458 0 0 0 23.563 11l-3.063.219c-.021.259-.062.521-.062.781s.041.522.062.781l3.063.219a7.455 7.455 0 0 0 1.468 3.531l-1.968 2.313c.337.391.702.756 1.093 1.094l2.313-1.969A7.466 7.466 0 0 0 30 19.438l.219 3.062c.259.021.521.063.781.063s.522-.042.781-.063L32 19.438a7.466 7.466 0 0 0 3.531-1.469l2.313 1.969a10.66 10.66 0 0 0 1.094-1.094l-1.969-2.313A7.466 7.466 0 0 0 38.438 13l3.062-.219c.021-.259.063-.521.063-.781s-.042-.522-.063-.781L38.438 11a7.47 7.47 0 0 0-1.469-3.531l1.969-2.313a10.607 10.607 0 0 0-1.094-1.094l-2.313 1.97A7.455 7.455 0 0 0 32 4.561L31.781 1.5c-.259-.02-.521-.063-.781-.063z" transform="rotate(15 21.702 -29.277)"/><path fill="url(#h)" d="M31 .875c-.321 0-.584.044-.812.063l-.5.03-.032.5-.187 2.657c-1.06.21-2.042.64-2.907 1.219l-2.406-2.032-1.844 1.844 2.032 2.407a8.038 8.038 0 0 0-1.219 2.906l-2.656.187-.5.032-.031.5c-.019.228-.063.491-.063.812s.044.584.063.812l.031.5.5.032 2.656.187a8.045 8.045 0 0 0 1.219 2.907l-1.719 2.031-.313.375.313.375c.356.412.744.8 1.156 1.156l.375.313.375-.313 2.031-1.719a8.045 8.045 0 0 0 2.907 1.219l.187 2.656.032.5.5.031c.228.019.491.063.812.063s.584-.044.812-.063l.5-.031.032-.5.187-2.656a8.045 8.045 0 0 0 2.907-1.219l2.031 1.719.375.313.375-.313c.412-.356.8-.744 1.156-1.156l.313-.375-.313-.375-1.719-2.031a8.045 8.045 0 0 0 1.219-2.907l2.656-.187.5-.032.031-.5c.019-.228.063-.491.063-.812s-.044-.584-.063-.812l-.031-.5-.5-.032-2.656-.187a8.038 8.038 0 0 0-1.219-2.907l1.719-2.03.313-.376-.313-.375c-.356-.412-.744-.8-1.156-1.156l-.375-.313-.375.313-2.031 1.719a8.041 8.041 0 0 0-2.907-1.219l-.187-2.656-.032-.5-.5-.032C31.584.92 31.321.875 31 .875zM31 8.5c1.932 0 3.5 1.568 3.5 3.5s-1.568 3.5-3.5 3.5-3.5-1.568-3.5-3.5 1.568-3.5 3.5-3.5z" opacity=".8" transform="rotate(15 21.702 -29.277)"/><path fill="url(#i)" d="M31 4c-4.416 0-8 3.584-8 8s3.584 8 8 8 8-3.584 8-8-3.584-8-8-8zm0 5a3.001 3.001 0 0 1 0 6 3.001 3.001 0 0 1 0-6z" transform="rotate(15 21.702 -29.277)"/><path fill="none" stroke="url(#j)" stroke-linecap="square" stroke-width="1.133" d="M32 19a8.5 8.5 0 1 1-17 0 8.5 8.5 0 1 1 17 0z" transform="scale(.88235)rotate(15 39.288 13.703)"/><path fill="none" stroke="url(#k)" stroke-linecap="square" stroke-width="2.429" d="M32 19a8.5 8.5 0 1 1-17 0 8.5 8.5 0 1 1 17 0z" transform="rotate(14.999 -4.823 49.621)scale(.41176)"/><path fill="url(#l)" stroke="#2e3436" stroke-linecap="round" d="M16.156 26.5a9.065 9.065 0 0 0-1.437.188h-.031c-.35.071-.698.17-1.032.281a8.88 8.88 0 0 0-1.375.593l.657 3.126a6.004 6.004 0 0 0-1.282 1.25l-3.094-.626c-.256.485-.49.969-.656 1.5a9.137 9.137 0 0 0-.406 2.344l3.062 1.032c.07.592.202 1.18.438 1.718l-2.125 2.375c.278.442.59.865.937 1.25l.626.594c.388.355.803.685 1.25.969l2.374-2.125c.286.127.564.229.876.312.294.079.611.154.906.188l1 3.031a9.065 9.065 0 0 0 1.437-.188h.031c.35-.071.698-.17 1.032-.281a8.88 8.88 0 0 0 1.375-.593l-.657-3.126a6.004 6.004 0 0 0 1.282-1.25l3.094.626c.256-.485.49-.969.656-1.5.23-.739.375-1.538.406-2.344l-3.062-1.032c-.07-.592-.202-1.18-.438-1.718l2.125-2.375a9.116 9.116 0 0 0-.937-1.25l-.626-.594a9.055 9.055 0 0 0-1.25-.969l-2.374 2.125a5.754 5.754 0 0 0-.876-.312 6.455 6.455 0 0 0-.906-.188l-1-3.031zm.125 7c.114-.013.228-.007.344 0 .133.008.273.027.406.062 1.067.286 1.692 1.403 1.407 2.469-.286 1.067-1.403 1.692-2.469 1.407-1.067-.286-1.692-1.403-1.407-2.469a2.012 2.012 0 0 1 1.719-1.469z"/><path fill="none" stroke="url(#m)" stroke-linecap="round" d="m18.469 26.469-2.094.593.844 4.032a.967.967 0 0 1-.269.856.967.967 0 0 1-.856.269l-4.063-.844-.593 2.094 3.968 1.312a.967.967 0 0 1 .406 1.563l-2.718 3.062 1.468 1.5 3.094-2.75c.242-.216.576-.297.89-.216a.971.971 0 0 1 .673.622l1.312 3.969 2.094-.593-.844-4.032a.967.967 0 0 1 .269-.856.967.967 0 0 1 .856-.269l4.063.844.593-2.094-3.968-1.312a.967.967 0 0 1-.406-1.563l2.718-3.062-1.468-1.5-3.094 2.75c-.242.216-.576.297-.89.216a.971.971 0 0 1-.673-.622l-1.312-3.969z" transform="translate(-3 1)"/><path fill="url(#n)" d="m15.781 26.844-3 .875.938 4.469c.027.151-.016.297-.125.406s-.255.152-.406.125l-4.5-.938-.876 3 4.438 1.469c.149.051.242.191.281.344a.416.416 0 0 1-.093.406l-3.032 3.438 2.125 2.156L15 39.531a.416.416 0 0 1 .406-.093c.153.039.293.132.344.281l1.469 4.437 3-.875-.938-4.469c-.027-.151.016-.297.125-.406s.255-.152.406-.125l4.5.938.876-3-4.438-1.469c-.149-.051-.242-.191-.281-.344a.416.416 0 0 1 .093-.406l3.032-3.438-2.125-2.156L18 31.469a.416.416 0 0 1-.406.093c-.153-.039-.293-.132-.344-.281l-1.469-4.437zM16.5 32.5a3.001 3.001 0 0 1 0 6 3.001 3.001 0 0 1 0-6z" opacity=".937"/><path fill="url(#o)" d="M16.5 30c-3.036 0-5.5 2.464-5.5 5.5s2.464 5.5 5.5 5.5 5.5-2.464 5.5-5.5-2.464-5.5-5.5-5.5zm0 3a2.5 2.5 0 0 1 0 5 2.5 2.5 0 0 1 0-5z"/><path fill="none" stroke="url(#p)" stroke-linecap="round" stroke-width="1.053" d="M22.716 34.587a3.16 3.16 0 1 1-6.32 0 3.16 3.16 0 1 1 6.32 0z" transform="translate(-2.066 2.663)scale(.9494)"/><path fill="none" stroke="url(#q)" stroke-linecap="round" stroke-width=".632" d="M22.716 34.587a3.16 3.16 0 1 1-6.32 0 3.16 3.16 0 1 1 6.32 0z" transform="matrix(1.5823 0 0 -1.5823 -14.444 90.228)"/></svg>