<svg xmlns="http://www.w3.org/2000/svg" xmlns:xlink="http://www.w3.org/1999/xlink" width="754" height="772" viewBox="-6 154 754 772"><defs><linearGradient id="v"><stop offset="0" style="stop-color:#000;stop-opacity:1"/><stop offset="1" style="stop-color:#000;stop-opacity:0"/></linearGradient><linearGradient id="a" x1="43.944" x2="411.394" y1="733.393" y2="425.066" gradientTransform="matrix(.91696 0 0 .91201 60.202 153.712)" gradientUnits="userSpaceOnUse"><stop offset=".056" style="stop-color:#16632d;stop-opacity:1"/><stop offset=".567" style="stop-color:#399450;stop-opacity:1"/><stop offset=".955" style="stop-color:#a5c6a5;stop-opacity:1"/></linearGradient><linearGradient xlink:href="#a" id="u" x1="43.944" x2="411.394" y1="733.393" y2="425.066" gradientTransform="matrix(.91696 0 0 .91201 60.202 153.712)" gradientUnits="userSpaceOnUse"><stop offset=".056" style="stop-color:#16632d;stop-opacity:1"/><stop offset=".567" style="stop-color:#399450;stop-opacity:1"/><stop offset=".955" style="stop-color:#a5c6a5;stop-opacity:1"/></linearGradient><linearGradient id="c"><stop offset="0" style="stop-color:black;stop-opacity:0"/><stop offset=".5" style="stop-color:black;stop-opacity:1"/><stop offset="1" style="stop-color:black;stop-opacity:0"/></linearGradient><linearGradient id="b"><stop offset="0" style="stop-color:black;stop-opacity:1"/><stop offset="1" style="stop-color:black;stop-opacity:0"/></linearGradient><linearGradient id="i"><stop offset="0" style="stop-color:#000;stop-opacity:1"/><stop offset="1" style="stop-color:#c9c9c9;stop-opacity:1"/></linearGradient><linearGradient id="j"><stop offset="0" style="stop-color:#e7e2b8;stop-opacity:1"/><stop offset="1" style="stop-color:#e7e2b8;stop-opacity:0"/></linearGradient><linearGradient id="k"><stop offset="0" style="stop-color:#c1c1c1;stop-opacity:1"/><stop offset="1" style="stop-color:#acacac;stop-opacity:1"/></linearGradient><linearGradient id="l"><stop offset="0" style="stop-color:#ffd1d1;stop-opacity:1"/><stop offset=".5" style="stop-color:#ff1d1d;stop-opacity:1"/><stop offset="1" style="stop-color:#6f0000;stop-opacity:1"/></linearGradient><linearGradient id="m"><stop offset="0" style="stop-color:#000;stop-opacity:1"/><stop offset="1" style="stop-color:#000;stop-opacity:0"/></linearGradient><linearGradient id="h"><stop offset="0" style="stop-color:#888a85;stop-opacity:1"/><stop offset="1" style="stop-color:#2e3436;stop-opacity:1"/></linearGradient><linearGradient id="f"><stop offset="0" style="stop-color:#fff;stop-opacity:1"/><stop offset=".5" style="stop-color:#fff;stop-opacity:.21904762"/><stop offset="1" style="stop-color:#fff;stop-opacity:1"/></linearGradient><linearGradient id="n"><stop offset="0" style="stop-color:#000;stop-opacity:1"/><stop offset="1" style="stop-color:#000;stop-opacity:0"/></linearGradient><linearGradient id="d"><stop offset="0" style="stop-color:#fff;stop-opacity:1"/><stop offset="1" style="stop-color:#fff;stop-opacity:.24761905"/></linearGradient><linearGradient id="e"><stop offset="0" style="stop-color:#729fcf;stop-opacity:.20784314"/><stop offset="1" style="stop-color:#729fcf;stop-opacity:.6761905"/></linearGradient><linearGradient id="g"><stop offset="0" style="stop-color:#888a85;stop-opacity:1"/><stop offset=".5" style="stop-color:#babdb6;stop-opacity:1"/><stop offset="1" style="stop-color:#555753;stop-opacity:1"/></linearGradient><linearGradient id="s"><stop offset="0" style="stop-color:#fafafa;stop-opacity:1"/><stop offset="1" style="stop-color:#bbb;stop-opacity:1"/></linearGradient><linearGradient id="t"><stop offset="0" style="stop-color:#a3a3a3;stop-opacity:1"/><stop offset="1" style="stop-color:#4c4c4c;stop-opacity:1"/></linearGradient><linearGradient id="r"><stop offset="0" style="stop-color:#fff;stop-opacity:1"/><stop offset="1" style="stop-color:#f8f8f8;stop-opacity:1"/></linearGradient><linearGradient id="o"><stop offset="0" style="stop-color:#000;stop-opacity:1"/><stop offset="1" style="stop-color:#000;stop-opacity:0"/></linearGradient><linearGradient xlink:href="#h" id="I" x1="27.366" x2="31.336" y1="26.58" y2="30.558" gradientTransform="matrix(-16.40135 0 0 15.92773 1677.585 188.564)" gradientUnits="userSpaceOnUse"/><linearGradient xlink:href="#f" id="J" x1="18.293" x2="17.501" y1="13.602" y2="25.743" gradientTransform="matrix(-1 0 0 1 44.178 0)" gradientUnits="userSpaceOnUse"/><linearGradient xlink:href="#g" id="M" x1="30.656" x2="33.219" y1="34" y2="31.063" gradientTransform="matrix(-10.10836 0 0 9.67636 1563.596 370.576)" gradientUnits="userSpaceOnUse"/><linearGradient id="A"><stop offset="0" style="stop-color:#fff;stop-opacity:1"/><stop offset=".618" style="stop-color:#fff;stop-opacity:1"/><stop offset="1" style="stop-color:#fff;stop-opacity:0"/></linearGradient><linearGradient id="z"><stop offset="0" style="stop-color:#9ec4f0;stop-opacity:.30653265"/><stop offset=".618" style="stop-color:#9ec4f0;stop-opacity:.3137255"/><stop offset="1" style="stop-color:#9ec4f0;stop-opacity:1"/></linearGradient><linearGradient id="w"><stop offset="0" style="stop-color:#525252;stop-opacity:1"/><stop offset="1" style="stop-color:#343434;stop-opacity:1"/></linearGradient><linearGradient id="y"><stop offset="0" style="stop-color:#fff;stop-opacity:1"/><stop offset="1" style="stop-color:#fff;stop-opacity:.33725491"/></linearGradient><linearGradient id="x"><stop offset="0" style="stop-color:#c9c9c9;stop-opacity:1"/><stop offset=".5" style="stop-color:#fff;stop-opacity:1"/><stop offset=".75" style="stop-color:#a5a5a5;stop-opacity:1"/><stop offset="1" style="stop-color:#d4d4d4;stop-opacity:1"/></linearGradient><linearGradient id="C"><stop offset="0" style="stop-color:#c9c9c9;stop-opacity:1"/><stop offset=".5" style="stop-color:#fff;stop-opacity:1"/><stop offset=".75" style="stop-color:#a5a5a5;stop-opacity:1"/><stop offset="1" style="stop-color:#d4d4d4;stop-opacity:1"/></linearGradient><linearGradient id="H"><stop offset="0" style="stop-color:#fff;stop-opacity:1"/><stop offset="1" style="stop-color:white;stop-opacity:.44313726"/></linearGradient><linearGradient id="G"><stop offset="0" style="stop-color:#d57e00;stop-opacity:1"/><stop offset="1" style="stop-color:#bfb600;stop-opacity:1"/></linearGradient><linearGradient id="E"><stop offset="0" style="stop-color:#9ec4f0;stop-opacity:.30653265"/><stop offset=".618" style="stop-color:#9ec4f0;stop-opacity:.3137255"/><stop offset="1" style="stop-color:#9ec4f0;stop-opacity:1"/></linearGradient><linearGradient id="F"><stop offset="0" style="stop-color:#fff;stop-opacity:1"/><stop offset=".618" style="stop-color:#fff;stop-opacity:1"/><stop offset="1" style="stop-color:#fff;stop-opacity:0"/></linearGradient><linearGradient id="B"><stop offset="0" style="stop-color:white;stop-opacity:1"/><stop offset="1" style="stop-color:gray;stop-opacity:1"/></linearGradient><linearGradient id="D"><stop offset="0" style="stop-color:#aaa;stop-opacity:1"/><stop offset=".5" style="stop-color:#dbdbdb;stop-opacity:1"/><stop offset=".75" style="stop-color:#8e8e8e;stop-opacity:1"/><stop offset="1" style="stop-color:#a8a8a8;stop-opacity:1"/></linearGradient><clipPath id="S" clipPathUnits="userSpaceOnUse"><path d="M87.962 52.106a43.981 52.026 0 1 1-87.962 0 43.981 52.026 0 1 1 87.962 0z" style="fill:#a9a9a9;fill-opacity:1;fill-rule:evenodd;stroke:none" transform="matrix(1.39939 0 0 1.19072 3.486 1.058)"/></clipPath><clipPath id="R" clipPathUnits="userSpaceOnUse"><path d="M87.962 52.106a43.981 52.026 0 1 1-87.962 0 43.981 52.026 0 1 1 87.962 0z" style="fill:#a9a9a9;fill-opacity:1;fill-rule:evenodd;stroke:none" transform="matrix(.18154 0 0 .15447 788.014 700.64)"/></clipPath><clipPath id="Q" clipPathUnits="userSpaceOnUse"><path d="M87.962 52.106a43.981 52.026 0 1 1-87.962 0 43.981 52.026 0 1 1 87.962 0z" style="fill:#a9a9a9;fill-opacity:1;fill-rule:evenodd;stroke:none" transform="matrix(1.39939 0 0 1.19072 3.486 1.058)"/></clipPath><clipPath id="P" clipPathUnits="userSpaceOnUse"><path d="M87.962 52.106a43.981 52.026 0 1 1-87.962 0 43.981 52.026 0 1 1 87.962 0z" style="fill:#a9a9a9;fill-opacity:1;fill-rule:evenodd;stroke:none" transform="matrix(.18154 0 0 .15447 788.014 700.64)"/></clipPath><clipPath id="N" clipPathUnits="userSpaceOnUse"><path d="M87.962 52.106a43.981 52.026 0 1 1-87.962 0 43.981 52.026 0 1 1 87.962 0z" style="fill:#a9a9a9;fill-opacity:1;fill-rule:evenodd;stroke:none" transform="matrix(.18154 0 0 .15447 788.014 700.64)"/></clipPath><clipPath id="O" clipPathUnits="userSpaceOnUse"><path d="M87.962 52.106a43.981 52.026 0 1 1-87.962 0 43.981 52.026 0 1 1 87.962 0z" style="fill:#a9a9a9;fill-opacity:1;fill-rule:evenodd;stroke:none" transform="matrix(1.39939 0 0 1.19072 3.486 1.058)"/></clipPath><clipPath id="Y" clipPathUnits="userSpaceOnUse"><path d="M87.962 52.106a43.981 52.026 0 1 1-87.962 0 43.981 52.026 0 1 1 87.962 0z" style="fill:#a9a9a9;fill-opacity:1;fill-rule:evenodd;stroke:none" transform="matrix(1.39939 0 0 1.19072 3.486 1.058)"/></clipPath><clipPath id="X" clipPathUnits="userSpaceOnUse"><path d="M87.962 52.106a43.981 52.026 0 1 1-87.962 0 43.981 52.026 0 1 1 87.962 0z" style="fill:#a9a9a9;fill-opacity:1;fill-rule:evenodd;stroke:none" transform="matrix(.18154 0 0 .15447 788.014 700.64)"/></clipPath><clipPath id="W" clipPathUnits="userSpaceOnUse"><path d="M87.962 52.106a43.981 52.026 0 1 1-87.962 0 43.981 52.026 0 1 1 87.962 0z" style="fill:#a9a9a9;fill-opacity:1;fill-rule:evenodd;stroke:none" transform="matrix(1.39939 0 0 1.19072 3.486 1.058)"/></clipPath><clipPath id="V" clipPathUnits="userSpaceOnUse"><path d="M87.962 52.106a43.981 52.026 0 1 1-87.962 0 43.981 52.026 0 1 1 87.962 0z" style="fill:#a9a9a9;fill-opacity:1;fill-rule:evenodd;stroke:none" transform="matrix(.18154 0 0 .15447 788.014 700.64)"/></clipPath><clipPath id="T" clipPathUnits="userSpaceOnUse"><path d="M87.962 52.106a43.981 52.026 0 1 1-87.962 0 43.981 52.026 0 1 1 87.962 0z" style="fill:#a9a9a9;fill-opacity:1;fill-rule:evenodd;stroke:none" transform="matrix(.18154 0 0 .15447 788.014 700.64)"/></clipPath><clipPath id="U" clipPathUnits="userSpaceOnUse"><path d="M87.962 52.106a43.981 52.026 0 1 1-87.962 0 43.981 52.026 0 1 1 87.962 0z" style="fill:#a9a9a9;fill-opacity:1;fill-rule:evenodd;stroke:none" transform="matrix(1.39939 0 0 1.19072 3.486 1.058)"/></clipPath><clipPath id="ae" clipPathUnits="userSpaceOnUse"><path d="M87.962 52.106a43.981 52.026 0 1 1-87.962 0 43.981 52.026 0 1 1 87.962 0z" style="fill:#a9a9a9;fill-opacity:1;fill-rule:evenodd;stroke:none" transform="matrix(1.39939 0 0 1.19072 3.486 1.058)"/></clipPath><clipPath id="ad" clipPathUnits="userSpaceOnUse"><path d="M87.962 52.106a43.981 52.026 0 1 1-87.962 0 43.981 52.026 0 1 1 87.962 0z" style="fill:#a9a9a9;fill-opacity:1;fill-rule:evenodd;stroke:none" transform="matrix(.18154 0 0 .15447 788.014 700.64)"/></clipPath><clipPath id="ac" clipPathUnits="userSpaceOnUse"><path d="M87.962 52.106a43.981 52.026 0 1 1-87.962 0 43.981 52.026 0 1 1 87.962 0z" style="fill:#a9a9a9;fill-opacity:1;fill-rule:evenodd;stroke:none" transform="matrix(1.39939 0 0 1.19072 3.486 1.058)"/></clipPath><clipPath id="ab" clipPathUnits="userSpaceOnUse"><path d="M87.962 52.106a43.981 52.026 0 1 1-87.962 0 43.981 52.026 0 1 1 87.962 0z" style="fill:#a9a9a9;fill-opacity:1;fill-rule:evenodd;stroke:none" transform="matrix(.18154 0 0 .15447 788.014 700.64)"/></clipPath><clipPath id="Z" clipPathUnits="userSpaceOnUse"><path d="M87.962 52.106a43.981 52.026 0 1 1-87.962 0 43.981 52.026 0 1 1 87.962 0z" style="fill:#a9a9a9;fill-opacity:1;fill-rule:evenodd;stroke:none" transform="matrix(.18154 0 0 .15447 788.014 700.64)"/></clipPath><clipPath id="aa" clipPathUnits="userSpaceOnUse"><path d="M87.962 52.106a43.981 52.026 0 1 1-87.962 0 43.981 52.026 0 1 1 87.962 0z" style="fill:#a9a9a9;fill-opacity:1;fill-rule:evenodd;stroke:none" transform="matrix(1.39939 0 0 1.19072 3.486 1.058)"/></clipPath><radialGradient id="q" cx="20.892" cy="114.568" r="5.256" fx="20.892" fy="114.568" gradientUnits="userSpaceOnUse"><stop offset="0" style="stop-color:#f0f0f0"/><stop offset="1" style="stop-color:#9a9a9a;stop-opacity:1"/></radialGradient><radialGradient id="p" cx="20.892" cy="64.568" r="5.257" fx="20.892" fy="64.568" gradientUnits="userSpaceOnUse"><stop offset="0" style="stop-color:#f0f0f0"/><stop offset="1" style="stop-color:#9a9a9a;stop-opacity:1"/></radialGradient><radialGradient xlink:href="#e" id="K" cx="18.241" cy="21.818" r="8.309" fx="18.241" fy="21.818" gradientTransform="matrix(-1 0 0 1 43.352 0)" gradientUnits="userSpaceOnUse"/><radialGradient xlink:href="#d" id="L" cx="15.414" cy="13.078" r="6.656" fx="15.414" fy="13.078" gradientTransform="matrix(-42.5281 0 0 35.87091 1901.107 -113.123)" gradientUnits="userSpaceOnUse"/></defs><path d="M-64.88 115.856h850v850h-850z" style="fill:none;stroke:none"/><path d="M1192.818 238.634c-133.493 0-241.835 105.213-241.835 234.851s108.342 234.851 241.835 234.851c57.07 0 107.445-22.05 148.821-54.196-3.368 16.037-1.28 32.419 12.402 43.96l58.792 43.8c20.23 17.064 50.639 21.37 68.21 1.725 17.571-19.646 15.269-52.448-4.96-69.511l-58.793-47.072c-11.014-9.29-24.485-12.041-37.825-10.238 32.584-40.017 55.188-88.38 55.188-143.32 0-129.637-108.342-234.85-241.835-234.85zm-1.24 19.53c125.297 0 218.003 76.277 218.003 211.708 0 138.175-95.402 211.708-218.003 211.708-119.778 0-218.003-87.254-218.003-211.708 0-127.169 95.532-211.708 218.003-211.708z" style="fill:#000;fill-opacity:1;fill-rule:evenodd;stroke:url(#I);stroke-width:50.25152206;stroke-linecap:round;stroke-linejoin:miter;stroke-miterlimit:10;stroke-opacity:1;stroke-dasharray:none;stroke-dashoffset:0;marker:none;visibility:visible;display:inline;overflow:visible" transform="matrix(1.1797 0 0 1.22795 -1068.469 -78.74)"/><path d="M1194.867 234.356c-133.924 0-242.617 105.553-242.617 235.61 0 130.057 108.693 235.61 242.617 235.61 57.254 0 107.792-22.12 149.302-54.37-3.38 16.088-1.284 32.523 12.442 44.1l49.56 42.656c20.295 17.12 54.073 18.148 71.701-1.561 17.628-19.71 12.865-47.7-7.43-64.82l-50.377-47.562c-11.05-9.32-24.565-12.08-37.948-10.27 32.69-40.146 55.366-88.665 55.366-143.783 0-130.057-108.692-235.61-242.616-235.61zm-1.244 50.747c103.018 0 186.628 81.195 186.628 181.239 0 100.043-83.61 181.238-186.628 181.238-103.019 0-186.628-81.195-186.628-181.238 0-100.044 83.609-181.24 186.628-181.24z" style="fill:#d3d7cf;fill-opacity:1;fill-rule:evenodd;stroke:none;stroke-width:1.00000036;marker:none;visibility:visible;display:inline;overflow:visible" transform="matrix(1.1797 0 0 1.22795 -1068.469 -78.74)"/><path d="M28.55 18.92c0 6.102-4.947 11.049-11.05 11.049-6.101 0-11.048-4.947-11.048-11.049 0-6.102 4.947-11.048 11.049-11.048 6.102 0 11.048 4.946 11.048 11.048z" style="fill:none;stroke:url(#J);stroke-width:1.24788225;stroke-linecap:round;stroke-linejoin:miter;stroke-miterlimit:10;stroke-opacity:1;stroke-dasharray:none;stroke-dashoffset:0;marker:none;visibility:visible;display:inline;overflow:visible" transform="matrix(24.1033 0 0 24.3649 -88.004 31.994)"/><path d="M25.898 18.478a8.309 8.309 0 1 1-16.617 0 8.309 8.309 0 0 1 16.617 0z" style="fill:url(#K);fill-opacity:1;fill-rule:evenodd;stroke:#3465a4;stroke-width:1.11148739;stroke-linecap:round;stroke-linejoin:miter;stroke-miterlimit:10;stroke-opacity:1;stroke-dashoffset:0;marker:none;visibility:visible" transform="matrix(27.06114 0 0 27.35485 -142.16 -9.508)"/><path d="M1192.295 306.377c85.411 0 154.575 67.166 154.575 150.111 0 23.955-6.894 45.996-17.175 66.099-20.54 7.352-42.36 12.355-65.52 12.355-101.212 0-182.043-77.435-188.289-174.204 28.39-32.58 69.05-54.361 116.409-54.361z" style="opacity:.83422457;fill:url(#L);fill-opacity:1;fill-rule:evenodd;stroke:none;stroke-width:1;marker:none;visibility:visible;display:inline;overflow:visible" transform="matrix(1.1797 0 0 1.22795 -1068.469 -78.74)"/><path d="M1445.055 738.048c-3.626-17.035 10.583-36.055 27.146-35.882l-81.5-69.376c-22.305-.425-32.338 17.03-28.607 34.47l82.96 70.788z" style="fill:url(#M);fill-opacity:1;fill-rule:evenodd;stroke:none;stroke-width:1;marker:none;visibility:visible;display:inline;overflow:visible" transform="matrix(1.1797 0 0 1.22795 -1068.469 -78.74)"/><g clip-path="url(#N)" transform="matrix(7.70834 0 0 7.70834 -5037.151 -4882.582)"><path d="M509.778 597.159c-12.427 0-22.5 10.074-22.5 22.5 0 12.428 10.073 22.5 22.5 22.5s22.5-10.072 22.5-22.5c-.001-12.426-10.073-22.5-22.5-22.5zm-.559 36.414a3.069 3.069 0 0 1-3.054-3.055 3.067 3.067 0 0 1 3.054-3.053 3.066 3.066 0 0 1 3.054 3.053 3.068 3.068 0 0 1-3.054 3.055zm2.904-11.791c-.892 1.305-.594 3.129-3.052 3.129-1.602 0-2.385-1.305-2.385-2.496 0-4.432 6.519-5.436 6.519-9.086 0-2.012-1.34-3.203-3.576-3.203-4.767 0-2.905 4.916-6.518 4.916-1.304 0-2.421-.783-2.421-2.271 0-3.65 4.172-6.891 8.714-6.891 4.769 0 9.46 2.197 9.46 7.449.001 4.842-5.55 6.703-6.741 8.453z" style="fill:#333"/></g><g clip-path="url(#P)" transform="matrix(7.70834 0 0 7.70834 -4934.72 -4776.43)"><path d="M509.778 597.159c-12.427 0-22.5 10.074-22.5 22.5 0 12.428 10.073 22.5 22.5 22.5s22.5-10.072 22.5-22.5c-.001-12.426-10.073-22.5-22.5-22.5zm-.559 36.414a3.069 3.069 0 0 1-3.054-3.055 3.067 3.067 0 0 1 3.054-3.053 3.066 3.066 0 0 1 3.054 3.053 3.068 3.068 0 0 1-3.054 3.055zm2.904-11.791c-.892 1.305-.594 3.129-3.052 3.129-1.602 0-2.385-1.305-2.385-2.496 0-4.432 6.519-5.436 6.519-9.086 0-2.012-1.34-3.203-3.576-3.203-4.767 0-2.905 4.916-6.518 4.916-1.304 0-2.421-.783-2.421-2.271 0-3.65 4.172-6.891 8.714-6.891 4.769 0 9.46 2.197 9.46 7.449.001 4.842-5.55 6.703-6.741 8.453z" style="fill:#333"/></g><g clip-path="url(#R)" transform="matrix(7.70834 0 0 7.70834 -4806.006 -4771.395)"><path d="M509.778 597.159c-12.427 0-22.5 10.074-22.5 22.5 0 12.428 10.073 22.5 22.5 22.5s22.5-10.072 22.5-22.5c-.001-12.426-10.073-22.5-22.5-22.5zm-.559 36.414a3.069 3.069 0 0 1-3.054-3.055 3.067 3.067 0 0 1 3.054-3.053 3.066 3.066 0 0 1 3.054 3.053 3.068 3.068 0 0 1-3.054 3.055zm2.904-11.791c-.892 1.305-.594 3.129-3.052 3.129-1.602 0-2.385-1.305-2.385-2.496 0-4.432 6.519-5.436 6.519-9.086 0-2.012-1.34-3.203-3.576-3.203-4.767 0-2.905 4.916-6.518 4.916-1.304 0-2.421-.783-2.421-2.271 0-3.65 4.172-6.891 8.714-6.891 4.769 0 9.46 2.197 9.46 7.449.001 4.842-5.55 6.703-6.741 8.453z" style="fill:#333"/></g><g clip-path="url(#T)" transform="matrix(7.70834 0 0 7.70834 -4944.628 -5086.133)"><path d="M509.778 597.159c-12.427 0-22.5 10.074-22.5 22.5 0 12.428 10.073 22.5 22.5 22.5s22.5-10.072 22.5-22.5c-.001-12.426-10.073-22.5-22.5-22.5zm-.559 36.414a3.069 3.069 0 0 1-3.054-3.055 3.067 3.067 0 0 1 3.054-3.053 3.066 3.066 0 0 1 3.054 3.053 3.068 3.068 0 0 1-3.054 3.055zm2.904-11.791c-.892 1.305-.594 3.129-3.052 3.129-1.602 0-2.385-1.305-2.385-2.496 0-4.432 6.519-5.436 6.519-9.086 0-2.012-1.34-3.203-3.576-3.203-4.767 0-2.905 4.916-6.518 4.916-1.304 0-2.421-.783-2.421-2.271 0-3.65 4.172-6.891 8.714-6.891 4.769 0 9.46 2.197 9.46 7.449.001 4.842-5.55 6.703-6.741 8.453z" style="fill:#333"/></g><g clip-path="url(#V)" transform="matrix(7.70834 0 0 7.70834 -4842.197 -4979.98)"><path d="M509.778 597.159c-12.427 0-22.5 10.074-22.5 22.5 0 12.428 10.073 22.5 22.5 22.5s22.5-10.072 22.5-22.5c-.001-12.426-10.073-22.5-22.5-22.5zm-.559 36.414a3.069 3.069 0 0 1-3.054-3.055 3.067 3.067 0 0 1 3.054-3.053 3.066 3.066 0 0 1 3.054 3.053 3.068 3.068 0 0 1-3.054 3.055zm2.904-11.791c-.892 1.305-.594 3.129-3.052 3.129-1.602 0-2.385-1.305-2.385-2.496 0-4.432 6.519-5.436 6.519-9.086 0-2.012-1.34-3.203-3.576-3.203-4.767 0-2.905 4.916-6.518 4.916-1.304 0-2.421-.783-2.421-2.271 0-3.65 4.172-6.891 8.714-6.891 4.769 0 9.46 2.197 9.46 7.449.001 4.842-5.55 6.703-6.741 8.453z" style="fill:#333"/></g><g clip-path="url(#X)" transform="matrix(7.70834 0 0 7.70834 -4713.483 -4974.945)"><path d="M509.778 597.159c-12.427 0-22.5 10.074-22.5 22.5 0 12.428 10.073 22.5 22.5 22.5s22.5-10.072 22.5-22.5c-.001-12.426-10.073-22.5-22.5-22.5zm-.559 36.414a3.069 3.069 0 0 1-3.054-3.055 3.067 3.067 0 0 1 3.054-3.053 3.066 3.066 0 0 1 3.054 3.053 3.068 3.068 0 0 1-3.054 3.055zm2.904-11.791c-.892 1.305-.594 3.129-3.052 3.129-1.602 0-2.385-1.305-2.385-2.496 0-4.432 6.519-5.436 6.519-9.086 0-2.012-1.34-3.203-3.576-3.203-4.767 0-2.905 4.916-6.518 4.916-1.304 0-2.421-.783-2.421-2.271 0-3.65 4.172-6.891 8.714-6.891 4.769 0 9.46 2.197 9.46 7.449.001 4.842-5.55 6.703-6.741 8.453z" style="fill:#333"/></g><g clip-path="url(#Z)" transform="matrix(7.70834 0 0 7.70834 -4893.74 -4676.718)"><path d="M509.778 597.159c-12.427 0-22.5 10.074-22.5 22.5 0 12.428 10.073 22.5 22.5 22.5s22.5-10.072 22.5-22.5c-.001-12.426-10.073-22.5-22.5-22.5zm-.559 36.414a3.069 3.069 0 0 1-3.054-3.055 3.067 3.067 0 0 1 3.054-3.053 3.066 3.066 0 0 1 3.054 3.053 3.068 3.068 0 0 1-3.054 3.055zm2.904-11.791c-.892 1.305-.594 3.129-3.052 3.129-1.602 0-2.385-1.305-2.385-2.496 0-4.432 6.519-5.436 6.519-9.086 0-2.012-1.34-3.203-3.576-3.203-4.767 0-2.905 4.916-6.518 4.916-1.304 0-2.421-.783-2.421-2.271 0-3.65 4.172-6.891 8.714-6.891 4.769 0 9.46 2.197 9.46 7.449.001 4.842-5.55 6.703-6.741 8.453z" style="fill:#333"/></g><path d="M434.156 472.376h-205.52c-22.689 0-41.103 18.414-41.103 41.103 0 22.71 18.414 41.104 41.104 41.104h205.52c22.709 0 41.103-18.394 41.103-41.104 0-22.669-18.374-41.103-41.104-41.103z" style="fill:#0038d4"/><g clip-path="url(#ab)" transform="matrix(7.70834 0 0 7.70834 -4791.309 -4570.566)"><path d="M509.778 597.159c-12.427 0-22.5 10.074-22.5 22.5 0 12.428 10.073 22.5 22.5 22.5s22.5-10.072 22.5-22.5c-.001-12.426-10.073-22.5-22.5-22.5zm-.559 36.414a3.069 3.069 0 0 1-3.054-3.055 3.067 3.067 0 0 1 3.054-3.053 3.066 3.066 0 0 1 3.054 3.053 3.068 3.068 0 0 1-3.054 3.055zm2.904-11.791c-.892 1.305-.594 3.129-3.052 3.129-1.602 0-2.385-1.305-2.385-2.496 0-4.432 6.519-5.436 6.519-9.086 0-2.012-1.34-3.203-3.576-3.203-4.767 0-2.905 4.916-6.518 4.916-1.304 0-2.421-.783-2.421-2.271 0-3.65 4.172-6.891 8.714-6.891 4.769 0 9.46 2.197 9.46 7.449.001 4.842-5.55 6.703-6.741 8.453z" style="fill:#333"/></g><g clip-path="url(#ad)" transform="matrix(7.70834 0 0 7.70834 -4662.596 -4565.53)"><path d="M509.778 597.159c-12.427 0-22.5 10.074-22.5 22.5 0 12.428 10.073 22.5 22.5 22.5s22.5-10.072 22.5-22.5c-.001-12.426-10.073-22.5-22.5-22.5zm-.559 36.414a3.069 3.069 0 0 1-3.054-3.055 3.067 3.067 0 0 1 3.054-3.053 3.066 3.066 0 0 1 3.054 3.053 3.068 3.068 0 0 1-3.054 3.055zm2.904-11.791c-.892 1.305-.594 3.129-3.052 3.129-1.602 0-2.385-1.305-2.385-2.496 0-4.432 6.519-5.436 6.519-9.086 0-2.012-1.34-3.203-3.576-3.203-4.767 0-2.905 4.916-6.518 4.916-1.304 0-2.421-.783-2.421-2.271 0-3.65 4.172-6.891 8.714-6.891 4.769 0 9.46 2.197 9.46 7.449.001 4.842-5.55 6.703-6.741 8.453z" style="fill:#333"/></g></svg>