<svg xmlns="http://www.w3.org/2000/svg" xmlns:xlink="http://www.w3.org/1999/xlink" width="600" height="600" version="1.0"><desc>Picture of a blue sphere (circle with 3D highlighting)</desc><defs><radialGradient id="a" fx=".3" fy=".3" gradientUnits="objectBoundingBox"><stop offset="0%" style="stop-color:#fff"/><stop offset="40%" style="stop-color:#00a"/><stop offset="100%" style="stop-color:#007"/></radialGradient><radialGradient xlink:href="#c" id="i" cx="102.143" cy="545.934" r="135" fx="102.143" fy="545.934" gradientUnits="userSpaceOnUse"/><radialGradient xlink:href="#e" id="k" cx="102.143" cy="545.934" r="135" fx="102.143" fy="545.934" gradientUnits="userSpaceOnUse"/><radialGradient xlink:href="#c" id="l" cx="102.143" cy="545.934" r="135" fx="102.143" fy="545.934" gradientUnits="userSpaceOnUse"/><radialGradient xlink:href="#e" id="n" cx="102.143" cy="545.934" r="135" fx="102.143" fy="545.934" gradientUnits="userSpaceOnUse"/><radialGradient xlink:href="#c" id="f" cx="102.143" cy="545.934" r="135" fx="102.143" fy="545.934" gradientUnits="userSpaceOnUse"/><radialGradient xlink:href="#e" id="h" cx="102.143" cy="545.934" r="135" fx="102.143" fy="545.934" gradientUnits="userSpaceOnUse"/><linearGradient id="e"><stop offset="0" style="stop-color:#fff;stop-opacity:1"/><stop offset="1" style="stop-color:#fff;stop-opacity:0"/></linearGradient><linearGradient id="d"><stop offset="0" style="stop-color:#081074;stop-opacity:1"/><stop offset=".5" style="stop-color:#5873c2;stop-opacity:1"/><stop offset=".75" style="stop-color:#0f99d2;stop-opacity:1"/><stop offset=".938" style="stop-color:#1660d4;stop-opacity:.6156863"/><stop offset="1" style="stop-color:#414cf6;stop-opacity:.21568628"/></linearGradient><linearGradient id="c"><stop offset="0" style="stop-color:#999;stop-opacity:1"/><stop offset="1" style="stop-color:#999;stop-opacity:0"/></linearGradient><linearGradient id="b"><stop offset="0" style="stop-color:#000;stop-opacity:1"/><stop offset="1" style="stop-color:#000;stop-opacity:0"/></linearGradient><linearGradient xlink:href="#d" id="j" x1="154.286" x2="605.714" y1="535.219" y2="535.219" gradientUnits="userSpaceOnUse"/><linearGradient xlink:href="#d" id="m" x1="154.286" x2="605.714" y1="535.219" y2="535.219" gradientUnits="userSpaceOnUse"/><linearGradient xlink:href="#d" id="g" x1="154.286" x2="605.714" y1="535.219" y2="535.219" gradientUnits="userSpaceOnUse"/></defs><path d="M361.592 145.891c-87.006 306.548-182.573 374.573-224.64 355.97" style="fill:none;stroke:#0a3f6b;stroke-width:8.48668766;stroke-linecap:butt;stroke-linejoin:miter;stroke-miterlimit:4;stroke-opacity:1;stroke-dasharray:none" transform="translate(-10.077 10.077)"/><path d="M352.502 149.07c35.562 309.5 68.124 382.14 99.472 358.92" style="fill:none;stroke:#184086;stroke-width:8.48668766;stroke-linecap:butt;stroke-linejoin:miter;stroke-miterlimit:4;stroke-opacity:1;stroke-dasharray:none" transform="translate(-10.077 10.077)"/><path d="M237.143 545.934c0 74.558-60.442 135-135 135-74.559 0-135-60.442-135-135 0-74.559 60.441-135 135-135 74.558 0 135 60.441 135 135z" style="fill:url(#f);fill-opacity:1;stroke:none" transform="matrix(.51989 -.10438 .19178 .36433 336.616 352.184)"/><path d="M605.714 535.22c0 124.658-101.055 225.714-225.714 225.714-124.659 0-225.714-101.056-225.714-225.715 0-124.658 101.055-225.714 225.714-225.714 124.659 0 225.714 101.056 225.714 225.714z" style="fill:url(#g);fill-opacity:1;stroke:none" transform="matrix(-.2113 -.25848 .2772 -.19074 439.703 717.323)"/><path d="M237.143 545.934a135 135 0 1 1-270 0 135 135 0 1 1 270 0z" style="opacity:.87614698;fill:url(#h);fill-opacity:1;stroke:none" transform="matrix(.34724 .03286 -.03024 .31955 475.951 317.083)"/><path d="M237.143 545.934c0 74.558-60.442 135-135 135-74.559 0-135-60.442-135-135 0-74.559 60.441-135 135-135 74.558 0 135 60.441 135 135z" style="fill:url(#i);fill-opacity:1;stroke:none" transform="matrix(.51989 -.10438 .19178 .36433 193.253 -9.018)"/><path d="M605.714 535.22c0 124.658-101.055 225.714-225.714 225.714-124.659 0-225.714-101.056-225.714-225.715 0-124.658 101.055-225.714 225.714-225.714 124.659 0 225.714 101.056 225.714 225.714z" style="fill:url(#j);fill-opacity:1;stroke:none" transform="matrix(-.2113 -.25848 .2772 -.19074 287.702 311.493)"/><path d="M237.143 545.934c0 74.558-60.442 135-135 135-74.559 0-135-60.442-135-135 0-74.559 60.441-135 135-135 74.558 0 135 60.441 135 135z" style="opacity:.87614698;fill:url(#k);fill-opacity:1;stroke:none" transform="matrix(.34724 .03286 -.03024 .31955 319.632 -88.747)"/><path d="m152.74 270.466-142.318 44.07 120.302 102.961 22.015-147.03zM177.435 241.643l11.204-135.106 120.303 102.96-131.507 32.146z" style="fill:#000;fill-opacity:1;stroke:#000;stroke-width:11.09605885;stroke-linecap:butt;stroke-linejoin:round;stroke-miterlimit:4;stroke-opacity:1;stroke-dasharray:none"/><path d="M237.143 545.934c0 74.558-60.442 135-135 135-74.559 0-135-60.442-135-135 0-74.559 60.441-135 135-135 74.558 0 135 60.441 135 135z" style="fill:url(#l);fill-opacity:1;stroke:none" transform="matrix(.51989 -.10438 .19178 .36433 -67.194 387.433)"/><path d="M605.714 535.22c0 124.658-101.055 225.714-225.714 225.714-124.659 0-225.714-101.056-225.714-225.715 0-124.658 101.055-225.714 225.714-225.714 124.659 0 225.714 101.056 225.714 225.714z" style="fill:url(#m);fill-opacity:1;stroke:none" transform="matrix(-.2113 -.25848 .2772 -.19074 27.255 707.945)"/><path d="M237.143 545.934c0 74.558-60.442 135-135 135-74.559 0-135-60.442-135-135 0-74.559 60.441-135 135-135 74.558 0 135 60.441 135 135z" style="opacity:.87614698;fill:url(#n);fill-opacity:1;stroke:none" transform="matrix(.34724 .03286 -.03024 .31955 75.065 307.705)"/></svg>