<svg xmlns="http://www.w3.org/2000/svg" xmlns:xlink="http://www.w3.org/1999/xlink" width="401" height="401.031" version="1.0"><defs><linearGradient id="b"><stop offset="0" style="stop-color:#8d6622;stop-opacity:1"/><stop offset=".5" style="stop-color:#463311;stop-opacity:.49803922"/><stop offset="1" style="stop-color:#000;stop-opacity:0"/></linearGradient><linearGradient id="a"><stop offset="0" style="stop-color:#fefdc0;stop-opacity:1"/><stop offset="1" style="stop-color:#fefec0;stop-opacity:0"/></linearGradient><linearGradient xlink:href="#b" id="g" x1="884.64" x2="1155.959" y1="-899.965" y2="-899.965" gradientTransform="matrix(.29227 0 0 .2994 56.119 -528.912)" gradientUnits="userSpaceOnUse"/><linearGradient xlink:href="#b" id="h" x1="884.64" x2="1155.959" y1="-899.965" y2="-899.965" gradientTransform="matrix(.33277 0 0 .31113 -807.603 73.549)" gradientUnits="userSpaceOnUse"/><linearGradient xlink:href="#b" id="i" x1="884.64" x2="1155.959" y1="-899.965" y2="-899.965" gradientTransform="matrix(.28663 0 0 .2578 -872.126 1236.925)" gradientUnits="userSpaceOnUse"/><linearGradient xlink:href="#b" id="j" x1="884.64" x2="1155.959" y1="-899.965" y2="-899.965" gradientTransform="matrix(.28029 0 0 .27175 -1208.304 553.473)" gradientUnits="userSpaceOnUse"/><linearGradient xlink:href="#c" id="k" x1="154.286" x2="605.714" y1="535.219" y2="535.219" gradientUnits="userSpaceOnUse"/><linearGradient id="c"><stop offset="0" style="stop-color:#772b00;stop-opacity:1"/><stop offset=".5" style="stop-color:#da441b;stop-opacity:1"/><stop offset=".75" style="stop-color:#d2400f;stop-opacity:1"/><stop offset=".938" style="stop-color:#d44316;stop-opacity:.614583"/><stop offset="1" style="stop-color:#c33900;stop-opacity:.21875"/></linearGradient><linearGradient id="d"><stop offset="0" style="stop-color:#fff;stop-opacity:1"/><stop offset="1" style="stop-color:#fff;stop-opacity:0"/></linearGradient><radialGradient xlink:href="#a" id="e" cx="324.107" cy="574.578" r="172.931" fx="324.107" fy="574.578" gradientTransform="matrix(1 0 0 .04601 11.67 538.592)" gradientUnits="userSpaceOnUse"/><radialGradient xlink:href="#a" id="f" cx="324.107" cy="574.578" r="172.931" fx="324.107" fy="574.578" gradientTransform="matrix(1 0 0 .04601 246.29 -344.799)" gradientUnits="userSpaceOnUse"/><radialGradient xlink:href="#d" id="l" cx="102.143" cy="545.934" r="135" fx="102.143" fy="545.934" gradientUnits="userSpaceOnUse"/></defs><g style="fill:#696969"><path d="M322 362.362v200l68.91-69.175zM322 362.362v200l-69.176-68.645zM521.97 562.393h-200l68.645 68.645z" style="color:#000;fill:#696969;fill-opacity:1;fill-rule:evenodd;stroke:none;stroke-width:1;marker:none;visibility:visible;display:inline;overflow:visible" transform="translate(-118.43 -361.34)"/><path d="M521.97 562.393h-200l68.91-68.91zM321.97 762.393v-200l-69.176 68.91zM321.97 762.393v-200l68.91 68.645zM121.97 562.393h200l-69.176-68.645z" style="color:#000;fill:#696969;fill-opacity:1;fill-rule:evenodd;stroke:none;stroke-width:1;marker:none;visibility:visible;display:inline;overflow:visible" transform="translate(-118.43 -361.34)"/><path d="M121.97 562.393h200l-68.91 68.91z" style="color:#000;fill:#696969;fill-opacity:1;fill-rule:evenodd;stroke:none;stroke-width:1;marker:none;visibility:visible;display:inline;overflow:visible" transform="translate(-118.43 -361.34)"/></g><path d="M322 362.362v200l68.91-69.175z" style="color:#000;fill:#98732b;fill-opacity:1;fill-rule:evenodd;stroke:none;stroke-width:1;marker:none;visibility:visible;display:inline;overflow:visible" transform="matrix(.8833 0 0 .8833 -80.856 -294.653)"/><path d="M322 362.362v200l-69.176-68.645z" style="color:#000;fill:#fefec0;fill-opacity:1;fill-rule:evenodd;stroke:none;stroke-width:1;marker:none;visibility:visible;display:inline;overflow:visible" transform="matrix(.8833 0 0 .8833 -80.856 -294.653)"/><path d="M521.97 562.393h-200l68.645 68.645z" style="color:#000;fill:#8d6622;fill-opacity:1;fill-rule:evenodd;stroke:none;stroke-width:1;marker:none;visibility:visible;display:inline;overflow:visible" transform="matrix(.8833 0 0 .8833 -80.856 -294.653)"/><path d="M521.97 562.393h-200l68.91-68.91z" style="color:#000;fill:#dfca96;fill-opacity:1;fill-rule:evenodd;stroke:none;stroke-width:1;marker:none;visibility:visible;display:inline;overflow:visible" transform="matrix(.8833 0 0 .8833 -80.856 -294.653)"/><path d="M321.97 762.393v-200l-69.176 68.91z" style="color:#000;fill:#dcc796;fill-opacity:1;fill-rule:evenodd;stroke:none;stroke-width:1;marker:none;visibility:visible;display:inline;overflow:visible" transform="matrix(.8833 0 0 .8833 -80.856 -294.653)"/><path d="M321.97 762.393v-200l68.91 68.645z" style="color:#000;fill:#5c380b;fill-opacity:1;fill-rule:evenodd;stroke:none;stroke-width:1;marker:none;visibility:visible;display:inline;overflow:visible" transform="matrix(.8833 0 0 .8833 -80.856 -294.653)"/><path d="M121.97 562.393h200l-69.176-68.645z" style="color:#000;fill:#d9c08a;fill-opacity:1;fill-rule:evenodd;stroke:none;stroke-width:1;marker:none;visibility:visible;display:inline;overflow:visible" transform="matrix(.8833 0 0 .8833 -80.856 -294.653)"/><path d="M121.97 562.393h200l-68.91 68.91z" style="color:#000;fill:#7e571d;fill-opacity:1;fill-rule:evenodd;stroke:none;stroke-width:1;marker:none;visibility:visible;display:inline;overflow:visible" transform="matrix(.8833 0 0 .8833 -80.856 -294.653)"/><path d="M162.846 557.073h345.862v15.914H162.846z" style="fill:url(#e);fill-opacity:1;stroke:none" transform="translate(-121.47 -361.862)"/><path d="M397.466-326.318h345.862v15.914H397.466z" style="fill:url(#f);fill-opacity:1;stroke:none" transform="rotate(89.421 122.033 -242.283)"/><path d="M314.672-800.442h79.298v4.15h-79.298z" style="fill:url(#g);fill-opacity:1;stroke:none" transform="matrix(.68299 -.73043 -.14537 -.98938 -121.47 -361.862)"/><path d="M-513.223-208.616h90.287v4.312h-90.287z" style="fill:url(#h);fill-opacity:1;stroke:none" transform="matrix(-.714 -.70015 .22363 -.97467 -121.47 -361.862)"/><path d="M-513.223-208.616h90.287v4.312h-90.287z" style="fill:url(#h);fill-opacity:1;stroke:none" transform="matrix(-.714 -.70015 .22363 -.97467 -121.47 -361.862)"/><path d="M-618.566 1003.121h77.767v3.573h-77.767z" style="fill:url(#i);fill-opacity:1;stroke:none" transform="matrix(-.72859 .68495 -.1326 .99117 -121.47 -361.862)"/><path d="M-618.566 1003.121h77.767v3.573h-77.767z" style="fill:url(#i);fill-opacity:1;stroke:none" transform="matrix(-.72859 .68495 -.1326 .99117 -121.47 -361.862)"/><path d="M-618.566 1003.121h77.767v3.573h-77.767z" style="fill:url(#i);fill-opacity:1;stroke:none" transform="matrix(-.72859 .68495 -.1326 .99117 -121.47 -361.862)"/><path d="M-960.35 307.022h76.048v3.766h-76.048z" style="fill:url(#j);fill-opacity:1;stroke:none" transform="matrix(-.72017 -.6938 -.99065 -.13642 -121.47 -361.862)"/><path d="M605.714 535.22c0 124.658-101.055 225.714-225.714 225.714-124.659 0-225.714-101.056-225.714-225.715 0-124.658 101.055-225.714 225.714-225.714 124.659 0 225.714 101.056 225.714 225.714z" style="fill:url(#k);fill-opacity:1;stroke:none" transform="matrix(-.10467 -.11158 .11505 -.1015 181.895 462.748)"/><path d="M237.143 545.934c0 74.558-60.442 135-135 135-74.559 0-135-60.442-135-135 0-74.559 60.441-135 135-135 74.558 0 135 60.441 135 135z" style="opacity:.87614698;fill:url(#l);fill-opacity:1;stroke:none" transform="matrix(.15554 0 0 .15084 179.256 274.08)"/></svg>