<svg xmlns="http://www.w3.org/2000/svg" xmlns:xlink="http://www.w3.org/1999/xlink" width="600" height="600" version="1.0"><desc>Picture of a blue sphere (circle with 3D highlighting)</desc><defs><radialGradient xlink:href="#a" id="d" cx="102.143" cy="545.934" r="135" fx="102.143" fy="545.934" gradientUnits="userSpaceOnUse"/><radialGradient xlink:href="#c" id="f" cx="102.143" cy="545.934" r="135" fx="102.143" fy="545.934" gradientUnits="userSpaceOnUse"/><radialGradient xlink:href="#a" id="j" cx="102.143" cy="545.934" r="135" fx="102.143" fy="545.934" gradientUnits="userSpaceOnUse"/><radialGradient xlink:href="#c" id="l" cx="102.143" cy="545.934" r="135" fx="102.143" fy="545.934" gradientUnits="userSpaceOnUse"/><radialGradient xlink:href="#a" id="g" cx="102.143" cy="545.934" r="135" fx="102.143" fy="545.934" gradientUnits="userSpaceOnUse"/><radialGradient xlink:href="#c" id="i" cx="102.143" cy="545.934" r="135" fx="102.143" fy="545.934" gradientUnits="userSpaceOnUse"/><linearGradient id="c"><stop offset="0" style="stop-color:#fff;stop-opacity:1"/><stop offset="1" style="stop-color:#fff;stop-opacity:0"/></linearGradient><linearGradient id="b"><stop offset="0" style="stop-color:#081074;stop-opacity:1"/><stop offset=".5" style="stop-color:#5873c2;stop-opacity:1"/><stop offset=".75" style="stop-color:#0f99d2;stop-opacity:1"/><stop offset=".938" style="stop-color:#1660d4;stop-opacity:.6156863"/><stop offset="1" style="stop-color:#414cf6;stop-opacity:.21568628"/></linearGradient><linearGradient id="a"><stop offset="0" style="stop-color:#999;stop-opacity:1"/><stop offset="1" style="stop-color:#999;stop-opacity:0"/></linearGradient><linearGradient xlink:href="#b" id="e" x1="154.286" x2="605.714" y1="535.219" y2="535.219" gradientUnits="userSpaceOnUse"/><linearGradient xlink:href="#b" id="k" x1="154.286" x2="605.714" y1="535.219" y2="535.219" gradientUnits="userSpaceOnUse"/><linearGradient xlink:href="#b" id="h" x1="154.286" x2="605.714" y1="535.219" y2="535.219" gradientUnits="userSpaceOnUse"/></defs><path d="M311.205 95.504C224.199 320.874 128.633 370.886 86.566 357.21" style="fill:none;stroke:#0a3f6b;stroke-width:8.48668766;stroke-linecap:butt;stroke-linejoin:miter;stroke-miterlimit:4;stroke-opacity:1;stroke-dasharray:none"/><path d="M306.435 98.684c39.164 210.054 75.025 259.353 109.548 243.595" style="fill:none;stroke:#184086;stroke-width:8.48668766;stroke-linecap:butt;stroke-linejoin:miter;stroke-miterlimit:4;stroke-opacity:1;stroke-dasharray:none"/><path d="M237.143 545.934c0 74.558-60.442 135-135 135-74.559 0-135-60.442-135-135 0-74.559 60.441-135 135-135 74.558 0 135 60.441 135 135z" style="fill:url(#d);fill-opacity:1;stroke:none" transform="matrix(.51989 -.10438 .19178 .36433 320.78 231.255)"/><path d="M605.714 535.22c0 124.658-101.055 225.714-225.714 225.714-124.659 0-225.714-101.056-225.714-225.715 0-124.658 101.055-225.714 225.714-225.714 124.659 0 225.714 101.056 225.714 225.714z" style="fill:url(#e);fill-opacity:1;stroke:none" transform="matrix(-.2113 -.25848 .2772 -.19074 415.229 551.767)"/><path d="M237.143 545.934c0 74.558-60.442 135-135 135-74.559 0-135-60.442-135-135 0-74.559 60.441-135 135-135 74.558 0 135 60.441 135 135z" style="opacity:.87614698;fill:url(#f);fill-opacity:1;stroke:none" transform="matrix(.34724 .03286 -.03024 .31955 447.159 151.527)"/><path d="M237.143 545.934c0 74.558-60.442 135-135 135-74.559 0-135-60.442-135-135 0-74.559 60.441-135 135-135 74.558 0 135 60.441 135 135z" style="fill:url(#g);fill-opacity:1;stroke:none" transform="matrix(.51989 -.10438 .19178 .36433 151.504 -40.69)"/><path d="M605.714 535.22c0 124.658-101.055 225.714-225.714 225.714-124.659 0-225.714-101.056-225.714-225.715 0-124.658 101.055-225.714 225.714-225.714 124.659 0 225.714 101.056 225.714 225.714z" style="fill:url(#h);fill-opacity:1;stroke:none" transform="matrix(-.2113 -.25848 .2772 -.19074 245.953 279.821)"/><path d="M237.143 545.934c0 74.558-60.442 135-135 135-74.559 0-135-60.442-135-135 0-74.559 60.441-135 135-135 74.558 0 135 60.441 135 135z" style="opacity:.87614698;fill:url(#i);fill-opacity:1;stroke:none" transform="matrix(.34724 .03286 -.03024 .31955 277.883 -120.419)"/><path d="M237.143 545.934c0 74.558-60.442 135-135 135-74.559 0-135-60.442-135-135 0-74.559 60.441-135 135-135 74.558 0 135 60.441 135 135z" style="fill:url(#j);fill-opacity:1;stroke:none" transform="matrix(.51989 -.10438 .19178 .36433 -71.513 233.394)"/><path d="M605.714 535.22c0 124.658-101.055 225.714-225.714 225.714-124.659 0-225.714-101.056-225.714-225.715 0-124.658 101.055-225.714 225.714-225.714 124.659 0 225.714 101.056 225.714 225.714z" style="fill:url(#k);fill-opacity:1;stroke:none" transform="matrix(-.2113 -.25848 .2772 -.19074 22.936 553.905)"/><path d="M237.143 545.934c0 74.558-60.442 135-135 135-74.559 0-135-60.442-135-135 0-74.559 60.441-135 135-135 74.558 0 135 60.441 135 135z" style="opacity:.87614698;fill:url(#l);fill-opacity:1;stroke:none" transform="matrix(.34724 .03286 -.03024 .31955 70.746 153.665)"/><path d="m448.747 506.228-131.656-83.064 1.056 167.36 130.6-84.296zM135.373 508.939l113.856-84.663 1.056 167.36-114.912-82.697z" style="fill:#000;fill-opacity:1;stroke:#000;stroke-width:11.09605885;stroke-linecap:butt;stroke-linejoin:round;stroke-miterlimit:4;stroke-opacity:1;stroke-dasharray:none"/></svg>