<svg xmlns="http://www.w3.org/2000/svg" xmlns:xlink="http://www.w3.org/1999/xlink" width="66" height="350"><defs><radialGradient xlink:href="#c" id="e" cx="102.143" cy="545.934" r="135" fx="102.143" fy="545.934" gradientUnits="userSpaceOnUse"/><radialGradient xlink:href="#d" id="g" cx="102.143" cy="545.934" r="135" fx="102.143" fy="545.934" gradientUnits="userSpaceOnUse"/><radialGradient xlink:href="#c" id="h" cx="102.143" cy="545.934" r="135" fx="102.143" fy="545.934" gradientUnits="userSpaceOnUse"/><radialGradient xlink:href="#d" id="j" cx="102.143" cy="545.934" r="135" fx="102.143" fy="545.934" gradientUnits="userSpaceOnUse"/><radialGradient xlink:href="#c" id="k" cx="102.143" cy="545.934" r="135" fx="102.143" fy="545.934" gradientUnits="userSpaceOnUse"/><radialGradient xlink:href="#d" id="m" cx="102.143" cy="545.934" r="135" fx="102.143" fy="545.934" gradientUnits="userSpaceOnUse"/><radialGradient xlink:href="#c" id="n" cx="102.143" cy="545.934" r="135" fx="102.143" fy="545.934" gradientUnits="userSpaceOnUse"/><radialGradient xlink:href="#d" id="p" cx="102.143" cy="545.934" r="135" fx="102.143" fy="545.934" gradientUnits="userSpaceOnUse"/><radialGradient xlink:href="#c" id="q" cx="102.143" cy="545.934" r="135" fx="102.143" fy="545.934" gradientUnits="userSpaceOnUse"/><radialGradient xlink:href="#d" id="s" cx="102.143" cy="545.934" r="135" fx="102.143" fy="545.934" gradientUnits="userSpaceOnUse"/><radialGradient xlink:href="#c" id="t" cx="102.143" cy="545.934" r="135" fx="102.143" fy="545.934" gradientUnits="userSpaceOnUse"/><radialGradient xlink:href="#d" id="v" cx="102.143" cy="545.934" r="135" fx="102.143" fy="545.934" gradientUnits="userSpaceOnUse"/><linearGradient id="c"><stop offset="0" style="stop-color:#999;stop-opacity:1"/><stop offset="1" style="stop-color:#999;stop-opacity:0"/></linearGradient><linearGradient xlink:href="#a" id="f" x1="154.286" x2="605.714" y1="535.219" y2="535.219" gradientUnits="userSpaceOnUse"/><linearGradient id="a"><stop offset="0" style="stop-color:#081074;stop-opacity:1"/><stop offset=".5" style="stop-color:#5873c2;stop-opacity:1"/><stop offset=".75" style="stop-color:#0f99d2;stop-opacity:1"/><stop offset=".938" style="stop-color:#1660d4;stop-opacity:.6156863"/><stop offset="1" style="stop-color:#414cf6;stop-opacity:.21568628"/></linearGradient><linearGradient id="d"><stop offset="0" style="stop-color:#fff;stop-opacity:1"/><stop offset="1" style="stop-color:#fff;stop-opacity:0"/></linearGradient><linearGradient xlink:href="#a" id="i" x1="154.286" x2="605.714" y1="535.219" y2="535.219" gradientUnits="userSpaceOnUse"/><linearGradient xlink:href="#a" id="l" x1="154.286" x2="605.714" y1="535.219" y2="535.219" gradientUnits="userSpaceOnUse"/><linearGradient xlink:href="#a" id="o" x1="154.286" x2="605.714" y1="535.219" y2="535.219" gradientUnits="userSpaceOnUse"/><linearGradient xlink:href="#a" id="r" x1="154.286" x2="605.714" y1="535.219" y2="535.219" gradientUnits="userSpaceOnUse"/><linearGradient xlink:href="#b" id="u" x1="154.286" x2="605.714" y1="535.219" y2="535.219" gradientUnits="userSpaceOnUse"/><linearGradient id="b"><stop offset="0" style="stop-color:#770900;stop-opacity:1"/><stop offset=".5" style="stop-color:#da101b;stop-opacity:1"/><stop offset=".75" style="stop-color:#d2400f;stop-opacity:1"/><stop offset=".938" style="stop-color:#d44316;stop-opacity:.614583"/><stop offset="1" style="stop-color:#c30000;stop-opacity:.21875"/></linearGradient></defs><text xml:space="preserve" x="-227.999" y="51.108" style="font-style:normal;font-variant:normal;font-weight:400;font-stretch:condensed;font-size:62.6613px;line-height:125%;font-family:Impact;-inkscape-font-specification:&quot;Impact, Condensed&quot;;font-variant-ligatures:normal;font-variant-caps:normal;font-variant-numeric:normal;font-variant-east-asian:normal;text-align:start;writing-mode:lr-tb;text-anchor:start;fill:#0169c9;fill-opacity:1;stroke:#002350;stroke-width:.615953;stroke-miterlimit:4;stroke-dasharray:none;stroke-opacity:1" transform="matrix(-.00502 -.81857 1.2216 -.00873 0 0)"><tspan x="-227.999" y="51.108" style="stroke-width:.615953">Studio</tspan></text><text xml:space="preserve" x="-495.296" y="41.57" style="font-style:normal;font-variant:normal;font-weight:400;font-stretch:condensed;font-size:53.1113px;line-height:125%;font-family:Impact;-inkscape-font-specification:&quot;Impact, Condensed&quot;;font-variant-ligatures:normal;font-variant-caps:normal;font-variant-numeric:normal;font-variant-east-asian:normal;text-align:start;writing-mode:lr-tb;text-anchor:start;fill:#002b3d;fill-opacity:1;stroke:#002350;stroke-width:.522078;stroke-miterlimit:4;stroke-dasharray:none;stroke-opacity:1" transform="matrix(-.00593 -.69275 1.44346 -.00738 0 0)"><tspan x="-495.296" y="41.57" style="stroke-width:.522078">Treebolic</tspan></text><path d="M336.616 423.305c-75.373 96.692-165.154 125.4-205.938 124.034" style="fill:none;stroke:#0a3f6b;stroke-width:10.62239647;stroke-linecap:butt;stroke-linejoin:miter;stroke-miterlimit:4;stroke-opacity:1;stroke-dasharray:none" transform="matrix(.09526 0 0 .09303 -2.156 8.716)"/><path d="M498.072 135.483c-208.69 156.277-314.605 192.314-378.927 179.69" style="fill:none;stroke:#184086;stroke-width:10.62239647;stroke-linecap:butt;stroke-linejoin:miter;stroke-miterlimit:4;stroke-opacity:1;stroke-dasharray:none" transform="matrix(.09526 0 0 .09303 -2.156 8.716)"/><path d="M636.463 426.485c-78.013-37.574-145.63-52.283-143.333-287.822-46.099 93.01-77.994 179.166-156.514 287.822-36.96 136.949-19.638 188.76 13.18 216.264" style="fill:none;stroke:#053f9d;stroke-width:10.62239647;stroke-linecap:butt;stroke-linejoin:miter;stroke-miterlimit:4;stroke-opacity:1;stroke-dasharray:none" transform="matrix(.09526 0 0 .09303 -2.156 8.716)"/><path d="M237.143 545.934c0 74.558-60.442 135-135 135-74.559 0-135-60.442-135-135 0-74.559 60.441-135 135-135 74.558 0 135 60.441 135 135z" style="fill:url(#e);fill-opacity:1;stroke:none" transform="matrix(.02933 -.00905 .01301 .0204 20.938 61.696)"/><path d="M605.714 535.22c0 124.658-101.055 225.714-225.714 225.714-124.659 0-225.714-101.056-225.714-225.715 0-124.658 101.055-225.714 225.714-225.714 124.659 0 225.714 101.056 225.714 225.714z" style="fill:url(#f);fill-opacity:1;stroke:none" transform="matrix(-.01356 -.01405 .0149 -.01278 28.115 80.05)"/><path d="M237.143 545.934c0 74.558-60.442 135-135 135-74.559 0-135-60.442-135-135 0-74.559 60.441-135 135-135 74.558 0 135 60.441 135 135z" style="opacity:.87614698;fill:url(#g);fill-opacity:1;stroke:none" transform="matrix(.02015 0 0 .019 27.773 56.295)"/><path d="M237.143 545.934c0 74.558-60.442 135-135 135-74.559 0-135-60.442-135-135 0-74.559 60.441-135 135-135 74.558 0 135 60.441 135 135z" style="fill:url(#h);fill-opacity:1;stroke:none" transform="matrix(.02933 -.00905 .01301 .0204 48.16 42.317)"/><path d="M605.714 535.22c0 124.658-101.055 225.714-225.714 225.714-124.659 0-225.714-101.056-225.714-225.715 0-124.658 101.055-225.714 225.714-225.714 124.659 0 225.714 101.056 225.714 225.714z" style="fill:url(#i);fill-opacity:1;stroke:none" transform="matrix(-.01356 -.01405 .0149 -.01278 55.337 60.671)"/><path d="M237.143 545.934c0 74.558-60.442 135-135 135-74.559 0-135-60.442-135-135 0-74.559 60.441-135 135-135 74.558 0 135 60.441 135 135z" style="opacity:.87614698;fill:url(#j);fill-opacity:1;stroke:none" transform="matrix(.02015 0 0 .019 54.995 36.915)"/><path d="M237.143 545.934c0 74.558-60.442 135-135 135-74.559 0-135-60.442-135-135 0-74.559 60.441-135 135-135 74.558 0 135 60.441 135 135z" style="fill:url(#k);fill-opacity:1;stroke:none" transform="matrix(.02933 -.00905 .01301 .0204 .292 53.116)"/><path d="M605.714 535.22c0 124.658-101.055 225.714-225.714 225.714-124.659 0-225.714-101.056-225.714-225.715 0-124.658 101.055-225.714 225.714-225.714 124.659 0 225.714 101.056 225.714 225.714z" style="fill:url(#l);fill-opacity:1;stroke:none" transform="matrix(-.01356 -.01405 .0149 -.01278 7.468 71.47)"/><path d="M237.143 545.934c0 74.558-60.442 135-135 135-74.559 0-135-60.442-135-135 0-74.559 60.441-135 135-135 74.558 0 135 60.441 135 135z" style="opacity:.87614698;fill:url(#m);fill-opacity:1;stroke:none" transform="matrix(.02015 0 0 .019 7.126 47.715)"/><path d="M237.143 545.934c0 74.558-60.442 135-135 135-74.559 0-135-60.442-135-135 0-74.559 60.441-135 135-135 74.558 0 135 60.441 135 135z" style="fill:url(#n);fill-opacity:1;stroke:none" transform="matrix(.02933 -.00905 .01301 .0204 19.753 42.169)"/><path d="M605.714 535.22c0 124.658-101.055 225.714-225.714 225.714-124.659 0-225.714-101.056-225.714-225.715 0-124.658 101.055-225.714 225.714-225.714 124.659 0 225.714 101.056 225.714 225.714z" style="fill:url(#o);fill-opacity:1;stroke:none" transform="matrix(-.01356 -.01405 .0149 -.01278 26.93 60.523)"/><path d="M237.143 545.934c0 74.558-60.442 135-135 135-74.559 0-135-60.442-135-135 0-74.559 60.441-135 135-135 74.558 0 135 60.441 135 135z" style="opacity:.87614698;fill:url(#p);fill-opacity:1;stroke:none" transform="matrix(.02015 0 0 .019 26.588 36.767)"/><path d="M237.143 545.934c0 74.558-60.442 135-135 135-74.559 0-135-60.442-135-135 0-74.559 60.441-135 135-135 74.558 0 135 60.441 135 135z" style="fill:url(#q);fill-opacity:1;stroke:none" transform="matrix(.02933 -.00905 .01301 .0204 -1.435 31.073)"/><path d="M605.714 535.22c0 124.658-101.055 225.714-225.714 225.714-124.659 0-225.714-101.056-225.714-225.715 0-124.658 101.055-225.714 225.714-225.714 124.659 0 225.714 101.056 225.714 225.714z" style="fill:url(#r);fill-opacity:1;stroke:none" transform="matrix(-.01356 -.01405 .0149 -.01278 5.742 49.428)"/><path d="M237.143 545.934c0 74.558-60.442 135-135 135-74.559 0-135-60.442-135-135 0-74.559 60.441-135 135-135 74.558 0 135 60.441 135 135z" style="opacity:.87614698;fill:url(#s);fill-opacity:1;stroke:none" transform="matrix(.02015 0 0 .019 5.4 25.672)"/><path d="M237.143 545.934c0 74.558-60.442 135-135 135-74.559 0-135-60.442-135-135 0-74.559 60.441-135 135-135 74.558 0 135 60.441 135 135z" style="fill:url(#t);fill-opacity:1;stroke:none" transform="matrix(.03048 -.0094 .01352 .0212 34.85 13.543)"/><path d="M605.714 535.22c0 124.658-101.055 225.714-225.714 225.714-124.659 0-225.714-101.056-225.714-225.715 0-124.658 101.055-225.714 225.714-225.714 124.659 0 225.714 101.056 225.714 225.714z" style="fill:url(#u);fill-opacity:1;stroke:none" transform="matrix(-.0141 -.0146 .01549 -.01328 42.307 32.616)"/><path d="M237.143 545.934c0 74.558-60.442 135-135 135-74.559 0-135-60.442-135-135 0-74.559 60.441-135 135-135 74.558 0 135 60.441 135 135z" style="opacity:.87614698;fill:url(#v);fill-opacity:1;stroke:none" transform="matrix(.02094 0 0 .01974 41.952 7.93)"/></svg>