<?xml version="1.0" encoding="UTF-8" standalone="no"?>
<svg
   width="128"
   height="128"
   version="1.0"
   id="svg127"
   sodipodi:docname="treebolic-studio.svg"
   inkscape:export-filename="treebolic-studio.png"
   inkscape:export-xdpi="96"
   inkscape:export-ydpi="96"
   inkscape:version="1.2.2 (b0a8486541, 2022-12-01)"
   xmlns:inkscape="http://www.inkscape.org/namespaces/inkscape"
   xmlns:sodipodi="http://sodipodi.sourceforge.net/DTD/sodipodi-0.dtd"
   xmlns:xlink="http://www.w3.org/1999/xlink"
   xmlns="http://www.w3.org/2000/svg"
   xmlns:svg="http://www.w3.org/2000/svg">
  <sodipodi:namedview
     id="namedview129"
     pagecolor="#505050"
     bordercolor="#ffffff"
     borderopacity="1"
     inkscape:showpageshadow="0"
     inkscape:pageopacity="0"
     inkscape:pagecheckerboard="1"
     inkscape:deskcolor="#505050"
     showgrid="false"
     inkscape:zoom="4.72"
     inkscape:cx="68.114407"
     inkscape:cy="68.326271"
     inkscape:window-width="1920"
     inkscape:window-height="1101"
     inkscape:window-x="0"
     inkscape:window-y="0"
     inkscape:window-maximized="1"
     inkscape:current-layer="svg127" />
  <desc
     id="desc2">Picture of a blue sphere (circle with 3D highlighting)</desc>
  <defs
     id="defs73">
    <radialGradient
       xlink:href="#d"
       id="j"
       cx="102.143"
       cy="545.93402"
       r="135"
       fx="102.143"
       fy="545.93402"
       gradientUnits="userSpaceOnUse"
       gradientTransform="matrix(0.03717124,-0.0112642,0.01649024,0.0253925,47.371736,62.989476)" />
    <radialGradient
       xlink:href="#f"
       id="l"
       cx="102.143"
       cy="545.93402"
       r="135"
       fx="102.143"
       fy="545.93402"
       gradientUnits="userSpaceOnUse"
       gradientTransform="matrix(0.02553508,0,0,0.02364428,56.032833,56.265052)" />
    <radialGradient
       xlink:href="#d"
       id="m"
       cx="102.143"
       cy="545.93402"
       r="135"
       fx="102.143"
       fy="545.93402"
       gradientUnits="userSpaceOnUse"
       gradientTransform="matrix(0.03717124,-0.0112642,0.01649024,0.0253925,81.868581,38.861646)" />
    <radialGradient
       xlink:href="#f"
       id="o"
       cx="102.143"
       cy="545.93402"
       r="135"
       fx="102.143"
       fy="545.93402"
       gradientUnits="userSpaceOnUse"
       gradientTransform="matrix(0.02553508,0,0,0.02364428,90.529059,32.136602)" />
    <radialGradient
       xlink:href="#d"
       id="p"
       cx="102.143"
       cy="545.93402"
       r="135"
       fx="102.143"
       fy="545.93402"
       gradientUnits="userSpaceOnUse"
       gradientTransform="matrix(0.03717124,-0.0112642,0.01649024,0.0253925,21.208042,52.306774)" />
    <radialGradient
       xlink:href="#f"
       id="r"
       cx="102.143"
       cy="545.93402"
       r="135"
       fx="102.143"
       fy="545.93402"
       gradientUnits="userSpaceOnUse"
       gradientTransform="matrix(0.02553508,0,0,0.02364428,29.86914,45.58235)" />
    <radialGradient
       xlink:href="#d"
       id="s"
       cx="102.143"
       cy="545.93402"
       r="135"
       fx="102.143"
       fy="545.93402"
       gradientUnits="userSpaceOnUse"
       gradientTransform="matrix(0.03717124,-0.0112642,0.01649024,0.0253925,45.870256,38.677525)" />
    <radialGradient
       xlink:href="#f"
       id="u"
       cx="102.143"
       cy="545.93402"
       r="135"
       fx="102.143"
       fy="545.93402"
       gradientUnits="userSpaceOnUse"
       gradientTransform="matrix(0.02553508,0,0,0.02364428,54.530733,31.952482)" />
    <radialGradient
       xlink:href="#d"
       id="v"
       cx="102.143"
       cy="545.93402"
       r="135"
       fx="102.143"
       fy="545.93402"
       gradientUnits="userSpaceOnUse"
       gradientTransform="matrix(0.03717124,-0.0112642,0.01649024,0.0253925,19.020295,24.863537)" />
    <radialGradient
       xlink:href="#f"
       id="x"
       cx="102.143"
       cy="545.93402"
       r="135"
       fx="102.143"
       fy="545.93402"
       gradientUnits="userSpaceOnUse"
       gradientTransform="matrix(0.02553508,0,0,0.02364428,27.681393,18.139113)" />
    <radialGradient
       xlink:href="#d"
       id="y"
       cx="102.143"
       cy="545.93402"
       r="135"
       fx="102.143"
       fy="545.93402"
       gradientUnits="userSpaceOnUse"
       gradientTransform="matrix(0.03862189,-0.01170435,0.01713497,0.02638439,65.000178,3.0381414)" />
    <radialGradient
       xlink:href="#f"
       id="A"
       cx="102.143"
       cy="545.93402"
       r="135"
       fx="102.143"
       fy="545.93402"
       gradientUnits="userSpaceOnUse"
       gradientTransform="matrix(0.02653317,0,0,0.02457418,74.000999,-3.9503742)" />
    <linearGradient
       id="g">
      <stop
         offset="0"
         style="stop-color:#770900;stop-opacity:1"
         id="stop23" />
      <stop
         offset=".5"
         style="stop-color:#da101b;stop-opacity:1"
         id="stop25" />
      <stop
         offset=".75"
         style="stop-color:#d2400f;stop-opacity:1"
         id="stop27" />
      <stop
         offset=".938"
         style="stop-color:#d44316;stop-opacity:.614583"
         id="stop29" />
      <stop
         offset="1"
         style="stop-color:#c30000;stop-opacity:.21875"
         id="stop31" />
    </linearGradient>
    <linearGradient
       id="f">
      <stop
         offset="0"
         style="stop-color:#fff;stop-opacity:1"
         id="stop34" />
      <stop
         offset="1"
         style="stop-color:#fff;stop-opacity:0"
         id="stop36" />
    </linearGradient>
    <linearGradient
       id="e">
      <stop
         offset="0"
         style="stop-color:#081074;stop-opacity:1"
         id="stop39" />
      <stop
         offset=".5"
         style="stop-color:#5873c2;stop-opacity:1"
         id="stop41" />
      <stop
         offset=".75"
         style="stop-color:#0f99d2;stop-opacity:1"
         id="stop43" />
      <stop
         offset=".938"
         style="stop-color:#1660d4;stop-opacity:.6156863"
         id="stop45" />
      <stop
         offset="1"
         style="stop-color:#414cf6;stop-opacity:.21568628"
         id="stop47" />
    </linearGradient>
    <linearGradient
       id="d">
      <stop
         offset="0"
         style="stop-color:#999;stop-opacity:1"
         id="stop50" />
      <stop
         offset="1"
         style="stop-color:#999;stop-opacity:0"
         id="stop52" />
    </linearGradient>
    <linearGradient
       xlink:href="#e"
       id="k"
       x1="154.286"
       x2="605.71399"
       y1="535.21899"
       y2="535.21899"
       gradientUnits="userSpaceOnUse"
       gradientTransform="matrix(-0.01718457,-0.01748834,0.01888939,-0.01591371,56.465547,85.841482)" />
    <linearGradient
       xlink:href="#e"
       id="n"
       x1="154.286"
       x2="605.71399"
       y1="535.21899"
       y2="535.21899"
       gradientUnits="userSpaceOnUse"
       gradientTransform="matrix(-0.01718457,-0.01748834,0.01888939,-0.01591371,90.963013,61.713032)" />
    <linearGradient
       xlink:href="#e"
       id="q"
       x1="154.286"
       x2="605.71399"
       y1="535.21899"
       y2="535.21899"
       gradientUnits="userSpaceOnUse"
       gradientTransform="matrix(-0.01718457,-0.01748834,0.01888939,-0.01591371,30.302474,75.15878)" />
    <linearGradient
       xlink:href="#e"
       id="t"
       x1="154.286"
       x2="605.71399"
       y1="535.21899"
       y2="535.21899"
       gradientUnits="userSpaceOnUse"
       gradientTransform="matrix(-0.01718457,-0.01748834,0.01888939,-0.01591371,54.964067,61.528911)" />
    <linearGradient
       xlink:href="#e"
       id="w"
       x1="154.286"
       x2="605.71399"
       y1="535.21899"
       y2="535.21899"
       gradientUnits="userSpaceOnUse"
       gradientTransform="matrix(-0.01718457,-0.01748834,0.01888939,-0.01591371,28.114727,47.715543)" />
    <linearGradient
       xlink:href="#g"
       id="z"
       x1="154.286"
       x2="605.71399"
       y1="535.21899"
       y2="535.21899"
       gradientUnits="userSpaceOnUse"
       gradientTransform="matrix(-0.0178541,-0.01817646,0.01962711,-0.01653364,74.451071,26.784092)" />
  </defs>
  <path
     d="m -0.04823823,56.113674 128.16209823,0.0567 -0.0721,71.930916 -128.16209569,-0.0567 z"
     style="fill:#d71cd7;fill-opacity:1;fill-rule:evenodd;stroke:none;stroke-width:0.627809"
     id="path75" />
  <text
     xml:space="preserve"
     x="67.596458"
     y="114.28123"
     style="font-style:normal;font-variant:normal;font-weight:normal;font-stretch:normal;font-size:40.7753px;line-height:125%;font-family:Busorama;-inkscape-font-specification:'Busorama, Normal';font-variant-ligatures:normal;font-variant-caps:normal;font-variant-numeric:normal;font-variant-east-asian:normal;text-align:center;writing-mode:lr-tb;text-anchor:middle;fill:#fefeff;fill-opacity:1;fill-rule:evenodd;stroke:#ffffff;stroke-width:0.520727;stroke-miterlimit:4;stroke-dasharray:none;stroke-opacity:1"
     transform="scale(0.9594571,1.0422561)"
     id="text125"><tspan
       sodipodi:role="line"
       id="tspan431"
       x="67.596458"
       y="114.28123"
       style="stroke-width:0.520727">Studio</tspan></text>
  <g
     id="g393">
    <path
       d="M 58.742709,46.058649 C 49.6437,57.258334 38.805361,60.583538 33.881927,60.425317"
       style="fill:none;stroke:#0a3f6b;stroke-width:1.85983;stroke-linecap:butt;stroke-linejoin:miter;stroke-miterlimit:4;stroke-dasharray:none;stroke-opacity:1"
       id="path81" />
    <path
       d="M 78.233636,12.720669 C 53.040633,30.821994 40.254602,34.996104 32.489666,33.533885"
       style="fill:none;stroke:#184086;stroke-width:1.85983;stroke-linecap:butt;stroke-linejoin:miter;stroke-miterlimit:4;stroke-dasharray:none;stroke-opacity:1"
       id="path83" />
    <path
       d="M 94.940162,46.426983 C 85.522453,42.074845 77.359746,40.371124 77.637036,13.089004 72.071982,23.862209 68.221621,33.841526 58.742709,46.426983 54.280908,62.289576 56.372015,68.290767 60.333795,71.476508"
       style="fill:none;stroke:#053f9d;stroke-width:1.85983;stroke-linecap:butt;stroke-linejoin:miter;stroke-miterlimit:4;stroke-dasharray:none;stroke-opacity:1"
       id="path85" />
    <path
       d="m 65.189221,74.180877 c 1.229477,1.89321 -0.02052,4.108817 -2.791935,4.948654 -2.771451,0.839849 -6.014822,-0.01413 -7.244301,-1.90732 -1.229497,-1.893241 0.02048,-4.108804 2.791935,-4.948654 2.771412,-0.839837 6.014804,0.01407 7.244301,1.90732 z"
       style="fill:url(#j);fill-opacity:1;stroke:none;stroke-width:0.0336098"
       id="path87" />
    <path
       d="m 56.166591,66.731217 c 2.354713,-1.98377 6.000185,-1.824664 8.142398,0.355415 2.142213,2.180078 1.969908,5.555538 -0.384818,7.539327 -2.354716,1.98377 -6.000189,1.824664 -8.142401,-0.355415 -2.142211,-2.180078 -1.969911,-5.555538 0.384802,-7.539308 z"
       style="fill:url(#k);fill-opacity:1;stroke:none;stroke-width:0.0245726"
       id="path89" />
    <path
       d="m 62.088298,69.173267 c 0,1.76287 -1.543391,3.191978 -3.447235,3.191978 -1.90387,0 -3.447236,-1.429108 -3.447236,-3.191978 0,-1.762893 1.543366,-3.191978 3.447236,-3.191978 1.903844,0 3.447235,1.429085 3.447235,3.191978 z"
       style="opacity:0.876147;fill:url(#l);fill-opacity:1;stroke:none;stroke-width:0.0245715"
       id="path91" />
    <path
       d="m 99.686066,50.053046 c 1.229474,1.893214 -0.02052,4.108817 -2.791934,4.948654 -2.771452,0.839847 -6.014823,-0.0141 -7.244301,-1.90732 -1.229496,-1.893239 0.02046,-4.108807 2.791935,-4.948654 2.771415,-0.839836 6.014804,0.01408 7.2443,1.90732 z"
       style="fill:url(#m);fill-opacity:1;stroke:none;stroke-width:0.0336098"
       id="path93" />
    <path
       d="m 90.664056,42.602768 c 2.354713,-1.983771 6.000185,-1.824662 8.142398,0.355416 2.142216,2.180079 1.969906,5.555538 -0.384818,7.539325 -2.354713,1.98377 -6.000192,1.824662 -8.142398,-0.355416 -2.142213,-2.18008 -1.969915,-5.555539 0.384799,-7.539309 z"
       style="fill:url(#n);fill-opacity:1;stroke:none;stroke-width:0.0245726"
       id="path95" />
    <path
       d="m 96.584524,45.044819 c 0,1.762871 -1.543394,3.191978 -3.447236,3.191978 -1.903873,0 -3.447236,-1.429107 -3.447236,-3.191978 0,-1.762893 1.543363,-3.191978 3.447236,-3.191978 1.903842,0 3.447236,1.429085 3.447236,3.191978 z"
       style="opacity:0.876147;fill:url(#o);fill-opacity:1;stroke:none;stroke-width:0.0245715"
       id="path97" />
    <path
       d="m 39.025527,63.498174 c 1.229479,1.893211 -0.02052,4.108818 -2.791935,4.948655 -2.771451,0.839849 -6.014821,-0.01413 -7.2443,-1.90732 -1.229497,-1.893241 0.02048,-4.108808 2.791934,-4.948655 2.771413,-0.839836 6.014804,0.01408 7.244301,1.90732 z"
       style="fill:url(#p);fill-opacity:1;stroke:none;stroke-width:0.0336098"
       id="path99" />
    <path
       d="m 30.003517,56.048516 c 2.354714,-1.983771 6.000187,-1.824662 8.142398,0.355416 2.142211,2.180079 1.969912,5.555538 -0.38482,7.539325 -2.354714,1.98377 -6.000186,1.824664 -8.142398,-0.355417 -2.142211,-2.180079 -1.969911,-5.555538 0.384802,-7.539309 z"
       style="fill:url(#q);fill-opacity:1;stroke:none;stroke-width:0.0245726"
       id="path101" />
    <path
       d="m 35.924605,58.490567 c 0,1.76287 -1.543391,3.191978 -3.447236,3.191978 -1.903869,0 -3.447235,-1.429108 -3.447235,-3.191978 0,-1.762894 1.543366,-3.191978 3.447235,-3.191978 1.903845,0 3.447236,1.429084 3.447236,3.191978 z"
       style="opacity:0.876147;fill:url(#r);fill-opacity:1;stroke:none;stroke-width:0.0245715"
       id="path103" />
    <path
       d="m 63.68774,49.868925 c 1.229478,1.893214 -0.02052,4.108818 -2.791935,4.948654 -2.771451,0.839848 -6.014821,-0.0141 -7.2443,-1.90732 -1.229497,-1.893238 0.02048,-4.108806 2.791934,-4.948653 2.771413,-0.839837 6.014805,0.01408 7.244301,1.907319 z"
       style="fill:url(#s);fill-opacity:1;stroke:none;stroke-width:0.0336098"
       id="path105" />
    <path
       d="m 54.665111,42.418648 c 2.354713,-1.983771 6.000185,-1.824663 8.142398,0.355416 2.142212,2.180079 1.969908,5.555538 -0.384818,7.539324 -2.354716,1.983771 -6.000189,1.824663 -8.142401,-0.355416 -2.142211,-2.180079 -1.969911,-5.555538 0.384802,-7.539309 z"
       style="fill:url(#t);fill-opacity:1;stroke:none;stroke-width:0.0245726"
       id="path107" />
    <path
       d="m 60.586198,44.860699 c 0,1.76287 -1.543391,3.191978 -3.447235,3.191978 -1.90387,0 -3.447236,-1.429108 -3.447236,-3.191978 0,-1.762894 1.543366,-3.191978 3.447236,-3.191978 1.903844,0 3.447235,1.429084 3.447235,3.191978 z"
       style="opacity:0.876147;fill:url(#u);fill-opacity:1;stroke:none;stroke-width:0.0245715"
       id="path109" />
    <path
       d="m 36.83778,36.054937 c 1.229479,1.893214 -0.02052,4.108817 -2.791935,4.948654 -2.771451,0.839847 -6.014821,-0.0141 -7.2443,-1.90732 -1.229497,-1.893239 0.02048,-4.108807 2.791934,-4.948654 2.771413,-0.839836 6.014804,0.01408 7.244301,1.90732 z"
       style="fill:url(#v);fill-opacity:1;stroke:none;stroke-width:0.0336098"
       id="path111" />
    <path
       d="m 27.81577,28.605279 c 2.354714,-1.983771 6.000186,-1.824662 8.142398,0.355416 2.142211,2.180079 1.969912,5.555538 -0.38482,7.539325 -2.354714,1.98377 -6.000186,1.824662 -8.142398,-0.355417 -2.142211,-2.180079 -1.969911,-5.555538 0.384802,-7.539309 z"
       style="fill:url(#w);fill-opacity:1;stroke:none;stroke-width:0.0245726"
       id="path113" />
    <path
       d="m 33.736858,31.04733 c 0,1.762871 -1.543391,3.191978 -3.447236,3.191978 -1.903869,0 -3.447235,-1.429107 -3.447235,-3.191978 0,-1.762894 1.543366,-3.191978 3.447235,-3.191978 1.903845,0 3.447236,1.429084 3.447236,3.191978 z"
       style="opacity:0.876147;fill:url(#x);fill-opacity:1;stroke:none;stroke-width:0.0245715"
       id="path115" />
    <path
       d="m 83.51365,14.666671 c 1.277554,1.967168 -0.02114,4.269327 -2.900733,5.141981 -2.879605,0.872664 -6.249622,-0.01464 -7.527176,-1.981805 -1.277566,-1.967194 0.02114,-4.269316 2.900733,-5.141981 2.879575,-0.872653 6.24961,0.01461 7.527176,1.981805 z"
       style="fill:url(#y);fill-opacity:1;stroke:none;stroke-width:0.0349223"
       id="path117" />
    <path
       d="m 74.141414,6.9252192 c 2.446675,-2.0610503 6.23436,-1.8950512 8.460034,0.3708086 2.225675,2.2658598 2.046483,5.7735052 -0.40021,7.8345732 -2.446681,2.06105 -6.23436,1.895051 -8.460035,-0.370809 -2.225674,-2.26586 -2.046482,-5.7735057 0.400193,-7.8345562 z"
       style="fill:url(#z);fill-opacity:1;stroke:none;stroke-width:0.0255332"
       id="path119" />
    <path
       d="m 80.293155,9.4655077 c 0,1.8322023 -1.603719,3.3175143 -3.581978,3.3175143 -1.978284,0 -3.581979,-1.485312 -3.581979,-3.3175143 0,-1.8322266 1.603695,-3.3175148 3.581979,-3.3175148 1.978259,0 3.581978,1.4852882 3.581978,3.3175148 z"
       style="opacity:0.876147;fill:url(#A);fill-opacity:1;stroke:none;stroke-width:0.0255349"
       id="path121" />
  </g>
</svg>
