<svg xmlns="http://www.w3.org/2000/svg" width="128" height="128" version="1.0"><path d="M509.778 536.79c-12.427 0-22.5 10.074-22.5 22.5 0 12.428 10.073 22.5 22.5 22.5 12.426 0 22.5-10.072 22.5-22.5 0-12.426-10.074-22.5-22.5-22.5zm3.749 35.66a.94.94 0 0 1-.937.938h-5.625a.94.94 0 0 1-.938-.938v-15c0-.514.422-.938.938-.938h5.625c.515 0 .937.424.937.938v15zm0-19.758a.94.94 0 0 1-.937.938h-5.625a.94.94 0 0 1-.938-.938v-6.563a.94.94 0 0 1 .938-.938h5.625a.94.94 0 0 1 .937.938v6.563z" style="fill:#666" transform="translate(-1216.988 -1340.438)scale(2.51316)"/></svg>