<svg xmlns="http://www.w3.org/2000/svg" width="128" height="128" version="1.0"><defs><linearGradient id="a"><stop offset="0" style="stop-color:#f07836;stop-opacity:1"/><stop offset="1" style="stop-color:white;stop-opacity:1"/></linearGradient><linearGradient id="b"><stop offset="0" style="stop-color:#545454;stop-opacity:1"/><stop offset=".946" style="stop-color:#545454;stop-opacity:1"/><stop offset="1" style="stop-color:#c5c5c5;stop-opacity:0"/></linearGradient></defs><path d="M509.778 536.79c-12.427 0-22.5 10.074-22.5 22.5 0 12.428 10.073 22.5 22.5 22.5 12.426 0 22.5-10.072 22.5-22.5 0-12.426-10.074-22.5-22.5-22.5zm3.749 35.66a.94.94 0 0 1-.937.938h-5.625a.94.94 0 0 1-.938-.938v-15c0-.514.422-.938.938-.938h5.625c.515 0 .937.424.937.938v15zm0-19.758a.94.94 0 0 1-.937.938h-5.625a.94.94 0 0 1-.938-.938v-6.563a.94.94 0 0 1 .938-.938h5.625a.94.94 0 0 1 .937.938v6.563z" style="fill:#666" transform="matrix(2.51316 0 0 2.51316 -1216.988 -1340.438)"/></svg>