<?xml version="1.0" encoding="UTF-8" standalone="no"?>
<!--
  - Copyright (c) 2022. Bernard Bou
  -->

<!-- Created with Inkscape (http://www.inkscape.org/) -->

<svg
   xmlns:dc="http://purl.org/dc/elements/1.1/"
   xmlns:cc="http://creativecommons.org/ns#"
   xmlns:rdf="http://www.w3.org/1999/02/22-rdf-syntax-ns#"
   xmlns:svg="http://www.w3.org/2000/svg"
   xmlns="http://www.w3.org/2000/svg"
   xmlns:xlink="http://www.w3.org/1999/xlink"
   xmlns:sodipodi="http://sodipodi.sourceforge.net/DTD/sodipodi-0.dtd"
   xmlns:inkscape="http://www.inkscape.org/namespaces/inkscape"
   version="1.0"
   width="128"
   height="128"
   id="svg2"
   inkscape:version="0.48.4 r9939"
   sodipodi:docname="clear.svg"
   inkscape:export-filename="/home/bbou/Desktop/stale.png"
   inkscape:export-xdpi="11.25"
   inkscape:export-ydpi="11.25">
  <metadata
     id="metadata23">
    <rdf:RDF>
      <cc:Work
         rdf:about="">
        <dc:format>image/svg+xml</dc:format>
        <dc:type
           rdf:resource="http://purl.org/dc/dcmitype/StillImage" />
        <dc:title />
      </cc:Work>
    </rdf:RDF>
  </metadata>
  <sodipodi:namedview
     pagecolor="#ffffff"
     bordercolor="#666666"
     borderopacity="1"
     objecttolerance="10"
     gridtolerance="10"
     guidetolerance="10"
     inkscape:pageopacity="0"
     inkscape:pageshadow="2"
     inkscape:window-width="1036"
     inkscape:window-height="567"
     id="namedview21"
     showgrid="false"
     inkscape:zoom="0.76367188"
     inkscape:cx="-147.47826"
     inkscape:cy="-40.757033"
     inkscape:window-x="875"
     inkscape:window-y="272"
     inkscape:window-maximized="0"
     inkscape:current-layer="svg2" />
  <defs
     id="defs5">
    <linearGradient
       id="linearGradient2816">
      <stop
         style="stop-color:#f07836;stop-opacity:1;"
         offset="0"
         id="stop2818" />
      <stop
         style="stop-color:white;stop-opacity:1"
         offset="1"
         id="stop2820" />
    </linearGradient>
    <linearGradient
       id="linearGradient2794">
      <stop
         style="stop-color:#545454;stop-opacity:1"
         offset="0"
         id="stop2796" />
      <stop
         style="stop-color:#545454;stop-opacity:1"
         offset="0.9464286"
         id="stop2804" />
      <stop
         style="stop-color:#c5c5c5;stop-opacity:0"
         offset="1"
         id="stop2798" />
    </linearGradient>
    <linearGradient
       inkscape:collect="always"
       xlink:href="#linearGradient2816"
       id="linearGradient3061"
       gradientUnits="userSpaceOnUse"
       gradientTransform="matrix(0.89419004,0,0,0.50191997,9.6878701,-0.29570749)"
       x1="31.5"
       y1="63"
       x2="31.5"
       y2="12" />
    <radialGradient
       inkscape:collect="always"
       xlink:href="#linearGradient2794"
       id="radialGradient3065"
       gradientUnits="userSpaceOnUse"
       gradientTransform="matrix(1.0578729,0,0,1.1181378,-2.9853126,-10.795733)"
       cx="62.984127"
       cy="65.015877"
       fx="62.984127"
       fy="65.015877"
       r="54.179893" />
  </defs>
  <g
     transform="matrix(2.5422564,0,0,2.5422564,-1231.168,-1052.8103)"
     id="Close_x2F_Clear_x2F_Cancel">
    <g
       id="g704">
      <path
         style="fill:#666666"
         inkscape:connector-curvature="0"
         d="m 514.172,439.484 4.041,-4.041 c 0.26,-0.26 0.404,-0.605 0.404,-0.975 0,-0.371 -0.143,-0.717 -0.404,-0.977 l -2.441,-2.443 c -0.521,-0.521 -1.434,-0.52 -1.949,0 l -4.044,4.043 -4.043,-4.043 c -0.52,-0.52 -1.429,-0.52 -1.949,0 l -2.443,2.443 c -0.26,0.26 -0.402,0.605 -0.402,0.975 0,0.37 0.143,0.717 0.402,0.977 l 4.043,4.041 -4.041,4.041 c -0.261,0.26 -0.404,0.605 -0.404,0.975 0,0.371 0.143,0.717 0.402,0.979 l 2.444,2.443 c 0.521,0.52 1.429,0.52 1.95,-0.002 l 4.041,-4.041 4.042,4.041 c 0.26,0.26 0.605,0.404 0.975,0.404 0.37,0 0.715,-0.145 0.975,-0.404 l 2.441,-2.439 c 0.262,-0.262 0.406,-0.609 0.406,-0.98 0,-0.369 -0.145,-0.717 -0.404,-0.973 l -4.042,-4.044 z"
         id="path706" />
      <path
         style="fill:#666666"
         inkscape:connector-curvature="0"
         d="m 509.778,425.027 c 7.976,0 14.464,6.488 14.464,14.465 0,7.975 -6.488,14.463 -14.464,14.463 -7.975,0 -14.464,-6.488 -14.464,-14.463 0,-7.976 6.489,-14.465 14.464,-14.465 m 0,-8.035 c -12.426,0 -22.5,10.073 -22.5,22.5 0,12.426 10.074,22.5 22.5,22.5 12.427,0 22.5,-10.074 22.5,-22.5 -10e-4,-12.428 -10.073,-22.5 -22.5,-22.5 l 0,0 z"
         id="path708" />
    </g>
  </g>
</svg>
