<svg xmlns="http://www.w3.org/2000/svg" width="128" height="128" version="1.0"><defs><linearGradient id="a"><stop offset="0" style="stop-color:#f07836;stop-opacity:1"/><stop offset="1" style="stop-color:white;stop-opacity:1"/></linearGradient><linearGradient id="b"><stop offset="0" style="stop-color:#545454;stop-opacity:1"/><stop offset=".946" style="stop-color:#545454;stop-opacity:1"/><stop offset="1" style="stop-color:#c5c5c5;stop-opacity:0"/></linearGradient></defs><path d="m514.172 439.484 4.041-4.041c.26-.26.404-.605.404-.975 0-.371-.143-.717-.404-.977l-2.441-2.443c-.521-.521-1.434-.52-1.949 0l-4.044 4.043-4.043-4.043c-.52-.52-1.429-.52-1.949 0l-2.443 2.443c-.26.26-.402.605-.402.975s.143.717.402.977l4.043 4.041-4.041 4.041c-.261.26-.404.605-.404.975 0 .371.143.717.402.979l2.444 2.443c.521.52 1.429.52 1.95-.002l4.041-4.041 4.042 4.041c.26.26.605.404.975.404s.715-.145.975-.404l2.441-2.439c.262-.262.406-.609.406-.98 0-.369-.145-.717-.404-.973l-4.042-4.044z" style="fill:#666" transform="matrix(2.54226 0 0 2.54226 -1231.168 -1052.81)"/><path d="M509.778 425.027c7.976 0 14.464 6.488 14.464 14.465 0 7.975-6.488 14.463-14.464 14.463-7.975 0-14.464-6.488-14.464-14.463 0-7.976 6.489-14.465 14.464-14.465m0-8.035c-12.426 0-22.5 10.073-22.5 22.5 0 12.426 10.074 22.5 22.5 22.5 12.427 0 22.5-10.074 22.5-22.5-.001-12.428-10.073-22.5-22.5-22.5z" style="fill:#666" transform="matrix(2.54226 0 0 2.54226 -1231.168 -1052.81)"/></svg>