<?xml version="1.0" encoding="UTF-8" standalone="no"?>
<!--
  - Copyright (c) 2022. Bernard Bou
  -->

<!-- Generator: Adobe Illustrator 14.0.0, SVG Export Plug-In . SVG Version: 6.00 Build 43363)  -->

<svg
   xmlns:dc="http://purl.org/dc/elements/1.1/"
   xmlns:cc="http://creativecommons.org/ns#"
   xmlns:rdf="http://www.w3.org/1999/02/22-rdf-syntax-ns#"
   xmlns:svg="http://www.w3.org/2000/svg"
   xmlns="http://www.w3.org/2000/svg"
   xmlns:sodipodi="http://sodipodi.sourceforge.net/DTD/sodipodi-0.dtd"
   xmlns:inkscape="http://www.inkscape.org/namespaces/inkscape"
   version="1.1"
   x="0px"
   y="0px"
   width="128"
   height="128"
   viewBox="0 0 128 128"
   enable-background="new 0 0 780 650"
   xml:space="preserve"
   id="svg2"
   inkscape:version="0.91 r13725"
   sodipodi:docname="fontsize.svg"
   inkscape:export-filename="/home/bbou/fontsize.png"
   inkscape:export-xdpi="16.875"
   inkscape:export-ydpi="16.875"><metadata
     id="metadata1456"><rdf:RDF><cc:Work
         rdf:about=""><dc:format>image/svg+xml</dc:format><dc:type
           rdf:resource="http://purl.org/dc/dcmitype/StillImage" /><dc:title /></cc:Work></rdf:RDF></metadata><defs
     id="defs1454" /><sodipodi:namedview
     pagecolor="#ffffff"
     bordercolor="#666666"
     borderopacity="1"
     objecttolerance="10"
     gridtolerance="10"
     guidetolerance="10"
     inkscape:pageopacity="0"
     inkscape:pageshadow="2"
     inkscape:window-width="1257"
     inkscape:window-height="1138"
     id="namedview1452"
     showgrid="false"
     inkscape:zoom="2.0995632"
     inkscape:cx="59.273598"
     inkscape:cy="-57.698301"
     inkscape:window-x="102"
     inkscape:window-y="34"
     inkscape:window-maximized="0"
     inkscape:current-layer="svg2" /><g
     id="g4140"
     style="fill:#666666"><g
       transform="matrix(1.3330134,0,0,1.5772232,-162.21629,-170.76997)"
       id="g6026"
       style="fill:#666666"><path
         style="fill:#666666"
         inkscape:connector-curvature="0"
         d="m 216.83579,160.17817 c 0.31103,-0.4828 0.0932,-0.88608 -0.48176,-0.89206 l -13.60426,-0.14135 c -0.57497,-0.006 -0.80111,0.3917 -0.50119,0.88184 l 6.62758,10.85445 c 0.29994,0.48914 0.79991,0.49433 1.10894,0.0115 l 6.85069,-10.7144 z"
         id="path3552" /><path
         style="fill:#666666"
         inkscape:connector-curvature="0"
         d="m 217.04993,139.56828 c 0.30092,0.49115 0.0748,0.88782 -0.50019,0.88185 l -13.60426,-0.14135 c -0.57497,-0.006 -0.79282,-0.40626 -0.48276,-0.89207 l 6.85167,-10.71239 c 0.31005,-0.4848 0.81003,-0.47961 1.10894,0.0115 l 6.6266,10.85243 z"
         id="path3554" /></g><g
       style="fill:#666666"
       transform="matrix(2.1642633,0,0,2.8474095,-1181.5675,-1185.6021)"
       id="Sort_-_A-z"><g
         style="fill:#666666"
         id="g3639"><path
           id="path3641"
           d="m 562.663,451.271 -1.24,-3.193 h -0.188 c -0.463,0.631 -0.926,1.174 -1.389,1.629 -0.463,0.457 -0.967,0.832 -1.514,1.125 -0.547,0.295 -1.16,0.512 -1.838,0.65 -0.682,0.143 -1.469,0.211 -2.365,0.211 -0.953,0 -1.836,-0.148 -2.648,-0.455 -0.813,-0.299 -1.516,-0.756 -2.111,-1.361 -0.596,-0.611 -1.061,-1.381 -1.396,-2.314 -0.336,-0.932 -0.506,-2.035 -0.506,-3.311 0,-2.494 0.799,-4.332 2.396,-5.518 1.598,-1.184 3.986,-1.838 7.168,-1.965 l 3.74,-0.125 v -1.766 c 0,-0.967 -0.279,-1.682 -0.842,-2.145 -0.559,-0.461 -1.344,-0.693 -2.354,-0.693 -1.01,0 -1.994,0.146 -2.953,0.441 -0.959,0.295 -1.924,0.688 -2.891,1.178 l -2.08,-4.246 c 1.178,-0.658 2.48,-1.177 3.908,-1.554 1.43,-0.379 2.93,-0.568 4.498,-0.568 2.93,0 5.174,0.688 6.736,2.06 1.563,1.373 2.344,3.461 2.344,6.264 v 15.658 h -4.477 v -0.002 z m -1.891,-10.887 -2.123,0.084 c -0.854,0.027 -1.578,0.141 -2.164,0.336 -0.59,0.195 -1.063,0.457 -1.42,0.787 -0.357,0.33 -0.615,0.721 -0.777,1.178 -0.16,0.455 -0.24,0.963 -0.24,1.523 0,0.98 0.238,1.678 0.713,2.092 0.477,0.412 1.102,0.619 1.871,0.619 0.59,0 1.135,-0.102 1.641,-0.305 0.504,-0.203 0.941,-0.504 1.313,-0.902 0.373,-0.4 0.662,-0.891 0.873,-1.471 0.211,-0.582 0.314,-1.252 0.314,-2.01 v -1.931 l -10e-4,0 z"
           inkscape:connector-curvature="0"
           style="fill:#666666" /><path
           id="path3643"
           d="m 568.976,440.552 v -4.244 h 9.549 v 4.244 h -9.549 z"
           inkscape:connector-curvature="0"
           style="fill:#666666" /><path
           id="path3645"
           d="m 592.468,451.241 h -17.279 v -3.785 l 9.607,-14.816 h -8.953 v -4.896 h 16.225 v 4.159 l -9.289,14.441 h 9.689 v 4.897 z"
           inkscape:connector-curvature="0"
           style="fill:#666666" /></g></g></g></svg>