<svg xmlns="http://www.w3.org/2000/svg" xml:space="preserve" width="128" height="128"><g style="fill:#666"><path d="M216.836 160.178c.31-.483.093-.886-.482-.892l-13.604-.141c-.575-.006-.801.391-.501.882l6.627 10.854c.3.49.8.494 1.11.012l6.85-10.715zm.214-20.61c.3.491.075.888-.5.882l-13.605-.141c-.574-.006-.792-.406-.482-.892l6.851-10.713c.31-.484.81-.48 1.11.012l6.626 10.852z" style="fill:#666" transform="matrix(1.33301 0 0 1.57722 -162.216 -170.77)"/><g style="fill:#666"><path d="m562.663 451.271-1.24-3.193h-.188a13.37 13.37 0 0 1-1.389 1.629 6.559 6.559 0 0 1-1.514 1.125 6.64 6.64 0 0 1-1.838.65c-.682.143-1.469.211-2.365.211-.953 0-1.836-.148-2.648-.455a5.673 5.673 0 0 1-2.111-1.361c-.596-.611-1.061-1.381-1.396-2.314-.336-.932-.506-2.035-.506-3.311 0-2.494.799-4.332 2.396-5.518 1.598-1.184 3.986-1.838 7.168-1.965l3.74-.125v-1.766c0-.967-.279-1.682-.842-2.145-.559-.461-1.344-.693-2.354-.693s-1.994.146-2.953.441c-.959.295-1.924.688-2.891 1.178l-2.08-4.246a16.736 16.736 0 0 1 3.908-1.554 17.49 17.49 0 0 1 4.498-.568c2.93 0 5.174.688 6.736 2.06 1.563 1.373 2.344 3.461 2.344 6.264v15.658h-4.477v-.002zm-1.891-10.887-2.123.084c-.854.027-1.578.141-2.164.336-.59.195-1.063.457-1.42.787s-.615.721-.777 1.178a4.57 4.57 0 0 0-.24 1.523c0 .98.238 1.678.713 2.092.477.412 1.102.619 1.871.619a4.36 4.36 0 0 0 1.641-.305 3.636 3.636 0 0 0 1.313-.902c.373-.4.662-.891.873-1.471.211-.582.314-1.252.314-2.01v-1.931h-.001zm8.204.168v-4.244h9.549v4.244h-9.549z" style="fill:#666" transform="matrix(2.16426 0 0 2.8474 -1181.568 -1185.602)"/><path d="M592.468 451.241h-17.279v-3.785l9.607-14.816h-8.953v-4.896h16.225v4.159l-9.289 14.441h9.689v4.897z" style="fill:#666" transform="matrix(2.16426 0 0 2.8474 -1181.568 -1185.602)"/></g></g></svg>