<?xml version="1.0" encoding="UTF-8" standalone="no"?>
<!--
  - Copyright (c) 2022. Bernard Bou
  -->

<!-- Created with Inkscape (http://www.inkscape.org/) -->

<svg
   xmlns:dc="http://purl.org/dc/elements/1.1/"
   xmlns:cc="http://creativecommons.org/ns#"
   xmlns:rdf="http://www.w3.org/1999/02/22-rdf-syntax-ns#"
   xmlns:svg="http://www.w3.org/2000/svg"
   xmlns="http://www.w3.org/2000/svg"
   xmlns:xlink="http://www.w3.org/1999/xlink"
   xmlns:sodipodi="http://sodipodi.sourceforge.net/DTD/sodipodi-0.dtd"
   xmlns:inkscape="http://www.inkscape.org/namespaces/inkscape"
   version="1.0"
   width="128"
   height="128"
   id="svg2"
   inkscape:version="0.48.4 r9939"
   sodipodi:docname="menu.svg"
   inkscape:export-filename="/home/bbou/Desktop/stale.png"
   inkscape:export-xdpi="11.25"
   inkscape:export-ydpi="11.25">
  <metadata
     id="metadata23">
    <rdf:RDF>
      <cc:Work
         rdf:about="">
        <dc:format>image/svg+xml</dc:format>
        <dc:type
           rdf:resource="http://purl.org/dc/dcmitype/StillImage" />
        <dc:title />
      </cc:Work>
    </rdf:RDF>
  </metadata>
  <sodipodi:namedview
     pagecolor="#ffffff"
     bordercolor="#666666"
     borderopacity="1"
     objecttolerance="10"
     gridtolerance="10"
     guidetolerance="10"
     inkscape:pageopacity="0"
     inkscape:pageshadow="2"
     inkscape:window-width="1036"
     inkscape:window-height="567"
     id="namedview21"
     showgrid="false"
     inkscape:zoom="0.76367188"
     inkscape:cx="-147.47826"
     inkscape:cy="-40.757033"
     inkscape:window-x="875"
     inkscape:window-y="272"
     inkscape:window-maximized="0"
     inkscape:current-layer="svg2" />
  <defs
     id="defs5">
    <linearGradient
       id="linearGradient2816">
      <stop
         style="stop-color:#f07836;stop-opacity:1;"
         offset="0"
         id="stop2818" />
      <stop
         style="stop-color:white;stop-opacity:1"
         offset="1"
         id="stop2820" />
    </linearGradient>
    <linearGradient
       id="linearGradient2794">
      <stop
         style="stop-color:#545454;stop-opacity:1"
         offset="0"
         id="stop2796" />
      <stop
         style="stop-color:#545454;stop-opacity:1"
         offset="0.9464286"
         id="stop2804" />
      <stop
         style="stop-color:#c5c5c5;stop-opacity:0"
         offset="1"
         id="stop2798" />
    </linearGradient>
    <linearGradient
       inkscape:collect="always"
       xlink:href="#linearGradient2816"
       id="linearGradient3061"
       gradientUnits="userSpaceOnUse"
       gradientTransform="matrix(0.89419004,0,0,0.50191997,9.6878701,-0.29570749)"
       x1="31.5"
       y1="63"
       x2="31.5"
       y2="12" />
    <radialGradient
       inkscape:collect="always"
       xlink:href="#linearGradient2794"
       id="radialGradient3065"
       gradientUnits="userSpaceOnUse"
       gradientTransform="matrix(1.0578729,0,0,1.1181378,-2.9853126,-10.795733)"
       cx="62.984127"
       cy="65.015877"
       fx="62.984127"
       fy="65.015877"
       r="54.179893" />
  </defs>
  <g
     transform="matrix(2.3385323,0,0,2.5565882,-706.40973,-1057.1435)"
     id="List"
     style="fill:#666666">
    <g
       id="g954"
       style="fill:#666666">
      <path
         style="fill:#666666"
         inkscape:connector-curvature="0"
         d="m 352.572,429.142 c 0,0.494 -0.406,0.9 -0.9,0.9 h -43.201 c -0.494,0 -0.9,-0.406 -0.9,-0.9 v -8.099 c 0,-0.496 0.406,-0.9 0.9,-0.9 h 43.201 c 0.494,0 0.9,0.404 0.9,0.9 v 8.099 z"
         id="path956" />
      <path
         style="fill:#666666"
         inkscape:connector-curvature="0"
         d="m 352.572,443.542 c 0,0.494 -0.406,0.9 -0.9,0.9 h -43.201 c -0.494,0 -0.9,-0.406 -0.9,-0.9 v -8.1 c 0,-0.496 0.406,-0.9 0.9,-0.9 h 43.201 c 0.494,0 0.9,0.404 0.9,0.9 v 8.1 z"
         id="path958" />
      <path
         style="fill:#666666"
         inkscape:connector-curvature="0"
         d="m 352.572,457.942 c 0,0.494 -0.406,0.898 -0.9,0.898 h -43.201 c -0.494,0 -0.9,-0.404 -0.9,-0.898 v -8.102 c 0,-0.494 0.406,-0.898 0.9,-0.898 h 43.201 c 0.494,0 0.9,0.404 0.9,0.898 v 8.102 z"
         id="path960" />
    </g>
  </g>
</svg>
