<svg xmlns="http://www.w3.org/2000/svg" xml:space="preserve" width="128" height="128"><path d="M124.28 67.28c-.788-8.659-3.568-16.463-8.34-23.411-4.771-6.948-10.726-13.175-17.864-18.68-7.139-5.506-15.568-10.492-25.29-14.959-7.331-3.368-14.804-5.08-22.418-5.139-7.614-.058-14.306 1.118-20.075 3.527-5.77 2.409-10.697 5.306-14.782 8.69-4.085 3.386-6.81 6.789-8.174 10.21C4.54 34.53 3.882 40.905 5.364 46.645s5.25 10.002 11.307 12.784c6.374 2.929 10.644 6.054 12.807 9.375 2.164 3.322 2.257 7.463.278 12.423-2.66 6.67-2.806 13.18-.436 19.53 2.37 6.351 6.662 10.955 12.877 13.81 18.965 8.713 35.35 10.777 49.154 6.19 13.804-4.586 23.23-13.208 28.279-25.864 3.889-9.75 5.439-18.953 4.65-27.613zM30.017 46.893c-2.162.93-4.32.9-6.47-.089-2.152-.988-3.661-2.643-4.527-4.963-.866-2.32-.838-4.635.083-6.944.92-2.309 2.463-3.928 4.625-4.857 2.162-.93 4.319-.9 6.47.089 2.152.988 3.66 2.643 4.526 4.963.866 2.32.838 4.635-.083 6.944-.92 2.309-2.462 3.928-4.624 4.857zm23.026-10.215c-2.151-.988-3.62-2.625-4.406-4.908-.786-2.284-.719-4.58.202-6.89.921-2.308 2.423-3.946 4.505-4.912 2.083-.965 4.2-.954 6.351.034 2.152.989 3.66 2.643 4.526 4.964.866 2.32.839 4.635-.083 6.944-.92 2.309-2.462 3.928-4.624 4.857-2.162.93-4.32.9-6.47-.089zm2.227 64.62c-2.618 1.125-5.201 1.102-7.751-.07-2.55-1.171-4.35-3.161-5.397-5.97-1.048-2.81-1.027-5.582.065-8.318 1.092-2.737 2.946-4.668 5.563-5.792 2.618-1.125 5.201-1.102 7.751.07 2.55 1.171 4.349 3.161 5.397 5.97 1.048 2.81 1.027 5.582-.065 8.318-1.092 2.737-2.946 4.668-5.563 5.792zm29.105-53.109c-2.162.93-4.319.9-6.47-.089-2.152-.988-3.66-2.643-4.526-4.963-.866-2.32-.838-4.635.083-6.944.92-2.309 2.462-3.928 4.624-4.857 2.162-.93 4.32-.9 6.47.089 2.152.988 3.661 2.643 4.527 4.963.866 2.32.838 4.635-.083 6.944-.921 2.309-2.463 3.928-4.625 4.857zm19.301 24.653c-2.162.93-4.319.9-6.47-.089-2.152-.988-3.66-2.643-4.526-4.963-.866-2.32-.839-4.635.082-6.944.921-2.309 2.463-3.928 4.625-4.857 2.162-.93 4.32-.9 6.47.089 2.152.988 3.66 2.643 4.527 4.963.865 2.32.838 4.635-.083 6.944-.921 2.309-2.463 3.928-4.625 4.857z" style="fill:#666"/></svg>