<?xml version="1.0" encoding="UTF-8" standalone="no"?>
<!--
  - Copyright (c) 2022. Bernard Bou
  -->

<!-- Generator: Adobe Illustrator 16.0.4, SVG Export Plug-In . SVG Version: 6.00 Build 0)  -->

<svg
   xmlns:dc="http://purl.org/dc/elements/1.1/"
   xmlns:cc="http://creativecommons.org/ns#"
   xmlns:rdf="http://www.w3.org/1999/02/22-rdf-syntax-ns#"
   xmlns:svg="http://www.w3.org/2000/svg"
   xmlns="http://www.w3.org/2000/svg"
   xmlns:sodipodi="http://sodipodi.sourceforge.net/DTD/sodipodi-0.dtd"
   xmlns:inkscape="http://www.inkscape.org/namespaces/inkscape"
   version="1.1"
   id="Capa_1"
   x="0px"
   y="0px"
   width="128"
   height="128"
   viewBox="0 0 128 128"
   enable-background="new 0 0 492 390"
   xml:space="preserve"
   inkscape:version="0.91 r13725"
   sodipodi:docname="palette.svg"><metadata
     id="metadata9"><rdf:RDF><cc:Work
         rdf:about=""><dc:format>image/svg+xml</dc:format><dc:type
           rdf:resource="http://purl.org/dc/dcmitype/StillImage" /></cc:Work></rdf:RDF></metadata><defs
     id="defs7" /><sodipodi:namedview
     pagecolor="#ffffff"
     bordercolor="#666666"
     borderopacity="1"
     objecttolerance="10"
     gridtolerance="10"
     guidetolerance="10"
     inkscape:pageopacity="0"
     inkscape:pageshadow="2"
     inkscape:window-width="854"
     inkscape:window-height="845"
     id="namedview5"
     showgrid="false"
     inkscape:zoom="0.60512821"
     inkscape:cx="-52.134322"
     inkscape:cy="128.89831"
     inkscape:window-x="252"
     inkscape:window-y="34"
     inkscape:window-maximized="0"
     inkscape:current-layer="Capa_1" /><path
     d="m 124.28028,67.280786 c -0.78858,-8.65971 -3.56849,-16.46361 -8.33999,-23.41179 C 111.1688,36.920826 105.21402,30.693966 98.075723,25.188336 90.937422,19.682696 82.507652,14.696596 72.786089,10.230186 65.45505,6.8620656 57.982482,5.1492356 50.368245,5.0913356 c -7.614232,-0.0579 -14.306135,1.11757 -20.07571,3.5264 -5.769575,2.4088304 -10.696622,5.3058304 -14.78138,8.6909004 -4.084757,3.38506 -6.8093571,6.7882 -8.1738351,10.20879 -2.7972159,7.01228 -3.4548944,13.38862 -1.973275,19.12888 1.48162,5.74027 5.2506851,10.00154 11.3066151,12.78383 6.374827,2.92881 10.644099,6.05383 12.807712,9.37532 2.163609,3.32149 2.25628,7.46223 0.27777,12.42212 -2.660794,6.6703 -2.806286,13.18086 -0.436615,19.531314 2.369678,6.35044 6.662268,10.95362 12.877644,13.80918 18.964799,8.71305 35.349441,10.77648 49.153458,6.19007 13.804011,-4.58642 23.230521,-13.2079 28.279181,-25.864294 3.88886,-9.7489 5.43905,-18.95334 4.65047,-27.61306 z M 30.016538,46.892256 c -2.162033,0.92919 -4.318957,0.89962 -6.470435,-0.0888 -2.151477,-0.98846 -3.660191,-2.64301 -4.526005,-4.96328 -0.865814,-2.32029 -0.838266,-4.63508 0.08278,-6.94403 0.921046,-2.30896 2.462755,-3.9281 4.624787,-4.85728 2.162035,-0.92919 4.318955,-0.89962 6.470433,0.0888 2.151477,0.98846 3.660188,2.64302 4.526006,4.9633 0.865813,2.32028 0.838266,4.63507 -0.08278,6.94402 -0.921045,2.30896 -2.462756,3.9281 -4.624784,4.85728 z m 23.026731,-10.21514 c -2.151479,-0.98846 -3.620267,-2.62468 -4.406476,-4.90838 -0.786212,-2.2837 -0.71874,-4.58016 0.202302,-6.88911 0.921047,-2.30895 2.422834,-3.94644 4.505262,-4.9122 2.082426,-0.96575 4.199434,-0.95453 6.350908,0.0339 2.151479,0.98846 3.660192,2.64301 4.526005,4.96329 0.865813,2.32028 0.838266,4.63508 -0.08278,6.94403 -0.921047,2.30895 -2.462756,3.92809 -4.624789,4.85728 -2.16203,0.92918 -4.318953,0.89962 -6.470434,-0.0888 z m 2.226355,64.620314 c -2.617687,1.1248 -5.201112,1.10147 -7.750854,-0.07 -2.549973,-1.17154 -4.348873,-3.161594 -5.397064,-5.970624 -1.048188,-2.80903 -1.02645,-5.58154 0.0652,-8.31816 1.091648,-2.73662 2.94607,-4.66744 5.563417,-5.7921 2.617447,-1.12491 5.201114,-1.10146 7.750851,0.07 2.549981,1.17155 4.348873,3.1616 5.397069,5.97062 1.048186,2.80903 1.026441,5.58155 -0.0652,8.31816 -1.091638,2.73662 -2.945965,4.667194 -5.563412,5.792104 z M 84.375221,48.188156 c -2.162035,0.92919 -4.31896,0.89962 -6.470436,-0.0888 -2.151479,-0.98846 -3.66019,-2.64301 -4.526008,-4.96329 -0.86581,-2.32028 -0.838266,-4.63507 0.08278,-6.94402 0.921044,-2.30896 2.462758,-3.9281 4.624786,-4.85728 2.162033,-0.92919 4.318958,-0.89962 6.470437,0.0888 2.151478,0.98845 3.660192,2.64301 4.526005,4.96328 0.865815,2.32028 0.838264,4.63508 -0.08278,6.94403 -0.921044,2.30895 -2.462758,3.9281 -4.624784,4.85728 z m 19.300859,24.65299 c -2.16203,0.92918 -4.318957,0.89962 -6.470427,-0.0888 -2.15148,-0.98846 -3.660196,-2.64302 -4.526009,-4.9633 -0.865811,-2.32027 -0.838264,-4.63507 0.08278,-6.94402 0.921047,-2.30895 2.462756,-3.92809 4.624786,-4.85728 2.16203,-0.92919 4.31896,-0.89962 6.47043,0.0888 2.15148,0.98846 3.6602,2.64301 4.52601,4.96329 0.86581,2.32028 0.83826,4.63507 -0.0828,6.94403 -0.92105,2.30895 -2.46276,3.92809 -4.62479,4.85728 z"
     id="path3"
     inkscape:connector-curvature="0"
     style="fill:#666666" /></svg>