<svg xmlns="http://www.w3.org/2000/svg" xml:space="preserve" width="573.263" height="573.263" style="enable-background:new 0 0 573.263 573.263"><path d="M496.032 173.518c-15.696 8.434-22.208 24.676-19.891 43.774.698 5.732-2.215 14.708-6.581 17.789-27.34 19.278-55.243 37.813-83.644 55.488-10.73 6.68-16.002 2.962-17.646-9.747-.562-4.341-.285-8.809-.175-13.215.611-23.799 2.378-47.634 1.595-71.384-.273-8.242 1.212-15.243 4.162-21.42a210.345 210.345 0 0 1 51.334-21.363c13.477 11.901 31.404 14.235 46.892 5.235 16.989-9.874 23.925-30.527 16.54-49.25-6.716-17.026-25.292-26.924-43.966-23.419-20.041 3.757-31.995 19.343-31.849 40.71.024 3.586-.922 7.181-1.791 10.771-16.397 5.1-32.077 12.036-46.952 20.738-5.35 1.012-9.833.751-14.02-.934-6.499-6.883-13.003-13.766-19.502-20.649 14.182-24.264 13.7-41.959-1.559-56.741-13.076-12.664-33.248-14.692-48.797-4.9-15.802 9.947-22.293 29.943-15.479 47.671 7.438 19.351 19.792 24.896 52.146 21.869l29.058 30.763c6.1 11.273 10.515 23.276 11.175 36.749.367 7.421.437 14.868.331 22.317-27.026-18.694-54.183-37.222-80.956-56.275-30.123-21.44-59.434-49.213-63.823-87.618 6.14-1.461 11.991-4.19 17.152-8.511 4.415-3.696 7.768-7.785 10.171-12.101 3.354-3.084 5.659-7.499 5.896-13.285 1.016-24.904-14.146-44.166-36.316-53.489-18.409-7.74-38.613-.008-52.62 12.75-.743.478-1.313 1.069-1.787 1.718-2.411 2.366-4.643 4.859-6.585 7.458-2.913 3.893-3.403 8.776-2.289 13.383-4.415 26.899 23.224 50.865 51.082 53.17 3.97 33.921 23.701 60.608 49.221 82.734 33.313 28.882 72.494 52.122 108.675 77.206a8.145 8.145 0 0 0 1.604.869c-.466 9.445-1.131 18.886-1.856 28.295-1.645 21.241-5.867 41.707-13.313 61.07-5.626-4.137-9.923-9.837-12.497-16.442 12.575-9.237 14.859-26.088 8.564-39.642-6.296-13.558-24.844-18.548-38.03-13.721-11.392 4.17-18.152 14.631-18.515 25.721-1.359 8.396 1.403 17.274 7.381 24.365 5.373 6.377 13.811 9.273 22.207 9.147 4.296 11.869 12.452 21.714 22.986 28.319a180.328 180.328 0 0 1-13.659 22.529c-12.848 18.046-24.941 20.258-39.968 4.357-18.413-19.481-35.157-40.612-51.734-61.726-6.928-8.825-7.801-19.311-5.834-29.87.853-1.783 1.701-3.566 2.554-5.345 31.962-2.742 45.365-11.119 49.502-30.543 3.978-18.674-4.227-36.781-20.265-44.729-6.324-3.133-13.432-4.463-20.372-4.092-19.082-1.338-36.316 13.452-42.118 30.641-5.182 15.353 3.052 31.942 16.185 39.996l-6.206 12.999c-3.692.013-7.915-1.689-11.946-5.21-13.9-12.143-25.994-26.398-40.135-38.218-11.13-9.306-17.765-19.821-20.449-31.661 4.268-20.021 8.54-40.041 12.807-60.062 1.657-.841 3.529-1.571 5.753-2.163 24.745-6.569 35.137-35.81 21.832-57.789-8.344-13.782-23.668-20.869-39.511-18.266-17.658 2.901-29.323 14.076-33.007 31.616-3.296 15.708 3.986 31.583 18.005 41.061 2.231 1.506 5.08 3.554 7.274 5.643l-13.329 62.51c-3.77-1.179-7.564-2.236-11.412-3.031-3.717-26.712-13.109-38.613-31.697-41.384-19.156-2.855-36.512 6.173-43.538 22.652-7.291 17.095-2.379 36.459 12.077 47.609 16.304 12.575 31.053 10.461 58.421-10.241 5.353 1.032 10.612 2.542 15.79 4.468 15.133 13.513 30.38 27.173 45.798 40.723 42.627 37.463 76.063 81.592 100.707 132.106-41.555-6.274-78.226-31.489-98.887-68.997a42.176 42.176 0 0 0 8.96-10.856c9.596-16.757 1.044-38.308-14.525-47.639a31.247 31.247 0 0 0-13.089-4.345c-3.337-1.522-6.94-2.444-10.686-2.554-13.619-.404-24.884 7.099-30.73 18.769-1.938 1.057-3.517 2.872-4.141 5.766-.033.154-.049.313-.082.469-1.636 2.525-1.767 5.263-.951 7.703-.71 16.707 7.667 31.905 23.787 39.307 8.025 3.685 16.544 4.198 24.459 2.252 24.986 46.476 73.105 77.051 125.346 80.593 4.268 9.29 9.368 18.592 11.208 28.241-4.606 29.617-12.231 58.557-22.534 86.814-2.383 6.532-.249 11.71 3.762 14.949.816 1.664 1.946 3.101 2.889 3.309 24.142 5.32 48.479 8.776 72.62.253 2.04-.722 4.61-4.524 4.725-6.757 1.958-3.104 2.75-7.058 1.489-11.673-8.613-31.501-12.754-63.729-12.044-96.096 1.313-5.729 2.623-11.453 3.957-17.177.322-.122.641-.204.967-.367 19.331-9.601 38.662-19.2 57.993-28.797.144.131.27.273.416.404 11.551 10.131 28.793 8.363 39.883-1.302 12.162-10.608 10.049-29.494 1.008-40.996-10.266-13.064-30.927-11.036-42.249-1.171a9.614 9.614 0 0 0-2.109 2.624 10.404 10.404 0 0 0-1.685 1.941c-4.252 6.426-5.598 14.268-4.317 21.652-.212.09-.424.135-.636.241-14.415 7.156-28.825 14.312-43.24 21.473 1.746-6.561 3.578-13.093 5.646-19.551a287.258 287.258 0 0 1 3.244-9.49c27.973-33.868 69.217-53.574 113.354-54.591.126-.004.232-.036.354-.045.751 6.275 3.146 12.457 7.435 17.683 12.799 15.599 38.213 19.891 54.121 6.386 15.304-12.991 19-38.707 5.32-54.309-14.57-16.615-40.07-17.01-56.223-2.656-2.387 2.121-3.239 4.59-3.06 6.952a31.238 31.238 0 0 0-4.688 7.25c-.979-.31-2.04-.518-3.26-.489-32.991.759-63.946 10.686-90.38 28.119 4.194-5.908 8.857-11.562 14.125-16.892 29.571-29.914 64.142-52.432 101.437-71.017 5.981-2.982 14.174-3.656 20.906-2.603 18.617 2.913 35.838-3.925 44.235-19.253 8.041-14.68 5.504-34.876-5.888-46.793-12.159-12.709-31.792-15.728-47.5-7.287z" style="fill:#ccc" transform="translate(0 .173)"/><path d="M469.56 235.081c-27.34 19.278-55.243 37.813-83.644 55.488-10.73 6.68-16.002 2.962-17.646-9.747-.562-4.341-.285-8.809-.175-13.215.611-23.799 2.378-47.634 1.595-71.384-.273-8.242 1.212-15.243 4.162-21.42a210.345 210.345 0 0 1 51.334-21.363c4.888 14.512-9.135-21.644-14.174-15.953-16.397 5.1-32.077 12.036-46.952 20.738-5.35 1.012-9.833.751-14.02-.934-6.499-6.883-13.003-13.766-19.502-20.649-3.13.276-16.415 3.923-13.689 7.899l29.058 30.763c6.1 11.273 10.515 23.276 11.175 36.749.367 7.421.437 14.868.331 22.317-2.518 2.165 1.106 6.974-2.179 17.14a8.145 8.145 0 0 0 1.604.869c-.466 9.445-1.131 18.886-1.856 28.295-1.645 21.241-5.867 41.707-13.313 61.07-5.626-4.137-9.923-9.837-12.497-16.442-13.042 5.063-15.855 6.054-18.393 5.87 4.296 11.869 12.452 21.714 22.986 28.319a180.328 180.328 0 0 1-13.659 22.529c-12.848 18.046-24.941 20.258-39.968 4.357-18.413-19.481-35.157-40.612-51.734-61.726-6.928-8.825-7.801-19.311-5.834-29.87.853-1.783 1.701-3.566 2.554-5.345 5.453-1.048-14.7-5.31-17.068-8.727l-6.206 12.999c-3.692.013-7.915-1.689-11.946-5.21-13.9-12.143-25.994-26.398-40.135-38.218-11.13-9.306-17.765-19.821-20.449-31.661-1.795-.977-11.75 1.811-20.176 2.55-3.77-1.179-7.564-2.236-11.412-3.031-1.69 3.626-3.138 9.304-4.737 18.636 5.353 1.032 10.612 2.542 15.79 4.468 15.133 13.513 30.38 27.173 45.798 40.723 42.627 37.463 76.063 81.592 100.707 132.106-41.555-6.274-78.226-31.489-98.887-68.997-7.145 1.534-7.212 3.248-16.998 8.872 24.986 46.476 73.105 77.051 125.346 80.593 4.268 9.29 9.368 18.592 11.208 28.241-4.606 29.617-12.231 58.557-22.534 86.814-2.383 6.532-.249 11.71 3.762 14.949.816 1.664 1.946 3.101 2.889 3.309 24.142 5.32 48.479 8.776 72.62.253 2.04-.722 4.61-4.524 4.725-6.757 1.958-3.104 2.75-7.058 1.489-11.673-8.613-31.501-12.754-63.729-12.044-96.096 1.313-5.729 2.623-11.453 3.957-17.177.322-.122.641-.204.967-.367 19.331-9.601 38.662-19.2 57.993-28.797.144.131.27.273.416.404-11.027-19.243-8.503-15.505-9.469-17.252-.212.09-.424.135-.636.241-14.415 7.156-28.825 14.312-43.24 21.473 1.746-6.561 3.578-13.093 5.646-19.551a287.258 287.258 0 0 1 3.244-9.49c27.973-33.868 69.217-53.574 113.354-54.591.126-.004.232-.036.354-.045-1.034 7.776 1.48-9.053 2.905-18.694-.979-.31-2.04-.518-3.26-.489-32.991.759-63.946 10.686-90.38 28.119 4.194-5.908 8.857-11.562 14.125-16.892 29.571-29.914 64.142-52.432 101.437-71.017 7.717-3.547-19.636-19.713-14.719-14.373z" style="fill:#666"/></svg>