<?xml version="1.0" encoding="UTF-8" standalone="no"?>
<!--
  - Copyright (c) 2022. Bernard Bou
  -->

<!-- Generator: Adobe Illustrator 15.1.0, SVG Export Plug-In . SVG Version: 6.00 Build 0)  -->

<svg
   xmlns:dc="http://purl.org/dc/elements/1.1/"
   xmlns:cc="http://creativecommons.org/ns#"
   xmlns:rdf="http://www.w3.org/1999/02/22-rdf-syntax-ns#"
   xmlns:svg="http://www.w3.org/2000/svg"
   xmlns="http://www.w3.org/2000/svg"
   xmlns:sodipodi="http://sodipodi.sourceforge.net/DTD/sodipodi-0.dtd"
   xmlns:inkscape="http://www.inkscape.org/namespaces/inkscape"
   version="1.1"
   id="Layer_1"
   x="0px"
   y="0px"
   width="32px"
   height="32px"
   viewBox="0 0 32 32"
   enable-background="new 0 0 32 32"
   xml:space="preserve"
   inkscape:version="0.48.4 r9939"
   sodipodi:docname="settings.svg"><metadata
     id="metadata7"><rdf:RDF><cc:Work
         rdf:about=""><dc:format>image/svg+xml</dc:format><dc:type
           rdf:resource="http://purl.org/dc/dcmitype/StillImage" /><dc:title /></cc:Work></rdf:RDF></metadata><defs
     id="defs5" /><sodipodi:namedview
     pagecolor="#ffffff"
     bordercolor="#666666"
     borderopacity="1"
     objecttolerance="10"
     gridtolerance="10"
     guidetolerance="10"
     inkscape:pageopacity="0"
     inkscape:pageshadow="2"
     inkscape:window-width="810"
     inkscape:window-height="591"
     id="namedview3"
     showgrid="false"
     showguides="true"
     inkscape:guide-bbox="true"
     inkscape:zoom="5.6568542"
     inkscape:cx="-22.73259"
     inkscape:cy="-0.60392231"
     inkscape:window-x="763"
     inkscape:window-y="260"
     inkscape:window-maximized="0"
     inkscape:current-layer="Layer_1" /><path
     style="fill:#666666;fill-opacity:1;stroke:none"
     d="m 13.858741,1.2374382 c -0.491802,0 -0.887729,0.3959264 -0.887729,0.8877284 l 0,2.2563083 C 11.82271,4.6665369 10.717476,5.1253379 9.6790206,5.750057 L 8.0885077,4.1595435 c -0.3477561,-0.3477563 -0.9098587,-0.3477563 -1.2576149,0 L 3.9457764,7.044659 c -0.347756,0.3477572 -0.347756,0.9098584 0,1.2576156 l 1.590513,1.590514 C 4.9164601,10.928211 4.486668,12.045977 4.2046974,13.184779 l -2.2563091,0 c -0.4918014,0 -0.8877281,0.395926 -0.8877281,0.887725 l 0,4.068755 c 0,0.491802 0.3959267,0.887728 0.8877281,0.887728 l 2.2193204,0 c 0.2850148,1.149326 0.7433376,2.252662 1.3685807,3.291991 l -1.590513,1.590514 c -0.347756,0.347754 -0.347756,0.909858 0,1.257617 l 2.8851164,2.885114 c 0.3477563,0.347756 0.9098588,0.347756 1.2576149,0 l 1.5905129,-1.590512 c 1.0429934,0.629048 2.1434884,1.046425 3.2919914,1.331592 l 0,2.256308 c 0,0.491803 0.395927,0.887729 0.887729,0.887729 l 4.068755,0 c 0.491799,0 0.887725,-0.395926 0.887725,-0.887728 l 0,-2.256309 c 1.150958,-0.283644 2.251019,-0.707061 3.291992,-1.331592 l 1.590514,1.590512 c 0.347757,0.347756 0.909858,0.347756 1.257615,0 l 2.885116,-2.885114 c 0.347756,-0.347759 0.347756,-0.909863 0,-1.257617 l -1.590514,-1.590514 c 0.626016,-1.037448 1.082864,-2.149641 1.368581,-3.29199 l 2.25631,0 c 0.491801,-10e-7 0.887728,-0.395927 0.887728,-0.887729 l 0,-4.068752 c 0,-0.491802 -0.395927,-0.887728 -0.887728,-0.887728 l -2.25631,0 C 27.335183,12.043406 26.868861,10.925878 26.249944,9.8927886 l 1.590514,-1.590514 c 0.347756,-0.3477572 0.347756,-0.9098584 0,-1.2576156 L 24.955342,4.1595435 c -0.347757,-0.3477563 -0.909858,-0.3477563 -1.257615,0 L 22.107213,5.750057 C 21.067796,5.1261727 19.959062,4.6645192 18.815221,4.3814749 l 0,-2.2563083 c 0,-0.491802 -0.395926,-0.8877284 -0.887725,-0.8877284 l -4.068755,0 z m 1.886421,9.2471668 c 1.438355,-0.03818 2.905212,0.448229 4.031766,1.516535 2.253106,2.136612 2.358542,5.699459 0.221932,7.952565 -2.131338,2.247544 -5.69759,2.345408 -7.952565,0.221932 -2.2531052,-2.136612 -2.3585428,-5.699458 -0.221932,-7.952565 1.068307,-1.126552 2.482444,-1.700294 3.920799,-1.738466 z"
     id="rect3381-0"
     inkscape:connector-curvature="0" /></svg>