<svg xmlns="http://www.w3.org/2000/svg" xml:space="preserve" width="32" height="32"><path d="M13.859 1.237a.886.886 0 0 0-.888.888v2.256a11.974 11.974 0 0 0-3.292 1.37L8.089 4.16a.888.888 0 0 0-1.258 0L3.946 7.045a.888.888 0 0 0 0 1.257l1.59 1.59a12.008 12.008 0 0 0-1.331 3.293H1.948a.886.886 0 0 0-.887.888v4.068c0 .492.396.888.887.888h2.22c.285 1.15.743 2.253 1.368 3.292l-1.59 1.59a.888.888 0 0 0 0 1.258l2.885 2.885a.888.888 0 0 0 1.258 0l1.59-1.59c1.043.629 2.144 1.046 3.292 1.331v2.257c0 .491.396.887.888.887h4.068a.886.886 0 0 0 .888-.887v-2.257a11.833 11.833 0 0 0 3.292-1.331l1.59 1.59a.888.888 0 0 0 1.258 0l2.885-2.885a.888.888 0 0 0 0-1.258l-1.59-1.59a12.017 12.017 0 0 0 1.369-3.292h2.256a.886.886 0 0 0 .888-.888v-4.068a.886.886 0 0 0-.888-.888h-2.256a12.121 12.121 0 0 0-1.37-3.292l1.591-1.59a.888.888 0 0 0 0-1.258L24.955 4.16a.888.888 0 0 0-1.257 0l-1.59 1.59a12.007 12.007 0 0 0-3.293-1.369V2.125a.886.886 0 0 0-.888-.888H13.86zm1.886 9.248c1.439-.039 2.905.448 4.032 1.516 2.253 2.137 2.358 5.7.222 7.953-2.131 2.247-5.698 2.345-7.953.222-2.253-2.137-2.358-5.7-.222-7.953a5.568 5.568 0 0 1 3.921-1.738z" style="fill:#666;fill-opacity:1;stroke:none"/></svg>