<?xml version="1.0" encoding="UTF-8" standalone="no"?>
<!--
  - Copyright (c) 2022. Bernard Bou
  -->

<!-- Generator: Adobe Illustrator 16.0.0, SVG Export Plug-In . SVG Version: 6.00 Build 0)  -->

<svg
   xmlns:dc="http://purl.org/dc/elements/1.1/"
   xmlns:cc="http://creativecommons.org/ns#"
   xmlns:rdf="http://www.w3.org/1999/02/22-rdf-syntax-ns#"
   xmlns:svg="http://www.w3.org/2000/svg"
   xmlns="http://www.w3.org/2000/svg"
   xmlns:sodipodi="http://sodipodi.sourceforge.net/DTD/sodipodi-0.dtd"
   xmlns:inkscape="http://www.inkscape.org/namespaces/inkscape"
   version="1.1"
   id="Capa_1"
   x="0px"
   y="0px"
   width="573.263px"
   height="573.263px"
   viewBox="0 0 573.263 573.263"
   style="enable-background:new 0 0 573.263 573.263;"
   xml:space="preserve"
   inkscape:version="0.91 r13725"
   sodipodi:docname="restart.svg"><metadata
     id="metadata43"><rdf:RDF><cc:Work
         rdf:about=""><dc:format>image/svg+xml</dc:format><dc:type
           rdf:resource="http://purl.org/dc/dcmitype/StillImage" /></cc:Work></rdf:RDF></metadata><defs
     id="defs41"><clipPath
       id="clipPath46"><path
         id="path48"
         inkscape:connector-curvature="0"
         d="M 0,32 32,32 32,0 0,0 0,32 z" /></clipPath><clipPath
       id="clipPath980"><path
         id="path982"
         inkscape:connector-curvature="0"
         d="m 5.38916,28.1929 21.80814,0 0,-24.32864 -21.80814,0 0,24.32864 z" /></clipPath></defs><sodipodi:namedview
     pagecolor="#ffffff"
     bordercolor="#666666"
     borderopacity="1"
     objecttolerance="10"
     gridtolerance="10"
     guidetolerance="10"
     inkscape:pageopacity="0"
     inkscape:pageshadow="2"
     inkscape:window-width="1360"
     inkscape:window-height="782"
     id="namedview39"
     showgrid="false"
     inkscape:zoom="0.41167841"
     inkscape:cx="-304.8496"
     inkscape:cy="286.6315"
     inkscape:window-x="908"
     inkscape:window-y="24"
     inkscape:window-maximized="0"
     inkscape:current-layer="Capa_1" /><g
     id="g9" /><g
     id="g11" /><g
     id="g13" /><g
     id="g15" /><g
     id="g17" /><g
     id="g19" /><g
     id="g21" /><g
     id="g23" /><g
     id="g25" /><g
     id="g27" /><g
     id="g29" /><g
     id="g31" /><g
     id="g33" /><g
     id="g35" /><g
     id="g37" /><g
     id="g482"
     transform="matrix(24.061456,0,0,-24.061456,546.36873,273.54531)"
     style="fill:#666666"><path
       style="fill:#666666;fill-opacity:1;fill-rule:nonzero;stroke:none"
       id="path484"
       inkscape:connector-curvature="0"
       d="m 0,0 c -0.104,1.413 -0.473,2.769 -1.095,4.034 -0.647,1.309 -1.54,2.46 -2.655,3.421 -1.111,0.96 -2.384,1.674 -3.775,2.124 -1.332,0.43 -2.758,0.576 -4.137,0.495 -1.424,-0.105 -2.78,-0.475 -4.043,-1.102 -1.096,-0.54 -2.099,-1.305 -2.958,-2.181 l -0.013,0.008 -2.001,1.702 -0.514,-7.033 6.864,1.626 -1.981,1.687 -0.013,0.009 c 0.559,0.529 1.253,1.046 1.947,1.389 0.889,0.44 1.879,0.712 2.866,0.784 1.045,0.056 2.049,-0.054 2.979,-0.352 0.989,-0.319 1.894,-0.83 2.691,-1.517 0.794,-0.686 1.432,-1.507 1.893,-2.441 0.445,-0.9 0.711,-1.865 0.785,-2.871 0.014,-0.199 0.022,-0.393 0.022,-0.586 0,-0.816 -0.126,-1.62 -0.374,-2.386 -0.32,-0.989 -0.829,-1.895 -1.515,-2.691 -0.691,-0.799 -1.51,-1.438 -2.443,-1.897 -0.898,-0.443 -1.869,-0.709 -2.885,-0.784 -0.188,-0.015 -0.381,-0.021 -0.578,-0.022 -0.805,0 -1.609,0.126 -2.381,0.376 -0.989,0.32 -1.895,0.83 -2.693,1.515 -0.796,0.689 -1.431,1.509 -1.893,2.441 l -2.743,-1.381 c 0.645,-1.311 1.539,-2.46 2.652,-3.422 1.117,-0.961 2.387,-1.675 3.777,-2.121 1.072,-0.348 2.193,-0.526 3.329,-0.526 l 0.052,0 c 0.255,0 0.511,0.011 0.765,0.031 1.408,0.103 2.765,0.473 4.031,1.098 1.31,0.649 2.463,1.541 3.423,2.655 0.96,1.113 1.675,2.38 2.121,3.772 0.347,1.08 0.523,2.205 0.523,3.342 C 0.03,-0.536 0.021,-0.269 0,0" /></g></svg>