<svg xmlns="http://www.w3.org/2000/svg" xml:space="preserve" width="573.263" height="573.263" style="enable-background:new 0 0 573.263 573.263"><g style="fill:#666"><path d="M0 0a10.83 10.83 0 0 1-3.75 7.455 10.859 10.859 0 0 1-3.775 2.124c-1.332.43-2.758.576-4.137.495a10.823 10.823 0 0 1-4.043-1.102c-1.096-.54-2.099-1.305-2.958-2.181l-.013.008-2.001 1.702-.514-7.033 6.864 1.626-1.981 1.687-.013.009c.559.529 1.253 1.046 1.947 1.389a7.8 7.8 0 0 0 2.866.784c1.045.056 2.049-.054 2.979-.352a7.745 7.745 0 0 0 2.691-1.517 7.74 7.74 0 0 0 1.893-2.441 7.726 7.726 0 0 0 .807-3.457 7.74 7.74 0 0 0-1.889-5.077A7.726 7.726 0 0 0-7.47-7.778a7.79 7.79 0 0 0-3.463-.806 7.73 7.73 0 0 0-2.381.376A7.806 7.806 0 0 0-17.9-4.252l-2.743-1.381a10.813 10.813 0 0 1 2.652-3.422 10.843 10.843 0 0 1 3.777-2.121 10.77 10.77 0 0 1 3.329-.526h.052c.255 0 .511.011.765.031 1.408.103 2.765.473 4.031 1.098a10.858 10.858 0 0 1 3.423 2.655A10.784 10.784 0 0 1-.493-4.146 10.913 10.913 0 0 1 0 0" style="fill:#666;fill-opacity:1;fill-rule:nonzero;stroke:none" transform="matrix(24.06146 0 0 -24.06146 546.369 273.545)"/></g></svg>