<svg xmlns="http://www.w3.org/2000/svg" xmlns:xlink="http://www.w3.org/1999/xlink" width="128" height="128" version="1.0"><defs><linearGradient id="b"><stop offset="0" style="stop-color:#000094;stop-opacity:1"/><stop offset="1" style="stop-color:#00f;stop-opacity:1"/></linearGradient><linearGradient id="a"><stop offset="0" style="stop-color:#000054;stop-opacity:1"/><stop offset=".946" style="stop-color:#000054;stop-opacity:1"/><stop offset="1" style="stop-color:#0000c5;stop-opacity:0"/></linearGradient><linearGradient xlink:href="#b" id="d" x1="31.5" x2="31.5" y1="63" y2="12" gradientTransform="matrix(.69632 0 0 .73643 28.971 23.907)" gradientUnits="userSpaceOnUse"/><radialGradient xlink:href="#a" id="c" cx="62.984" cy="65.016" r="54.18" fx="62.984" fy="65.016" gradientTransform="matrix(.69632 0 0 .73643 28.333 17.546)" gradientUnits="userSpaceOnUse"/></defs><g style="stroke-width:1.86569"><path d="M109.916 65.426a37.726 39.9 0 0 1-75.452 0 37.726 39.9 0 1 1 75.452 0z" style="fill:url(#c);fill-opacity:1;fill-rule:nonzero;stroke:none;stroke-width:1.86569" transform="matrix(.80106 0 0 .80166 4.225 9.733)"/><path d="M112.347 67.694a37.726 39.9 0 0 1-75.453 0 37.726 39.9 0 1 1 75.453 0z" style="fill:#008;fill-opacity:1;fill-rule:nonzero;stroke:#000023;stroke-width:5.01;stroke-linecap:butt;stroke-linejoin:round;stroke-miterlimit:4;stroke-dasharray:none;stroke-dashoffset:0;stroke-opacity:1" transform="matrix(.80106 0 0 .80166 4.225 9.733)"/><path d="M95.47 51.523a22.282 18.779 0 0 1-44.565 0 22.282 18.779 0 1 1 44.565 0z" style="fill:url(#d);fill-opacity:1;fill-rule:nonzero;stroke:none;stroke-width:1.86569" transform="matrix(.80106 0 0 .80166 4.225 9.733)"/></g><g style="stroke-width:1.72011"><path d="M0 0h256v256H0z" style="fill:none;stroke-width:1.72011" transform="matrix(.14534 0 0 .14534 66.347 63.639)"/><g style="stroke-width:1.41732" transform="matrix(.70556 0 0 .70556 68.017 65.16)"><ellipse cx="8.154" cy="7.959" rx="7.073" ry="7.14" style="fill:#0038d4;fill-opacity:1;fill-rule:evenodd;stroke:none;stroke-width:1.41732" transform="matrix(3.3933 0 0 3.33171 -3.669 -2.306)"/><path d="m6.577 10.144-3.25-2.666-4.04 1.166L.82 4.73-1.54 1.248l4.197.246L5.24-1.824l1.063 4.068 3.953 1.43-3.54 2.268Z" style="fill:#fff;fill-opacity:1;stroke:none;stroke-width:1.41732" transform="matrix(3.32834 -.66176 .66075 3.33345 8.079 13.366)"/></g></g></svg>