<svg xmlns="http://www.w3.org/2000/svg" xmlns:xlink="http://www.w3.org/1999/xlink" width="128" height="128" version="1.0"><defs><linearGradient id="b"><stop offset="0" style="stop-color:#bf8666;stop-opacity:1"/><stop offset="1" style="stop-color:white;stop-opacity:1"/></linearGradient><linearGradient xlink:href="#b" id="d" x1="31.5" x2="31.5" y1="63" y2="12" gradientTransform="matrix(.69632 0 0 .73643 28.971 23.907)" gradientUnits="userSpaceOnUse"/><linearGradient id="a"><stop offset="0" style="stop-color:#545454;stop-opacity:1"/><stop offset=".946" style="stop-color:#545454;stop-opacity:1"/><stop offset="1" style="stop-color:#c5c5c5;stop-opacity:0"/></linearGradient><radialGradient xlink:href="#a" id="c" cx="62.984" cy="65.016" r="54.18" fx="62.984" fy="65.016" gradientTransform="matrix(.69632 0 0 .73643 28.333 17.546)" gradientUnits="userSpaceOnUse"/></defs><path d="M109.916 65.426a37.726 39.9 0 0 1-75.452 0 37.726 39.9 0 1 1 75.452 0z" style="fill:url(#c);fill-opacity:1;fill-rule:nonzero;stroke:none" transform="matrix(1.49508 0 0 1.49508 -46.75 -36.516)"/><path d="M112.347 67.694a37.726 39.9 0 0 1-75.453 0 37.726 39.9 0 1 1 75.453 0z" style="fill:#c47139;fill-opacity:1;fill-rule:nonzero;stroke:#591a1a;stroke-width:2.68534;stroke-linecap:butt;stroke-linejoin:round;stroke-miterlimit:4;stroke-dasharray:none;stroke-dashoffset:0;stroke-opacity:1" transform="matrix(1.49508 0 0 1.49508 -46.75 -36.516)"/><path d="M95.47 51.523a22.282 18.779 0 0 1-44.565 0 22.282 18.779 0 1 1 44.565 0z" style="fill:url(#d);fill-opacity:1;fill-rule:nonzero;stroke:none" transform="matrix(1.49508 0 0 1.49508 -46.75 -36.516)"/></svg>