<svg xmlns="http://www.w3.org/2000/svg" xmlns:xlink="http://www.w3.org/1999/xlink" width="16" height="16"><defs><linearGradient xlink:href="#a" id="d" x1="31.5" x2="31.5" y1="63" y2="12" gradientTransform="matrix(.69632 0 0 .73643 28.971 23.907)" gradientUnits="userSpaceOnUse"/><linearGradient id="b"><stop offset="0" style="stop-color:#545454;stop-opacity:1"/><stop offset=".946" style="stop-color:#545454;stop-opacity:1"/><stop offset="1" style="stop-color:#c5c5c5;stop-opacity:0"/></linearGradient><linearGradient id="a"><stop offset="0" style="stop-color:#f07836;stop-opacity:1"/><stop offset="1" style="stop-color:white;stop-opacity:1"/></linearGradient><radialGradient xlink:href="#b" id="c" cx="62.984" cy="65.016" r="54.18" fx="62.984" fy="65.016" gradientTransform="matrix(.69632 0 0 .73643 28.333 17.546)" gradientUnits="userSpaceOnUse"/></defs><path d="M109.916 65.426a37.726 39.9 0 0 1-75.452 0 37.726 39.9 0 1 1 75.452 0z" style="fill:url(#c);fill-opacity:1;fill-rule:nonzero;stroke:none" transform="translate(-5.92 -4.6)scale(.18761)"/><path d="M112.347 67.694a37.726 39.9 0 0 1-75.453 0 37.726 39.9 0 1 1 75.453 0z" style="fill:#f60;fill-opacity:1;fill-rule:nonzero;stroke:#740000;stroke-width:2.6853416;stroke-linecap:butt;stroke-linejoin:round;stroke-miterlimit:4;stroke-opacity:1;stroke-dasharray:none;stroke-dashoffset:0" transform="translate(-5.92 -4.6)scale(.18761)"/><path d="M95.47 51.523a22.282 18.779 0 0 1-44.565 0 22.282 18.779 0 1 1 44.565 0z" style="fill:url(#d);fill-opacity:1;fill-rule:nonzero;stroke:none" transform="translate(-5.92 -4.6)scale(.18761)"/><g style="stroke-width:8.27431"><path d="M0 0h256v256H0z" style="fill:none;stroke-width:8.27431" transform="matrix(.03021 0 0 .03021 8.78 8.317)"/><g fill="#304156" style="fill:#680000;stroke-width:86.354"><path d="M436.84 286.167c-30.836 0-55.8 24.94-55.8 55.685 0 30.812 24.964 55.754 55.8 55.754 30.722 0 55.685-24.941 55.685-55.754 0-30.745-24.963-55.685-55.685-55.685zM270.017 111.461c30.756 0 55.708-24.94 55.708-55.742C325.725 24.964 300.773 0 270.017 0c-30.784 0-55.696 24.964-55.696 55.719 0 30.802 24.912 55.742 55.696 55.742zM103.24 286.098c-30.778 0-55.713 24.964-55.713 55.754s24.935 55.685 55.713 55.685c30.732 0 55.696-24.895 55.696-55.685 0-30.79-24.964-55.754-55.696-55.754z" style="fill:#680000;stroke-width:508.144" transform="translate(9.522 9.057)scale(.01158)"/><path d="M436.84 47.763c-57.101 0-103.297 46.185-103.297 103.321 0 9.925 1.45 19.482 4.041 28.602l-69.139 39.449-66.52-37.872c2.965-9.638 4.583-19.69 4.583-30.18 0-57.136-46.289-103.321-103.269-103.321C46.243 47.763 0 93.948 0 151.083c0 56.928 46.243 103.159 103.24 103.159 29.5 0 56.099-12.378 74.908-32.229l68.092 38.85v75.6c-45.621 10.731-79.439 51.608-79.439 100.43 0 57.112 46.214 103.24 103.217 103.24 57.044 0 103.194-46.128 103.194-103.24 0-48.96-34.084-89.929-79.773-100.522v-77.073l67.349-38.47c18.804 20.554 45.886 33.416 76.054 33.416 56.951 0 103.159-46.231 103.159-103.159C540 93.948 493.792 47.763 436.84 47.763Zm-333.6 158.982c-30.778 0-55.713-24.94-55.713-55.661 0-30.836 24.935-55.777 55.713-55.777 30.732 0 55.696 24.94 55.696 55.777 0 30.72-24.964 55.661-55.696 55.661zm222.485 230.148c0 30.768-24.952 55.73-55.708 55.73-30.784 0-55.696-24.963-55.696-55.73 0-30.721 24.912-55.685 55.696-55.685 30.756 0 55.708 24.964 55.708 55.685zM436.84 206.745c-30.836 0-55.8-24.94-55.8-55.661 0-30.836 24.964-55.777 55.8-55.777 30.722 0 55.685 24.94 55.685 55.777 0 30.72-24.963 55.661-55.685 55.661z" style="fill:#680000;stroke-width:508.144" transform="translate(9.522 9.057)scale(.01158)"/></g></g></svg>