<svg xmlns="http://www.w3.org/2000/svg" xml:space="preserve" width="128" height="128"><defs><clipPath id="b" clipPathUnits="userSpaceOnUse"><path d="M87.962 52.106a43.981 52.026 0 1 1-87.962 0 43.981 52.026 0 1 1 87.962 0z" style="fill:#a9a9a9;fill-opacity:1;fill-rule:evenodd;stroke:none" transform="matrix(1.39939 0 0 1.19072 3.486 1.058)"/></clipPath><clipPath id="a" clipPathUnits="userSpaceOnUse"><path d="M87.962 52.106a43.981 52.026 0 1 1-87.962 0 43.981 52.026 0 1 1 87.962 0z" style="fill:#a9a9a9;fill-opacity:1;fill-rule:evenodd;stroke:none" transform="matrix(.18154 0 0 .15447 788.014 700.64)"/></clipPath></defs><g clip-path="url(#a)" transform="matrix(7.70834 0 0 7.70834 -6070.79 -5399.71)"><path d="M509.778 597.159c-12.427 0-22.5 10.074-22.5 22.5 0 12.428 10.073 22.5 22.5 22.5s22.5-10.072 22.5-22.5c-.001-12.426-10.073-22.5-22.5-22.5zm-.559 36.414a3.069 3.069 0 0 1-3.054-3.055 3.067 3.067 0 0 1 3.054-3.053 3.066 3.066 0 0 1 3.054 3.053 3.068 3.068 0 0 1-3.054 3.055zm2.904-11.791c-.892 1.305-.594 3.129-3.052 3.129-1.602 0-2.385-1.305-2.385-2.496 0-4.432 6.519-5.436 6.519-9.086 0-2.012-1.34-3.203-3.576-3.203-4.767 0-2.905 4.916-6.518 4.916-1.304 0-2.421-.783-2.421-2.271 0-3.65 4.172-6.891 8.714-6.891 4.769 0 9.46 2.197 9.46 7.449.001 4.842-5.55 6.703-6.741 8.453z" style="fill:#333"/></g><g style="fill:#666"><path d="M0 0a11.153 11.153 0 0 0-4.26-6.11l-1.506 5.048-.791.226-1.754-.006-1.061.626.06 1.242 1.424 2.8-.069.586.072.478.93.37-.059.263-.173.29-.016.205 2.15 1.585v.303l-.765.589-.077.287 1.628 2.209.621.267.34-.022c.406-.364.791-.749 1.139-1.167l-.148-.045.404-.414.07.03A11.072 11.072 0 0 0 .148 5.326l-.021-.082.06-.121C.32 4.447.398 3.747.405 3.03A11.182 11.182 0 0 0 .029.114L-.057.062 0 0zm-10.979 9.04-.255.729.096.691.401.94-.234 1.561-.807.105-.115.209.058.284.296.425.145.079c.19.011.377.031.569.033 1.457.01 2.846-.267 4.124-.765l-.737-1.974-3.141-2.717-.4.4zm-4.145.311-.146-.092-.463.002-.069.072.38.477.102-.025.102-.149.094-.285zm3.761-14.426-1.219-.9-1.371-1.755a11.04 11.04 0 0 0-2.251.969l-.039 1.405-1.31 2.534.021.494.376.901-.009.607-.413.457L-20.6.97l-1.004 1.705-.275.101-.005-.017c-.001.037-.006.072-.006.107a11.088 11.088 0 0 0 2.989 7.662l.343-.191 1.9.391.224.13.051-.103-.135-.254-.025-.111 1.319 1.839.096.036.086.001.077-.032.068-.067-.831-1.547.319-.3.45.308.1 1.388.567.179-.271-.445.842.477.293-.068.03-.14-.537-.096 1.013-.862.393-.674-.51-.56.082-.095-.371-.586-.089.005-.19-.101-.873.549.876.716-.13.289-.835.528-.268-.756-1.81-1.404-.593-.889.503-.573.815-.375.343-.308.712 1.822.275.265 1.221-.589.14.019 1.003-2.424-.301-.113-.373.018-.121.162.168.118.094.124.021.128-.055.137-1.53-.434.602-.445.338-.043-2.327-1.297-1.055-1.534.008-.806-.389.091-.185.529-1.258.234-.504-.28-.425-.576-.083-.312.047-.38.243-.26.674.325.216-.026.822-1.386 2.706-.092 1.153-.438.935-1.225 1.598-.474.557-.413-.711-2.327zm-10.272 6.924-.224.502c-.002.037-.006.074-.006.111l.239-.41-.009-.203zm3.092 9.011.326.227-.059.06c.341.315.701.614 1.08.884l.054-.02.54.105-.016-.603-.623-.671-.799-.368-.543.31.04.076zm2.175.905.416.459.162-.083-.061-.298-.216-.256-.303.045.002.133zm1.192 1.413.048-.071-.135-.164-.245-.105-.226-.014-.044.059c.199.101.397.207.602.295m.477.104.232-.046.805-.457.193-.029-.322-.31-.521.071-.407.323.02.448zm1.218.23.221.291c.369.085.744.152 1.128.2l-1.2-.784-.619-.025.47.318zm6.762-3.88-.316-.246-.493.047-.04.1.015.455.366-.081.382.086.18-.072-.094-.289zm.095-2.72-.028-.35-.506-.117-.214.539-.004 1.052.752-1.124zm-4.118 8.491c-6.825 0-12.36-5.533-12.36-12.359s5.535-12.358 12.36-12.358c6.825 0 12.357 5.532 12.357 12.358 0 6.826-5.532 12.359-12.357 12.359" style="fill:#666;fill-opacity:1;fill-rule:nonzero;stroke:none" transform="matrix(5.05831 0 0 -5.05831 118.304 79.172)"/></g></svg>