<?xml version="1.0" encoding="UTF-8" standalone="no"?>
<!-- Generator: Adobe Illustrator 14.0.0, SVG Export Plug-In . SVG Version: 6.00 Build 43363)  -->

<svg
   xmlns:osb="http://www.openswatchbook.org/uri/2009/osb"
   xmlns:dc="http://purl.org/dc/elements/1.1/"
   xmlns:cc="http://creativecommons.org/ns#"
   xmlns:rdf="http://www.w3.org/1999/02/22-rdf-syntax-ns#"
   xmlns:svg="http://www.w3.org/2000/svg"
   xmlns="http://www.w3.org/2000/svg"
   xmlns:xlink="http://www.w3.org/1999/xlink"
   xmlns:sodipodi="http://sodipodi.sourceforge.net/DTD/sodipodi-0.dtd"
   xmlns:inkscape="http://www.inkscape.org/namespaces/inkscape"
   version="1.1"
   x="0px"
   y="0px"
   width="64"
   height="64"
   viewBox="0 0 64 64"
   enable-background="new 0 0 780 650"
   xml:space="preserve"
   id="svg4433"
   inkscape:version="0.48.5 r10040"
   sodipodi:docname="ic_search_startswith.svg"><metadata
     id="metadata5887"><rdf:RDF><cc:Work
         rdf:about=""><dc:format>image/svg+xml</dc:format><dc:type
           rdf:resource="http://purl.org/dc/dcmitype/StillImage" /></cc:Work></rdf:RDF></metadata><defs
     id="defs5885"><clipPath
       id="clipPath46-9"><path
         d="M 0,32 32,32 32,0 0,0 0,32 z"
         inkscape:connector-curvature="0"
         id="path48-0" /></clipPath><clipPath
       id="clipPath980-5"><path
         d="m 5.38916,28.1929 21.80814,0 0,-24.32864 -21.80814,0 0,24.32864 z"
         inkscape:connector-curvature="0"
         id="path982-0" /></clipPath><clipPath
       id="clipPath46"><path
         d="M 0,32 32,32 32,0 0,0 0,32 z"
         inkscape:connector-curvature="0"
         id="path48" /></clipPath><clipPath
       id="clipPath980"><path
         d="m 5.38916,28.1929 21.80814,0 0,-24.32864 -21.80814,0 0,24.32864 z"
         inkscape:connector-curvature="0"
         id="path982" /></clipPath><inkscape:path-effect
       effect="spiro"
       id="path-effect36695"
       is_visible="true" /><linearGradient
       id="linearGradient19282"
       osb:paint="solid"
       gradientTransform="matrix(0,0,0,0,-1012.8316,-23289.82)"><stop
         style="stop-color:#666666;stop-opacity:1;"
         offset="0"
         id="stop19284" /></linearGradient></defs><sodipodi:namedview
     pagecolor="#ffffff"
     bordercolor="#666666"
     borderopacity="1"
     objecttolerance="10"
     gridtolerance="10"
     guidetolerance="10"
     inkscape:pageopacity="0"
     inkscape:pageshadow="2"
     inkscape:window-width="1871"
     inkscape:window-height="1176"
     id="namedview5883"
     showgrid="false"
     inkscape:zoom="0.68005128"
     inkscape:cx="186.7362"
     inkscape:cy="-76.976521"
     inkscape:window-x="49"
     inkscape:window-y="24"
     inkscape:window-maximized="1"
     inkscape:current-layer="svg4433" /><g
     id="Notification"
     transform="translate(-465.46203,-385.40339)" /><g
     id="Notification-8"
     transform="translate(-99.82654,-905.01458)" /><g
     transform="translate(-296.85273,-140.19688)"
     id="zoom-original"
     inkscape:label="#g6809"><g
       transform="matrix(0.996399,0,0,1,95.08523,-222.9354)"
       id="zoom_1_to_1"><use
         xlink:href="#g5796"
         transform="matrix(1,0,0,0.997925,-0.04089,0.477615)"
         x="0"
         y="0"
         id="use5816"
         width="1250"
         height="1250" /></g></g><g
     transform="matrix(0.99218952,0,0,1,-295.51603,-139.63438)"
     id="zoom-half-size"
     inkscape:label="#g6895"><use
       xlink:href="#g5796"
       height="1250"
       width="1250"
       id="use5818"
       y="0"
       x="0"
       transform="matrix(0.996399,0,0,0.997925,95.044487,-202.45778)" /></g><g
     id="g11074"
     transform="matrix(1,0,0,0.99801946,-272.35273,-620.98285)" /><g
     id="g11109"
     transform="translate(-272.35273,-642.05906)" /><g
     id="g11198"
     transform="translate(-272.35273,-642.05906)" /><g
     id="g11329"
     transform="translate(-252.35273,-642.05906)" /><g
     id="zoom-fit-selection"
     inkscape:label="#zoom_selection"
     transform="translate(-295.35273,-622.55906)"><g
       transform="translate(0,20)"
       id="g11156"
       inkscape:label="#g11150"><g
         transform="translate(0,19.96825)"
         id="g11158"><g
           transform="matrix(1,0,0,0.99801946,0,21.076212)"
           id="g11160" /></g></g></g><g
     id="g11563"
     inkscape:label="#zoom_select"
     transform="translate(-295.35273,-582.55906)"><g
       inkscape:label="#zoom_selection"
       id="g11565"><g
         inkscape:label="#g11150"
         id="g11567"
         transform="translate(0,20)"><g
           id="g11569"
           transform="translate(0,19.96825)"><g
             id="g11571"
             transform="matrix(1,0,0,0.99801946,0,21.076212)" /></g></g></g></g><g
     id="g11647"
     transform="translate(-209.35273,-542.05906)" /><g
     transform="matrix(-1,0,0,1,-170.35273,-542.05906)"
     id="g11659" /><rect
     style="opacity:0.3;fill:url(#linearGradient19282);fill-opacity:1;stroke:none"
     id="rect19405"
     width="0"
     height="1"
     x="-154.35274"
     y="-24.696884"
     ry="0" /><g
     id="g39728"
     transform="translate(-272.35273,-642.05906)" /><g
     transform="translate(-668.00921,-315.04063)"
     id="g39833" /><use
     transform="translate(-39.38063,12.76897)"
     x="0"
     y="0"
     id="use5704"
     width="1250"
     height="1250"
     xlink:href="#rect4442" /><g
     style="fill:none"
     transform="matrix(0.90013776,0,0,0.8929798,-390.39652,-113.6721)"
     id="g14408" /><use
     x="0"
     y="0"
     id="use4586"
     transform="matrix(0.692914,0,0,0.70953374,-356.16682,-287.07308)"
     width="1250"
     height="1250"
     xlink:href="#g5772" /><use
     x="0"
     y="0"
     id="use4586-2"
     transform="matrix(0.695835,0,0,0.741921,-372.17263,-292.48688)"
     width="1250"
     height="1250"
     xlink:href="#g5772" /><use
     transform="matrix(0.695835,0,0,0.741921,-328.17263,-294.98688)"
     x="0"
     y="0"
     id="use4589"
     width="1250"
     height="1250"
     xlink:href="#g5772" /><use
     transform="matrix(0.62897517,0,0,1.1624311,-253.41352,-397.20875)"
     x="0"
     y="0"
     id="use4592"
     width="1250"
     height="1250"
     xlink:href="#g5772" /><use
     transform="translate(499.65707,-268.39522)"
     x="0"
     y="0"
     id="use3738"
     width="1250"
     height="1250"
     xlink:href="#rect10675" /><use
     transform="translate(500.62347,-251.67271)"
     x="0"
     y="0"
     id="use4635"
     width="1250"
     height="1250"
     xlink:href="#use5758" /><use
     transform="translate(496.60857,-327.75038)"
     x="0"
     y="0"
     id="use9872"
     width="1250"
     height="1250"
     xlink:href="#g6043" /><use
     height="1250"
     width="1250"
     id="use10185"
     y="0"
     x="0"
     transform="translate(541.64037,-267.44868)"
     xlink:href="#rect10675" /><use
     transform="translate(529.64037,-255.44868)"
     x="0"
     y="0"
     id="use10187"
     width="1250"
     height="1250"
     xlink:href="#rect10675" /><use
     transform="translate(515.65712,-333.79258)"
     x="0"
     y="0"
     id="use9872-0"
     width="1250"
     height="1250"
     xlink:href="#g6043" /><use
     height="1250"
     width="1250"
     id="use10185-8"
     y="0"
     x="0"
     transform="translate(560.68892,-273.49088)"
     xlink:href="#rect10675" /><use
     transform="translate(548.68892,-261.49088)"
     x="0"
     y="0"
     id="use10187-8"
     width="1250"
     height="1250"
     xlink:href="#rect10675" /><use
     style="stroke:url(#linearGradient19282);stroke-opacity:1"
     height="1250"
     width="1250"
     transform="matrix(1.1377421,0,0,1.1399698,308.32423,-263.84133)"
     id="use5845-6"
     y="0"
     x="0"
     xlink:href="#use5756-0-3" /><use
     style="stroke:url(#linearGradient19282);stroke-opacity:1"
     height="1250"
     width="1250"
     transform="matrix(1.1377421,0,0,1.1399698,303.32454,-256.61286)"
     id="use5845-6-1"
     y="0"
     x="0"
     xlink:href="#use5756-0-3" /><use
     style="stroke:url(#linearGradient19282);stroke-opacity:1"
     height="1250"
     width="1250"
     transform="matrix(1.1377421,0,0,1.1399698,315.91729,-252.9626)"
     id="use5845-6-1-9"
     y="0"
     x="0"
     xlink:href="#use5756-0-3" /><g
     id="g31444"
     inkscape:label="#zoom_selection"
     transform="translate(-145.35273,-248.55906)"><g
       transform="translate(0,20)"
       id="g31446"
       inkscape:label="#g11150"><g
         transform="translate(0,19.96825)"
         id="g31448"><g
           transform="matrix(1,0,0,0.99801946,0,21.076212)"
           id="g31450" /></g></g></g><text
     xml:space="preserve"
     style="font-size:40px;font-style:normal;font-weight:normal;line-height:125%;letter-spacing:0px;word-spacing:0px;fill:#000000;fill-opacity:1;stroke:none;font-family:Sans"
     x="-546.35272"
     y="108.30312"
     id="text19288"
     sodipodi:linespacing="125%"><tspan
       sodipodi:role="line"
       x="-546.35272"
       y="108.30312"
       id="tspan19292" /></text>
<g
     id="g3650"
     transform="translate(-3.6392458,5.7188148)"><path
       id="path27834"
       d="M 35.755271,-2.3295525 27.093385,13.383801 c -0.713204,1.29344 -2.4848,2.581507 -3.935385,2.859537 L 8.1739659,19.121679 c -1.450585,0.27803 -1.8132349,1.390146 -0.8031982,2.468685 L 17.801572,32.726308 c 1.010037,1.078539 1.686973,3.159057 1.502966,4.624419 l -1.893819,15.141177 c -0.181328,1.466705 0.762899,2.151704 2.099319,1.52446 l 13.814161,-6.47929 c 0.668879,-0.314295 1.549975,-0.472784 2.432418,-0.472784 V -2.3295525 z"
       clip-rule="evenodd"
       inkscape:connector-curvature="0"
       style="fill:#000000;fill-rule:evenodd" /><path
       id="path27836"
       d="m 35.755271,-2.3295525 8.661886,15.7133535 c 0.713211,1.29344 2.484807,2.581507 3.935392,2.859537 l 14.984034,2.878341 c 1.450585,0.27803 1.813235,1.390146 0.803191,2.468685 L 53.708977,32.726308 c -1.010037,1.078539 -1.68698,3.159057 -1.502966,4.624419 l 1.893819,15.141177 c 0.184014,1.466705 -0.760213,2.151704 -2.099318,1.52446 L 38.186351,47.537074 C 37.517471,47.222779 36.636367,47.06429 35.753932,47.06429 V -2.3295525 z"
       clip-rule="evenodd"
       inkscape:connector-curvature="0"
       style="opacity:0.5;fill:#808080;fill-rule:evenodd" /></g><g
     id="Star_2_-_filled"
     transform="matrix(1.8254289,0,0,1.8254289,-1109.3888,-502.68791)"><path
       style="fill:#333369;fill-rule:evenodd"
       inkscape:connector-curvature="0"
       clip-rule="evenodd"
       d="m 629.887,357.15 6.451,11.699 c 0.531,0.963 1.85,1.922 2.93,2.129 l 11.156,2.143 c 1.08,0.207 1.348,1.035 0.596,1.838 l -7.766,8.291 c -0.752,0.803 -1.254,2.352 -1.119,3.443 l 1.41,11.273 c 0.137,1.09 -0.566,1.602 -1.563,1.135 l -10.285,-4.824 c -0.994,-0.469 -2.625,-0.469 -3.621,0 l -10.285,4.824 c -0.994,0.467 -1.697,-0.043 -1.563,-1.135 l 1.41,-11.273 c 0.137,-1.092 -0.367,-2.641 -1.119,-3.443 l -7.766,-8.291 c -0.752,-0.803 -0.482,-1.631 0.598,-1.838 l 11.156,-2.143 c 1.08,-0.207 2.398,-1.166 2.93,-2.129 l 6.45,-11.699"
       id="path27839" /></g></svg>