<?xml version="1.0" encoding="UTF-8" standalone="no"?>
<!-- Generator: Adobe Illustrator 14.0.0, SVG Export Plug-In . SVG Version: 6.00 Build 43363)  -->

<svg
   xmlns:osb="http://www.openswatchbook.org/uri/2009/osb"
   xmlns:dc="http://purl.org/dc/elements/1.1/"
   xmlns:cc="http://creativecommons.org/ns#"
   xmlns:rdf="http://www.w3.org/1999/02/22-rdf-syntax-ns#"
   xmlns:svg="http://www.w3.org/2000/svg"
   xmlns="http://www.w3.org/2000/svg"
   xmlns:xlink="http://www.w3.org/1999/xlink"
   xmlns:sodipodi="http://sodipodi.sourceforge.net/DTD/sodipodi-0.dtd"
   xmlns:inkscape="http://www.inkscape.org/namespaces/inkscape"
   version="1.1"
   x="0px"
   y="0px"
   width="64"
   height="64"
   viewBox="0 0 64 64"
   enable-background="new 0 0 780 650"
   xml:space="preserve"
   id="svg4433"
   inkscape:version="0.48.5 r10040"
   sodipodi:docname="ic_search_id.svg"><metadata
     id="metadata5887"><rdf:RDF><cc:Work
         rdf:about=""><dc:format>image/svg+xml</dc:format><dc:type
           rdf:resource="http://purl.org/dc/dcmitype/StillImage" /></cc:Work></rdf:RDF></metadata><defs
     id="defs5885"><clipPath
       id="clipPath46-9"><path
         d="M 0,32 32,32 32,0 0,0 0,32 z"
         inkscape:connector-curvature="0"
         id="path48-0" /></clipPath><clipPath
       id="clipPath980-5"><path
         d="m 5.38916,28.1929 21.80814,0 0,-24.32864 -21.80814,0 0,24.32864 z"
         inkscape:connector-curvature="0"
         id="path982-0" /></clipPath><clipPath
       id="clipPath46"><path
         d="M 0,32 32,32 32,0 0,0 0,32 z"
         inkscape:connector-curvature="0"
         id="path48" /></clipPath><clipPath
       id="clipPath980"><path
         d="m 5.38916,28.1929 21.80814,0 0,-24.32864 -21.80814,0 0,24.32864 z"
         inkscape:connector-curvature="0"
         id="path982" /></clipPath><inkscape:path-effect
       effect="spiro"
       id="path-effect36695"
       is_visible="true" /><linearGradient
       id="linearGradient19282"
       osb:paint="solid"
       gradientTransform="matrix(0,0,0,0,-1749.2192,-36076.646)"><stop
         style="stop-color:#666666;stop-opacity:1;"
         offset="0"
         id="stop19284" /></linearGradient><linearGradient
       inkscape:collect="always"
       xlink:href="#linearGradient19282"
       id="linearGradient29994"
       gradientTransform="translate(0,796.7244)"
       gradientUnits="userSpaceOnUse" /><linearGradient
       inkscape:collect="always"
       xlink:href="#linearGradient19282"
       id="linearGradient29996"
       gradientTransform="translate(0,796.7244)"
       gradientUnits="userSpaceOnUse" /><linearGradient
       inkscape:collect="always"
       xlink:href="#linearGradient19282"
       id="linearGradient29998"
       gradientTransform="translate(0,796.7244)"
       gradientUnits="userSpaceOnUse" /><linearGradient
       inkscape:collect="always"
       xlink:href="#linearGradient19282"
       id="linearGradient5451"
       gradientUnits="userSpaceOnUse"
       gradientTransform="translate(0,796.7244)" /><linearGradient
       inkscape:collect="always"
       xlink:href="#linearGradient19282"
       id="linearGradient5453"
       gradientUnits="userSpaceOnUse"
       gradientTransform="translate(0,796.7244)" /><linearGradient
       inkscape:collect="always"
       xlink:href="#linearGradient19282"
       id="linearGradient5455"
       gradientUnits="userSpaceOnUse"
       gradientTransform="translate(0,796.7244)" /></defs><sodipodi:namedview
     pagecolor="#ffffff"
     bordercolor="#666666"
     borderopacity="1"
     objecttolerance="10"
     gridtolerance="10"
     guidetolerance="10"
     inkscape:pageopacity="0"
     inkscape:pageshadow="2"
     inkscape:window-width="865"
     inkscape:window-height="767"
     id="namedview5883"
     showgrid="false"
     inkscape:zoom="5.4404102"
     inkscape:cx="24.925203"
     inkscape:cy="21.803008"
     inkscape:window-x="491"
     inkscape:window-y="281"
     inkscape:window-maximized="0"
     inkscape:current-layer="svg4433" /><g
     id="Notification"
     transform="translate(-465.46203,-385.40339)" /><g
     id="Notification-0"
     transform="translate(-156.47172,-1888.6162)" /><g
     transform="translate(-353.49791,-1123.7985)"
     id="zoom-original"
     inkscape:label="#g6809"><g
       transform="matrix(0.996399,0,0,1,95.08523,-222.9354)"
       id="zoom_1_to_1"><use
         xlink:href="#g5796"
         transform="matrix(1,0,0,0.997925,-0.04089,0.477615)"
         x="0"
         y="0"
         id="use5816"
         width="1250"
         height="1250" /></g></g><g
     transform="matrix(0.99218952,0,0,1,-352.16121,-1123.236)"
     id="zoom-half-size"
     inkscape:label="#g6895"><use
       xlink:href="#g5796"
       height="1250"
       width="1250"
       id="use5818"
       y="0"
       x="0"
       transform="matrix(0.996399,0,0,0.997925,95.044487,-202.45778)" /></g><g
     id="g11074"
     transform="matrix(1,0,0,0.99801946,-328.99791,-1604.5845)" /><g
     id="g11109"
     transform="translate(-328.99791,-1625.6607)" /><g
     id="g11198"
     transform="translate(-328.99791,-1625.6607)" /><g
     id="g11329"
     transform="translate(-308.99791,-1625.6607)" /><g
     id="zoom-fit-selection"
     inkscape:label="#zoom_selection"
     transform="translate(-351.99791,-1606.1607)"><g
       transform="translate(0,20)"
       id="g11156"
       inkscape:label="#g11150"><g
         transform="translate(0,19.96825)"
         id="g11158"><g
           transform="matrix(1,0,0,0.99801946,0,21.076212)"
           id="g11160" /></g></g></g><g
     id="g11563"
     inkscape:label="#zoom_select"
     transform="translate(-351.99791,-1566.1607)"><g
       inkscape:label="#zoom_selection"
       id="g11565"><g
         inkscape:label="#g11150"
         id="g11567"
         transform="translate(0,20)"><g
           id="g11569"
           transform="translate(0,19.96825)"><g
             id="g11571"
             transform="matrix(1,0,0,0.99801946,0,21.076212)" /></g></g></g></g><g
     id="g11647"
     transform="translate(-265.99791,-1525.6607)" /><g
     transform="matrix(-1,0,0,1,-226.99791,-1525.6607)"
     id="g11659" /><rect
     style="opacity:0.3;fill:url(#linearGradient19282);fill-opacity:1;stroke:none"
     id="rect19405"
     width="0"
     height="1"
     x="-210.99791"
     y="-1008.2985"
     ry="0" /><g
     id="g39728"
     transform="translate(-328.99791,-1625.6607)" /><g
     transform="translate(-724.65439,-1298.6422)"
     id="g39833" /><use
     transform="translate(-96.025811,-970.83266)"
     x="0"
     y="0"
     id="use5704"
     width="1250"
     height="1250"
     xlink:href="#rect4442" /><g
     style="fill:none"
     transform="matrix(0.90013776,0,0,0.8929798,-447.0417,-1097.2737)"
     id="g14408" /><use
     x="0"
     y="0"
     id="use4586"
     transform="matrix(0.692914,0,0,0.70953374,-412.812,-1270.6747)"
     width="1250"
     height="1250"
     xlink:href="#g5772" /><use
     x="0"
     y="0"
     id="use4586-2"
     transform="matrix(0.695835,0,0,0.741921,-428.81781,-1276.0885)"
     width="1250"
     height="1250"
     xlink:href="#g5772" /><use
     transform="matrix(0.695835,0,0,0.741921,-384.81781,-1278.5885)"
     x="0"
     y="0"
     id="use4589"
     width="1250"
     height="1250"
     xlink:href="#g5772" /><use
     transform="matrix(0.62897517,0,0,1.1624311,-310.0587,-1380.8104)"
     x="0"
     y="0"
     id="use4592"
     width="1250"
     height="1250"
     xlink:href="#g5772" /><use
     transform="translate(443.01189,-1251.9968)"
     x="0"
     y="0"
     id="use3738"
     width="1250"
     height="1250"
     xlink:href="#rect10675" /><use
     transform="translate(443.97829,-1235.2743)"
     x="0"
     y="0"
     id="use4635"
     width="1250"
     height="1250"
     xlink:href="#use5758" /><use
     transform="translate(439.96339,-1311.352)"
     x="0"
     y="0"
     id="use9872"
     width="1250"
     height="1250"
     xlink:href="#g6043" /><use
     height="1250"
     width="1250"
     id="use10185"
     y="0"
     x="0"
     transform="translate(484.99519,-1251.0503)"
     xlink:href="#rect10675" /><use
     transform="translate(472.99519,-1239.0503)"
     x="0"
     y="0"
     id="use10187"
     width="1250"
     height="1250"
     xlink:href="#rect10675" /><use
     transform="translate(459.01194,-1317.3942)"
     x="0"
     y="0"
     id="use9872-0"
     width="1250"
     height="1250"
     xlink:href="#g6043" /><use
     height="1250"
     width="1250"
     id="use10185-8"
     y="0"
     x="0"
     transform="translate(504.04374,-1257.0925)"
     xlink:href="#rect10675" /><use
     transform="translate(492.04374,-1245.0925)"
     x="0"
     y="0"
     id="use10187-8"
     width="1250"
     height="1250"
     xlink:href="#rect10675" /><use
     style="stroke:url(#linearGradient19282);stroke-opacity:1"
     height="1250"
     width="1250"
     transform="matrix(1.1377421,0,0,1.1399698,251.67905,-1247.4429)"
     id="use5845-6"
     y="0"
     x="0"
     xlink:href="#use5756-0-3" /><use
     style="stroke:url(#linearGradient19282);stroke-opacity:1"
     height="1250"
     width="1250"
     transform="matrix(1.1377421,0,0,1.1399698,246.67936,-1240.2145)"
     id="use5845-6-1"
     y="0"
     x="0"
     xlink:href="#use5756-0-3" /><use
     style="stroke:url(#linearGradient19282);stroke-opacity:1"
     height="1250"
     width="1250"
     transform="matrix(1.1377421,0,0,1.1399698,259.27211,-1236.5642)"
     id="use5845-6-1-9"
     y="0"
     x="0"
     xlink:href="#use5756-0-3" /><g
     id="g31444"
     inkscape:label="#zoom_selection"
     transform="translate(-201.99791,-1232.1607)"><g
       transform="translate(0,20)"
       id="g31446"
       inkscape:label="#g11150"><g
         transform="translate(0,19.96825)"
         id="g31448"><g
           transform="matrix(1,0,0,0.99801946,0,21.076212)"
           id="g31450" /></g></g></g><text
     xml:space="preserve"
     style="font-size:40px;font-style:normal;font-weight:normal;line-height:125%;letter-spacing:0px;word-spacing:0px;fill:#000000;fill-opacity:1;stroke:none;font-family:Sans"
     x="-602.99792"
     y="-875.29852"
     id="text19288"
     sodipodi:linespacing="125%"><tspan
       sodipodi:role="line"
       x="-602.99792"
       y="-875.29852"
       id="tspan19292" /></text>
<path
     style="fill:#050708;fill-opacity:1;stroke-width:0.2;stroke-linejoin:round"
     inkscape:connector-curvature="0"
     d="m 17.988077,37.488396 c -3.094159,0 -5.605361,-2.5084 -5.605361,-5.605361 0,-3.096962 2.511202,-5.605361 5.605361,-5.605361 3.094159,0 5.60536,2.508399 5.60536,5.605361 0,3.096961 -2.511201,5.605361 -5.60536,5.605361 z M 33.826023,26.277674 C 31.516615,19.750229 25.305876,15.066951 17.988077,15.066951 c -9.2852809,0 -16.8160836,7.528 -16.8160836,16.816084 0,9.288082 7.5308027,16.816082 16.8160836,16.816082 7.317799,0 13.528538,-4.683279 15.837946,-11.210721 l 12.18886,0 0,11.210721 11.210722,0 0,-11.210721 5.60536,0 0,-11.210722 -29.004942,0 z"
     id="path24412" /></svg>