<svg xmlns="http://www.w3.org/2000/svg" xmlns:osb="http://www.openswatchbook.org/uri/2009/osb" xmlns:xlink="http://www.w3.org/1999/xlink" xml:space="preserve" width="64" height="64"><defs><linearGradient osb:paint="solid" id="a" gradientTransform="matrix(0 0 0 0 -5766.093 -16534.877)"><stop offset="0" style="stop-color:#666;stop-opacity:1"/></linearGradient></defs><path d="M1267.69 429.467c-3.598-3.604-9.449-3.604-13.049.002l-3.301 3.299a12.59 12.59 0 0 1 5.896 1.271l.98-.979a4.167 4.167 0 0 1 5.881-.001 4.171 4.171 0 0 1 0 5.887l-4.73 4.729c-1.614 1.621-4.262 1.62-5.883-.001a2.553 2.553 0 0 0-3.584.001 2.546 2.546 0 0 0 0 3.585c3.604 3.604 9.451 3.604 13.055 0l4.729-4.729c3.597-3.611 3.597-9.471.01-13.064z" style="fill:#1d1d1b" transform="matrix(1.61433 .45568 -.43256 1.70063 -1801.59 -1292.526)"/><path d="M1250.553 452.48a4.17 4.17 0 0 1-5.879 0 4.166 4.166 0 0 1 0-5.886l4.729-4.729a4.166 4.166 0 0 1 5.883 0 2.534 2.534 0 1 0 3.584-3.585c-3.6-3.603-9.439-3.602-13.053.001l-4.729 4.729c-3.605 3.603-3.605 9.45 0 13.054 3.6 3.599 9.439 3.599 13.051 0l3.299-3.304c-2.02.062-4.047-.36-5.9-1.271l-.985.991z" style="fill:#1d1d1b" transform="matrix(1.61433 .45568 -.43256 1.70063 -1801.59 -1292.526)"/><use xlink:href="#g5796" width="1250" height="1250" transform="matrix(.9964 0 0 .99792 -567.444 156.957)"/><use xlink:href="#g5796" width="1250" height="1250" transform="matrix(.98862 0 0 .99792 -566.85 177.519)"/><use xlink:href="#rect4442" width="1250" height="1250" transform="translate(-405.016 532.38)"/><use xlink:href="#g5772" width="1250" height="1250" transform="matrix(.69291 0 0 .70953 -721.802 232.538)"/><use xlink:href="#g5772" width="1250" height="1250" transform="matrix(.69583 0 0 .74192 -737.808 227.124)"/><use xlink:href="#g5772" width="1250" height="1250" transform="matrix(.69583 0 0 .74192 -693.808 224.624)"/><use xlink:href="#g5772" width="1250" height="1250" transform="matrix(.62898 0 0 1.16243 -619.049 122.402)"/><use xlink:href="#rect10675" width="1250" height="1250" transform="translate(134.022 251.216)"/><use xlink:href="#use5758" width="1250" height="1250" transform="translate(134.988 267.938)"/><use xlink:href="#g6043" width="1250" height="1250" transform="translate(130.973 191.86)"/><use xlink:href="#rect10675" width="1250" height="1250" transform="translate(176.005 252.163)"/><use xlink:href="#rect10675" width="1250" height="1250" transform="translate(164.005 264.163)"/><use xlink:href="#g6043" width="1250" height="1250" transform="translate(150.022 185.819)"/><use xlink:href="#rect10675" width="1250" height="1250" transform="translate(195.053 246.12)"/><use xlink:href="#rect10675" width="1250" height="1250" transform="translate(183.053 258.12)"/><use xlink:href="#use5756-0-3" width="1250" height="1250" style="stroke:url(#a);stroke-opacity:1" transform="matrix(1.13774 0 0 1.13997 -57.311 255.77)"/><use xlink:href="#use5756-0-3" width="1250" height="1250" style="stroke:url(#a);stroke-opacity:1" transform="matrix(1.13774 0 0 1.13997 -62.31 262.998)"/><use xlink:href="#use5756-0-3" width="1250" height="1250" style="stroke:url(#a);stroke-opacity:1" transform="matrix(1.13774 0 0 1.13997 -49.718 266.649)"/><text xml:space="preserve" x="-911.988" y="627.914" style="font-size:40px;font-style:normal;font-weight:400;line-height:125%;letter-spacing:0;word-spacing:0;fill:#000;fill-opacity:1;stroke:none;font-family:Sans"/></svg>