<svg xmlns="http://www.w3.org/2000/svg" xml:space="preserve" width="256" height="128"><defs><clipPath id="b" clipPathUnits="userSpaceOnUse"><ellipse cx="43.981" cy="52.106" rx="43.981" ry="52.026" style="fill:#a9a9a9;fill-opacity:1;fill-rule:evenodd;stroke:none" transform="matrix(1.39939 0 0 1.19072 3.486 1.058)"/></clipPath><clipPath id="a" clipPathUnits="userSpaceOnUse"><ellipse cx="43.981" cy="52.106" rx="43.981" ry="52.026" style="fill:#a9a9a9;fill-opacity:1;fill-rule:evenodd;stroke:none" transform="matrix(.18154 0 0 .15447 788.014 700.64)"/></clipPath></defs><g clip-path="url(#a)" transform="matrix(7.70834 0 0 7.70834 -6070.79 -5399.71)"><path d="M509.778 597.159c-12.427 0-22.5 10.074-22.5 22.5 0 12.428 10.073 22.5 22.5 22.5s22.5-10.072 22.5-22.5c-.001-12.426-10.073-22.5-22.5-22.5zm-.559 36.414a3.069 3.069 0 0 1-3.054-3.055 3.067 3.067 0 0 1 3.054-3.053 3.066 3.066 0 0 1 3.054 3.053 3.068 3.068 0 0 1-3.054 3.055zm2.904-11.791c-.892 1.305-.594 3.129-3.052 3.129-1.602 0-2.385-1.305-2.385-2.496 0-4.432 6.519-5.436 6.519-9.086 0-2.012-1.34-3.203-3.576-3.203-4.767 0-2.905 4.916-6.518 4.916-1.304 0-2.421-.783-2.421-2.271 0-3.65 4.172-6.891 8.714-6.891 4.769 0 9.46 2.197 9.46 7.449.001 4.842-5.55 6.703-6.741 8.453z" style="fill:#333"/></g><path d="m711.824 370.929-14.471-14.47a2.565 2.565 0 0 0-3.617 0l-20.199 20.198c-.332.332-.678.98-.77 1.439l-4.377 21.957c-.092.459.205.746.662.635l21.141-5.137c.457-.111 1.102-.475 1.432-.805l20.199-20.199a2.564 2.564 0 0 0 0-3.618zm-23.615 22.974-10.988 2.633c-.455.109-1.1-.072-1.432-.404l-3.186-3.186c-.332-.332-.529-.98-.439-1.441l2.24-11.434c.09-.461.436-.566.766-.234l13.266 13.266c.332.33.23.691-.227.8z" style="fill:#666" transform="matrix(2.67404 0 0 2.629 -1653.494 -930.032)"/><path d="M677.202 160.732c-2.861 1.788-5.201.316-5.201-3.27v-36.939c0-3.585 2.34-5.057 5.201-3.27l29.598 18.49c2.859 1.787 2.859 4.711 0 6.5l-29.598 18.489z" style="fill:#666" transform="rotate(179.885 913.796 209.223)scale(2.56128)"/></svg>