<?xml version="1.0" encoding="UTF-8" standalone="no"?>
<!-- Generator: Adobe Illustrator 14.0.0, SVG Export Plug-In . SVG Version: 6.00 Build 43363)  -->

<svg
   xmlns:osb="http://www.openswatchbook.org/uri/2009/osb"
   xmlns:dc="http://purl.org/dc/elements/1.1/"
   xmlns:cc="http://creativecommons.org/ns#"
   xmlns:rdf="http://www.w3.org/1999/02/22-rdf-syntax-ns#"
   xmlns:svg="http://www.w3.org/2000/svg"
   xmlns="http://www.w3.org/2000/svg"
   xmlns:xlink="http://www.w3.org/1999/xlink"
   xmlns:sodipodi="http://sodipodi.sourceforge.net/DTD/sodipodi-0.dtd"
   xmlns:inkscape="http://www.inkscape.org/namespaces/inkscape"
   version="1.1"
   x="0px"
   y="0px"
   width="64"
   height="64"
   viewBox="0 0 64 64"
   enable-background="new 0 0 780 650"
   xml:space="preserve"
   id="svg4433"
   inkscape:version="0.48.5 r10040"
   sodipodi:docname="ic_search_includes.svg"><metadata
     id="metadata5887"><rdf:RDF><cc:Work
         rdf:about=""><dc:format>image/svg+xml</dc:format><dc:type
           rdf:resource="http://purl.org/dc/dcmitype/StillImage" /></cc:Work></rdf:RDF></metadata><defs
     id="defs5885"><clipPath
       id="clipPath46-9"><path
         d="M 0,32 32,32 32,0 0,0 0,32 z"
         inkscape:connector-curvature="0"
         id="path48-0" /></clipPath><clipPath
       id="clipPath980-5"><path
         d="m 5.38916,28.1929 21.80814,0 0,-24.32864 -21.80814,0 0,24.32864 z"
         inkscape:connector-curvature="0"
         id="path982-0" /></clipPath><clipPath
       id="clipPath46"><path
         d="M 0,32 32,32 32,0 0,0 0,32 z"
         inkscape:connector-curvature="0"
         id="path48" /></clipPath><clipPath
       id="clipPath980"><path
         d="m 5.38916,28.1929 21.80814,0 0,-24.32864 -21.80814,0 0,24.32864 z"
         inkscape:connector-curvature="0"
         id="path982" /></clipPath><inkscape:path-effect
       effect="spiro"
       id="path-effect36695"
       is_visible="true" /><linearGradient
       id="linearGradient19282"
       osb:paint="solid"
       gradientTransform="matrix(0,0,0,0,-1770.2584,-33136.917)"><stop
         style="stop-color:#666666;stop-opacity:1;"
         offset="0"
         id="stop19284" /></linearGradient><linearGradient
       inkscape:collect="always"
       xlink:href="#linearGradient19282"
       id="linearGradient29994"
       gradientTransform="translate(0,796.7244)"
       gradientUnits="userSpaceOnUse" /><linearGradient
       inkscape:collect="always"
       xlink:href="#linearGradient19282"
       id="linearGradient29996"
       gradientTransform="translate(0,796.7244)"
       gradientUnits="userSpaceOnUse" /><linearGradient
       inkscape:collect="always"
       xlink:href="#linearGradient19282"
       id="linearGradient29998"
       gradientTransform="translate(0,796.7244)"
       gradientUnits="userSpaceOnUse" /><clipPath
       clipPathUnits="userSpaceOnUse"
       id="clipPath3059"><g
         style="fill:#a9a9a9"
         transform="matrix(1.3934632,0,0,1.3934632,-846.64808,-418.50769)"
         id="g3061"><path
           id="path3063"
           d="m 629.887,357.15 6.451,11.699 c 0.531,0.963 1.85,1.922 2.93,2.129 l 11.156,2.143 c 1.08,0.207 1.348,1.035 0.596,1.838 l -7.766,8.291 c -0.752,0.803 -1.254,2.352 -1.119,3.443 l 1.41,11.273 c 0.137,1.09 -0.566,1.602 -1.563,1.135 l -10.285,-4.824 c -0.994,-0.469 -2.625,-0.469 -3.621,0 l -10.285,4.824 c -0.994,0.467 -1.697,-0.043 -1.563,-1.135 l 1.41,-11.273 c 0.137,-1.092 -0.367,-2.641 -1.119,-3.443 l -7.766,-8.291 c -0.752,-0.803 -0.482,-1.631 0.598,-1.838 l 11.156,-2.143 c 1.08,-0.207 2.398,-1.166 2.93,-2.129 l 6.45,-11.699"
           clip-rule="evenodd"
           inkscape:connector-curvature="0"
           style="fill:#a9a9a9;fill-rule:evenodd" /></g></clipPath></defs><sodipodi:namedview
     pagecolor="#ffffff"
     bordercolor="#666666"
     borderopacity="1"
     objecttolerance="10"
     gridtolerance="10"
     guidetolerance="10"
     inkscape:pageopacity="0"
     inkscape:pageshadow="2"
     inkscape:window-width="865"
     inkscape:window-height="767"
     id="namedview5883"
     showgrid="false"
     inkscape:zoom="1.9234755"
     inkscape:cx="24.925203"
     inkscape:cy="37.399775"
     inkscape:window-x="723"
     inkscape:window-y="109"
     inkscape:window-maximized="0"
     inkscape:current-layer="svg4433" /><g
     id="Notification"
     transform="translate(-465.46203,-385.40339)" /><g
     id="Notification-9"
     transform="translate(-158.09011,-1662.4837)" /><g
     transform="translate(-355.1163,-897.66599)"
     id="zoom-original"
     inkscape:label="#g6809"><g
       transform="matrix(0.996399,0,0,1,95.08523,-222.9354)"
       id="zoom_1_to_1"><use
         xlink:href="#g5796"
         transform="matrix(1,0,0,0.997925,-0.04089,0.477615)"
         x="0"
         y="0"
         id="use5816"
         width="1250"
         height="1250" /></g></g><g
     transform="matrix(0.99218952,0,0,1,-353.7796,-897.10349)"
     id="zoom-half-size"
     inkscape:label="#g6895"><use
       xlink:href="#g5796"
       height="1250"
       width="1250"
       id="use5818"
       y="0"
       x="0"
       transform="matrix(0.996399,0,0,0.997925,95.044487,-202.45778)" /></g><g
     id="g11074"
     transform="matrix(1,0,0,0.99801946,-330.6163,-1378.452)" /><g
     id="g11109"
     transform="translate(-330.6163,-1399.5282)" /><g
     id="g11198"
     transform="translate(-330.6163,-1399.5282)" /><g
     id="g11329"
     transform="translate(-310.6163,-1399.5282)" /><g
     id="zoom-fit-selection"
     inkscape:label="#zoom_selection"
     transform="translate(-353.6163,-1380.0282)"><g
       transform="translate(0,20)"
       id="g11156"
       inkscape:label="#g11150"><g
         transform="translate(0,19.96825)"
         id="g11158"><g
           transform="matrix(1,0,0,0.99801946,0,21.076212)"
           id="g11160" /></g></g></g><g
     id="g11563"
     inkscape:label="#zoom_select"
     transform="translate(-353.6163,-1340.0282)"><g
       inkscape:label="#zoom_selection"
       id="g11565"><g
         inkscape:label="#g11150"
         id="g11567"
         transform="translate(0,20)"><g
           id="g11569"
           transform="translate(0,19.96825)"><g
             id="g11571"
             transform="matrix(1,0,0,0.99801946,0,21.076212)" /></g></g></g></g><g
     id="g11647"
     transform="translate(-267.6163,-1299.5282)" /><g
     transform="matrix(-1,0,0,1,-228.6163,-1299.5282)"
     id="g11659" /><rect
     style="opacity:0.3;fill:url(#linearGradient19282);fill-opacity:1;stroke:none"
     id="rect19405"
     width="0"
     height="1"
     x="-212.6163"
     y="-782.16602"
     ry="0" /><g
     id="g39728"
     transform="translate(-330.6163,-1399.5282)" /><g
     transform="translate(-726.27278,-1072.5097)"
     id="g39833" /><use
     transform="translate(-97.6442,-744.70014)"
     x="0"
     y="0"
     id="use5704"
     width="1250"
     height="1250"
     xlink:href="#rect4442" /><g
     style="fill:none"
     transform="matrix(0.90013776,0,0,0.8929798,-448.66009,-871.14121)"
     id="g14408" /><use
     x="0"
     y="0"
     id="use4586"
     transform="matrix(0.692914,0,0,0.70953374,-414.43039,-1044.5422)"
     width="1250"
     height="1250"
     xlink:href="#g5772" /><use
     x="0"
     y="0"
     id="use4586-2"
     transform="matrix(0.695835,0,0,0.741921,-430.4362,-1049.956)"
     width="1250"
     height="1250"
     xlink:href="#g5772" /><use
     transform="matrix(0.695835,0,0,0.741921,-386.4362,-1052.456)"
     x="0"
     y="0"
     id="use4589"
     width="1250"
     height="1250"
     xlink:href="#g5772" /><use
     transform="matrix(0.62897517,0,0,1.1624311,-311.67709,-1154.6779)"
     x="0"
     y="0"
     id="use4592"
     width="1250"
     height="1250"
     xlink:href="#g5772" /><use
     transform="translate(441.3935,-1025.8643)"
     x="0"
     y="0"
     id="use3738"
     width="1250"
     height="1250"
     xlink:href="#rect10675" /><use
     transform="translate(442.3599,-1009.1418)"
     x="0"
     y="0"
     id="use4635"
     width="1250"
     height="1250"
     xlink:href="#use5758" /><use
     transform="translate(438.345,-1085.2195)"
     x="0"
     y="0"
     id="use9872"
     width="1250"
     height="1250"
     xlink:href="#g6043" /><use
     height="1250"
     width="1250"
     id="use10185"
     y="0"
     x="0"
     transform="translate(483.3768,-1024.9178)"
     xlink:href="#rect10675" /><use
     transform="translate(471.3768,-1012.9178)"
     x="0"
     y="0"
     id="use10187"
     width="1250"
     height="1250"
     xlink:href="#rect10675" /><use
     transform="translate(457.39355,-1091.2617)"
     x="0"
     y="0"
     id="use9872-0"
     width="1250"
     height="1250"
     xlink:href="#g6043" /><use
     height="1250"
     width="1250"
     id="use10185-8"
     y="0"
     x="0"
     transform="translate(502.42535,-1030.96)"
     xlink:href="#rect10675" /><use
     transform="translate(490.42535,-1018.96)"
     x="0"
     y="0"
     id="use10187-8"
     width="1250"
     height="1250"
     xlink:href="#rect10675" /><use
     style="stroke:url(#linearGradient19282);stroke-opacity:1"
     height="1250"
     width="1250"
     transform="matrix(1.1377421,0,0,1.1399698,250.06066,-1021.3104)"
     id="use5845-6"
     y="0"
     x="0"
     xlink:href="#use5756-0-3" /><use
     style="stroke:url(#linearGradient19282);stroke-opacity:1"
     height="1250"
     width="1250"
     transform="matrix(1.1377421,0,0,1.1399698,245.06097,-1014.082)"
     id="use5845-6-1"
     y="0"
     x="0"
     xlink:href="#use5756-0-3" /><use
     style="stroke:url(#linearGradient19282);stroke-opacity:1"
     height="1250"
     width="1250"
     transform="matrix(1.1377421,0,0,1.1399698,257.65372,-1010.4317)"
     id="use5845-6-1-9"
     y="0"
     x="0"
     xlink:href="#use5756-0-3" /><g
     id="g31444"
     inkscape:label="#zoom_selection"
     transform="translate(-203.6163,-1006.0282)"><g
       transform="translate(0,20)"
       id="g31446"
       inkscape:label="#g11150"><g
         transform="translate(0,19.96825)"
         id="g31448"><g
           transform="matrix(1,0,0,0.99801946,0,21.076212)"
           id="g31450" /></g></g></g><text
     xml:space="preserve"
     style="font-size:40px;font-style:normal;font-weight:normal;line-height:125%;letter-spacing:0px;word-spacing:0px;fill:#000000;fill-opacity:1;stroke:none;font-family:Sans"
     x="-604.61627"
     y="-649.16602"
     id="text19288"
     sodipodi:linespacing="125%"><tspan
       sodipodi:role="line"
       x="-604.61627"
       y="-649.16602"
       id="tspan19292" /></text>
<g
     id="Star_2_-_filled"
     transform="matrix(1.3934632,0,0,1.3934632,-845.6083,-494.93185)"
     style="fill:#a9a9a9"><path
       style="fill:#a9a9a9;fill-rule:evenodd"
       inkscape:connector-curvature="0"
       clip-rule="evenodd"
       d="m 629.887,357.15 6.451,11.699 c 0.531,0.963 1.85,1.922 2.93,2.129 l 11.156,2.143 c 1.08,0.207 1.348,1.035 0.596,1.838 l -7.766,8.291 c -0.752,0.803 -1.254,2.352 -1.119,3.443 l 1.41,11.273 c 0.137,1.09 -0.566,1.602 -1.563,1.135 l -10.285,-4.824 c -0.994,-0.469 -2.625,-0.469 -3.621,0 l -10.285,4.824 c -0.994,0.467 -1.697,-0.043 -1.563,-1.135 l 1.41,-11.273 c 0.137,-1.092 -0.367,-2.641 -1.119,-3.443 l -7.766,-8.291 c -0.752,-0.803 -0.482,-1.631 0.598,-1.838 l 11.156,-2.143 c 1.08,-0.207 2.398,-1.166 2.93,-2.129 l 6.45,-11.699"
       id="path27839" /></g><rect
     style="fill:#000000;fill-opacity:1;fill-rule:evenodd;stroke:none"
     id="rect3053"
     width="24.954828"
     height="84.742439"
     x="18.196228"
     y="76.514511"
     clip-path="url(#clipPath3059)"
     transform="translate(0.51989225,-76.42416)" /></svg>