<?xml version="1.0" encoding="UTF-8" standalone="no"?>
<!-- Generator: Adobe Illustrator 14.0.0, SVG Export Plug-In . SVG Version: 6.00 Build 43363)  -->

<svg
   xmlns:osb="http://www.openswatchbook.org/uri/2009/osb"
   xmlns:dc="http://purl.org/dc/elements/1.1/"
   xmlns:cc="http://creativecommons.org/ns#"
   xmlns:rdf="http://www.w3.org/1999/02/22-rdf-syntax-ns#"
   xmlns:svg="http://www.w3.org/2000/svg"
   xmlns="http://www.w3.org/2000/svg"
   xmlns:xlink="http://www.w3.org/1999/xlink"
   xmlns:sodipodi="http://sodipodi.sourceforge.net/DTD/sodipodi-0.dtd"
   xmlns:inkscape="http://www.inkscape.org/namespaces/inkscape"
   version="1.1"
   x="0px"
   y="0px"
   width="64"
   height="64"
   viewBox="0 0 64 64"
   enable-background="new 0 0 780 650"
   xml:space="preserve"
   id="svg4433"
   inkscape:version="0.91 r13725"
   sodipodi:docname="search_settings.svg"><metadata
     id="metadata5887"><rdf:RDF><cc:Work
         rdf:about=""><dc:format>image/svg+xml</dc:format><dc:type
           rdf:resource="http://purl.org/dc/dcmitype/StillImage" /></cc:Work></rdf:RDF></metadata><defs
     id="defs5885"><linearGradient
       id="linearGradient19282"
       osb:paint="solid"
       gradientTransform="matrix(0,0,0,0,-671.66809,-436543.27)"><stop
         style="stop-color:#666666;stop-opacity:1;"
         offset="0"
         id="stop19284" /></linearGradient></defs><sodipodi:namedview
     pagecolor="#ffffff"
     bordercolor="#666666"
     borderopacity="1"
     objecttolerance="10"
     gridtolerance="10"
     guidetolerance="10"
     inkscape:pageopacity="0"
     inkscape:pageshadow="2"
     inkscape:window-width="1871"
     inkscape:window-height="1176"
     id="namedview5883"
     showgrid="false"
     inkscape:zoom="3.846951"
     inkscape:cx="83.076503"
     inkscape:cy="6.20624"
     inkscape:window-x="49"
     inkscape:window-y="24"
     inkscape:window-maximized="1"
     inkscape:current-layer="svg4433" /><g
     id="Notification"
     transform="translate(-465.46203,-385.40339)" /><g
     id="Notification-5"
     transform="translate(-12.09472,-977.40958)" /><g
     transform="translate(-209.12091,-212.59188)"
     id="zoom-original"
     inkscape:label="#g6809"><g
       transform="matrix(0.996399,0,0,1,95.08523,-222.9354)"
       id="zoom_1_to_1"><use
         xlink:href="#g5796"
         transform="matrix(1,0,0,0.997925,-0.04089,0.477615)"
         x="0"
         y="0"
         id="use5816"
         width="1250"
         height="1250" /></g></g><g
     transform="matrix(0.99218952,0,0,1,-207.78421,-212.02938)"
     id="zoom-half-size"
     inkscape:label="#g6895"><use
       xlink:href="#g5796"
       height="1250"
       width="1250"
       id="use5818"
       y="0"
       x="0"
       transform="matrix(0.996399,0,0,0.997925,95.044487,-202.45778)" /></g><g
     id="g11074"
     transform="matrix(1,0,0,0.99801946,-184.62091,-693.37785)" /><g
     id="g11109"
     transform="translate(-184.62091,-714.45406)" /><g
     id="g11198"
     transform="translate(-184.62091,-714.45406)" /><g
     id="g11329"
     transform="translate(-164.62091,-714.45406)" /><g
     id="zoom-fit-selection"
     inkscape:label="#zoom_selection"
     transform="translate(-207.62091,-694.95406)"><g
       transform="translate(0,20)"
       id="g11156"
       inkscape:label="#g11150"><g
         transform="translate(0,19.96825)"
         id="g11158"><g
           transform="matrix(1,0,0,0.99801946,0,21.076212)"
           id="g11160" /></g></g></g><g
     id="g11563"
     inkscape:label="#zoom_select"
     transform="translate(-207.62091,-654.95406)"><g
       inkscape:label="#zoom_selection"
       id="g11565"><g
         inkscape:label="#g11150"
         id="g11567"
         transform="translate(0,20)"><g
           id="g11569"
           transform="translate(0,19.96825)"><g
             id="g11571"
             transform="matrix(1,0,0,0.99801946,0,21.076212)" /></g></g></g></g><g
     id="g11647"
     transform="translate(-121.62091,-614.45406)" /><g
     transform="matrix(-1,0,0,1,-82.62091,-614.45406)"
     id="g11659" /><rect
     style="opacity:0.3;fill:url(#linearGradient19282);fill-opacity:1;stroke:none"
     id="rect19405"
     width="0"
     height="1"
     x="-66.620911"
     y="-97.091881"
     ry="0" /><g
     id="g39728"
     transform="translate(-184.62091,-714.45406)" /><g
     transform="translate(-580.27739,-387.43563)"
     id="g39833" /><path
     style="color:#000000;font-style:normal;font-variant:normal;font-weight:normal;font-stretch:normal;font-size:medium;line-height:normal;font-family:Sans;-inkscape-font-specification:Sans;text-indent:0;text-align:start;text-decoration:none;text-decoration-line:none;letter-spacing:normal;word-spacing:normal;text-transform:none;direction:ltr;block-progression:tb;writing-mode:lr-tb;text-anchor:start;display:inline;overflow:visible;visibility:visible;fill:#666666;fill-opacity:1;fill-rule:nonzero;stroke:none;stroke-width:3;marker:none;enable-background:accumulate"
     d="m 2.4006143,14.403697 c -0.478438,1.446987 -0.909425,3.045279 -0.912396,4.566286 -0.01255,7.279871 5.906655,12.051566 13.2141427,10.705799 1.526782,-0.281188 3.017034,-0.907793 4.382593,-1.632939 0.09666,-0.05189 4.726002,3.606064 5.969671,4.595869 0.171558,0.136828 0.812013,0.647694 0.812013,0.647694 1.409243,1.127219 11.523711,9.218182 11.488646,9.329444 -0.442661,1.461338 -0.761382,3.022306 -0.728493,4.547581 0.157331,7.300417 6.127253,12.013321 13.379298,10.506122 1.51515,-0.314662 3.019587,-1.056922 4.363471,-1.813618 l -7.289202,-5.648439 c -1.500337,-1.175548 -1.33765,-3.429359 0.100424,-5.213979 l 2.637975,-3.189931 c 1.46092,-1.76667 3.469486,-2.500226 4.972501,-1.327858 l 7.390672,5.729406 c 0.442703,-1.461339 0.761382,-3.022348 0.728494,-4.547623 C 62.753092,34.357136 56.700697,29.743944 49.448819,31.250934 47.93367,31.565596 46.492542,32.027547 45.1487,32.784243 L 42.712661,30.841162 29.720414,20.478102 27.284376,18.535021 c 0.478437,-1.446945 0.643007,-2.926904 0.646061,-4.447869 C 27.94299,6.807281 22.106172,1.9358735 14.798559,3.281808 13.271777,3.5629956 11.781525,4.1895166 10.416008,4.9147881 l 7.225558,5.9290409 c 1.476612,1.204253 1.157556,3.285418 -0.303364,5.052087 l -2.637975,3.189973 c -1.483516,1.748342 -3.697449,2.368461 -5.1754828,1.165882 L 2.4006553,14.403697 Z"
     id="path3908-6"
     inkscape:connector-curvature="0" /><rect
     style="fill:none;stroke:none"
     id="rect2999-6"
     width="66.949417"
     height="66.949432"
     x="6.1236548"
     y="5.1377769" /><use
     transform="translate(48.35119,-59.62603)"
     x="0"
     y="0"
     id="use5704"
     width="1250"
     height="1250"
     xlink:href="#rect4442" /><g
     style="fill:none"
     transform="matrix(0.90013776,0,0,0.8929798,-302.6647,-186.0671)"
     id="g14408" /><use
     x="0"
     y="0"
     id="use4586"
     transform="matrix(0.692914,0,0,0.70953374,-268.435,-359.46808)"
     width="1250"
     height="1250"
     xlink:href="#g5772" /><use
     x="0"
     y="0"
     id="use4586-2"
     transform="matrix(0.695835,0,0,0.741921,-284.44081,-364.88188)"
     width="1250"
     height="1250"
     xlink:href="#g5772" /><use
     transform="matrix(0.695835,0,0,0.741921,-240.44081,-367.38188)"
     x="0"
     y="0"
     id="use4589"
     width="1250"
     height="1250"
     xlink:href="#g5772" /><use
     transform="matrix(0.62897517,0,0,1.1624311,-165.6817,-469.60375)"
     x="0"
     y="0"
     id="use4592"
     width="1250"
     height="1250"
     xlink:href="#g5772" /><use
     transform="translate(587.38889,-340.79022)"
     x="0"
     y="0"
     id="use3738"
     width="1250"
     height="1250"
     xlink:href="#rect10675" /><use
     transform="translate(588.35529,-324.06771)"
     x="0"
     y="0"
     id="use4635"
     width="1250"
     height="1250"
     xlink:href="#use5758" /><use
     transform="translate(584.34039,-400.14538)"
     x="0"
     y="0"
     id="use9872"
     width="1250"
     height="1250"
     xlink:href="#g6043" /><use
     height="1250"
     width="1250"
     id="use10185"
     y="0"
     x="0"
     transform="translate(629.37219,-339.84368)"
     xlink:href="#rect10675" /><use
     transform="translate(617.37219,-327.84368)"
     x="0"
     y="0"
     id="use10187"
     width="1250"
     height="1250"
     xlink:href="#rect10675" /><use
     transform="translate(603.38894,-406.18758)"
     x="0"
     y="0"
     id="use9872-0"
     width="1250"
     height="1250"
     xlink:href="#g6043" /><use
     height="1250"
     width="1250"
     id="use10185-8"
     y="0"
     x="0"
     transform="translate(648.42074,-345.88588)"
     xlink:href="#rect10675" /><use
     transform="translate(636.42074,-333.88588)"
     x="0"
     y="0"
     id="use10187-8"
     width="1250"
     height="1250"
     xlink:href="#rect10675" /><use
     style="stroke:url(#linearGradient19282);stroke-opacity:1"
     height="1250"
     width="1250"
     transform="matrix(1.1377421,0,0,1.1399698,396.05605,-336.23633)"
     id="use5845-6"
     y="0"
     x="0"
     xlink:href="#use5756-0-3" /><use
     style="stroke:url(#linearGradient19282);stroke-opacity:1"
     height="1250"
     width="1250"
     transform="matrix(1.1377421,0,0,1.1399698,391.05636,-329.00786)"
     id="use5845-6-1"
     y="0"
     x="0"
     xlink:href="#use5756-0-3" /><use
     style="stroke:url(#linearGradient19282);stroke-opacity:1"
     height="1250"
     width="1250"
     transform="matrix(1.1377421,0,0,1.1399698,403.64911,-325.3576)"
     id="use5845-6-1-9"
     y="0"
     x="0"
     xlink:href="#use5756-0-3" /><g
     id="g31444"
     inkscape:label="#zoom_selection"
     transform="translate(-57.62091,-320.95406)"><g
       transform="translate(0,20)"
       id="g31446"
       inkscape:label="#g11150"><g
         transform="translate(0,19.96825)"
         id="g31448"><g
           transform="matrix(1,0,0,0.99801946,0,21.076212)"
           id="g31450" /></g></g></g><g
     id="g31456"
     transform="matrix(1.5578184,0,0,1.5408078,-110.50785,-775.7373)"
     style="fill:#666666;fill-opacity:1"><g
       id="g31458"
       style="fill:#666666;fill-opacity:1" /><g
       id="g31462"
       style="fill:#666666;fill-opacity:1"><path
         sodipodi:nodetypes="sssccccccsssssss"
         inkscape:connector-curvature="0"
         id="path31464"
         transform="matrix(0.99981264,0,0,1.0108506,-149.58222,73.479428)"
         d="m 231.5,450 c -3.04236,0 -5.5,2.48919 -5.5,5.53125 0,3.04204 2.45764,5.46875 5.5,5.46875 1.08216,0 2.08617,-0.30479 2.9375,-0.84375 l 2.77023,2.58664 c 0.38046,0.37956 0.96888,0.35397 1.34375,-0.0313 l 0.1875,-0.1875 c 0.37487,-0.38522 0.38046,-0.99545 0,-1.375 l -2.70773,-2.52414 c 0.61646,-0.8895 1,-1.92958 1,-3.09375 0,-3.042 -2.48889,-5.5312 -5.53125,-5.5312 z m 0.0313,2.0625 c 1.9417,0 3.5,1.55589 3.5,3.46875 0,1.91286 -1.5583,3.46875 -3.5,3.46875 -1.9417,0 -3.53125,-1.55589 -3.53125,-3.46875 0,-1.91286 1.58955,-3.46875 3.53125,-3.46875 z"
         style="fill:#666666;fill-opacity:1;stroke:none" /></g></g><text
     xml:space="preserve"
     style="font-size:40px;font-style:normal;font-weight:normal;line-height:125%;letter-spacing:0px;word-spacing:0px;fill:#000000;fill-opacity:1;stroke:none;font-family:Sans"
     x="-458.62091"
     y="35.908115"
     id="text19288"
     sodipodi:linespacing="125%"><tspan
       sodipodi:role="line"
       x="-458.62091"
       y="35.908115"
       id="tspan19292" /></text>
<g
     id="g216"
     transform="matrix(1.25,0,0,-1.25,-914.10839,449.85151)"><path
       style="fill:#333333;fill-opacity:1;fill-rule:nonzero;stroke:none"
       id="path218"
       inkscape:connector-curvature="0"
       d="m 0,0 c 0,4.837 3.934,8.771 8.77,8.771 l 0,-8.561 5.98,-6.607 C 13.182,-7.866 11.083,-8.773 8.77,-8.773 3.934,-8.773 0,-4.836 0,0 m 8.77,10 c -5.517,0 -10,-4.486 -10,-10 0,-5.517 4.483,-10 10,-10 5.514,0 10,4.483 10,10 0,5.514 -4.486,10 -10,10" /></g></svg>