<?xml version="1.0" encoding="UTF-8" standalone="no"?>
<!-- Generator: Adobe Illustrator 14.0.0, SVG Export Plug-In . SVG Version: 6.00 Build 43363)  -->

<svg
   xmlns:osb="http://www.openswatchbook.org/uri/2009/osb"
   xmlns:dc="http://purl.org/dc/elements/1.1/"
   xmlns:cc="http://creativecommons.org/ns#"
   xmlns:rdf="http://www.w3.org/1999/02/22-rdf-syntax-ns#"
   xmlns:svg="http://www.w3.org/2000/svg"
   xmlns="http://www.w3.org/2000/svg"
   xmlns:xlink="http://www.w3.org/1999/xlink"
   xmlns:sodipodi="http://sodipodi.sourceforge.net/DTD/sodipodi-0.dtd"
   xmlns:inkscape="http://www.inkscape.org/namespaces/inkscape"
   version="1.1"
   x="0px"
   y="0px"
   width="64"
   height="64"
   viewBox="0 0 64 64"
   enable-background="new 0 0 780 650"
   xml:space="preserve"
   id="svg4433"
   inkscape:version="0.48.5 r10040"
   sodipodi:docname="ic_search_link.svg"><metadata
     id="metadata5887"><rdf:RDF><cc:Work
         rdf:about=""><dc:format>image/svg+xml</dc:format><dc:type
           rdf:resource="http://purl.org/dc/dcmitype/StillImage" /></cc:Work></rdf:RDF></metadata><defs
     id="defs5885"><linearGradient
       gradientUnits="userSpaceOnUse"
       gradientTransform="translate(0,796.7244)"
       id="linearGradient29998"
       xlink:href="#linearGradient19282"
       inkscape:collect="always" /><linearGradient
       gradientUnits="userSpaceOnUse"
       gradientTransform="translate(0,796.7244)"
       id="linearGradient29996"
       xlink:href="#linearGradient19282"
       inkscape:collect="always" /><linearGradient
       gradientUnits="userSpaceOnUse"
       gradientTransform="translate(0,796.7244)"
       id="linearGradient29994"
       xlink:href="#linearGradient19282"
       inkscape:collect="always" /><linearGradient
       gradientTransform="matrix(0,0,0,0,-5766.0931,-16534.877)"
       osb:paint="solid"
       id="linearGradient19282"><stop
         id="stop19284"
         offset="0"
         style="stop-color:#666666;stop-opacity:1;" /></linearGradient><inkscape:path-effect
       is_visible="true"
       id="path-effect36695"
       effect="spiro" /><clipPath
       id="clipPath980"><path
         id="path982"
         inkscape:connector-curvature="0"
         d="m 5.38916,28.1929 21.80814,0 0,-24.32864 -21.80814,0 0,24.32864 z" /></clipPath><clipPath
       id="clipPath46"><path
         id="path48"
         inkscape:connector-curvature="0"
         d="M 0,32 32,32 32,0 0,0 0,32 z" /></clipPath><clipPath
       id="clipPath980-5"><path
         id="path982-0"
         inkscape:connector-curvature="0"
         d="m 5.38916,28.1929 21.80814,0 0,-24.32864 -21.80814,0 0,24.32864 z" /></clipPath><clipPath
       id="clipPath46-9"><path
         id="path48-0"
         inkscape:connector-curvature="0"
         d="M 0,32 32,32 32,0 0,0 0,32 z" /></clipPath></defs><sodipodi:namedview
     pagecolor="#ffffff"
     bordercolor="#666666"
     borderopacity="1"
     objecttolerance="10"
     gridtolerance="10"
     guidetolerance="10"
     inkscape:pageopacity="0"
     inkscape:pageshadow="2"
     inkscape:window-width="1584"
     inkscape:window-height="1089"
     id="namedview5883"
     showgrid="false"
     inkscape:zoom="1.3601026"
     inkscape:cx="496.40613"
     inkscape:cy="-148.1488"
     inkscape:window-x="325"
     inkscape:window-y="65"
     inkscape:window-maximized="0"
     inkscape:current-layer="svg4433" /><g
     id="Notification"
     transform="translate(-465.46203,-385.40339)" /><g
     id="g3264"
     transform="matrix(1.6143286,0.45568375,-0.43255806,1.7006349,-1801.5909,-1292.5264)"
     inkscape:transform-center-x="-25.830284"
     inkscape:transform-center-y="7.2930279"><path
       id="path3266"
       d="m 1267.69,429.467 c -3.598,-3.604 -9.449,-3.604 -13.049,0.002 l -3.301,3.299 c 2.02,-0.057 4.047,0.365 5.896,1.271 l 0.98,-0.979 c 1.618,-1.62 4.26,-1.62 5.881,-10e-4 1.621,1.621 1.621,4.265 0,5.887 l -4.73,4.729 c -1.614,1.621 -4.262,1.62 -5.883,-0.001 -0.984,-0.979 -2.594,-0.979 -3.584,0.001 -0.984,0.989 -0.984,2.604 0,3.585 3.604,3.604 9.451,3.604 13.055,0 l 4.729,-4.729 c 3.597,-3.611 3.597,-9.471 0.01,-13.064 z"
       inkscape:connector-curvature="0"
       style="fill:#1d1d1b" /><path
       id="path3268"
       d="m 1250.553,452.48 c -1.619,1.616 -4.258,1.616 -5.879,0 -1.623,-1.621 -1.623,-4.266 0,-5.886 l 4.729,-4.729 c 1.621,-1.621 4.264,-1.621 5.883,0 0.988,0.99 2.604,0.99 3.584,0 0.988,-0.983 0.988,-2.595 0,-3.585 -3.6,-3.603 -9.439,-3.602 -13.053,0.001 l -4.729,4.729 c -3.605,3.603 -3.605,9.45 0,13.054 3.6,3.599 9.439,3.599 13.051,0 l 3.299,-3.304 c -2.02,0.062 -4.047,-0.36 -5.9,-1.271 l -0.985,0.991 z"
       inkscape:connector-curvature="0"
       style="fill:#1d1d1b" /></g><g
     transform="translate(-662.48822,379.41431)"
     id="zoom-original"
     inkscape:label="#g6809"><g
       transform="matrix(0.996399,0,0,1,95.08523,-222.9354)"
       id="zoom_1_to_1"><use
         xlink:href="#g5796"
         transform="matrix(1,0,0,0.997925,-0.04089,0.477615)"
         x="0"
         y="0"
         id="use5816"
         width="1250"
         height="1250" /></g></g><g
     transform="matrix(0.99218952,0,0,1,-661.15152,379.97681)"
     id="zoom-half-size"
     inkscape:label="#g6895"><use
       xlink:href="#g5796"
       height="1250"
       width="1250"
       id="use5818"
       y="0"
       x="0"
       transform="matrix(0.996399,0,0,0.997925,95.044487,-202.45778)" /></g><g
     id="g11074"
     transform="matrix(1,0,0,0.99801946,-637.98822,-101.37166)" /><g
     id="g11109"
     transform="translate(-637.98822,-122.44787)" /><g
     id="g11198"
     transform="translate(-637.98822,-122.44787)" /><g
     id="g11329"
     transform="translate(-617.98822,-122.44787)" /><g
     id="zoom-fit-selection"
     inkscape:label="#zoom_selection"
     transform="translate(-660.98822,-102.94787)"><g
       transform="translate(0,20)"
       id="g11156"
       inkscape:label="#g11150"><g
         transform="translate(0,19.96825)"
         id="g11158"><g
           transform="matrix(1,0,0,0.99801946,0,21.076212)"
           id="g11160" /></g></g></g><g
     id="g11563"
     inkscape:label="#zoom_select"
     transform="translate(-660.98822,-62.94787)"><g
       inkscape:label="#zoom_selection"
       id="g11565"><g
         inkscape:label="#g11150"
         id="g11567"
         transform="translate(0,20)"><g
           id="g11569"
           transform="translate(0,19.96825)"><g
             id="g11571"
             transform="matrix(1,0,0,0.99801946,0,21.076212)" /></g></g></g></g><g
     id="g11647"
     transform="translate(-574.98822,-22.44787)" /><g
     transform="matrix(-1,0,0,1,-535.98822,-22.44787)"
     id="g11659" /><rect
     style="opacity:0.3;fill:url(#linearGradient19282);fill-opacity:1;stroke:none"
     id="rect19405"
     width="0"
     height="1"
     x="-519.98822"
     y="494.91431"
     ry="0" /><g
     id="g39728"
     transform="translate(-637.98822,-122.44787)" /><g
     transform="translate(-1033.6447,204.57056)"
     id="g39833" /><use
     transform="translate(-405.01612,532.38016)"
     x="0"
     y="0"
     id="use5704"
     width="1250"
     height="1250"
     xlink:href="#rect4442" /><g
     style="fill:none"
     transform="matrix(0.90013776,0,0,0.8929798,-756.03201,405.93909)"
     id="g14408" /><use
     x="0"
     y="0"
     id="use4586"
     transform="matrix(0.692914,0,0,0.70953374,-721.80231,232.53811)"
     width="1250"
     height="1250"
     xlink:href="#g5772" /><use
     x="0"
     y="0"
     id="use4586-2"
     transform="matrix(0.695835,0,0,0.741921,-737.80812,227.12431)"
     width="1250"
     height="1250"
     xlink:href="#g5772" /><use
     transform="matrix(0.695835,0,0,0.741921,-693.80812,224.62431)"
     x="0"
     y="0"
     id="use4589"
     width="1250"
     height="1250"
     xlink:href="#g5772" /><use
     transform="matrix(0.62897517,0,0,1.1624311,-619.04901,122.40244)"
     x="0"
     y="0"
     id="use4592"
     width="1250"
     height="1250"
     xlink:href="#g5772" /><use
     transform="translate(134.02158,251.21597)"
     x="0"
     y="0"
     id="use3738"
     width="1250"
     height="1250"
     xlink:href="#rect10675" /><use
     transform="translate(134.98798,267.93848)"
     x="0"
     y="0"
     id="use4635"
     width="1250"
     height="1250"
     xlink:href="#use5758" /><use
     transform="translate(130.97308,191.86081)"
     x="0"
     y="0"
     id="use9872"
     width="1250"
     height="1250"
     xlink:href="#g6043" /><use
     height="1250"
     width="1250"
     id="use10185"
     y="0"
     x="0"
     transform="translate(176.00488,252.16251)"
     xlink:href="#rect10675" /><use
     transform="translate(164.00488,264.16251)"
     x="0"
     y="0"
     id="use10187"
     width="1250"
     height="1250"
     xlink:href="#rect10675" /><use
     transform="translate(150.02163,185.81861)"
     x="0"
     y="0"
     id="use9872-0"
     width="1250"
     height="1250"
     xlink:href="#g6043" /><use
     height="1250"
     width="1250"
     id="use10185-8"
     y="0"
     x="0"
     transform="translate(195.05343,246.12031)"
     xlink:href="#rect10675" /><use
     transform="translate(183.05343,258.12031)"
     x="0"
     y="0"
     id="use10187-8"
     width="1250"
     height="1250"
     xlink:href="#rect10675" /><use
     style="stroke:url(#linearGradient19282);stroke-opacity:1"
     height="1250"
     width="1250"
     transform="matrix(1.1377421,0,0,1.1399698,-57.31126,255.76986)"
     id="use5845-6"
     y="0"
     x="0"
     xlink:href="#use5756-0-3" /><use
     style="stroke:url(#linearGradient19282);stroke-opacity:1"
     height="1250"
     width="1250"
     transform="matrix(1.1377421,0,0,1.1399698,-62.31095,262.99833)"
     id="use5845-6-1"
     y="0"
     x="0"
     xlink:href="#use5756-0-3" /><use
     style="stroke:url(#linearGradient19282);stroke-opacity:1"
     height="1250"
     width="1250"
     transform="matrix(1.1377421,0,0,1.1399698,-49.7182,266.64859)"
     id="use5845-6-1-9"
     y="0"
     x="0"
     xlink:href="#use5756-0-3" /><g
     id="g31444"
     inkscape:label="#zoom_selection"
     transform="translate(-510.98822,271.05213)"><g
       transform="translate(0,20)"
       id="g31446"
       inkscape:label="#g11150"><g
         transform="translate(0,19.96825)"
         id="g31448"><g
           transform="matrix(1,0,0,0.99801946,0,21.076212)"
           id="g31450" /></g></g></g><text
     xml:space="preserve"
     style="font-size:40px;font-style:normal;font-weight:normal;line-height:125%;letter-spacing:0px;word-spacing:0px;fill:#000000;fill-opacity:1;stroke:none;font-family:Sans"
     x="-911.98822"
     y="627.91431"
     id="text19288"
     sodipodi:linespacing="125%"><tspan
       sodipodi:role="line"
       x="-911.98822"
       y="627.91431"
       id="tspan19292" /></text>
</svg>