<svg xmlns="http://www.w3.org/2000/svg" xmlns:osb="http://www.openswatchbook.org/uri/2009/osb" xmlns:xlink="http://www.w3.org/1999/xlink" xml:space="preserve" width="64" height="64"><defs><linearGradient osb:paint="solid" id="a" gradientTransform="matrix(0 0 0 0 -1749.22 -36076.646)"><stop offset="0" style="stop-color:#666;stop-opacity:1"/></linearGradient></defs><use xlink:href="#g5796" width="1250" height="1250" transform="matrix(.9964 0 0 .99792 -258.453 -1346.256)"/><use xlink:href="#g5796" width="1250" height="1250" transform="matrix(.98862 0 0 .99792 -257.86 -1325.694)"/><use xlink:href="#rect4442" width="1250" height="1250" transform="translate(-96.026 -970.833)"/><use xlink:href="#g5772" width="1250" height="1250" transform="matrix(.69291 0 0 .70953 -412.812 -1270.675)"/><use xlink:href="#g5772" width="1250" height="1250" transform="matrix(.69583 0 0 .74192 -428.818 -1276.089)"/><use xlink:href="#g5772" width="1250" height="1250" transform="matrix(.69583 0 0 .74192 -384.818 -1278.589)"/><use xlink:href="#g5772" width="1250" height="1250" transform="matrix(.62898 0 0 1.16243 -310.059 -1380.81)"/><use xlink:href="#rect10675" width="1250" height="1250" transform="translate(443.012 -1251.997)"/><use xlink:href="#use5758" width="1250" height="1250" transform="translate(443.978 -1235.274)"/><use xlink:href="#g6043" width="1250" height="1250" transform="translate(439.963 -1311.352)"/><use xlink:href="#rect10675" width="1250" height="1250" transform="translate(484.995 -1251.05)"/><use xlink:href="#rect10675" width="1250" height="1250" transform="translate(472.995 -1239.05)"/><use xlink:href="#g6043" width="1250" height="1250" transform="translate(459.012 -1317.394)"/><use xlink:href="#rect10675" width="1250" height="1250" transform="translate(504.044 -1257.092)"/><use xlink:href="#rect10675" width="1250" height="1250" transform="translate(492.044 -1245.092)"/><use xlink:href="#use5756-0-3" width="1250" height="1250" style="stroke:url(#a);stroke-opacity:1" transform="matrix(1.13774 0 0 1.13997 251.679 -1247.443)"/><use xlink:href="#use5756-0-3" width="1250" height="1250" style="stroke:url(#a);stroke-opacity:1" transform="matrix(1.13774 0 0 1.13997 246.68 -1240.215)"/><use xlink:href="#use5756-0-3" width="1250" height="1250" style="stroke:url(#a);stroke-opacity:1" transform="matrix(1.13774 0 0 1.13997 259.272 -1236.564)"/><text xml:space="preserve" x="-602.998" y="-875.299" style="font-size:40px;font-style:normal;font-weight:400;line-height:125%;letter-spacing:0;word-spacing:0;fill:#000;fill-opacity:1;stroke:none;font-family:Sans"/><path d="M17.988 37.488a5.606 5.606 0 1 1 0-11.21 5.606 5.606 0 0 1 0 11.21zm15.838-11.21c-2.31-6.528-8.52-11.211-15.838-11.211-9.285 0-16.816 7.528-16.816 16.816s7.53 16.816 16.816 16.816c7.318 0 13.529-4.683 15.838-11.21h12.189v11.21h11.21V37.49h5.606V26.277H33.826z" style="fill:#050708;fill-opacity:1;stroke-width:.2;stroke-linejoin:round"/></svg>