<svg xmlns="http://www.w3.org/2000/svg" xmlns:osb="http://www.openswatchbook.org/uri/2009/osb" xmlns:xlink="http://www.w3.org/1999/xlink" xml:space="preserve" width="64" height="64"><defs><linearGradient osb:paint="solid" id="a" gradientTransform="matrix(0 0 0 0 -3260.066 -29357.349)"><stop offset="0" style="stop-color:#666;stop-opacity:1"/></linearGradient></defs><use xlink:href="#g5796" width="1250" height="1250" transform="matrix(.9964 0 0 .99792 -374.672 -829.388)"/><use xlink:href="#g5796" width="1250" height="1250" transform="matrix(.98862 0 0 .99792 -374.078 -808.825)"/><use xlink:href="#rect4442" width="1250" height="1250" transform="translate(-212.245 -453.964)"/><use xlink:href="#g5772" width="1250" height="1250" transform="matrix(.69291 0 0 .70953 -529.031 -753.806)"/><use xlink:href="#g5772" width="1250" height="1250" transform="matrix(.69583 0 0 .74192 -545.037 -759.22)"/><use xlink:href="#g5772" width="1250" height="1250" transform="matrix(.69583 0 0 .74192 -501.037 -761.72)"/><use xlink:href="#g5772" width="1250" height="1250" transform="matrix(.62898 0 0 1.16243 -426.278 -863.942)"/><use xlink:href="#rect10675" width="1250" height="1250" transform="translate(326.793 -735.128)"/><use xlink:href="#use5758" width="1250" height="1250" transform="translate(327.76 -718.406)"/><use xlink:href="#g6043" width="1250" height="1250" transform="translate(323.744 -794.484)"/><use xlink:href="#rect10675" width="1250" height="1250" transform="translate(368.776 -734.182)"/><use xlink:href="#rect10675" width="1250" height="1250" transform="translate(356.776 -722.182)"/><use xlink:href="#g6043" width="1250" height="1250" transform="translate(342.793 -800.526)"/><use xlink:href="#rect10675" width="1250" height="1250" transform="translate(387.825 -740.224)"/><use xlink:href="#rect10675" width="1250" height="1250" transform="translate(375.825 -728.224)"/><use xlink:href="#use5756-0-3" width="1250" height="1250" style="stroke:url(#a);stroke-opacity:1" transform="matrix(1.13774 0 0 1.13997 135.46 -730.575)"/><use xlink:href="#use5756-0-3" width="1250" height="1250" style="stroke:url(#a);stroke-opacity:1" transform="matrix(1.13774 0 0 1.13997 130.46 -723.346)"/><use xlink:href="#use5756-0-3" width="1250" height="1250" style="stroke:url(#a);stroke-opacity:1" transform="matrix(1.13774 0 0 1.13997 143.053 -719.696)"/><text xml:space="preserve" x="-719.217" y="-358.43" style="font-size:40px;font-style:normal;font-weight:400;line-height:125%;letter-spacing:0;word-spacing:0;fill:#000;fill-opacity:1;stroke:none;font-family:Sans"/><g style="fill:#000"><path d="m60.701 244.114-.685 1.995c-.388 1.132-1.685 2.061-2.884 2.061H30.997c-1.199 0-2.496-.929-2.884-2.061l-.685-1.997c-2.016.322-3.284 2.096-2.881 4.223l3.462 18.301c.445 2.354 2.769 4.281 5.166 4.281h21.779c2.395 0 4.72-1.927 5.166-4.281l3.462-18.301c.403-2.127-.865-3.9-2.881-4.221zm-8.839 12.132c0 1.848-1.913 3.296-4.356 3.296h-6.885c-2.442 0-4.356-1.416-4.356-3.227v-1.773a1.452 1.452 0 0 1 2.904 0v1.671c.142.141.638.426 1.452.426h6.885c.805 0 1.328-.306 1.452-.461v-1.776a1.452 1.452 0 1 1 2.904 0v1.844z" style="fill:#000" transform="matrix(1.48658 0 0 1.47624 -33.446 -337.946)"/><path d="M30.291 243.063c.389 1.133 1.687 2.061 2.884 2.061h21.779c1.198 0 2.495-.928 2.884-2.061l1.076-3.138c.389-1.134-.273-2.062-1.472-2.062H30.686c-1.199 0-1.861.928-1.472 2.062l1.077 3.138zM33.61 234.756h20.908l.859-1.778c.388-1.134-.274-2.061-1.472-2.061H34.223c-1.198 0-1.86.927-1.472 2.061l.859 1.778z" style="fill:#000" transform="matrix(1.48658 0 0 1.47624 -33.446 -337.946)"/></g></svg>