<?xml version="1.0" encoding="UTF-8" standalone="no"?>
<!-- Generator: Adobe Illustrator 14.0.0, SVG Export Plug-In . SVG Version: 6.00 Build 43363)  -->

<svg
   xmlns:osb="http://www.openswatchbook.org/uri/2009/osb"
   xmlns:dc="http://purl.org/dc/elements/1.1/"
   xmlns:cc="http://creativecommons.org/ns#"
   xmlns:rdf="http://www.w3.org/1999/02/22-rdf-syntax-ns#"
   xmlns:svg="http://www.w3.org/2000/svg"
   xmlns="http://www.w3.org/2000/svg"
   xmlns:xlink="http://www.w3.org/1999/xlink"
   xmlns:sodipodi="http://sodipodi.sourceforge.net/DTD/sodipodi-0.dtd"
   xmlns:inkscape="http://www.inkscape.org/namespaces/inkscape"
   version="1.1"
   x="0px"
   y="0px"
   width="64"
   height="64"
   viewBox="0 0 64 64"
   enable-background="new 0 0 780 650"
   xml:space="preserve"
   id="svg4433"
   inkscape:version="0.48.5 r10040"
   sodipodi:docname="ic_search_label.svg"><metadata
     id="metadata5887"><rdf:RDF><cc:Work
         rdf:about=""><dc:format>image/svg+xml</dc:format><dc:type
           rdf:resource="http://purl.org/dc/dcmitype/StillImage" /></cc:Work></rdf:RDF></metadata><defs
     id="defs5885"><linearGradient
       id="linearGradient19282"
       osb:paint="solid"
       gradientTransform="matrix(0,0,0,0,-17155.421,-242562)"><stop
         style="stop-color:#666666;stop-opacity:1;"
         offset="0"
         id="stop19284" /></linearGradient><linearGradient
       inkscape:collect="always"
       xlink:href="#linearGradient19282"
       id="linearGradient29994"
       gradientTransform="translate(0,796.7244)"
       gradientUnits="userSpaceOnUse" /><linearGradient
       inkscape:collect="always"
       xlink:href="#linearGradient19282"
       id="linearGradient29996"
       gradientTransform="translate(0,796.7244)"
       gradientUnits="userSpaceOnUse" /><linearGradient
       inkscape:collect="always"
       xlink:href="#linearGradient19282"
       id="linearGradient29998"
       gradientTransform="translate(0,796.7244)"
       gradientUnits="userSpaceOnUse" /></defs><sodipodi:namedview
     pagecolor="#ffffff"
     bordercolor="#666666"
     borderopacity="1"
     objecttolerance="10"
     gridtolerance="10"
     guidetolerance="10"
     inkscape:pageopacity="0"
     inkscape:pageshadow="2"
     inkscape:window-width="1871"
     inkscape:window-height="1176"
     id="namedview5883"
     showgrid="false"
     inkscape:zoom="3.846951"
     inkscape:cx="-83.856093"
     inkscape:cy="8.8559642"
     inkscape:window-x="49"
     inkscape:window-y="24"
     inkscape:window-maximized="1"
     inkscape:current-layer="svg4433" /><g
     id="Notification"
     transform="translate(-465.46203,-385.40339)" /><g
     id="Notification-3"
     transform="matrix(1,0,0,1.2091672,-1341.5644,-1380.1556)" /><g
     transform="matrix(1,0,0,1.2091672,-1538.5906,-455.36316)"
     id="zoom-original"
     inkscape:label="#g6809"><g
       transform="matrix(0.996399,0,0,1,95.08523,-222.9354)"
       id="zoom_1_to_1"><use
         xlink:href="#g5796"
         transform="matrix(1,0,0,0.997925,-0.04089,0.477615)"
         x="0"
         y="0"
         id="use5816"
         width="1250"
         height="1250" /></g></g><g
     transform="matrix(0.99218952,0,0,1.2091672,-1537.2539,-454.683)"
     id="zoom-half-size"
     inkscape:label="#g6895"><use
       xlink:href="#g5796"
       height="1250"
       width="1250"
       id="use5818"
       y="0"
       x="0"
       transform="matrix(0.996399,0,0,0.997925,95.044487,-202.45778)" /></g><g
     id="g11074"
     transform="matrix(1,0,0,1.2067724,-1514.0906,-1036.7138)" /><g
     id="g11109"
     transform="matrix(1,0,0,1.2091672,-1514.0906,-1062.1984)" /><g
     id="g11198"
     transform="matrix(1,0,0,1.2091672,-1514.0906,-1062.1984)" /><g
     id="g11329"
     transform="matrix(1,0,0,1.2091672,-1494.0906,-1062.1984)" /><g
     id="zoom-fit-selection"
     inkscape:label="#zoom_selection"
     transform="matrix(1,0,0,1.2091672,-1537.0906,-1038.6197)"><g
       transform="translate(0,20)"
       id="g11156"
       inkscape:label="#g11150"><g
         transform="translate(0,19.96825)"
         id="g11158"><g
           transform="matrix(1,0,0,0.99801946,0,21.076212)"
           id="g11160" /></g></g></g><g
     id="g11563"
     inkscape:label="#zoom_select"
     transform="matrix(1,0,0,1.2091672,-1537.0906,-990.253)"><g
       inkscape:label="#zoom_selection"
       id="g11565"><g
         inkscape:label="#g11150"
         id="g11567"
         transform="translate(0,20)"><g
           id="g11569"
           transform="translate(0,19.96825)"><g
             id="g11571"
             transform="matrix(1,0,0,0.99801946,0,21.076212)" /></g></g></g></g><g
     id="g11647"
     transform="matrix(1,0,0,1.2091672,-1451.0906,-941.28173)" /><g
     transform="matrix(-1,0,0,1.2091672,-1412.0906,-941.28173)"
     id="g11659" /><rect
     style="opacity:0.3;fill:url(#linearGradient19282);fill-opacity:1;stroke:none"
     id="rect19405"
     width="0"
     height="1.2091672"
     x="-1396.0906"
     y="-315.70435"
     ry="0" /><g
     id="g39728"
     transform="matrix(1,0,0,1.2091672,-1514.0906,-1062.1984)" /><g
     transform="matrix(1,0,0,1.2091672,-1909.7471,-666.77849)"
     id="g39833" /><use
     transform="matrix(1,0,0,1.2091672,-1281.1185,-270.40187)"
     x="0"
     y="0"
     id="use5704"
     width="1250"
     height="1250"
     xlink:href="#rect4442" /><g
     style="fill:none"
     transform="matrix(0.90013776,0,0,1.0797619,-1632.1344,-423.29027)"
     id="g14408" /><use
     x="0"
     y="0"
     id="use4586"
     transform="matrix(0.692914,0,0,0.85794493,-1597.9047,-632.96104)"
     width="1250"
     height="1250"
     xlink:href="#g5772" /><use
     x="0"
     y="0"
     id="use4586-2"
     transform="matrix(0.695835,0,0,0.89710654,-1613.9105,-639.50723)"
     width="1250"
     height="1250"
     xlink:href="#g5772" /><use
     transform="matrix(0.695835,0,0,0.89710654,-1569.9105,-642.53015)"
     x="0"
     y="0"
     id="use4589"
     width="1250"
     height="1250"
     xlink:href="#g5772" /><use
     transform="matrix(0.62897517,0,0,1.4055736,-1495.1514,-766.13348)"
     x="0"
     y="0"
     id="use4592"
     width="1250"
     height="1250"
     xlink:href="#g5772" /><use
     transform="matrix(1,0,0,1.2091672,-742.08082,-610.37639)"
     x="0"
     y="0"
     id="use3738"
     width="1250"
     height="1250"
     xlink:href="#rect10675" /><use
     transform="matrix(1,0,0,1.2091672,-741.11442,-590.15608)"
     x="0"
     y="0"
     id="use4635"
     width="1250"
     height="1250"
     xlink:href="#use5758" /><use
     transform="matrix(1,0,0,1.2091672,-745.12932,-682.1467)"
     x="0"
     y="0"
     id="use9872"
     width="1250"
     height="1250"
     xlink:href="#g6043" /><use
     height="1250"
     width="1250"
     id="use10185"
     y="0"
     x="0"
     transform="matrix(1,0,0,1.2091672,-700.09752,-609.23186)"
     xlink:href="#rect10675" /><use
     transform="matrix(1,0,0,1.2091672,-712.09752,-594.72186)"
     x="0"
     y="0"
     id="use10187"
     width="1250"
     height="1250"
     xlink:href="#rect10675" /><use
     transform="matrix(1,0,0,1.2091672,-726.08077,-689.45273)"
     x="0"
     y="0"
     id="use9872-0"
     width="1250"
     height="1250"
     xlink:href="#g6043" /><use
     height="1250"
     width="1250"
     id="use10185-8"
     y="0"
     x="0"
     transform="matrix(1,0,0,1.2091672,-681.04897,-616.53789)"
     xlink:href="#rect10675" /><use
     transform="matrix(1,0,0,1.2091672,-693.04897,-602.02789)"
     x="0"
     y="0"
     id="use10187-8"
     width="1250"
     height="1250"
     xlink:href="#rect10675" /><use
     style="stroke:url(#linearGradient19282);stroke-opacity:1"
     height="1250"
     width="1250"
     transform="matrix(1.1377421,0,0,1.3784141,-933.41366,-604.86997)"
     id="use5845-6"
     y="0"
     x="0"
     xlink:href="#use5756-0-3" /><use
     style="stroke:url(#linearGradient19282);stroke-opacity:1"
     height="1250"
     width="1250"
     transform="matrix(1.1377421,0,0,1.3784141,-938.41335,-596.12955)"
     id="use5845-6-1"
     y="0"
     x="0"
     xlink:href="#use5756-0-3" /><use
     style="stroke:url(#linearGradient19282);stroke-opacity:1"
     height="1250"
     width="1250"
     transform="matrix(1.1377421,0,0,1.3784141,-925.8206,-591.71577)"
     id="use5845-6-1-9"
     y="0"
     x="0"
     xlink:href="#use5756-0-3" /><g
     id="g31444"
     inkscape:label="#zoom_selection"
     transform="matrix(1,0,0,1.2091672,-1387.0906,-586.39115)"><g
       transform="translate(0,20)"
       id="g31446"
       inkscape:label="#g11150"><g
         transform="translate(0,19.96825)"
         id="g31448"><g
           transform="matrix(1,0,0,0.99801946,0,21.076212)"
           id="g31450" /></g></g></g><text
     xml:space="preserve"
     style="font-size:43.98485565px;font-style:normal;font-weight:normal;line-height:125%;letter-spacing:0px;word-spacing:0px;fill:#000000;fill-opacity:1;stroke:none;font-family:Sans"
     x="-1966.2227"
     y="-140.85313"
     id="text19288"
     sodipodi:linespacing="125%"
     transform="scale(0.90940392,1.0996214)"><tspan
       sodipodi:role="line"
       x="-1966.2227"
       y="-140.85313"
       id="tspan19292" /></text>
<path
     style="fill:#050708;fill-opacity:1;stroke-width:0.2;stroke-linejoin:round"
     inkscape:connector-curvature="0"
     d="m 51.103722,17.119844 c 2.402834,0 4.352971,-1.988597 4.352971,-4.438837 0,-2.453194 -1.950137,-4.4403077 -4.352971,-4.4403077 -2.405747,0 -4.352976,1.9871137 -4.352976,4.4403077 0,2.45024 1.947229,4.438837 4.352976,4.438837 z M 4.9302992,30.676024 31.036525,4.0536779 c 1.050513,-1.0712348 2.501513,-1.7314396 4.10631,-1.7314396 l 20.313858,0 c 3.203784,0 5.803969,2.6487983 5.803969,5.9184453 l 0,20.7160304 c 0,1.636451 -0.652959,3.119021 -1.706382,4.19026 L 33.442268,59.774027 c -1.053423,1.071238 -2.504423,1.734103 -4.103405,1.734103 -1.604801,0 -3.055769,-0.665825 -4.106313,-1.734103 L 4.9186946,39.059502 C 3.8681818,37.985303 3.2210369,36.508653 3.2210369,34.87516 c 0,-1.642369 0.6529591,-3.127897 1.7092623,-4.199136 z"
     id="path24254"
     sodipodi:nodetypes="sssssccssssccsccsc" /></svg>