<svg xmlns="http://www.w3.org/2000/svg" xml:space="preserve" width="128" height="128"><defs><linearGradient id="a"><stop offset="0" style="stop-color:#f07836;stop-opacity:1"/><stop offset="1" style="stop-color:white;stop-opacity:1"/></linearGradient><linearGradient id="b"><stop offset="0" style="stop-color:#545454;stop-opacity:1"/><stop offset=".946" style="stop-color:#545454;stop-opacity:1"/><stop offset="1" style="stop-color:#c5c5c5;stop-opacity:0"/></linearGradient><clipPath id="d" clipPathUnits="userSpaceOnUse"><path d="M87.962 52.106a43.981 52.026 0 1 1-87.962 0 43.981 52.026 0 1 1 87.962 0z" style="fill:#a9a9a9;fill-opacity:1;fill-rule:evenodd;stroke:none" transform="matrix(1.39939 0 0 1.19072 3.486 1.058)"/></clipPath><clipPath id="c" clipPathUnits="userSpaceOnUse"><path d="M87.962 52.106a43.981 52.026 0 1 1-87.962 0 43.981 52.026 0 1 1 87.962 0z" style="fill:#a9a9a9;fill-opacity:1;fill-rule:evenodd;stroke:none" transform="matrix(.18154 0 0 .15447 788.014 700.64)"/></clipPath></defs><g clip-path="url(#c)" transform="matrix(7.70834 0 0 7.70834 -6070.79 -5399.71)"><path d="M509.778 597.159c-12.427 0-22.5 10.074-22.5 22.5 0 12.428 10.073 22.5 22.5 22.5s22.5-10.072 22.5-22.5c-.001-12.426-10.073-22.5-22.5-22.5zm-.559 36.414a3.069 3.069 0 0 1-3.054-3.055 3.067 3.067 0 0 1 3.054-3.053 3.066 3.066 0 0 1 3.054 3.053 3.068 3.068 0 0 1-3.054 3.055zm2.904-11.791c-.892 1.305-.594 3.129-3.052 3.129-1.602 0-2.385-1.305-2.385-2.496 0-4.432 6.519-5.436 6.519-9.086 0-2.012-1.34-3.203-3.576-3.203-4.767 0-2.905 4.916-6.518 4.916-1.304 0-2.421-.783-2.421-2.271 0-3.65 4.172-6.891 8.714-6.891 4.769 0 9.46 2.197 9.46 7.449.001 4.842-5.55 6.703-6.741 8.453z" style="fill:#333"/></g><path d="M169.753 604.088h-27.25c-1.488 0-3.502.926-4.473 2.055l-9.842 11.463c-.971 1.131-.971 2.979 0 4.109l9.842 11.461c.971 1.131 2.984 2.055 4.473 2.055h27.25a2.716 2.716 0 0 0 2.707-2.707v-25.727a2.718 2.718 0 0 0-2.707-2.709zm-4.664 19.098a1.36 1.36 0 0 1 0 1.914l-2.873 2.871a1.356 1.356 0 0 1-1.914 0l-3.42-3.418-3.418 3.418a1.359 1.359 0 0 1-1.916 0l-2.871-2.871a1.356 1.356 0 0 1 0-1.914l3.42-3.42-3.42-3.42a1.356 1.356 0 0 1 0-1.914l2.871-2.873a1.362 1.362 0 0 1 1.916 0l3.418 3.42 3.42-3.42a1.36 1.36 0 0 1 1.914 0l2.873 2.873a1.36 1.36 0 0 1 0 1.914l-3.42 3.42 3.42 3.42z" style="fill:#666" transform="matrix(2.57135 0 0 2.53904 -321.236 -1506.487)"/></svg>