<svg xmlns="http://www.w3.org/2000/svg" xmlns:osb="http://www.openswatchbook.org/uri/2009/osb" xmlns:xlink="http://www.w3.org/1999/xlink" xml:space="preserve" width="64" height="64"><defs><linearGradient osb:paint="solid" id="a" gradientTransform="matrix(0 0 0 0 -1770.258 -33136.917)"><stop offset="0" style="stop-color:#666;stop-opacity:1"/></linearGradient><clipPath id="b" clipPathUnits="userSpaceOnUse"/></defs><use xlink:href="#g5796" width="1250" height="1250" transform="matrix(.9964 0 0 .99792 -260.072 -1120.124)"/><use xlink:href="#g5796" width="1250" height="1250" transform="matrix(.98862 0 0 .99792 -259.477 -1099.561)"/><use xlink:href="#rect4442" width="1250" height="1250" transform="translate(-97.644 -744.7)"/><use xlink:href="#g5772" width="1250" height="1250" transform="matrix(.69291 0 0 .70953 -414.43 -1044.542)"/><use xlink:href="#g5772" width="1250" height="1250" transform="matrix(.69583 0 0 .74192 -430.436 -1049.956)"/><use xlink:href="#g5772" width="1250" height="1250" transform="matrix(.69583 0 0 .74192 -386.436 -1052.456)"/><use xlink:href="#g5772" width="1250" height="1250" transform="matrix(.62898 0 0 1.16243 -311.677 -1154.678)"/><use xlink:href="#rect10675" width="1250" height="1250" transform="translate(441.394 -1025.864)"/><use xlink:href="#use5758" width="1250" height="1250" transform="translate(442.36 -1009.142)"/><use xlink:href="#g6043" width="1250" height="1250" transform="translate(438.345 -1085.22)"/><use xlink:href="#rect10675" width="1250" height="1250" transform="translate(483.377 -1024.918)"/><use xlink:href="#rect10675" width="1250" height="1250" transform="translate(471.377 -1012.918)"/><use xlink:href="#g6043" width="1250" height="1250" transform="translate(457.394 -1091.262)"/><use xlink:href="#rect10675" width="1250" height="1250" transform="translate(502.425 -1030.96)"/><use xlink:href="#rect10675" width="1250" height="1250" transform="translate(490.425 -1018.96)"/><use xlink:href="#use5756-0-3" width="1250" height="1250" style="stroke:url(#a);stroke-opacity:1" transform="matrix(1.13774 0 0 1.13997 250.06 -1021.31)"/><use xlink:href="#use5756-0-3" width="1250" height="1250" style="stroke:url(#a);stroke-opacity:1" transform="matrix(1.13774 0 0 1.13997 245.061 -1014.082)"/><use xlink:href="#use5756-0-3" width="1250" height="1250" style="stroke:url(#a);stroke-opacity:1" transform="matrix(1.13774 0 0 1.13997 257.654 -1010.432)"/><text xml:space="preserve" x="-604.616" y="-649.166" style="font-size:40px;font-style:normal;font-weight:400;line-height:125%;letter-spacing:0;word-spacing:0;fill:#000;fill-opacity:1;stroke:none;font-family:Sans"/><g style="fill:#a9a9a9"><path d="m629.887 357.15 6.451 11.699c.531.963 1.85 1.922 2.93 2.129l11.156 2.143c1.08.207 1.348 1.035.596 1.838l-7.766 8.291c-.752.803-1.254 2.352-1.119 3.443l1.41 11.273c.137 1.09-.566 1.602-1.563 1.135l-10.285-4.824c-.994-.469-2.625-.469-3.621 0l-10.285 4.824c-.994.467-1.697-.043-1.563-1.135l1.41-11.273c.137-1.092-.367-2.641-1.119-3.443l-7.766-8.291c-.752-.803-.482-1.631.598-1.838l11.156-2.143c1.08-.207 2.398-1.166 2.93-2.129l6.45-11.699" clip-rule="evenodd" style="fill:#a9a9a9;fill-rule:evenodd" transform="matrix(1.39346 0 0 1.39346 -845.608 -494.932)"/></g><path d="M18.196 76.515h24.955v84.742H18.196z" clip-path="url(#b)" style="fill:#000;fill-opacity:1;fill-rule:evenodd;stroke:none" transform="translate(.52 -76.424)"/></svg>