<svg xmlns="http://www.w3.org/2000/svg" xmlns:osb="http://www.openswatchbook.org/uri/2009/osb" xmlns:xlink="http://www.w3.org/1999/xlink" xml:space="preserve" width="64" height="64"><defs><linearGradient osb:paint="solid" id="a" gradientTransform="matrix(0 0 0 0 -17155.421 -242562)"><stop offset="0" style="stop-color:#666;stop-opacity:1"/></linearGradient></defs><use xlink:href="#g5796" width="1250" height="1250" transform="matrix(.9964 0 0 1.20666 -1443.546 -724.352)"/><use xlink:href="#g5796" width="1250" height="1250" transform="matrix(.98862 0 0 1.20666 -1442.952 -699.488)"/><use xlink:href="#rect4442" width="1250" height="1250" transform="matrix(1 0 0 1.20917 -1281.119 -270.402)"/><use xlink:href="#g5772" width="1250" height="1250" transform="matrix(.69291 0 0 .85794 -1597.905 -632.961)"/><use xlink:href="#g5772" width="1250" height="1250" transform="matrix(.69583 0 0 .8971 -1613.91 -639.507)"/><use xlink:href="#g5772" width="1250" height="1250" transform="matrix(.69583 0 0 .8971 -1569.91 -642.53)"/><use xlink:href="#g5772" width="1250" height="1250" transform="matrix(.62898 0 0 1.40557 -1495.151 -766.133)"/><use xlink:href="#rect10675" width="1250" height="1250" transform="matrix(1 0 0 1.20917 -742.08 -610.376)"/><use xlink:href="#use5758" width="1250" height="1250" transform="matrix(1 0 0 1.20917 -741.114 -590.156)"/><use xlink:href="#g6043" width="1250" height="1250" transform="matrix(1 0 0 1.20917 -745.13 -682.147)"/><use xlink:href="#rect10675" width="1250" height="1250" transform="matrix(1 0 0 1.20917 -700.098 -609.232)"/><use xlink:href="#rect10675" width="1250" height="1250" transform="matrix(1 0 0 1.20917 -712.098 -594.722)"/><use xlink:href="#g6043" width="1250" height="1250" transform="matrix(1 0 0 1.20917 -726.08 -689.453)"/><use xlink:href="#rect10675" width="1250" height="1250" transform="matrix(1 0 0 1.20917 -681.049 -616.538)"/><use xlink:href="#rect10675" width="1250" height="1250" transform="matrix(1 0 0 1.20917 -693.049 -602.028)"/><use xlink:href="#use5756-0-3" width="1250" height="1250" style="stroke:url(#a);stroke-opacity:1" transform="matrix(1.13774 0 0 1.37841 -933.414 -604.87)"/><use xlink:href="#use5756-0-3" width="1250" height="1250" style="stroke:url(#a);stroke-opacity:1" transform="matrix(1.13774 0 0 1.37841 -938.413 -596.13)"/><use xlink:href="#use5756-0-3" width="1250" height="1250" style="stroke:url(#a);stroke-opacity:1" transform="matrix(1.13774 0 0 1.37841 -925.82 -591.716)"/><text xml:space="preserve" x="-1966.223" y="-140.853" style="font-size:43.98485565px;font-style:normal;font-weight:400;line-height:125%;letter-spacing:0;word-spacing:0;fill:#000;fill-opacity:1;stroke:none;font-family:Sans" transform="scale(.9094 1.09962)"/><path d="M51.104 17.12c2.403 0 4.353-1.989 4.353-4.439 0-2.453-1.95-4.44-4.353-4.44-2.406 0-4.353 1.987-4.353 4.44 0 2.45 1.947 4.439 4.353 4.439zM4.93 30.676 31.037 4.054a5.73 5.73 0 0 1 4.106-1.732h20.314c3.203 0 5.804 2.649 5.804 5.919v20.716a5.96 5.96 0 0 1-1.707 4.19L33.442 59.774a5.74 5.74 0 0 1-4.103 1.734 5.744 5.744 0 0 1-4.106-1.734L4.919 39.06a5.962 5.962 0 0 1-1.698-4.185c0-1.642.653-3.128 1.71-4.199z" style="fill:#050708;fill-opacity:1;stroke-width:.2;stroke-linejoin:round"/></svg>