<svg xmlns="http://www.w3.org/2000/svg" xmlns:osb="http://www.openswatchbook.org/uri/2009/osb" xmlns:xlink="http://www.w3.org/1999/xlink" xml:space="preserve" width="64" height="64"><defs><linearGradient osb:paint="solid" id="a" gradientTransform="matrix(0 0 0 0 -671.668 -436543.27)"><stop offset="0" style="stop-color:#666;stop-opacity:1"/></linearGradient></defs><use xlink:href="#g5796" width="1250" height="1250" transform="matrix(.9964 0 0 .99792 -114.076 -435.05)"/><use xlink:href="#g5796" width="1250" height="1250" transform="matrix(.98862 0 0 .99792 -113.482 -414.487)"/><path d="M2.4 14.404c-.478 1.447-.909 3.045-.912 4.566-.012 7.28 5.907 12.052 13.214 10.706 1.527-.281 3.017-.908 4.383-1.633.097-.052 4.726 3.606 5.97 4.596l.812.647c1.409 1.128 11.523 9.219 11.488 9.33-.442 1.461-.761 3.022-.728 4.547.157 7.3 6.127 12.014 13.38 10.507 1.514-.315 3.019-1.057 4.363-1.814l-7.29-5.649c-1.5-1.175-1.337-3.429.1-5.213l2.639-3.19c1.46-1.767 3.47-2.5 4.972-1.328l7.39 5.73c.444-1.462.762-3.023.73-4.548-.158-7.3-6.21-11.914-13.462-10.407-1.515.315-2.956.777-4.3 1.533l-2.436-1.943L29.72 20.478l-2.436-1.943c.479-1.447.643-2.927.646-4.448.013-7.28-5.824-12.151-13.131-10.805-1.527.281-3.017.908-4.383 1.633l7.226 5.929c1.476 1.204 1.157 3.285-.304 5.052l-2.638 3.19c-1.483 1.748-3.697 2.368-5.175 1.166L2.4 14.404Z" style="color:#000;font-style:normal;font-variant:normal;font-weight:400;font-stretch:normal;font-size:medium;line-height:normal;font-family:Sans;-inkscape-font-specification:Sans;text-indent:0;text-align:start;text-decoration:none;text-decoration-line:none;letter-spacing:normal;word-spacing:normal;text-transform:none;direction:ltr;block-progression:tb;writing-mode:lr-tb;text-anchor:start;display:inline;overflow:visible;visibility:visible;fill:#666;fill-opacity:1;fill-rule:nonzero;stroke:none;stroke-width:3;marker:none;enable-background:accumulate"/><path d="M6.124 5.138h66.949v66.949H6.124z" style="fill:none;stroke:none"/><use xlink:href="#rect4442" width="1250" height="1250" transform="translate(48.351 -59.626)"/><use xlink:href="#g5772" width="1250" height="1250" transform="matrix(.69291 0 0 .70953 -268.435 -359.468)"/><use xlink:href="#g5772" width="1250" height="1250" transform="matrix(.69583 0 0 .74192 -284.44 -364.882)"/><use xlink:href="#g5772" width="1250" height="1250" transform="matrix(.69583 0 0 .74192 -240.44 -367.382)"/><use xlink:href="#g5772" width="1250" height="1250" transform="matrix(.62898 0 0 1.16243 -165.682 -469.604)"/><use xlink:href="#rect10675" width="1250" height="1250" transform="translate(587.389 -340.79)"/><use xlink:href="#use5758" width="1250" height="1250" transform="translate(588.355 -324.068)"/><use xlink:href="#g6043" width="1250" height="1250" transform="translate(584.34 -400.145)"/><use xlink:href="#rect10675" width="1250" height="1250" transform="translate(629.372 -339.844)"/><use xlink:href="#rect10675" width="1250" height="1250" transform="translate(617.372 -327.844)"/><use xlink:href="#g6043" width="1250" height="1250" transform="translate(603.389 -406.188)"/><use xlink:href="#rect10675" width="1250" height="1250" transform="translate(648.42 -345.886)"/><use xlink:href="#rect10675" width="1250" height="1250" transform="translate(636.42 -333.886)"/><use xlink:href="#use5756-0-3" width="1250" height="1250" style="stroke:url(#a);stroke-opacity:1" transform="matrix(1.13774 0 0 1.13997 396.056 -336.236)"/><use xlink:href="#use5756-0-3" width="1250" height="1250" style="stroke:url(#a);stroke-opacity:1" transform="matrix(1.13774 0 0 1.13997 391.056 -329.008)"/><use xlink:href="#use5756-0-3" width="1250" height="1250" style="stroke:url(#a);stroke-opacity:1" transform="matrix(1.13774 0 0 1.13997 403.65 -325.358)"/><g style="fill:#666;fill-opacity:1"><g style="fill:#666;fill-opacity:1"><path d="M231.5 450c-3.042 0-5.5 2.49-5.5 5.531 0 3.042 2.458 5.469 5.5 5.469a5.46 5.46 0 0 0 2.938-.844l2.77 2.587c.38.38.969.354 1.343-.031l.188-.188a.976.976 0 0 0 0-1.375l-2.708-2.524c.617-.89 1-1.93 1-3.094 0-3.042-2.489-5.531-5.531-5.531zm.031 2.063c1.942 0 3.5 1.555 3.5 3.468s-1.558 3.469-3.5 3.469c-1.941 0-3.531-1.556-3.531-3.469 0-1.913 1.59-3.469 3.531-3.469z" style="fill:#666;fill-opacity:1;stroke:none" transform="matrix(1.55753 0 0 1.55753 -343.53 -662.52)"/></g></g><text xml:space="preserve" x="-458.621" y="35.908" style="font-size:40px;font-style:normal;font-weight:400;line-height:125%;letter-spacing:0;word-spacing:0;fill:#000;fill-opacity:1;stroke:none;font-family:Sans"/><path d="M0 0c0 4.837 3.934 8.771 8.77 8.771V.21l5.98-6.607a8.72 8.72 0 0 0-5.98-2.376C3.934-8.773 0-4.836 0 0m8.77 10c-5.517 0-10-4.486-10-10 0-5.517 4.483-10 10-10 5.514 0 10 4.483 10 10 0 5.514-4.486 10-10 10" style="fill:#333;fill-opacity:1;fill-rule:nonzero;stroke:none" transform="matrix(1.25 0 0 -1.25 -914.108 449.852)"/></svg>