<svg xmlns="http://www.w3.org/2000/svg" xmlns:osb="http://www.openswatchbook.org/uri/2009/osb" xmlns:xlink="http://www.w3.org/1999/xlink" xml:space="preserve" width="64" height="64"><defs><linearGradient osb:paint="solid" id="a" gradientTransform="matrix(0 0 0 0 -1012.832 -23289.82)"><stop offset="0" style="stop-color:#666;stop-opacity:1"/></linearGradient></defs><use xlink:href="#g5796" width="1250" height="1250" transform="matrix(.9964 0 0 .99792 -201.808 -362.655)"/><use xlink:href="#g5796" width="1250" height="1250" transform="matrix(.98862 0 0 .99792 -201.214 -342.092)"/><use xlink:href="#rect4442" width="1250" height="1250" transform="translate(-39.38 12.769)"/><use xlink:href="#g5772" width="1250" height="1250" transform="matrix(.69291 0 0 .70953 -356.167 -287.073)"/><use xlink:href="#g5772" width="1250" height="1250" transform="matrix(.69583 0 0 .74192 -372.173 -292.487)"/><use xlink:href="#g5772" width="1250" height="1250" transform="matrix(.69583 0 0 .74192 -328.173 -294.987)"/><use xlink:href="#g5772" width="1250" height="1250" transform="matrix(.62898 0 0 1.16243 -253.414 -397.209)"/><use xlink:href="#rect10675" width="1250" height="1250" transform="translate(499.657 -268.395)"/><use xlink:href="#use5758" width="1250" height="1250" transform="translate(500.623 -251.673)"/><use xlink:href="#g6043" width="1250" height="1250" transform="translate(496.609 -327.75)"/><use xlink:href="#rect10675" width="1250" height="1250" transform="translate(541.64 -267.449)"/><use xlink:href="#rect10675" width="1250" height="1250" transform="translate(529.64 -255.449)"/><use xlink:href="#g6043" width="1250" height="1250" transform="translate(515.657 -333.793)"/><use xlink:href="#rect10675" width="1250" height="1250" transform="translate(560.689 -273.49)"/><use xlink:href="#rect10675" width="1250" height="1250" transform="translate(548.689 -261.49)"/><use xlink:href="#use5756-0-3" width="1250" height="1250" style="stroke:url(#a);stroke-opacity:1" transform="matrix(1.13774 0 0 1.13997 308.324 -263.841)"/><use xlink:href="#use5756-0-3" width="1250" height="1250" style="stroke:url(#a);stroke-opacity:1" transform="matrix(1.13774 0 0 1.13997 303.325 -256.613)"/><use xlink:href="#use5756-0-3" width="1250" height="1250" style="stroke:url(#a);stroke-opacity:1" transform="matrix(1.13774 0 0 1.13997 315.917 -252.963)"/><text xml:space="preserve" x="-546.353" y="108.303" style="font-size:40px;font-style:normal;font-weight:400;line-height:125%;letter-spacing:0;word-spacing:0;fill:#000;fill-opacity:1;stroke:none;font-family:Sans"/><g clip-rule="evenodd"><path d="m35.755-2.33-8.662 15.714c-.713 1.293-2.484 2.581-3.935 2.86L8.174 19.121c-1.45.278-1.813 1.39-.803 2.468L17.8 32.726c1.01 1.079 1.688 3.16 1.504 4.625L17.41 52.49c-.182 1.468.763 2.153 2.099 1.525l13.814-6.479c.67-.314 1.55-.473 2.433-.473V-2.33z" style="fill:#000;fill-rule:evenodd" transform="translate(-3.64 5.719)"/><path d="m35.755-2.33 8.662 15.714c.713 1.293 2.485 2.581 3.936 2.86l14.984 2.878c1.45.278 1.813 1.39.803 2.468L53.709 32.726c-1.01 1.079-1.687 3.16-1.503 4.625L54.1 52.49c.184 1.468-.76 2.153-2.1 1.525l-13.814-6.479c-.669-.314-1.55-.473-2.432-.473V-2.33z" style="opacity:.5;fill:gray;fill-rule:evenodd" transform="translate(-3.64 5.719)"/></g><path d="m629.887 357.15 6.451 11.699c.531.963 1.85 1.922 2.93 2.129l11.156 2.143c1.08.207 1.348 1.035.596 1.838l-7.766 8.291c-.752.803-1.254 2.352-1.119 3.443l1.41 11.273c.137 1.09-.566 1.602-1.563 1.135l-10.285-4.824c-.994-.469-2.625-.469-3.621 0l-10.285 4.824c-.994.467-1.697-.043-1.563-1.135l1.41-11.273c.137-1.092-.367-2.641-1.119-3.443l-7.766-8.291c-.752-.803-.482-1.631.598-1.838l11.156-2.143c1.08-.207 2.398-1.166 2.93-2.129l6.45-11.699" clip-rule="evenodd" style="fill:#333369;fill-rule:evenodd" transform="matrix(1.82543 0 0 1.82543 -1109.389 -502.688)"/></svg>