<?xml version="1.0" encoding="UTF-8" standalone="no"?>
<!--
  - Copyright (c) 2022. Bernard Bou
  -->

<!-- Generator: Adobe Illustrator 14.0.0, SVG Export Plug-In . SVG Version: 6.00 Build 43363)  -->

<svg
   xmlns:osb="http://www.openswatchbook.org/uri/2009/osb"
   xmlns:dc="http://purl.org/dc/elements/1.1/"
   xmlns:cc="http://creativecommons.org/ns#"
   xmlns:rdf="http://www.w3.org/1999/02/22-rdf-syntax-ns#"
   xmlns:svg="http://www.w3.org/2000/svg"
   xmlns="http://www.w3.org/2000/svg"
   xmlns:xlink="http://www.w3.org/1999/xlink"
   xmlns:sodipodi="http://sodipodi.sourceforge.net/DTD/sodipodi-0.dtd"
   xmlns:inkscape="http://www.inkscape.org/namespaces/inkscape"
   version="1.1"
   x="0px"
   y="0px"
   width="128"
   height="128"
   viewBox="0 0 128 128"
   enable-background="new 0 0 780 650"
   xml:space="preserve"
   id="svg2"
   inkscape:version="0.91 r13725"
   sodipodi:docname="status_mount.svg"><metadata
     id="metadata1456"><rdf:RDF><cc:Work
         rdf:about=""><dc:format>image/svg+xml</dc:format><dc:type
           rdf:resource="http://purl.org/dc/dcmitype/StillImage" /></cc:Work></rdf:RDF></metadata><defs
     id="defs1454"><clipPath
       clipPathUnits="userSpaceOnUse"
       id="clipPath3093"><path
         sodipodi:type="arc"
         style="fill:#ff0000;fill-opacity:1;fill-rule:evenodd;stroke:none"
         id="path3095"
         sodipodi:cx="64.663704"
         sodipodi:cy="63.905186"
         sodipodi:rx="61.629631"
         sodipodi:ry="62.957039"
         d="m 126.29333,63.905186 a 61.629631,62.957039 0 1 1 -123.2592571,0 61.629631,62.957039 0 1 1 123.2592571,0 z" /></clipPath><clipPath
       clipPathUnits="userSpaceOnUse"
       id="clipPath3097"><path
         sodipodi:type="arc"
         style="fill:#ff0000;fill-opacity:1;fill-rule:evenodd;stroke:none"
         id="path3099"
         sodipodi:cx="64.663704"
         sodipodi:cy="63.905186"
         sodipodi:rx="61.629631"
         sodipodi:ry="62.957039"
         d="m 126.29333,63.905186 a 61.629631,62.957039 0 1 1 -123.2592571,0 61.629631,62.957039 0 1 1 123.2592571,0 z"
         transform="matrix(0.12972965,0,0,0.12972965,787.5614,700.50245)" /></clipPath><linearGradient
       id="linearGradient19282"
       osb:paint="solid"
       gradientTransform="matrix(0,0,0,0,-11009.802,-27852.404)"><stop
         style="stop-color:#666666;stop-opacity:1;"
         offset="0"
         id="stop19284" /></linearGradient><inkscape:path-effect
       effect="spiro"
       id="path-effect36695"
       is_visible="true" /><clipPath
       id="clipPath980"><path
         d="m 5.38916,28.1929 21.80814,0 0,-24.32864 -21.80814,0 0,24.32864 z"
         inkscape:connector-curvature="0"
         id="path982" /></clipPath><clipPath
       id="clipPath46"><path
         d="M 0,32 32,32 32,0 0,0 0,32 z"
         inkscape:connector-curvature="0"
         id="path48" /></clipPath><clipPath
       id="clipPath980-5"><path
         d="m 5.38916,28.1929 21.80814,0 0,-24.32864 -21.80814,0 0,24.32864 z"
         inkscape:connector-curvature="0"
         id="path982-0" /></clipPath><clipPath
       id="clipPath46-9"><path
         d="M 0,32 32,32 32,0 0,0 0,32 z"
         inkscape:connector-curvature="0"
         id="path48-0" /></clipPath></defs><sodipodi:namedview
     pagecolor="#ffffff"
     bordercolor="#666666"
     borderopacity="1"
     objecttolerance="10"
     gridtolerance="10"
     guidetolerance="10"
     inkscape:pageopacity="0"
     inkscape:pageshadow="2"
     inkscape:window-width="1236"
     inkscape:window-height="848"
     id="namedview1452"
     showgrid="false"
     inkscape:zoom="2.6367188"
     inkscape:cx="6.7318529"
     inkscape:cy="86.755556"
     inkscape:window-x="259"
     inkscape:window-y="336"
     inkscape:window-maximized="0"
     inkscape:current-layer="svg2" /><g
     id="Help"
     transform="matrix(7.7083383,0,0,7.7083383,-6070.7897,-5399.7099)"
     clip-path="url(#clipPath3097)"><path
       d="m 509.778,597.159 c -12.427,0 -22.5,10.074 -22.5,22.5 0,12.428 10.073,22.5 22.5,22.5 12.427,0 22.5,-10.072 22.5,-22.5 -10e-4,-12.426 -10.073,-22.5 -22.5,-22.5 z m -0.559,36.414 c -1.676,0 -3.054,-1.379 -3.054,-3.055 0,-1.676 1.378,-3.053 3.054,-3.053 1.677,0 3.054,1.377 3.054,3.053 0,1.676 -1.377,3.055 -3.054,3.055 z m 2.904,-11.791 c -0.892,1.305 -0.594,3.129 -3.052,3.129 -1.602,0 -2.385,-1.305 -2.385,-2.496 0,-4.432 6.519,-5.436 6.519,-9.086 0,-2.012 -1.34,-3.203 -3.576,-3.203 -4.767,0 -2.905,4.916 -6.518,4.916 -1.304,0 -2.421,-0.783 -2.421,-2.271 0,-3.65 4.172,-6.891 8.714,-6.891 4.769,0 9.46,2.197 9.46,7.449 10e-4,4.842 -5.55,6.703 -6.741,8.453 z"
       id="path695"
       inkscape:connector-curvature="0"
       style="fill:#333333" /></g><style
     id="style8"
     type="text/css">
      .Border { fill: lightGray; stroke: black; stroke-width: 4; }
      .Label { font-size:24; font-family:Arial; fill:black; }
   </style><style
     id="style8-7"
     type="text/css">
      .Border { fill: lightGray; stroke: black; stroke-width: 4; }
      .Label { font-size:24; font-family:Arial; fill:black; }
   </style><style
     id="style8-3"
     type="text/css">
      .Border { fill: lightGray; stroke: black; stroke-width: 4; }
      .Label { font-size:24; font-family:Arial; fill:black; }
   </style><style
     id="style8-6"
     type="text/css">
      .Border { fill: lightGray; stroke: black; stroke-width: 4; }
      .Label { font-size:24; font-family:Arial; fill:black; }
   </style><style
     type="text/css"
     id="style8-1">
      .Border { fill: lightGray; stroke: black; stroke-width: 4; }
      .Label { font-size:24; font-family:Arial; fill:black; }
   </style><style
     type="text/css"
     id="style8-7-0">
      .Border { fill: lightGray; stroke: black; stroke-width: 4; }
      .Label { font-size:24; font-family:Arial; fill:black; }
   </style><style
     type="text/css"
     id="style8-3-2">
      .Border { fill: lightGray; stroke: black; stroke-width: 4; }
      .Label { font-size:24; font-family:Arial; fill:black; }
   </style><style
     type="text/css"
     id="style8-6-7">
      .Border { fill: lightGray; stroke: black; stroke-width: 4; }
      .Label { font-size:24; font-family:Arial; fill:black; }
   </style><path
     style="fill:#333333;fill-opacity:1;fill-rule:evenodd;stroke:none"
     d=""
     id="path7612"
     inkscape:connector-curvature="0"
     clip-path="url(#clipPath3093)" /><g
     id="Notification"
     transform="translate(-868.82436,-1255.9829)" /><g
     transform="translate(-1065.8505,-491.16516)"
     id="zoom-original"
     inkscape:label="#g6809"><g
       transform="matrix(0.996399,0,0,1,95.08523,-222.9354)"
       id="zoom_1_to_1"><use
         xlink:href="#g5796"
         transform="matrix(1,0,0,0.997925,-0.04089,0.477615)"
         x="0"
         y="0"
         id="use5816"
         width="1250"
         height="1250" /></g></g><g
     transform="matrix(0.99218952,0,0,1,-1064.5139,-490.60266)"
     id="zoom-half-size"
     inkscape:label="#g6895"><use
       xlink:href="#g5796"
       height="1250"
       width="1250"
       id="use5818"
       y="0"
       x="0"
       transform="matrix(0.996399,0,0,0.997925,95.044487,-202.45778)" /></g><g
     id="g11074"
     transform="matrix(1,0,0,0.99801946,-1041.3505,-971.95113)" /><g
     id="g11109"
     transform="translate(-1041.3505,-993.02734)" /><g
     id="g11198"
     transform="translate(-1041.3505,-993.02734)" /><g
     id="g11329"
     transform="translate(-1021.3505,-993.02734)" /><g
     id="zoom-fit-selection"
     inkscape:label="#zoom_selection"
     transform="translate(-1064.3505,-973.52734)"><g
       transform="translate(0,20)"
       id="g11156"
       inkscape:label="#g11150"><g
         transform="translate(0,19.96825)"
         id="g11158"><g
           transform="matrix(1,0,0,0.99801946,0,21.076212)"
           id="g11160" /></g></g></g><g
     id="g11563"
     inkscape:label="#zoom_select"
     transform="translate(-1064.3505,-933.52734)"><g
       inkscape:label="#zoom_selection"
       id="g11565"><g
         inkscape:label="#g11150"
         id="g11567"
         transform="translate(0,20)"><g
           id="g11569"
           transform="translate(0,19.96825)"><g
             id="g11571"
             transform="matrix(1,0,0,0.99801946,0,21.076212)" /></g></g></g></g><g
     id="g11647"
     transform="translate(-978.35055,-893.02734)" /><g
     transform="matrix(-1,0,0,1,-939.35055,-893.02734)"
     id="g11659" /><rect
     style="opacity:0.3;fill:url(#linearGradient19282);fill-opacity:1;stroke:none"
     id="rect19405"
     width="0"
     height="1"
     x="-923.35052"
     y="-375.66516"
     ry="0" /><g
     id="g39728"
     transform="translate(-1041.3505,-993.02734)" /><g
     transform="translate(-1437.007,-666.00891)"
     id="g39833" /><use
     transform="translate(-808.37845,-338.19931)"
     x="0"
     y="0"
     id="use5704"
     width="1250"
     height="1250"
     xlink:href="#rect4442" /><g
     style="fill:none"
     transform="matrix(0.90013776,0,0,0.8929798,-1159.3943,-464.64038)"
     id="g14408" /><use
     x="0"
     y="0"
     id="use4586"
     transform="matrix(0.692914,0,0,0.70953374,-1125.1646,-638.04136)"
     width="1250"
     height="1250"
     xlink:href="#g5772" /><use
     x="0"
     y="0"
     id="use4586-2"
     transform="matrix(0.695835,0,0,0.741921,-1141.1705,-643.45516)"
     width="1250"
     height="1250"
     xlink:href="#g5772" /><use
     transform="matrix(0.695835,0,0,0.741921,-1097.1705,-645.95516)"
     x="0"
     y="0"
     id="use4589"
     width="1250"
     height="1250"
     xlink:href="#g5772" /><use
     transform="matrix(0.62897517,0,0,1.1624311,-1022.4113,-748.17703)"
     x="0"
     y="0"
     id="use4592"
     width="1250"
     height="1250"
     xlink:href="#g5772" /><use
     transform="translate(-269.34075,-619.3635)"
     x="0"
     y="0"
     id="use3738"
     width="1250"
     height="1250"
     xlink:href="#rect10675" /><use
     transform="translate(-268.37435,-602.64099)"
     x="0"
     y="0"
     id="use4635"
     width="1250"
     height="1250"
     xlink:href="#use5758" /><use
     transform="translate(-272.38925,-678.71866)"
     x="0"
     y="0"
     id="use9872"
     width="1250"
     height="1250"
     xlink:href="#g6043" /><use
     height="1250"
     width="1250"
     id="use10185"
     y="0"
     x="0"
     transform="translate(-227.35745,-618.41696)"
     xlink:href="#rect10675" /><use
     transform="translate(-239.35745,-606.41696)"
     x="0"
     y="0"
     id="use10187"
     width="1250"
     height="1250"
     xlink:href="#rect10675" /><use
     transform="translate(-253.3407,-684.76086)"
     x="0"
     y="0"
     id="use9872-0"
     width="1250"
     height="1250"
     xlink:href="#g6043" /><use
     height="1250"
     width="1250"
     id="use10185-8"
     y="0"
     x="0"
     transform="translate(-208.3089,-624.45916)"
     xlink:href="#rect10675" /><use
     transform="translate(-220.3089,-612.45916)"
     x="0"
     y="0"
     id="use10187-8"
     width="1250"
     height="1250"
     xlink:href="#rect10675" /><use
     style="stroke:url(#linearGradient19282);stroke-opacity:1"
     height="1250"
     width="1250"
     transform="matrix(1.1377421,0,0,1.1399698,-460.67359,-614.80961)"
     id="use5845-6"
     y="0"
     x="0"
     xlink:href="#use5756-0-3" /><use
     style="stroke:url(#linearGradient19282);stroke-opacity:1"
     height="1250"
     width="1250"
     transform="matrix(1.1377421,0,0,1.1399698,-465.67328,-607.58114)"
     id="use5845-6-1"
     y="0"
     x="0"
     xlink:href="#use5756-0-3" /><use
     style="stroke:url(#linearGradient19282);stroke-opacity:1"
     height="1250"
     width="1250"
     transform="matrix(1.1377421,0,0,1.1399698,-453.08053,-603.93088)"
     id="use5845-6-1-9"
     y="0"
     x="0"
     xlink:href="#use5756-0-3" /><g
     id="g31444"
     inkscape:label="#zoom_selection"
     transform="translate(-914.35055,-599.52734)"><g
       transform="translate(0,20)"
       id="g31446"
       inkscape:label="#g11150"><g
         transform="translate(0,19.96825)"
         id="g31448"><g
           transform="matrix(1,0,0,0.99801946,0,21.076212)"
           id="g31450" /></g></g></g><text
     xml:space="preserve"
     style="font-style:normal;font-weight:normal;font-size:40px;line-height:125%;font-family:Sans;letter-spacing:0px;word-spacing:0px;fill:#000000;fill-opacity:1;stroke:none"
     x="-1315.3506"
     y="-242.66516"
     id="text19288"
     sodipodi:linespacing="125%"><tspan
       sodipodi:role="line"
       x="-1315.3506"
       y="-242.66516"
       id="tspan19292" /></text>
<path
     style="clip-rule:evenodd;fill:#666666;fill-rule:evenodd"
     inkscape:connector-curvature="0"
     d="m 114.77962,75.839666 -6.3702,0 c -1.03418,3.74275 -2.51621,7.293089 -4.41622,10.584905 l 5.88628,5.889189 c 3.76679,3.769799 3.76679,9.87543 0,13.63622 l -3.4091,3.41207 c -3.76679,3.76678 -9.875515,3.76678 -13.6423,0 l -5.92221,-5.92527 c -3.282729,1.86986 -6.827067,3.32488 -10.554828,4.34098 l 0,6.18079 c 0,5.32703 -4.316911,9.64396 -9.643914,9.64396 l -4.822098,0 c -5.323904,0 -9.646872,-4.31693 -9.646872,-9.64396 l 0,-6.18079 c -3.724662,-1.0161 -7.266042,-2.47112 -10.554829,-4.34098 l -5.922351,5.92527 c -3.760726,3.76678 -9.869318,3.76678 -13.636102,0 l -3.409097,-3.41207 c -3.766784,-3.76079 -3.766784,-9.866421 0,-13.63622 l 5.886147,-5.889189 C 22.70501,83.129755 21.219878,79.582416 20.182738,75.839666 l -6.364144,0 c -5.327003,0 -9.6439138,-4.322941 -9.6439138,-9.649972 l 0,-4.818971 c 0,-5.327017 4.3169108,-9.649957 9.6439138,-9.649957 l 6.289056,0 c 0.998117,-3.709686 2.426052,-7.235978 4.268872,-10.512762 L 18.715779,35.54729 c -3.766784,-3.766798 -3.766784,-9.872431 0,-13.639215 l 3.409097,-3.406054 c 3.766784,-3.766798 9.875376,-3.766798 13.636102,0 l 5.54649,5.543476 c 3.397121,-1.972089 7.061629,-3.514276 10.93069,-4.566461 l 0,-6.481411 c 0,-5.3270169 4.322968,-9.6439566 9.646872,-9.6439566 l 4.822098,0 c 5.323903,0 9.643914,4.3169397 9.643914,9.6439566 l 0,6.475409 c 3.874978,1.058187 7.539625,2.597374 10.930548,4.572463 l 5.54649,-5.543476 c 3.766785,-3.766798 9.87242,-3.766798 13.6423,0 l 3.4091,3.406054 c 3.76679,3.766784 3.76679,9.872417 0,13.639215 l -5.66074,5.660714 c 1.84578,3.276784 3.26779,6.803076 4.26873,10.512762 l 6.28906,0 c 5.327,0 9.6439,4.32294 9.6439,9.649957 l 0,4.818971 c 0,5.330032 -4.3138,9.649972 -9.64081,9.649972 z M 64.299108,37.411142 c -14.646336,0 -26.520905,11.874584 -26.520905,26.52089 0,14.649308 11.874569,26.523877 26.520905,26.523877 14.646335,0 26.520904,-11.874569 26.520904,-26.523877 0,-14.646306 -11.874569,-26.52089 -26.520904,-26.52089 z m 0,38.278221 c -6.655761,0 -12.057992,-5.402189 -12.057992,-12.05795 0,-6.655774 5.402231,-12.057963 12.057992,-12.057963 6.65576,0 12.051934,5.402189 12.051934,12.057963 0,6.655761 -5.396174,12.05795 -12.051934,12.05795 z"
     id="path26701" /></svg>