<svg xmlns="http://www.w3.org/2000/svg" xml:space="preserve" width="128" height="128"><defs><clipPath id="b" clipPathUnits="userSpaceOnUse"><path d="M126.293 63.905a61.63 62.957 0 1 1-123.259 0 61.63 62.957 0 1 1 123.26 0z" style="fill:red;fill-opacity:1;fill-rule:evenodd;stroke:none"/></clipPath><clipPath id="a" clipPathUnits="userSpaceOnUse"><path d="M126.293 63.905a61.63 62.957 0 1 1-123.259 0 61.63 62.957 0 1 1 123.26 0z" style="fill:red;fill-opacity:1;fill-rule:evenodd;stroke:none" transform="matrix(.12973 0 0 .12973 787.561 700.502)"/></clipPath></defs><g clip-path="url(#a)" transform="matrix(7.70834 0 0 7.70834 -6070.79 -5399.71)"><path d="M509.778 597.159c-12.427 0-22.5 10.074-22.5 22.5 0 12.428 10.073 22.5 22.5 22.5s22.5-10.072 22.5-22.5c-.001-12.426-10.073-22.5-22.5-22.5zm-.559 36.414a3.069 3.069 0 0 1-3.054-3.055 3.067 3.067 0 0 1 3.054-3.053 3.066 3.066 0 0 1 3.054 3.053 3.068 3.068 0 0 1-3.054 3.055zm2.904-11.791c-.892 1.305-.594 3.129-3.052 3.129-1.602 0-2.385-1.305-2.385-2.496 0-4.432 6.519-5.436 6.519-9.086 0-2.012-1.34-3.203-3.576-3.203-4.767 0-2.905 4.916-6.518 4.916-1.304 0-2.421-.783-2.421-2.271 0-3.65 4.172-6.891 8.714-6.891 4.769 0 9.46 2.197 9.46 7.449.001 4.842-5.55 6.703-6.741 8.453z" style="fill:#333"/></g><path d="M114.577 77.025h-6.37a45.26 45.26 0 0 1-4.417 10.585l5.887 5.89c3.767 3.77 3.767 9.875 0 13.636l-3.41 3.412c-3.766 3.766-9.875 3.766-13.642 0l-5.922-5.926a45.457 45.457 0 0 1-10.555 4.341v6.181a9.643 9.643 0 0 1-9.644 9.644h-4.822c-5.324 0-9.647-4.317-9.647-9.644v-6.18a45.622 45.622 0 0 1-10.554-4.342l-5.923 5.926c-3.76 3.766-9.87 3.766-13.636 0l-3.409-3.412c-3.767-3.761-3.767-9.867 0-13.637l5.886-5.889a45.581 45.581 0 0 1-4.419-10.585h-6.364c-5.327 0-9.644-4.323-9.644-9.65v-4.819c0-5.327 4.317-9.65 9.644-9.65h6.289a45.563 45.563 0 0 1 4.269-10.512l-5.661-5.661a9.644 9.644 0 0 1 0-13.64l3.41-3.405c3.766-3.767 9.875-3.767 13.635 0l5.547 5.543a45.575 45.575 0 0 1 10.93-4.566v-6.482c0-5.327 4.323-9.644 9.647-9.644h4.822c5.324 0 9.644 4.317 9.644 9.644v6.476a45.506 45.506 0 0 1 10.93 4.572l5.547-5.543c3.767-3.767 9.873-3.767 13.643 0l3.409 3.406a9.644 9.644 0 0 1 0 13.639l-5.661 5.66c1.846 3.277 3.268 6.804 4.269 10.513h6.289c5.327 0 9.644 4.323 9.644 9.65v4.82c0 5.33-4.314 9.65-9.641 9.65zm-50.48-38.428c-14.647 0-26.522 11.874-26.522 26.52 0 14.65 11.875 26.525 26.521 26.525 14.647 0 26.521-11.875 26.521-26.524 0-14.647-11.874-26.521-26.52-26.521zm0 38.278c-6.656 0-12.059-5.402-12.059-12.058s5.403-12.058 12.058-12.058c6.656 0 12.052 5.402 12.052 12.058s-5.396 12.058-12.052 12.058z" style="clip-rule:evenodd;fill:#00f;fill-rule:evenodd"/></svg>