<?xml version="1.0" encoding="UTF-8" standalone="no"?>
<!--
  - Copyright (c) 2022. Bernard Bou
  -->

<!-- Generator: Adobe Illustrator 14.0.0, SVG Export Plug-In . SVG Version: 6.00 Build 43363)  -->

<svg
   xmlns:dc="http://purl.org/dc/elements/1.1/"
   xmlns:cc="http://creativecommons.org/ns#"
   xmlns:rdf="http://www.w3.org/1999/02/22-rdf-syntax-ns#"
   xmlns:svg="http://www.w3.org/2000/svg"
   xmlns="http://www.w3.org/2000/svg"
   xmlns:sodipodi="http://sodipodi.sourceforge.net/DTD/sodipodi-0.dtd"
   xmlns:inkscape="http://www.inkscape.org/namespaces/inkscape"
   version="1.1"
   x="0px"
   y="0px"
   width="128"
   height="128"
   viewBox="0 0 128 128"
   enable-background="new 0 0 780 650"
   xml:space="preserve"
   id="svg2"
   inkscape:version="0.91 r13725"
   sodipodi:docname="status_mounting.svg"><metadata
     id="metadata1456"><rdf:RDF><cc:Work
         rdf:about=""><dc:format>image/svg+xml</dc:format><dc:type
           rdf:resource="http://purl.org/dc/dcmitype/StillImage" /></cc:Work></rdf:RDF></metadata><defs
     id="defs1454"><clipPath
       clipPathUnits="userSpaceOnUse"
       id="clipPath3093"><path
         sodipodi:type="arc"
         style="fill:#ff0000;fill-opacity:1;fill-rule:evenodd;stroke:none"
         id="path3095"
         sodipodi:cx="64.663704"
         sodipodi:cy="63.905186"
         sodipodi:rx="61.629631"
         sodipodi:ry="62.957039"
         d="m 126.29333,63.905186 a 61.629631,62.957039 0 1 1 -123.2592571,0 61.629631,62.957039 0 1 1 123.2592571,0 z" /></clipPath><clipPath
       clipPathUnits="userSpaceOnUse"
       id="clipPath3097"><path
         sodipodi:type="arc"
         style="fill:#ff0000;fill-opacity:1;fill-rule:evenodd;stroke:none"
         id="path3099"
         sodipodi:cx="64.663704"
         sodipodi:cy="63.905186"
         sodipodi:rx="61.629631"
         sodipodi:ry="62.957039"
         d="m 126.29333,63.905186 a 61.629631,62.957039 0 1 1 -123.2592571,0 61.629631,62.957039 0 1 1 123.2592571,0 z"
         transform="matrix(0.12972965,0,0,0.12972965,787.5614,700.50245)" /></clipPath></defs><sodipodi:namedview
     pagecolor="#ffffff"
     bordercolor="#666666"
     borderopacity="1"
     objecttolerance="10"
     gridtolerance="10"
     guidetolerance="10"
     inkscape:pageopacity="0"
     inkscape:pageshadow="2"
     inkscape:window-width="1236"
     inkscape:window-height="848"
     id="namedview1452"
     showgrid="false"
     inkscape:zoom="2.6367188"
     inkscape:cx="0.28897707"
     inkscape:cy="86.755556"
     inkscape:window-x="14"
     inkscape:window-y="276"
     inkscape:window-maximized="0"
     inkscape:current-layer="svg2" /><g
     id="Help"
     transform="matrix(7.7083383,0,0,7.7083383,-6070.7897,-5399.7099)"
     clip-path="url(#clipPath3097)"><path
       d="m 509.778,597.159 c -12.427,0 -22.5,10.074 -22.5,22.5 0,12.428 10.073,22.5 22.5,22.5 12.427,0 22.5,-10.072 22.5,-22.5 -10e-4,-12.426 -10.073,-22.5 -22.5,-22.5 z m -0.559,36.414 c -1.676,0 -3.054,-1.379 -3.054,-3.055 0,-1.676 1.378,-3.053 3.054,-3.053 1.677,0 3.054,1.377 3.054,3.053 0,1.676 -1.377,3.055 -3.054,3.055 z m 2.904,-11.791 c -0.892,1.305 -0.594,3.129 -3.052,3.129 -1.602,0 -2.385,-1.305 -2.385,-2.496 0,-4.432 6.519,-5.436 6.519,-9.086 0,-2.012 -1.34,-3.203 -3.576,-3.203 -4.767,0 -2.905,4.916 -6.518,4.916 -1.304,0 -2.421,-0.783 -2.421,-2.271 0,-3.65 4.172,-6.891 8.714,-6.891 4.769,0 9.46,2.197 9.46,7.449 10e-4,4.842 -5.55,6.703 -6.741,8.453 z"
       id="path695"
       inkscape:connector-curvature="0"
       style="fill:#333333" /></g><style
     id="style8"
     type="text/css">
      .Border { fill: lightGray; stroke: black; stroke-width: 4; }
      .Label { font-size:24; font-family:Arial; fill:black; }
   </style><style
     id="style8-7"
     type="text/css">
      .Border { fill: lightGray; stroke: black; stroke-width: 4; }
      .Label { font-size:24; font-family:Arial; fill:black; }
   </style><style
     id="style8-3"
     type="text/css">
      .Border { fill: lightGray; stroke: black; stroke-width: 4; }
      .Label { font-size:24; font-family:Arial; fill:black; }
   </style><style
     id="style8-6"
     type="text/css">
      .Border { fill: lightGray; stroke: black; stroke-width: 4; }
      .Label { font-size:24; font-family:Arial; fill:black; }
   </style><style
     type="text/css"
     id="style8-1">
      .Border { fill: lightGray; stroke: black; stroke-width: 4; }
      .Label { font-size:24; font-family:Arial; fill:black; }
   </style><style
     type="text/css"
     id="style8-7-0">
      .Border { fill: lightGray; stroke: black; stroke-width: 4; }
      .Label { font-size:24; font-family:Arial; fill:black; }
   </style><style
     type="text/css"
     id="style8-3-2">
      .Border { fill: lightGray; stroke: black; stroke-width: 4; }
      .Label { font-size:24; font-family:Arial; fill:black; }
   </style><style
     type="text/css"
     id="style8-6-7">
      .Border { fill: lightGray; stroke: black; stroke-width: 4; }
      .Label { font-size:24; font-family:Arial; fill:black; }
   </style><path
     style="fill:#333333;fill-opacity:1;fill-rule:evenodd;stroke:none"
     d=""
     id="path7612"
     inkscape:connector-curvature="0"
     clip-path="url(#clipPath3093)" /><path
     style="clip-rule:evenodd;fill:#0000ff;fill-rule:evenodd"
     inkscape:connector-curvature="0"
     d="m 114.57688,77.025283 -6.3702,0 c -1.03418,3.74275 -2.51621,7.293089 -4.41622,10.584905 l 5.88628,5.889189 c 3.76679,3.769799 3.76679,9.875433 0,13.636213 l -3.4091,3.41207 c -3.76679,3.76678 -9.875516,3.76678 -13.642301,0 l -5.92221,-5.92527 c -3.282729,1.86986 -6.827067,3.32488 -10.554828,4.34098 l 0,6.18079 c 0,5.32704 -4.316911,9.64397 -9.643919,9.64397 l -4.82209,0 c -5.32391,0 -9.64688,-4.31693 -9.64688,-9.64397 l 0,-6.18079 c -3.72466,-1.0161 -7.26604,-2.47112 -10.55482,-4.34098 l -5.92236,5.92527 c -3.76072,3.76678 -9.86931,3.76678 -13.6361,0 l -3.40909,-3.41207 c -3.76679,-3.76078 -3.76679,-9.866414 0,-13.636213 l 5.88614,-5.889189 c -1.89691,-3.294816 -3.38205,-6.842155 -4.41919,-10.584905 l -6.36414,0 c -5.3270001,0 -9.6439101,-4.322941 -9.6439101,-9.649972 l 0,-4.818971 c 0,-5.327017 4.31691,-9.649957 9.6439101,-9.649957 l 6.28906,0 c 0.99811,-3.709686 2.42605,-7.235978 4.26887,-10.512762 l -5.66074,-5.660714 c -3.76679,-3.766798 -3.76679,-9.872431 0,-13.639215 l 3.40909,-3.406054 c 3.76679,-3.766798 9.87538,-3.766798 13.6361,0 l 5.54649,5.543476 c 3.39713,-1.972089 7.06163,-3.514276 10.93069,-4.566461 l 0,-6.481412 c 0,-5.3270167 4.32297,-9.6439597 9.64688,-9.6439597 l 4.82209,0 c 5.323908,0 9.643919,4.316943 9.643919,9.6439597 l 0,6.47541 c 3.874978,1.058187 7.539625,2.597374 10.930548,4.572463 l 5.54649,-5.543476 c 3.766785,-3.766798 9.872421,-3.766798 13.642301,0 l 3.4091,3.406054 c 3.76679,3.766784 3.76679,9.872417 0,13.639215 l -5.66074,5.660714 c 1.84578,3.276784 3.26779,6.803076 4.26873,10.512762 l 6.28906,0 c 5.327,0 9.6439,4.32294 9.6439,9.649957 l 0,4.818971 c 0,5.330032 -4.3138,9.649972 -9.64081,9.649972 z M 64.096362,38.596759 c -14.64633,0 -26.5209,11.874584 -26.5209,26.52089 0,14.649308 11.87457,26.523877 26.5209,26.523877 14.64634,0 26.520909,-11.874569 26.520909,-26.523877 0,-14.646306 -11.874569,-26.52089 -26.520909,-26.52089 z m 0,38.278221 c -6.65576,0 -12.05799,-5.402189 -12.05799,-12.05795 0,-6.655774 5.40223,-12.057963 12.05799,-12.057963 6.65576,0 12.051939,5.402189 12.051939,12.057963 0,6.655761 -5.396179,12.05795 -12.051939,12.05795 z"
     id="path26701" /></svg>