<svg xmlns="http://www.w3.org/2000/svg" xmlns:osb="http://www.openswatchbook.org/uri/2009/osb" xmlns:xlink="http://www.w3.org/1999/xlink" xml:space="preserve" width="128" height="128"><defs><clipPath id="b" clipPathUnits="userSpaceOnUse"><path d="M126.293 63.905a61.63 62.957 0 1 1-123.259 0 61.63 62.957 0 1 1 123.26 0z" style="fill:red;fill-opacity:1;fill-rule:evenodd;stroke:none"/></clipPath><clipPath id="a" clipPathUnits="userSpaceOnUse"><path d="M126.293 63.905a61.63 62.957 0 1 1-123.259 0 61.63 62.957 0 1 1 123.26 0z" style="fill:red;fill-opacity:1;fill-rule:evenodd;stroke:none" transform="matrix(.12973 0 0 .12973 787.561 700.502)"/></clipPath><linearGradient osb:paint="solid" id="c" gradientTransform="matrix(0 0 0 0 -11009.802 -27852.404)"><stop offset="0" style="stop-color:#666;stop-opacity:1"/></linearGradient></defs><g clip-path="url(#a)" transform="matrix(7.70834 0 0 7.70834 -6070.79 -5399.71)"><path d="M509.778 597.159c-12.427 0-22.5 10.074-22.5 22.5 0 12.428 10.073 22.5 22.5 22.5s22.5-10.072 22.5-22.5c-.001-12.426-10.073-22.5-22.5-22.5zm-.559 36.414a3.069 3.069 0 0 1-3.054-3.055 3.067 3.067 0 0 1 3.054-3.053 3.066 3.066 0 0 1 3.054 3.053 3.068 3.068 0 0 1-3.054 3.055zm2.904-11.791c-.892 1.305-.594 3.129-3.052 3.129-1.602 0-2.385-1.305-2.385-2.496 0-4.432 6.519-5.436 6.519-9.086 0-2.012-1.34-3.203-3.576-3.203-4.767 0-2.905 4.916-6.518 4.916-1.304 0-2.421-.783-2.421-2.271 0-3.65 4.172-6.891 8.714-6.891 4.769 0 9.46 2.197 9.46 7.449.001 4.842-5.55 6.703-6.741 8.453z" style="fill:#333"/></g><use xlink:href="#g5796" width="1250" height="1250" transform="matrix(.9964 0 0 .99792 -970.806 -713.623)"/><use xlink:href="#g5796" width="1250" height="1250" transform="matrix(.98862 0 0 .99792 -970.212 -693.06)"/><use xlink:href="#rect4442" width="1250" height="1250" transform="translate(-808.378 -338.2)"/><use xlink:href="#g5772" width="1250" height="1250" transform="matrix(.69291 0 0 .70953 -1125.165 -638.041)"/><use xlink:href="#g5772" width="1250" height="1250" transform="matrix(.69583 0 0 .74192 -1141.17 -643.455)"/><use xlink:href="#g5772" width="1250" height="1250" transform="matrix(.69583 0 0 .74192 -1097.17 -645.955)"/><use xlink:href="#g5772" width="1250" height="1250" transform="matrix(.62898 0 0 1.16243 -1022.411 -748.177)"/><use xlink:href="#rect10675" width="1250" height="1250" transform="translate(-269.34 -619.364)"/><use xlink:href="#use5758" width="1250" height="1250" transform="translate(-268.374 -602.641)"/><use xlink:href="#g6043" width="1250" height="1250" transform="translate(-272.39 -678.719)"/><use xlink:href="#rect10675" width="1250" height="1250" transform="translate(-227.357 -618.417)"/><use xlink:href="#rect10675" width="1250" height="1250" transform="translate(-239.357 -606.417)"/><use xlink:href="#g6043" width="1250" height="1250" transform="translate(-253.34 -684.76)"/><use xlink:href="#rect10675" width="1250" height="1250" transform="translate(-208.309 -624.46)"/><use xlink:href="#rect10675" width="1250" height="1250" transform="translate(-220.309 -612.46)"/><use xlink:href="#use5756-0-3" width="1250" height="1250" style="stroke:url(#c);stroke-opacity:1" transform="matrix(1.13774 0 0 1.13997 -460.674 -614.81)"/><use xlink:href="#use5756-0-3" width="1250" height="1250" style="stroke:url(#c);stroke-opacity:1" transform="matrix(1.13774 0 0 1.13997 -465.673 -607.581)"/><use xlink:href="#use5756-0-3" width="1250" height="1250" style="stroke:url(#c);stroke-opacity:1" transform="matrix(1.13774 0 0 1.13997 -453.08 -603.93)"/><text xml:space="preserve" x="-1315.351" y="-242.665" style="font-style:normal;font-weight:400;font-size:40px;line-height:125%;font-family:Sans;letter-spacing:0;word-spacing:0;fill:#000;fill-opacity:1;stroke:none"/><path d="M114.78 75.84h-6.37a45.26 45.26 0 0 1-4.417 10.585l5.886 5.889c3.767 3.77 3.767 9.875 0 13.636l-3.409 3.412c-3.766 3.767-9.875 3.767-13.642 0l-5.922-5.925a45.457 45.457 0 0 1-10.555 4.34v6.182a9.643 9.643 0 0 1-9.644 9.644h-4.822c-5.324 0-9.647-4.317-9.647-9.644v-6.181a45.622 45.622 0 0 1-10.555-4.341l-5.922 5.925c-3.76 3.767-9.87 3.767-13.636 0l-3.41-3.412c-3.766-3.76-3.766-9.866 0-13.636l5.887-5.89a45.58 45.58 0 0 1-4.42-10.584H13.82c-5.327 0-9.644-4.323-9.644-9.65v-4.82c0-5.326 4.317-9.65 9.644-9.65h6.289a45.563 45.563 0 0 1 4.269-10.512l-5.661-5.66a9.644 9.644 0 0 1 0-13.64l3.409-3.406c3.767-3.767 9.875-3.767 13.636 0l5.546 5.543a45.575 45.575 0 0 1 10.931-4.566v-6.481c0-5.327 4.323-9.644 9.647-9.644h4.822c5.324 0 9.644 4.317 9.644 9.644v6.475a45.506 45.506 0 0 1 10.93 4.572l5.547-5.543c3.767-3.767 9.872-3.767 13.642 0l3.41 3.406a9.644 9.644 0 0 1 0 13.64l-5.661 5.66c1.846 3.277 3.268 6.803 4.268 10.513h6.29c5.327 0 9.643 4.323 9.643 9.65v4.819c0 5.33-4.313 9.65-9.64 9.65zM64.3 37.41c-14.647 0-26.522 11.875-26.522 26.521 0 14.65 11.875 26.524 26.521 26.524S90.82 78.58 90.82 63.932c0-14.646-11.875-26.52-26.52-26.52zm0 38.278c-6.657 0-12.059-5.402-12.059-12.058 0-6.655 5.402-12.058 12.058-12.058s12.052 5.403 12.052 12.058c0 6.656-5.396 12.058-12.052 12.058z" style="clip-rule:evenodd;fill:#666;fill-rule:evenodd"/></svg>