<?xml version="1.0" encoding="UTF-8" standalone="no"?>
<!-- Generator: Adobe Illustrator 14.0.0, SVG Export Plug-In . SVG Version: 6.00 Build 43363)  -->

<svg
   xmlns:osb="http://www.openswatchbook.org/uri/2009/osb"
   xmlns:dc="http://purl.org/dc/elements/1.1/"
   xmlns:cc="http://creativecommons.org/ns#"
   xmlns:rdf="http://www.w3.org/1999/02/22-rdf-syntax-ns#"
   xmlns:svg="http://www.w3.org/2000/svg"
   xmlns="http://www.w3.org/2000/svg"
   xmlns:xlink="http://www.w3.org/1999/xlink"
   xmlns:sodipodi="http://sodipodi.sourceforge.net/DTD/sodipodi-0.dtd"
   xmlns:inkscape="http://www.inkscape.org/namespaces/inkscape"
   version="1.1"
   x="0px"
   y="0px"
   width="128"
   height="128"
   viewBox="0 0 128 128"
   enable-background="new 0 0 780 650"
   xml:space="preserve"
   id="svg2"
   inkscape:version="0.91 r13725"
   sodipodi:docname="toolbar_no_hoverfocus.svg"><metadata
     id="metadata1456"><rdf:RDF><cc:Work
         rdf:about=""><dc:format>image/svg+xml</dc:format><dc:type
           rdf:resource="http://purl.org/dc/dcmitype/StillImage" /></cc:Work></rdf:RDF></metadata><defs
     id="defs1454"><clipPath
       clipPathUnits="userSpaceOnUse"
       id="clipPath9180"><path
         sodipodi:type="arc"
         style="fill:#a9a9a9;fill-opacity:1;fill-rule:evenodd;stroke:none"
         id="path9182"
         sodipodi:cx="43.980995"
         sodipodi:cy="52.105968"
         sodipodi:rx="43.980995"
         sodipodi:ry="52.026299"
         d="m 87.96199,52.105968 a 43.980995,52.026299 0 1 1 -87.96199,0 43.980995,52.026299 0 1 1 87.96199,0 z"
         transform="matrix(1.3993902,0,0,1.1907217,3.486295,1.0575123)" /></clipPath><clipPath
       clipPathUnits="userSpaceOnUse"
       id="clipPath9184"><path
         sodipodi:type="arc"
         style="fill:#a9a9a9;fill-opacity:1;fill-rule:evenodd;stroke:none"
         id="path9186"
         sodipodi:cx="43.980995"
         sodipodi:cy="52.105968"
         sodipodi:rx="43.980995"
         sodipodi:ry="52.026299"
         d="m 87.96199,52.105968 a 43.980995,52.026299 0 1 1 -87.96199,0 43.980995,52.026299 0 1 1 87.96199,0 z"
         transform="matrix(0.1815424,0,0,0.1544719,788.01368,700.63965)" /></clipPath><clipPath
       id="clipPath9180-9"
       clipPathUnits="userSpaceOnUse"><path
         transform="matrix(1.3993902,0,0,1.1907217,3.486295,1.0575123)"
         d="m 87.96199,52.105968 a 43.980995,52.026299 0 1 1 -87.96199,0 43.980995,52.026299 0 1 1 87.96199,0 z"
         sodipodi:ry="52.026299"
         sodipodi:rx="43.980995"
         sodipodi:cy="52.105968"
         sodipodi:cx="43.980995"
         id="path9182-7"
         style="fill:#a9a9a9;fill-opacity:1;fill-rule:evenodd;stroke:none"
         sodipodi:type="arc" /></clipPath><clipPath
       id="clipPath9184-5"
       clipPathUnits="userSpaceOnUse"><path
         transform="matrix(0.1815424,0,0,0.1544719,788.01368,700.63965)"
         d="m 87.96199,52.105968 a 43.980995,52.026299 0 1 1 -87.96199,0 43.980995,52.026299 0 1 1 87.96199,0 z"
         sodipodi:ry="52.026299"
         sodipodi:rx="43.980995"
         sodipodi:cy="52.105968"
         sodipodi:cx="43.980995"
         id="path9186-9"
         style="fill:#a9a9a9;fill-opacity:1;fill-rule:evenodd;stroke:none"
         sodipodi:type="arc" /></clipPath><clipPath
       id="clipPath46"><path
         d="M 0,32 32,32 32,0 0,0 0,32 z"
         inkscape:connector-curvature="0"
         id="path48" /></clipPath><clipPath
       id="clipPath980"><path
         d="m 5.38916,28.1929 21.80814,0 0,-24.32864 -21.80814,0 0,24.32864 z"
         inkscape:connector-curvature="0"
         id="path982" /></clipPath><inkscape:path-effect
       effect="spiro"
       id="path-effect36695"
       is_visible="true" /><linearGradient
       id="linearGradient19282"
       osb:paint="solid"
       gradientTransform="matrix(0,0,0,0,-110554880,-6332874.8)"><stop
         style="stop-color:#666666;stop-opacity:1;"
         offset="0"
         id="stop19284" /></linearGradient><inkscape:path-effect
       is_visible="true"
       id="path-effect36695-5"
       effect="spiro" /><clipPath
       id="clipPath980-9"><path
         id="path982-06"
         inkscape:connector-curvature="0"
         d="m 5.38916,28.1929 21.80814,0 0,-24.32864 -21.80814,0 0,24.32864 z" /></clipPath><clipPath
       id="clipPath46-8"><path
         id="path48-6"
         inkscape:connector-curvature="0"
         d="M 0,32 32,32 32,0 0,0 0,32 z" /></clipPath><clipPath
       id="clipPath980-5"><path
         id="path982-0"
         inkscape:connector-curvature="0"
         d="m 5.38916,28.1929 21.80814,0 0,-24.32864 -21.80814,0 0,24.32864 z" /></clipPath><clipPath
       id="clipPath46-9"><path
         id="path48-0"
         inkscape:connector-curvature="0"
         d="M 0,32 32,32 32,0 0,0 0,32 z" /></clipPath></defs><sodipodi:namedview
     pagecolor="#ffffff"
     bordercolor="#666666"
     borderopacity="1"
     objecttolerance="10"
     gridtolerance="10"
     guidetolerance="10"
     inkscape:pageopacity="0"
     inkscape:pageshadow="2"
     inkscape:window-width="1871"
     inkscape:window-height="1176"
     id="namedview1452"
     showgrid="false"
     inkscape:zoom="0.93222084"
     inkscape:cx="-321.19869"
     inkscape:cy="-63.646738"
     inkscape:window-x="49"
     inkscape:window-y="24"
     inkscape:window-maximized="1"
     inkscape:current-layer="svg2" /><g
     id="Help"
     transform="matrix(7.7083383,0,0,7.7083383,-6070.7897,-5399.7099)"
     clip-path="url(#clipPath9184)"><path
       d="m 509.778,597.159 c -12.427,0 -22.5,10.074 -22.5,22.5 0,12.428 10.073,22.5 22.5,22.5 12.427,0 22.5,-10.072 22.5,-22.5 -10e-4,-12.426 -10.073,-22.5 -22.5,-22.5 z m -0.559,36.414 c -1.676,0 -3.054,-1.379 -3.054,-3.055 0,-1.676 1.378,-3.053 3.054,-3.053 1.677,0 3.054,1.377 3.054,3.053 0,1.676 -1.377,3.055 -3.054,3.055 z m 2.904,-11.791 c -0.892,1.305 -0.594,3.129 -3.052,3.129 -1.602,0 -2.385,-1.305 -2.385,-2.496 0,-4.432 6.519,-5.436 6.519,-9.086 0,-2.012 -1.34,-3.203 -3.576,-3.203 -4.767,0 -2.905,4.916 -6.518,4.916 -1.304,0 -2.421,-0.783 -2.421,-2.271 0,-3.65 4.172,-6.891 8.714,-6.891 4.769,0 9.46,2.197 9.46,7.449 10e-4,4.842 -5.55,6.703 -6.741,8.453 z"
       id="path695"
       inkscape:connector-curvature="0"
       style="fill:#333333" /></g><style
     id="style8"
     type="text/css">
      .Border { fill: lightGray; stroke: black; stroke-width: 4; }
      .Label { font-size:24; font-family:Arial; fill:black; }
   </style><style
     id="style8-7"
     type="text/css">
      .Border { fill: lightGray; stroke: black; stroke-width: 4; }
      .Label { font-size:24; font-family:Arial; fill:black; }
   </style><style
     id="style8-3"
     type="text/css">
      .Border { fill: lightGray; stroke: black; stroke-width: 4; }
      .Label { font-size:24; font-family:Arial; fill:black; }
   </style><style
     id="style8-6"
     type="text/css">
      .Border { fill: lightGray; stroke: black; stroke-width: 4; }
      .Label { font-size:24; font-family:Arial; fill:black; }
   </style><style
     type="text/css"
     id="style8-1">
      .Border { fill: lightGray; stroke: black; stroke-width: 4; }
      .Label { font-size:24; font-family:Arial; fill:black; }
   </style><style
     type="text/css"
     id="style8-7-0">
      .Border { fill: lightGray; stroke: black; stroke-width: 4; }
      .Label { font-size:24; font-family:Arial; fill:black; }
   </style><style
     type="text/css"
     id="style8-3-2">
      .Border { fill: lightGray; stroke: black; stroke-width: 4; }
      .Label { font-size:24; font-family:Arial; fill:black; }
   </style><style
     type="text/css"
     id="style8-6-7">
      .Border { fill: lightGray; stroke: black; stroke-width: 4; }
      .Label { font-size:24; font-family:Arial; fill:black; }
   </style><path
     style="fill:#333333;fill-opacity:1;fill-rule:evenodd;stroke:none"
     d=""
     id="path7612"
     inkscape:connector-curvature="0"
     clip-path="url(#clipPath9180)" /><style
     type="text/css"
     id="style8-8">
      .Border { fill: lightGray; stroke: black; stroke-width: 4; }
      .Label { font-size:24; font-family:Arial; fill:black; }
   </style><style
     type="text/css"
     id="style8-7-6">
      .Border { fill: lightGray; stroke: black; stroke-width: 4; }
      .Label { font-size:24; font-family:Arial; fill:black; }
   </style><style
     type="text/css"
     id="style8-3-1">
      .Border { fill: lightGray; stroke: black; stroke-width: 4; }
      .Label { font-size:24; font-family:Arial; fill:black; }
   </style><style
     type="text/css"
     id="style8-6-4">
      .Border { fill: lightGray; stroke: black; stroke-width: 4; }
      .Label { font-size:24; font-family:Arial; fill:black; }
   </style><style
     id="style8-1-7"
     type="text/css">
      .Border { fill: lightGray; stroke: black; stroke-width: 4; }
      .Label { font-size:24; font-family:Arial; fill:black; }
   </style><style
     id="style8-7-0-6"
     type="text/css">
      .Border { fill: lightGray; stroke: black; stroke-width: 4; }
      .Label { font-size:24; font-family:Arial; fill:black; }
   </style><style
     id="style8-3-2-7"
     type="text/css">
      .Border { fill: lightGray; stroke: black; stroke-width: 4; }
      .Label { font-size:24; font-family:Arial; fill:black; }
   </style><style
     id="style8-6-7-0"
     type="text/css">
      .Border { fill: lightGray; stroke: black; stroke-width: 4; }
      .Label { font-size:24; font-family:Arial; fill:black; }
   </style><g
     id="Help-8"
     transform="matrix(7.7083383,0,0,7.7083383,-5055.0777,-5716.7002)"
     clip-path="url(#clipPath9184-5)"><path
       d="m 509.778,597.159 c -12.427,0 -22.5,10.074 -22.5,22.5 0,12.428 10.073,22.5 22.5,22.5 12.427,0 22.5,-10.072 22.5,-22.5 -10e-4,-12.426 -10.073,-22.5 -22.5,-22.5 z m -0.559,36.414 c -1.676,0 -3.054,-1.379 -3.054,-3.055 0,-1.676 1.378,-3.053 3.054,-3.053 1.677,0 3.054,1.377 3.054,3.053 0,1.676 -1.377,3.055 -3.054,3.055 z m 2.904,-11.791 c -0.892,1.305 -0.594,3.129 -3.052,3.129 -1.602,0 -2.385,-1.305 -2.385,-2.496 0,-4.432 6.519,-5.436 6.519,-9.086 0,-2.012 -1.34,-3.203 -3.576,-3.203 -4.767,0 -2.905,4.916 -6.518,4.916 -1.304,0 -2.421,-0.783 -2.421,-2.271 0,-3.65 4.172,-6.891 8.714,-6.891 4.769,0 9.46,2.197 9.46,7.449 10e-4,4.842 -5.55,6.703 -6.741,8.453 z"
       id="path695-3"
       inkscape:connector-curvature="0"
       style="fill:#333333" /></g><path
     style="fill:#333333;fill-opacity:1;fill-rule:evenodd;stroke:none"
     d=""
     id="path7612-7"
     inkscape:connector-curvature="0"
     clip-path="url(#clipPath9180-9)"
     transform="translate(1015.712,-316.99026)" /><path
     style="fill:#333333;fill-opacity:1;fill-rule:evenodd;stroke:none"
     d=""
     id="path4021"
     inkscape:connector-curvature="0" /><path
     style="fill:#333333;fill-opacity:1;fill-rule:evenodd;stroke:none"
     d=""
     id="path4025"
     inkscape:connector-curvature="0" /><g
     id="Notification-4"
     transform="translate(-461.8606,-1888.0725)" /><g
     id="g12829"
     transform="matrix(1.5033897,0,0,1.1430955,13.896026,6.9758043)"
     style="fill:#cccccc"><polygon
       points="6.568,100 5.242,85.721 24.511,85.721 25.837,100 "
       id="rect3074_1_"
       style="fill:#cccccc" /><polygon
       points="64.464,85.721 63.139,100 43.87,100 45.196,85.721 "
       id="rect3074_2_"
       style="fill:#cccccc" /><path
       id="path12821"
       d="m 34.916,0.001 c -0.021,0 -0.042,0 -0.062,0 -0.02,0 -0.04,0 -0.062,0 C 19.221,-0.138 -2.174,8.982 0.043,29.5 L 5.141,84.171 24.308,84.13 19.004,30.724 c -0.344,-9.466 6.577,-12.831 15.608,-13.04 0.08,10e-4 0.16,10e-4 0.24,0 0.081,10e-4 0.161,10e-4 0.241,0 9.031,0.209 15.952,3.574 15.608,13.04 L 45.399,84.13 64.566,84.171 69.664,29.5 C 71.881,8.982 50.486,-0.138 34.916,0.001 Z"
       inkscape:connector-curvature="0"
       style="fill:#cccccc" /></g><g
     transform="translate(-658.8868,-1123.2548)"
     id="zoom-original"
     inkscape:label="#g6809"><g
       transform="matrix(0.996399,0,0,1,95.08523,-222.9354)"
       id="zoom_1_to_1"><use
         xlink:href="#g5796"
         transform="matrix(1,0,0,0.997925,-0.04089,0.477615)"
         x="0"
         y="0"
         id="use5816"
         width="1250"
         height="1250" /></g></g><g
     transform="matrix(0.99218952,0,0,1,-657.5501,-1122.6923)"
     id="zoom-half-size"
     inkscape:label="#g6895"><use
       xlink:href="#g5796"
       height="1250"
       width="1250"
       id="use5818"
       y="0"
       x="0"
       transform="matrix(0.996399,0,0,0.997925,95.044487,-202.45778)" /></g><g
     id="g11074"
     transform="matrix(1,0,0,0.99801946,-634.3868,-1604.0408)" /><g
     id="g11109"
     transform="translate(-634.3868,-1625.117)" /><g
     id="g11198"
     transform="translate(-634.3868,-1625.117)" /><g
     id="g11329"
     transform="translate(-614.3868,-1625.117)" /><g
     id="zoom-fit-selection"
     inkscape:label="#zoom_selection"
     transform="translate(-657.3868,-1605.617)"><g
       transform="translate(0,20)"
       id="g11156"
       inkscape:label="#g11150"><g
         transform="translate(0,19.96825)"
         id="g11158"><g
           transform="matrix(1,0,0,0.99801946,0,21.076212)"
           id="g11160" /></g></g></g><g
     id="g11563"
     inkscape:label="#zoom_select"
     transform="translate(-657.3868,-1565.617)"><g
       inkscape:label="#zoom_selection"
       id="g11565"><g
         inkscape:label="#g11150"
         id="g11567"
         transform="translate(0,20)"><g
           id="g11569"
           transform="translate(0,19.96825)"><g
             id="g11571"
             transform="matrix(1,0,0,0.99801946,0,21.076212)" /></g></g></g></g><g
     id="g11647"
     transform="translate(-571.3868,-1525.117)" /><g
     transform="matrix(-1,0,0,1,-532.3868,-1525.117)"
     id="g11659" /><rect
     style="opacity:0.3;fill:url(#linearGradient19282);fill-opacity:1;stroke:none"
     id="rect19405"
     width="0"
     height="1"
     x="-516.3869"
     y="-1007.7547"
     ry="0" /><g
     id="g39728"
     transform="translate(-634.3868,-1625.117)" /><g
     transform="translate(-1030.0433,-1298.0985)"
     id="g39833" /><use
     transform="translate(-401.4147,-970.2889)"
     x="0"
     y="0"
     id="use5704"
     width="1250"
     height="1250"
     xlink:href="#rect4442" /><g
     style="fill:none"
     transform="matrix(0.90013776,0,0,0.8929798,-752.4306,-1096.73)"
     id="g14408" /><use
     x="0"
     y="0"
     id="use4586"
     transform="matrix(0.692914,0,0,0.70953374,-718.2009,-1270.131)"
     width="1250"
     height="1250"
     xlink:href="#g5772" /><use
     x="0"
     y="0"
     id="use4586-2"
     transform="matrix(0.695835,0,0,0.741921,-734.2067,-1275.5448)"
     width="1250"
     height="1250"
     xlink:href="#g5772" /><use
     transform="matrix(0.695835,0,0,0.741921,-690.2067,-1278.0448)"
     x="0"
     y="0"
     id="use4589"
     width="1250"
     height="1250"
     xlink:href="#g5772" /><use
     transform="matrix(0.62897517,0,0,1.1624311,-615.4476,-1380.2667)"
     x="0"
     y="0"
     id="use4592"
     width="1250"
     height="1250"
     xlink:href="#g5772" /><use
     transform="translate(137.62298,-1251.4531)"
     x="0"
     y="0"
     id="use3738"
     width="1250"
     height="1250"
     xlink:href="#rect10675" /><use
     transform="translate(138.58938,-1234.7306)"
     x="0"
     y="0"
     id="use4635"
     width="1250"
     height="1250"
     xlink:href="#use5758" /><use
     transform="translate(134.57448,-1310.8083)"
     x="0"
     y="0"
     id="use9872"
     width="1250"
     height="1250"
     xlink:href="#g6043" /><use
     height="1250"
     width="1250"
     id="use10185"
     y="0"
     x="0"
     transform="translate(179.60628,-1250.5066)"
     xlink:href="#rect10675" /><use
     transform="translate(167.60628,-1238.5066)"
     x="0"
     y="0"
     id="use10187"
     width="1250"
     height="1250"
     xlink:href="#rect10675" /><use
     transform="translate(153.62303,-1316.8505)"
     x="0"
     y="0"
     id="use9872-0"
     width="1250"
     height="1250"
     xlink:href="#g6043" /><use
     height="1250"
     width="1250"
     id="use10185-8"
     y="0"
     x="0"
     transform="translate(198.65483,-1256.5488)"
     xlink:href="#rect10675" /><use
     transform="translate(186.65483,-1244.5488)"
     x="0"
     y="0"
     id="use10187-8"
     width="1250"
     height="1250"
     xlink:href="#rect10675" /><use
     style="stroke:url(#linearGradient19282);stroke-opacity:1"
     height="1250"
     width="1250"
     transform="matrix(1.1377421,0,0,1.1399698,-53.7099,-1246.8992)"
     id="use5845-6"
     y="0"
     x="0"
     xlink:href="#use5756-0-3" /><use
     style="stroke:url(#linearGradient19282);stroke-opacity:1"
     height="1250"
     width="1250"
     transform="matrix(1.1377421,0,0,1.1399698,-58.7096,-1239.6707)"
     id="use5845-6-1"
     y="0"
     x="0"
     xlink:href="#use5756-0-3" /><use
     style="stroke:url(#linearGradient19282);stroke-opacity:1"
     height="1250"
     width="1250"
     transform="matrix(1.1377421,0,0,1.1399698,-46.1168,-1236.0205)"
     id="use5845-6-1-9"
     y="0"
     x="0"
     xlink:href="#use5756-0-3" /><g
     id="g31444"
     inkscape:label="#zoom_selection"
     transform="translate(-507.3868,-1231.6169)"><g
       transform="translate(0,20)"
       id="g31446"
       inkscape:label="#g11150"><g
         transform="translate(0,19.96825)"
         id="g31448"><g
           transform="matrix(1,0,0,0.99801946,0,21.076212)"
           id="g31450" /></g></g></g><text
     xml:space="preserve"
     style="font-style:normal;font-weight:normal;font-size:40px;line-height:125%;font-family:Sans;letter-spacing:0px;word-spacing:0px;fill:#000000;fill-opacity:1;stroke:none"
     x="-908.3869"
     y="-874.7547"
     id="text19288"
     sodipodi:linespacing="125%"><tspan
       sodipodi:role="line"
       x="-908.3869"
       y="-874.7547"
       id="tspan19292" /></text>
</svg>