<svg xmlns="http://www.w3.org/2000/svg" xml:space="preserve" width="136.533" height="136.533" viewBox="0 0 128 128"><defs><clipPath id="b" clipPathUnits="userSpaceOnUse"><ellipse cx="43.981" cy="52.106" rx="43.981" ry="52.026" style="fill:#a9a9a9;fill-opacity:1;fill-rule:evenodd;stroke:none" transform="matrix(1.39939 0 0 1.19072 3.486 1.058)"/></clipPath><clipPath id="a" clipPathUnits="userSpaceOnUse"><ellipse cx="43.981" cy="52.106" rx="43.981" ry="52.026" style="fill:#a9a9a9;fill-opacity:1;fill-rule:evenodd;stroke:none" transform="matrix(.18154 0 0 .15447 788.014 700.64)"/></clipPath></defs><g clip-path="url(#a)" transform="matrix(7.70834 0 0 7.70834 -6070.79 -5399.71)"><path d="M509.778 597.159c-12.427 0-22.5 10.074-22.5 22.5 0 12.428 10.073 22.5 22.5 22.5s22.5-10.072 22.5-22.5c-.001-12.426-10.073-22.5-22.5-22.5zm-.559 36.414a3.069 3.069 0 0 1-3.054-3.055 3.067 3.067 0 0 1 3.054-3.053 3.066 3.066 0 0 1 3.054 3.053 3.068 3.068 0 0 1-3.054 3.055zm2.904-11.791c-.892 1.305-.594 3.129-3.052 3.129-1.602 0-2.385-1.305-2.385-2.496 0-4.432 6.519-5.436 6.519-9.086 0-2.012-1.34-3.203-3.576-3.203-4.767 0-2.905 4.916-6.518 4.916-1.304 0-2.421-.783-2.421-2.271 0-3.65 4.172-6.891 8.714-6.891 4.769 0 9.46 2.197 9.46 7.449.001 4.842-5.55 6.703-6.741 8.453z" style="fill:#333"/></g><g style="fill:#666;fill-opacity:1"><path d="M48.036 39.89c.51-5.884 3.454-24.014 3.924-24.16.549-.17 22.794 21.633 22.749 22.298-.017.255-5.654 1.388-12.525 2.518-6.872 1.13-12.93 2.186-13.464 2.346-.689.207-.887-.663-.684-3.001zM28.492 62.496c-6.07-6.067-11.111-11.281-11.203-11.586-.207-.69 28.482-7.504 29.016-6.892.487.558-5.764 29.697-6.348 29.589-.236-.044-5.395-5.044-11.465-11.111z" style="fill:#666;fill-opacity:1;fill-rule:evenodd;stroke:none" transform="translate(-3.006 -1.017)"/></g><g style="fill:#666;fill-opacity:1"><path d="M54.695 125.915c-11.499-3.252-16.79-16.337-10.548-26.083 9.213-14.383 31.776-6.41 30.478 10.77-.765 10.118-10.864 17.877-19.93 15.313z" style="fill:#666;fill-opacity:1;fill-rule:evenodd;stroke:none;stroke-width:1.04750836" transform="translate(-7.542 -9.051)"/><path d="M100.236 78.112c-11.5-3.3-16.79-16.578-10.548-26.469 9.213-14.596 31.776-6.505 30.477 10.93-.765 10.267-10.863 18.14-19.93 15.539Z" style="fill:#666;fill-opacity:1;fill-rule:evenodd;stroke:none;stroke-width:1.05521846" transform="translate(-7.542 -9.051)"/><path d="m48.459 118.882-2.475-2.552 30.8-31.992 30.798-31.992 2.702 2.7 2.702 2.7-20.074 20.792C70.26 102 51.31 121.433 51.084 121.433c-.083 0-1.264-1.148-2.625-2.551z" style="fill:#666;fill-opacity:1;fill-rule:evenodd;stroke:none" transform="translate(-7.542 -9.051)"/></g></svg>