<svg xmlns="http://www.w3.org/2000/svg" xml:space="preserve" width="128" height="128"><defs><clipPath id="b" clipPathUnits="userSpaceOnUse"><path d="M87.962 52.106a43.981 52.026 0 1 1-87.962 0 43.981 52.026 0 1 1 87.962 0z" style="fill:#a9a9a9;fill-opacity:1;fill-rule:evenodd;stroke:none" transform="matrix(1.39939 0 0 1.19072 3.486 1.058)"/></clipPath><clipPath id="a" clipPathUnits="userSpaceOnUse"><path d="M87.962 52.106a43.981 52.026 0 1 1-87.962 0 43.981 52.026 0 1 1 87.962 0z" style="fill:#a9a9a9;fill-opacity:1;fill-rule:evenodd;stroke:none" transform="matrix(.18154 0 0 .15447 788.014 700.64)"/></clipPath><clipPath id="c" clipPathUnits="userSpaceOnUse"><path d="M87.962 52.106a43.981 52.026 0 1 1-87.962 0 43.981 52.026 0 1 1 87.962 0z" style="fill:#a9a9a9;fill-opacity:1;fill-rule:evenodd;stroke:none" transform="matrix(.18154 0 0 .15447 788.014 700.64)"/></clipPath><clipPath id="d" clipPathUnits="userSpaceOnUse"><path d="M87.962 52.106a43.981 52.026 0 1 1-87.962 0 43.981 52.026 0 1 1 87.962 0z" style="fill:#a9a9a9;fill-opacity:1;fill-rule:evenodd;stroke:none" transform="matrix(1.39939 0 0 1.19072 3.486 1.058)"/></clipPath><clipPath id="e" clipPathUnits="userSpaceOnUse"><path d="M87.962 52.106a43.981 52.026 0 1 1-87.962 0 43.981 52.026 0 1 1 87.962 0z" style="fill:#a9a9a9;fill-opacity:1;fill-rule:evenodd;stroke:none" transform="matrix(.18154 0 0 .15447 788.014 700.64)"/></clipPath><clipPath id="f" clipPathUnits="userSpaceOnUse"><path d="M87.962 52.106a43.981 52.026 0 1 1-87.962 0 43.981 52.026 0 1 1 87.962 0z" style="fill:#a9a9a9;fill-opacity:1;fill-rule:evenodd;stroke:none" transform="matrix(1.39939 0 0 1.19072 3.486 1.058)"/></clipPath></defs><g clip-path="url(#a)" transform="matrix(7.70834 0 0 7.70834 -6070.79 -5399.71)"><path d="M509.778 597.159c-12.427 0-22.5 10.074-22.5 22.5 0 12.428 10.073 22.5 22.5 22.5s22.5-10.072 22.5-22.5c-.001-12.426-10.073-22.5-22.5-22.5zm-.559 36.414a3.069 3.069 0 0 1-3.054-3.055 3.067 3.067 0 0 1 3.054-3.053 3.066 3.066 0 0 1 3.054 3.053 3.068 3.068 0 0 1-3.054 3.055zm2.904-11.791c-.892 1.305-.594 3.129-3.052 3.129-1.602 0-2.385-1.305-2.385-2.496 0-4.432 6.519-5.436 6.519-9.086 0-2.012-1.34-3.203-3.576-3.203-4.767 0-2.905 4.916-6.518 4.916-1.304 0-2.421-.783-2.421-2.271 0-3.65 4.172-6.891 8.714-6.891 4.769 0 9.46 2.197 9.46 7.449.001 4.842-5.55 6.703-6.741 8.453z" style="fill:#333"/></g><g clip-path="url(#c)" transform="matrix(7.70834 0 0 7.70834 -5968.358 -5293.557)"><path d="M509.778 597.159c-12.427 0-22.5 10.074-22.5 22.5 0 12.428 10.073 22.5 22.5 22.5s22.5-10.072 22.5-22.5c-.001-12.426-10.073-22.5-22.5-22.5zm-.559 36.414a3.069 3.069 0 0 1-3.054-3.055 3.067 3.067 0 0 1 3.054-3.053 3.066 3.066 0 0 1 3.054 3.053 3.068 3.068 0 0 1-3.054 3.055zm2.904-11.791c-.892 1.305-.594 3.129-3.052 3.129-1.602 0-2.385-1.305-2.385-2.496 0-4.432 6.519-5.436 6.519-9.086 0-2.012-1.34-3.203-3.576-3.203-4.767 0-2.905 4.916-6.518 4.916-1.304 0-2.421-.783-2.421-2.271 0-3.65 4.172-6.891 8.714-6.891 4.769 0 9.46 2.197 9.46 7.449.001 4.842-5.55 6.703-6.741 8.453z" style="fill:#333"/></g><g clip-path="url(#e)" transform="matrix(7.70834 0 0 7.70834 -5839.645 -5288.522)"><path d="M509.778 597.159c-12.427 0-22.5 10.074-22.5 22.5 0 12.428 10.073 22.5 22.5 22.5s22.5-10.072 22.5-22.5c-.001-12.426-10.073-22.5-22.5-22.5zm-.559 36.414a3.069 3.069 0 0 1-3.054-3.055 3.067 3.067 0 0 1 3.054-3.053 3.066 3.066 0 0 1 3.054 3.053 3.068 3.068 0 0 1-3.054 3.055zm2.904-11.791c-.892 1.305-.594 3.129-3.052 3.129-1.602 0-2.385-1.305-2.385-2.496 0-4.432 6.519-5.436 6.519-9.086 0-2.012-1.34-3.203-3.576-3.203-4.767 0-2.905 4.916-6.518 4.916-1.304 0-2.421-.783-2.421-2.271 0-3.65 4.172-6.891 8.714-6.891 4.769 0 9.46 2.197 9.46 7.449.001 4.842-5.55 6.703-6.741 8.453z" style="fill:#333"/></g><g style="fill:#666"><path d="M72.224 46.507h-10.99v-10.99a7.327 7.327 0 0 0-14.655 0v10.99H35.59a7.327 7.327 0 0 0 0 14.654h10.99v10.99a7.327 7.327 0 0 0 14.654 0v-10.99h10.99a7.327 7.327 0 0 0 0-14.654z" style="fill:#666"/><path d="M106.854 75.21c1.124 1.123 2.837 2.891 5.14 5.305 2.303 2.414 4.073 4.239 5.309 5.474 4.269 4.266 6.403 9.43 6.403 15.493 0 6.063-2.134 11.255-6.403 15.578-4.27 4.322-9.437 6.483-15.504 6.483-6.18 0-11.403-2.133-15.672-6.4l-15.841-15.83c-5.393 1.685-10.504 2.527-15.335 2.527-13.594 0-25.194-4.8-34.799-14.4-9.606-9.598-14.408-21.19-14.408-34.775 0-13.585 4.802-25.149 14.408-34.692C29.757 10.43 41.357 5.658 54.951 5.658c13.594 0 25.165 4.772 34.715 14.315 9.549 9.543 14.324 21.107 14.324 34.692 0 5.164-.787 10.273-2.36 15.325zM19.731 54.665c0 9.655 3.454 17.935 10.364 24.84 6.909 6.905 15.194 10.357 24.856 10.357S72.87 86.41 79.723 79.505c6.853-6.905 10.28-15.185 10.28-24.84 0-9.656-3.427-17.907-10.28-24.756s-15.11-10.273-24.772-10.273c-9.662 0-17.947 3.424-24.856 10.273-6.91 6.849-10.364 15.1-10.364 24.756z" style="fill:#666"/></g></svg>