<svg xmlns="http://www.w3.org/2000/svg" xmlns:osb="http://www.openswatchbook.org/uri/2009/osb" xmlns:xlink="http://www.w3.org/1999/xlink" xml:space="preserve" width="128" height="128"><defs><clipPath id="b" clipPathUnits="userSpaceOnUse"><path d="M87.962 52.106a43.981 52.026 0 1 1-87.962 0 43.981 52.026 0 1 1 87.962 0z" style="fill:#a9a9a9;fill-opacity:1;fill-rule:evenodd;stroke:none" transform="matrix(1.39939 0 0 1.19072 3.486 1.058)"/></clipPath><clipPath id="a" clipPathUnits="userSpaceOnUse"><path d="M87.962 52.106a43.981 52.026 0 1 1-87.962 0 43.981 52.026 0 1 1 87.962 0z" style="fill:#a9a9a9;fill-opacity:1;fill-rule:evenodd;stroke:none" transform="matrix(.18154 0 0 .15447 788.014 700.64)"/></clipPath><clipPath id="e" clipPathUnits="userSpaceOnUse"><path d="M87.962 52.106a43.981 52.026 0 1 1-87.962 0 43.981 52.026 0 1 1 87.962 0z" style="fill:#a9a9a9;fill-opacity:1;fill-rule:evenodd;stroke:none" transform="matrix(1.39939 0 0 1.19072 3.486 1.058)"/></clipPath><clipPath id="d" clipPathUnits="userSpaceOnUse"><path d="M87.962 52.106a43.981 52.026 0 1 1-87.962 0 43.981 52.026 0 1 1 87.962 0z" style="fill:#a9a9a9;fill-opacity:1;fill-rule:evenodd;stroke:none" transform="matrix(.18154 0 0 .15447 788.014 700.64)"/></clipPath><clipPath id="g" clipPathUnits="userSpaceOnUse"><path d="M87.962 52.106a43.981 52.026 0 1 1-87.962 0 43.981 52.026 0 1 1 87.962 0z" style="fill:#a9a9a9;fill-opacity:1;fill-rule:evenodd;stroke:none" transform="matrix(1.39939 0 0 1.19072 3.486 1.058)"/></clipPath><clipPath id="f" clipPathUnits="userSpaceOnUse"><path d="M87.962 52.106a43.981 52.026 0 1 1-87.962 0 43.981 52.026 0 1 1 87.962 0z" style="fill:#a9a9a9;fill-opacity:1;fill-rule:evenodd;stroke:none" transform="matrix(.18154 0 0 .15447 788.014 700.64)"/></clipPath><linearGradient osb:paint="solid" id="c" gradientTransform="matrix(0 0 0 0 -110556000 -6332354.4)"><stop offset="0" style="stop-color:#666;stop-opacity:1"/></linearGradient></defs><g clip-path="url(#a)" transform="matrix(7.70834 0 0 7.70834 -6070.79 -5399.71)"><path d="M509.778 597.159c-12.427 0-22.5 10.074-22.5 22.5 0 12.428 10.073 22.5 22.5 22.5s22.5-10.072 22.5-22.5c-.001-12.426-10.073-22.5-22.5-22.5zm-.559 36.414a3.069 3.069 0 0 1-3.054-3.055 3.067 3.067 0 0 1 3.054-3.053 3.066 3.066 0 0 1 3.054 3.053 3.068 3.068 0 0 1-3.054 3.055zm2.904-11.791c-.892 1.305-.594 3.129-3.052 3.129-1.602 0-2.385-1.305-2.385-2.496 0-4.432 6.519-5.436 6.519-9.086 0-2.012-1.34-3.203-3.576-3.203-4.767 0-2.905 4.916-6.518 4.916-1.304 0-2.421-.783-2.421-2.271 0-3.65 4.172-6.891 8.714-6.891 4.769 0 9.46 2.197 9.46 7.449.001 4.842-5.55 6.703-6.741 8.453z" style="fill:#333"/></g><use xlink:href="#g5796" width="1250" height="1250" transform="matrix(.9964 0 0 .99792 -1579.554 -1028.722)"/><use xlink:href="#g5796" width="1250" height="1250" transform="matrix(.98862 0 0 .99792 -1578.96 -1008.16)"/><use xlink:href="#rect4442" width="1250" height="1250" transform="translate(-1417.127 -653.299)"/><use xlink:href="#g5772" width="1250" height="1250" transform="matrix(.69291 0 0 .70953 -1733.913 -953.14)"/><use xlink:href="#g5772" width="1250" height="1250" transform="matrix(.69583 0 0 .74192 -1749.919 -958.554)"/><use xlink:href="#g5772" width="1250" height="1250" transform="matrix(.69583 0 0 .74192 -1705.919 -961.054)"/><use xlink:href="#g5772" width="1250" height="1250" transform="matrix(.62898 0 0 1.16243 -1631.16 -1063.276)"/><use xlink:href="#rect10675" width="1250" height="1250" transform="translate(-878.089 -934.463)"/><use xlink:href="#use5758" width="1250" height="1250" transform="translate(-877.123 -917.74)"/><use xlink:href="#g6043" width="1250" height="1250" transform="translate(-881.138 -993.818)"/><use xlink:href="#rect10675" width="1250" height="1250" transform="translate(-836.106 -933.516)"/><use xlink:href="#rect10675" width="1250" height="1250" transform="translate(-848.106 -921.516)"/><use xlink:href="#g6043" width="1250" height="1250" transform="translate(-862.089 -999.86)"/><use xlink:href="#rect10675" width="1250" height="1250" transform="translate(-817.057 -939.558)"/><use xlink:href="#rect10675" width="1250" height="1250" transform="translate(-829.057 -927.558)"/><use xlink:href="#use5756-0-3" width="1250" height="1250" style="stroke:url(#c);stroke-opacity:1" transform="matrix(1.13774 0 0 1.13997 -1069.422 -929.909)"/><use xlink:href="#use5756-0-3" width="1250" height="1250" style="stroke:url(#c);stroke-opacity:1" transform="matrix(1.13774 0 0 1.13997 -1074.422 -922.68)"/><use xlink:href="#use5756-0-3" width="1250" height="1250" style="stroke:url(#c);stroke-opacity:1" transform="matrix(1.13774 0 0 1.13997 -1061.829 -919.03)"/><text xml:space="preserve" x="-1924.099" y="-557.764" style="font-style:normal;font-weight:400;font-size:40px;line-height:125%;font-family:Sans;letter-spacing:0;word-spacing:0;fill:#000;fill-opacity:1;stroke:none"/><path d="M0 0c0 4.837 3.934 8.771 8.77 8.771V.21l5.98-6.607a8.72 8.72 0 0 0-5.98-2.376C3.934-8.773 0-4.836 0 0m8.77 10c-5.517 0-10-4.486-10-10 0-5.517 4.483-10 10-10 5.514 0 10 4.483 10 10 0 5.514-4.486 10-10 10" style="fill:#333;fill-opacity:1;fill-rule:nonzero;stroke:none" transform="matrix(1.25 0 0 -1.25 -2379.586 -143.821)"/><g clip-path="url(#d)" transform="matrix(7.70834 0 0 7.70834 -6173.606 -5196.342)"><path d="M509.778 597.159c-12.427 0-22.5 10.074-22.5 22.5 0 12.428 10.073 22.5 22.5 22.5s22.5-10.072 22.5-22.5c-.001-12.426-10.073-22.5-22.5-22.5zm-.559 36.414a3.069 3.069 0 0 1-3.054-3.055 3.067 3.067 0 0 1 3.054-3.053 3.066 3.066 0 0 1 3.054 3.053 3.068 3.068 0 0 1-3.054 3.055zm2.904-11.791c-.892 1.305-.594 3.129-3.052 3.129-1.602 0-2.385-1.305-2.385-2.496 0-4.432 6.519-5.436 6.519-9.086 0-2.012-1.34-3.203-3.576-3.203-4.767 0-2.905 4.916-6.518 4.916-1.304 0-2.421-.783-2.421-2.271 0-3.65 4.172-6.891 8.714-6.891 4.769 0 9.46 2.197 9.46 7.449.001 4.842-5.55 6.703-6.741 8.453z" style="fill:#333"/></g><g clip-path="url(#f)" transform="matrix(7.70834 0 0 7.70834 -5464.012 -5421.876)"><path d="M509.778 597.159c-12.427 0-22.5 10.074-22.5 22.5 0 12.428 10.073 22.5 22.5 22.5s22.5-10.072 22.5-22.5c-.001-12.426-10.073-22.5-22.5-22.5zm-.559 36.414a3.069 3.069 0 0 1-3.054-3.055 3.067 3.067 0 0 1 3.054-3.053 3.066 3.066 0 0 1 3.054 3.053 3.068 3.068 0 0 1-3.054 3.055zm2.904-11.791c-.892 1.305-.594 3.129-3.052 3.129-1.602 0-2.385-1.305-2.385-2.496 0-4.432 6.519-5.436 6.519-9.086 0-2.012-1.34-3.203-3.576-3.203-4.767 0-2.905 4.916-6.518 4.916-1.304 0-2.421-.783-2.421-2.271 0-3.65 4.172-6.891 8.714-6.891 4.769 0 9.46 2.197 9.46 7.449.001 4.842-5.55 6.703-6.741 8.453z" style="fill:#333"/></g><path d="M343.89 119.993h-27.636c-4.75 0-8.637 3.918-8.637 8.706v12.189c0 4.787 3.887 8.707 8.637 8.707h16.054l9.58 7.92c1.1.91 2.002.481 2.002-.955v-6.965c4.752 0 8.637-3.92 8.637-8.707v-12.189c-.001-4.788-3.885-8.706-8.637-8.706zm-3.254 21h-20.082a2 2 0 0 1 0-4h20.082a2 2 0 0 1 0 4zm0-7h-20.082a2 2 0 0 1 0-4h20.082a2 2 0 0 1 0 4z" style="fill:#666" transform="matrix(2.78502 0 0 2.74276 -855.12 -316.274)"/><use xlink:href="#g5796" width="1250" height="1250" transform="matrix(.9964 0 0 .99792 -972.777 -1050.888)"/><use xlink:href="#g5796" width="1250" height="1250" transform="matrix(.98862 0 0 .99792 -972.182 -1030.326)"/><use xlink:href="#rect4442" width="1250" height="1250" transform="translate(-810.349 -675.464)"/><use xlink:href="#g5772" width="1250" height="1250" transform="matrix(.69291 0 0 .70953 -1127.135 -975.307)"/><use xlink:href="#g5772" width="1250" height="1250" transform="matrix(.69583 0 0 .74192 -1143.141 -980.72)"/><use xlink:href="#g5772" width="1250" height="1250" transform="matrix(.69583 0 0 .74192 -1099.141 -983.22)"/><use xlink:href="#g5772" width="1250" height="1250" transform="matrix(.62898 0 0 1.16243 -1024.382 -1085.442)"/><use xlink:href="#rect10675" width="1250" height="1250" transform="translate(-271.311 -956.629)"/><use xlink:href="#use5758" width="1250" height="1250" transform="translate(-270.345 -939.906)"/><use xlink:href="#g6043" width="1250" height="1250" transform="translate(-274.36 -1015.984)"/><use xlink:href="#rect10675" width="1250" height="1250" transform="translate(-229.328 -955.682)"/><use xlink:href="#rect10675" width="1250" height="1250" transform="translate(-241.328 -943.682)"/><use xlink:href="#g6043" width="1250" height="1250" transform="translate(-255.311 -1022.026)"/><use xlink:href="#rect10675" width="1250" height="1250" transform="translate(-210.28 -961.724)"/><use xlink:href="#rect10675" width="1250" height="1250" transform="translate(-222.28 -949.724)"/><use xlink:href="#use5756-0-3" width="1250" height="1250" style="stroke:url(#c);stroke-opacity:1" transform="matrix(1.13774 0 0 1.13997 -462.644 -952.075)"/><use xlink:href="#use5756-0-3" width="1250" height="1250" style="stroke:url(#c);stroke-opacity:1" transform="matrix(1.13774 0 0 1.13997 -467.644 -944.846)"/><use xlink:href="#use5756-0-3" width="1250" height="1250" style="stroke:url(#c);stroke-opacity:1" transform="matrix(1.13774 0 0 1.13997 -455.051 -941.196)"/><text xml:space="preserve" x="-1317.321" y="-579.93" style="font-style:normal;font-weight:400;font-size:40px;line-height:125%;font-family:Sans;letter-spacing:0;word-spacing:0;fill:#000;fill-opacity:1;stroke:none"/></svg>