<svg xmlns="http://www.w3.org/2000/svg" xml:space="preserve" width="128" height="128"><defs><clipPath id="b" clipPathUnits="userSpaceOnUse"><path d="M87.962 52.106a43.981 52.026 0 1 1-87.962 0 43.981 52.026 0 1 1 87.962 0z" style="fill:#a9a9a9;fill-opacity:1;fill-rule:evenodd;stroke:none" transform="matrix(1.39939 0 0 1.19072 3.486 1.058)"/></clipPath><clipPath id="a" clipPathUnits="userSpaceOnUse"><path d="M87.962 52.106a43.981 52.026 0 1 1-87.962 0 43.981 52.026 0 1 1 87.962 0z" style="fill:#a9a9a9;fill-opacity:1;fill-rule:evenodd;stroke:none" transform="matrix(.18154 0 0 .15447 788.014 700.64)"/></clipPath></defs><g clip-path="url(#a)" transform="matrix(7.70834 0 0 7.70834 -6070.79 -5399.71)"><path d="M509.778 597.159c-12.427 0-22.5 10.074-22.5 22.5 0 12.428 10.073 22.5 22.5 22.5s22.5-10.072 22.5-22.5c-.001-12.426-10.073-22.5-22.5-22.5zm-.559 36.414a3.069 3.069 0 0 1-3.054-3.055 3.067 3.067 0 0 1 3.054-3.053 3.066 3.066 0 0 1 3.054 3.053 3.068 3.068 0 0 1-3.054 3.055zm2.904-11.791c-.892 1.305-.594 3.129-3.052 3.129-1.602 0-2.385-1.305-2.385-2.496 0-4.432 6.519-5.436 6.519-9.086 0-2.012-1.34-3.203-3.576-3.203-4.767 0-2.905 4.916-6.518 4.916-1.304 0-2.421-.783-2.421-2.271 0-3.65 4.172-6.891 8.714-6.891 4.769 0 9.46 2.197 9.46 7.449.001 4.842-5.55 6.703-6.741 8.453z" style="fill:#333"/></g><g style="fill:#666"><path d="M69.884 95.531c4.575-3.735 19.628-14.262 20.06-14.027.505.275.376 31.424-.132 31.855-.195.165-4.936-3.086-10.536-7.226-5.6-4.14-10.58-7.748-11.067-8.018-.628-.35-.143-1.099 1.675-2.584zM38.58 97.145c.12-8.581.344-15.83.499-16.109.35-.629 25.233 15.192 25.166 16.001-.06.739-25.31 16.568-25.64 16.074-.133-.2-.145-7.385-.025-15.966zM77.962 38.115c-8.529-8.857-15.59-16.103-15.692-16.103-.103 0-7.164 7.188-15.693 15.974L31.071 53.961l-1.62-1.56c-1.903-1.83-2.323-2.305-2.244-2.532.032-.092 7.956-8.286 17.61-18.209L62.37 13.618l.952 1.082c.523.595 8.373 8.772 17.444 18.172C89.837 42.27 97.29 50.04 97.328 50.138c.037.097-.816 1.055-1.896 2.128l-1.964 1.951-15.506-16.102z" style="fill:#666;fill-opacity:1;fill-rule:evenodd;stroke:none"/><path d="M92.79 71.285c-5.89-10.312-1.028-22.418 9.692-24.133 15.82-2.53 26.338 18.713 14.206 28.695-7.145 5.88-19.254 3.567-23.898-4.562zM7.662 71.046c-5.89-10.311-1.028-22.417 9.693-24.132 15.82-2.53 26.337 18.712 14.205 28.695-7.144 5.879-19.254 3.567-23.898-4.563z" style="fill:#666;fill-opacity:1;fill-rule:evenodd;stroke:none"/></g></svg>