<svg xmlns="http://www.w3.org/2000/svg" xml:space="preserve" width="136.533" height="136.533" viewBox="0 0 128 128"><defs><clipPath id="b" clipPathUnits="userSpaceOnUse"><ellipse cx="43.981" cy="52.106" rx="43.981" ry="52.026" style="fill:#a9a9a9;fill-opacity:1;fill-rule:evenodd;stroke:none" transform="matrix(1.39939 0 0 1.19072 3.486 1.058)"/></clipPath><clipPath id="a" clipPathUnits="userSpaceOnUse"><ellipse cx="43.981" cy="52.106" rx="43.981" ry="52.026" style="fill:#a9a9a9;fill-opacity:1;fill-rule:evenodd;stroke:none" transform="matrix(.18154 0 0 .15447 788.014 700.64)"/></clipPath></defs><g clip-path="url(#a)" transform="matrix(7.70834 0 0 7.70834 -6070.79 -5399.71)"><path d="M509.778 597.159c-12.427 0-22.5 10.074-22.5 22.5 0 12.428 10.073 22.5 22.5 22.5s22.5-10.072 22.5-22.5c-.001-12.426-10.073-22.5-22.5-22.5zm-.559 36.414a3.069 3.069 0 0 1-3.054-3.055 3.067 3.067 0 0 1 3.054-3.053 3.066 3.066 0 0 1 3.054 3.053 3.068 3.068 0 0 1-3.054 3.055zm2.904-11.791c-.892 1.305-.594 3.129-3.052 3.129-1.602 0-2.385-1.305-2.385-2.496 0-4.432 6.519-5.436 6.519-9.086 0-2.012-1.34-3.203-3.576-3.203-4.767 0-2.905 4.916-6.518 4.916-1.304 0-2.421-.783-2.421-2.271 0-3.65 4.172-6.891 8.714-6.891 4.769 0 9.46 2.197 9.46 7.449.001 4.842-5.55 6.703-6.741 8.453z" style="fill:#333"/></g><g style="fill:#666"><path d="M45.464 86.863c.11-5.906 1.822-24.194 2.28-24.371.536-.208 24.206 20.041 24.206 20.707 0 .256-5.547 1.768-12.326 3.36-6.78 1.593-12.753 3.056-13.274 3.252-.674.253-.93-.601-.886-2.948zM70.433 59.924c-6.467-5.642-11.849-10.503-11.961-10.801-.253-.674 27.909-9.414 28.483-8.84.524.524-3.741 30.019-4.331 29.95-.239-.027-5.725-4.666-12.191-10.309z" style="fill:#666;fill-opacity:1;fill-rule:evenodd;stroke:none" transform="rotate(49.69 29.685 78.857)"/></g><g style="fill:#666;stroke:#666"><g style="fill:#666;stroke:#666" transform="translate(-.865)"><circle cx="24.702" cy="61.631" r="14.834" style="opacity:1;fill:#666;fill-opacity:1;fill-rule:nonzero;stroke:#666;stroke-width:3.74999976;stroke-linecap:round;stroke-linejoin:round;stroke-miterlimit:4;stroke-dasharray:none;stroke-dashoffset:0;stroke-opacity:1"/><circle cx="105.029" cy="61.631" r="14.834" style="opacity:1;fill:#666;fill-opacity:1;fill-rule:nonzero;stroke:#666;stroke-width:3.74999976;stroke-linecap:round;stroke-linejoin:round;stroke-miterlimit:4;stroke-dasharray:none;stroke-dashoffset:0;stroke-opacity:1"/></g><path d="M64.006 30.226 35.25 60.14l-4.063-2.374c-1.902-1.83-2.322-2.305-2.243-2.532 11.686-12.314 20.425-21.06 33.13-33.927.514-.591 2.405-1.127 3.62-.198 11.837 12.083 21.185 21.197 33.37 34.394.038.097-1.253.747-1.895 2.128l-1.761 3.783C84.734 51.174 74.731 40.4 64.006 30.226Z" style="fill:#666;fill-opacity:1;fill-rule:evenodd;stroke:#666;stroke-width:1"/></g></svg>