<svg xmlns="http://www.w3.org/2000/svg" xmlns:osb="http://www.openswatchbook.org/uri/2009/osb" xmlns:xlink="http://www.w3.org/1999/xlink" xml:space="preserve" width="128" height="128"><defs><clipPath id="b" clipPathUnits="userSpaceOnUse"><path d="M87.962 52.106a43.981 52.026 0 1 1-87.962 0 43.981 52.026 0 1 1 87.962 0z" style="fill:#a9a9a9;fill-opacity:1;fill-rule:evenodd;stroke:none" transform="matrix(1.39939 0 0 1.19072 3.486 1.058)"/></clipPath><clipPath id="a" clipPathUnits="userSpaceOnUse"><path d="M87.962 52.106a43.981 52.026 0 1 1-87.962 0 43.981 52.026 0 1 1 87.962 0z" style="fill:#a9a9a9;fill-opacity:1;fill-rule:evenodd;stroke:none" transform="matrix(.18154 0 0 .15447 788.014 700.64)"/></clipPath><clipPath id="d" clipPathUnits="userSpaceOnUse"><path d="M87.962 52.106a43.981 52.026 0 1 1-87.962 0 43.981 52.026 0 1 1 87.962 0z" style="fill:#a9a9a9;fill-opacity:1;fill-rule:evenodd;stroke:none" transform="matrix(1.39939 0 0 1.19072 3.486 1.058)"/></clipPath><clipPath id="c" clipPathUnits="userSpaceOnUse"><path d="M87.962 52.106a43.981 52.026 0 1 1-87.962 0 43.981 52.026 0 1 1 87.962 0z" style="fill:#a9a9a9;fill-opacity:1;fill-rule:evenodd;stroke:none" transform="matrix(.18154 0 0 .15447 788.014 700.64)"/></clipPath><linearGradient osb:paint="solid" id="e" gradientTransform="matrix(0 0 0 0 -110554880 -6332874.8)"><stop offset="0" style="stop-color:#666;stop-opacity:1"/></linearGradient></defs><g clip-path="url(#a)" transform="matrix(7.70834 0 0 7.70834 -6070.79 -5399.71)"><path d="M509.778 597.159c-12.427 0-22.5 10.074-22.5 22.5 0 12.428 10.073 22.5 22.5 22.5s22.5-10.072 22.5-22.5c-.001-12.426-10.073-22.5-22.5-22.5zm-.559 36.414a3.069 3.069 0 0 1-3.054-3.055 3.067 3.067 0 0 1 3.054-3.053 3.066 3.066 0 0 1 3.054 3.053 3.068 3.068 0 0 1-3.054 3.055zm2.904-11.791c-.892 1.305-.594 3.129-3.052 3.129-1.602 0-2.385-1.305-2.385-2.496 0-4.432 6.519-5.436 6.519-9.086 0-2.012-1.34-3.203-3.576-3.203-4.767 0-2.905 4.916-6.518 4.916-1.304 0-2.421-.783-2.421-2.271 0-3.65 4.172-6.891 8.714-6.891 4.769 0 9.46 2.197 9.46 7.449.001 4.842-5.55 6.703-6.741 8.453z" style="fill:#333"/></g><g clip-path="url(#c)" transform="matrix(7.70834 0 0 7.70834 -5055.078 -5716.7)"><path d="M509.778 597.159c-12.427 0-22.5 10.074-22.5 22.5 0 12.428 10.073 22.5 22.5 22.5s22.5-10.072 22.5-22.5c-.001-12.426-10.073-22.5-22.5-22.5zm-.559 36.414a3.069 3.069 0 0 1-3.054-3.055 3.067 3.067 0 0 1 3.054-3.053 3.066 3.066 0 0 1 3.054 3.053 3.068 3.068 0 0 1-3.054 3.055zm2.904-11.791c-.892 1.305-.594 3.129-3.052 3.129-1.602 0-2.385-1.305-2.385-2.496 0-4.432 6.519-5.436 6.519-9.086 0-2.012-1.34-3.203-3.576-3.203-4.767 0-2.905 4.916-6.518 4.916-1.304 0-2.421-.783-2.421-2.271 0-3.65 4.172-6.891 8.714-6.891 4.769 0 9.46 2.197 9.46 7.449.001 4.842-5.55 6.703-6.741 8.453z" style="fill:#333"/></g><g style="fill:#ccc"><path d="M6.568 100 5.242 85.721h19.269L25.837 100zM64.464 85.721 63.139 100H43.87l1.326-14.279zM34.916.001h-.124C19.221-.138-2.174 8.982.043 29.5l5.098 54.671 19.167-.041-5.304-53.406c-.344-9.466 6.577-12.831 15.608-13.04h.481c9.031.209 15.952 3.574 15.608 13.04L45.399 84.13l19.167.041L69.664 29.5C71.881 8.982 50.486-.138 34.916.001Z" style="fill:#ccc" transform="matrix(1.50339 0 0 1.1431 13.896 6.976)"/></g><use xlink:href="#g5796" width="1250" height="1250" transform="matrix(.9964 0 0 .99792 -563.842 -1345.713)"/><use xlink:href="#g5796" width="1250" height="1250" transform="matrix(.98862 0 0 .99792 -563.248 -1325.15)"/><use xlink:href="#rect4442" width="1250" height="1250" transform="translate(-401.415 -970.289)"/><use xlink:href="#g5772" width="1250" height="1250" transform="matrix(.69291 0 0 .70953 -718.2 -1270.131)"/><use xlink:href="#g5772" width="1250" height="1250" transform="matrix(.69583 0 0 .74192 -734.207 -1275.545)"/><use xlink:href="#g5772" width="1250" height="1250" transform="matrix(.69583 0 0 .74192 -690.207 -1278.045)"/><use xlink:href="#g5772" width="1250" height="1250" transform="matrix(.62898 0 0 1.16243 -615.448 -1380.267)"/><use xlink:href="#rect10675" width="1250" height="1250" transform="translate(137.623 -1251.453)"/><use xlink:href="#use5758" width="1250" height="1250" transform="translate(138.59 -1234.73)"/><use xlink:href="#g6043" width="1250" height="1250" transform="translate(134.574 -1310.808)"/><use xlink:href="#rect10675" width="1250" height="1250" transform="translate(179.606 -1250.507)"/><use xlink:href="#rect10675" width="1250" height="1250" transform="translate(167.606 -1238.507)"/><use xlink:href="#g6043" width="1250" height="1250" transform="translate(153.623 -1316.85)"/><use xlink:href="#rect10675" width="1250" height="1250" transform="translate(198.655 -1256.549)"/><use xlink:href="#rect10675" width="1250" height="1250" transform="translate(186.655 -1244.549)"/><use xlink:href="#use5756-0-3" width="1250" height="1250" style="stroke:url(#e);stroke-opacity:1" transform="matrix(1.13774 0 0 1.13997 -53.71 -1246.9)"/><use xlink:href="#use5756-0-3" width="1250" height="1250" style="stroke:url(#e);stroke-opacity:1" transform="matrix(1.13774 0 0 1.13997 -58.71 -1239.67)"/><use xlink:href="#use5756-0-3" width="1250" height="1250" style="stroke:url(#e);stroke-opacity:1" transform="matrix(1.13774 0 0 1.13997 -46.117 -1236.02)"/><text xml:space="preserve" x="-908.387" y="-874.755" style="font-style:normal;font-weight:400;font-size:40px;line-height:125%;font-family:Sans;letter-spacing:0;word-spacing:0;fill:#000;fill-opacity:1;stroke:none"/></svg>