<svg xmlns="http://www.w3.org/2000/svg" xml:space="preserve" width="136.533" height="136.533" viewBox="0 0 128 128"><defs><clipPath id="b" clipPathUnits="userSpaceOnUse"><ellipse cx="43.981" cy="52.106" rx="43.981" ry="52.026" style="fill:#a9a9a9;fill-opacity:1;fill-rule:evenodd;stroke:none" transform="matrix(1.39939 0 0 1.19072 3.486 1.058)"/></clipPath><clipPath id="a" clipPathUnits="userSpaceOnUse"><ellipse cx="43.981" cy="52.106" rx="43.981" ry="52.026" style="fill:#a9a9a9;fill-opacity:1;fill-rule:evenodd;stroke:none" transform="matrix(.18154 0 0 .15447 788.014 700.64)"/></clipPath><clipPath id="c" clipPathUnits="userSpaceOnUse"><ellipse cx="43.981" cy="52.106" rx="43.981" ry="52.026" style="fill:#a9a9a9;fill-opacity:1;fill-rule:evenodd;stroke:none" transform="matrix(.18154 0 0 .15447 788.014 700.64)"/></clipPath><clipPath id="d" clipPathUnits="userSpaceOnUse"><ellipse cx="43.981" cy="52.106" rx="43.981" ry="52.026" style="fill:#a9a9a9;fill-opacity:1;fill-rule:evenodd;stroke:none" transform="matrix(1.39939 0 0 1.19072 3.486 1.058)"/></clipPath><clipPath id="e" clipPathUnits="userSpaceOnUse"><ellipse cx="43.981" cy="52.106" rx="43.981" ry="52.026" style="fill:#a9a9a9;fill-opacity:1;fill-rule:evenodd;stroke:none" transform="matrix(.18154 0 0 .15447 788.014 700.64)"/></clipPath><clipPath id="f" clipPathUnits="userSpaceOnUse"><ellipse cx="43.981" cy="52.106" rx="43.981" ry="52.026" style="fill:#a9a9a9;fill-opacity:1;fill-rule:evenodd;stroke:none" transform="matrix(1.39939 0 0 1.19072 3.486 1.058)"/></clipPath></defs><g clip-path="url(#a)" transform="matrix(7.70834 0 0 7.70834 -6070.79 -5399.71)"><path d="M509.778 597.159c-12.427 0-22.5 10.074-22.5 22.5 0 12.428 10.073 22.5 22.5 22.5s22.5-10.072 22.5-22.5c-.001-12.426-10.073-22.5-22.5-22.5zm-.559 36.414a3.069 3.069 0 0 1-3.054-3.055 3.067 3.067 0 0 1 3.054-3.053 3.066 3.066 0 0 1 3.054 3.053 3.068 3.068 0 0 1-3.054 3.055zm2.904-11.791c-.892 1.305-.594 3.129-3.052 3.129-1.602 0-2.385-1.305-2.385-2.496 0-4.432 6.519-5.436 6.519-9.086 0-2.012-1.34-3.203-3.576-3.203-4.767 0-2.905 4.916-6.518 4.916-1.304 0-2.421-.783-2.421-2.271 0-3.65 4.172-6.891 8.714-6.891 4.769 0 9.46 2.197 9.46 7.449.001 4.842-5.55 6.703-6.741 8.453z" style="fill:#333"/></g><g clip-path="url(#c)" transform="matrix(7.70834 0 0 7.70834 -5968.358 -5293.557)"><path d="M509.778 597.159c-12.427 0-22.5 10.074-22.5 22.5 0 12.428 10.073 22.5 22.5 22.5s22.5-10.072 22.5-22.5c-.001-12.426-10.073-22.5-22.5-22.5zm-.559 36.414a3.069 3.069 0 0 1-3.054-3.055 3.067 3.067 0 0 1 3.054-3.053 3.066 3.066 0 0 1 3.054 3.053 3.068 3.068 0 0 1-3.054 3.055zm2.904-11.791c-.892 1.305-.594 3.129-3.052 3.129-1.602 0-2.385-1.305-2.385-2.496 0-4.432 6.519-5.436 6.519-9.086 0-2.012-1.34-3.203-3.576-3.203-4.767 0-2.905 4.916-6.518 4.916-1.304 0-2.421-.783-2.421-2.271 0-3.65 4.172-6.891 8.714-6.891 4.769 0 9.46 2.197 9.46 7.449.001 4.842-5.55 6.703-6.741 8.453z" style="fill:#333"/></g><g clip-path="url(#e)" transform="matrix(7.70834 0 0 7.70834 -5839.645 -5288.522)"><path d="M509.778 597.159c-12.427 0-22.5 10.074-22.5 22.5 0 12.428 10.073 22.5 22.5 22.5s22.5-10.072 22.5-22.5c-.001-12.426-10.073-22.5-22.5-22.5zm-.559 36.414a3.069 3.069 0 0 1-3.054-3.055 3.067 3.067 0 0 1 3.054-3.053 3.066 3.066 0 0 1 3.054 3.053 3.068 3.068 0 0 1-3.054 3.055zm2.904-11.791c-.892 1.305-.594 3.129-3.052 3.129-1.602 0-2.385-1.305-2.385-2.496 0-4.432 6.519-5.436 6.519-9.086 0-2.012-1.34-3.203-3.576-3.203-4.767 0-2.905 4.916-6.518 4.916-1.304 0-2.421-.783-2.421-2.271 0-3.65 4.172-6.891 8.714-6.891 4.769 0 9.46 2.197 9.46 7.449.001 4.842-5.55 6.703-6.741 8.453z" style="fill:#333"/></g><path d="M34.893 14.033a21.571 21.571 0 0 0-21.62 21.617v67.508a21.571 21.571 0 0 0 21.62 21.617h65.232a21.57 21.57 0 0 0 21.617-21.617V35.65a21.57 21.57 0 0 0-21.617-21.617H34.893zm24.146 5.403c11.237 0 20.802 4.14 28.695 12.42 7.894 8.28 11.84 18.312 11.84 30.1 0 4.48-.649 8.912-1.949 13.296l4.318 4.53c.929.973 2.345 2.508 4.248 4.603a292.985 292.985 0 0 0 4.39 4.748c3.528 3.701 5.292 8.183 5.292 13.443s-1.764 9.766-5.293 13.516-7.802 5.625-12.816 5.625c-5.108 0-9.427-1.851-12.955-5.553L71.715 102.43c-4.458 1.46-8.683 2.191-12.676 2.191-11.237 0-20.826-4.164-28.766-12.492-7.94-8.329-11.91-18.387-11.91-30.174 0-11.787 3.97-21.82 11.91-30.1 7.94-8.28 17.53-12.42 28.766-12.42zm0 12.128c-7.986 0-14.836 2.97-20.547 8.913-5.711 5.942-8.566 13.1-8.566 21.478 0 8.377 2.855 15.562 8.566 21.553 5.711 5.99 12.56 8.986 20.547 8.986 7.986 0 14.812-2.995 20.477-8.986 5.664-5.99 8.498-13.176 8.498-21.553S85.18 46.42 79.516 40.477c-5.665-5.942-12.49-8.913-20.477-8.913zm-.982 10.288a5.734 5.734 0 0 1 5.734 5.734v8.603h8.602a5.734 5.734 0 1 1 0 11.469H63.79v8.604a5.736 5.736 0 0 1-11.47 0v-8.604h-8.602a5.734 5.734 0 1 1 0-11.469h8.601v-8.603a5.738 5.738 0 0 1 5.737-5.734z" style="opacity:1;fill:#666;fill-opacity:1;fill-rule:nonzero;stroke:#666;stroke-width:1;paint-order:markers fill stroke" transform="scale(.9375)"/></svg>