<svg xmlns="http://www.w3.org/2000/svg" xmlns:osb="http://www.openswatchbook.org/uri/2009/osb" xmlns:xlink="http://www.w3.org/1999/xlink" xml:space="preserve" width="128" height="128"><defs><clipPath id="b" clipPathUnits="userSpaceOnUse"><path d="M87.962 52.106a43.981 52.026 0 1 1-87.962 0 43.981 52.026 0 1 1 87.962 0z" style="fill:#a9a9a9;fill-opacity:1;fill-rule:evenodd;stroke:none" transform="matrix(1.39939 0 0 1.19072 3.486 1.058)"/></clipPath><clipPath id="a" clipPathUnits="userSpaceOnUse"><path d="M87.962 52.106a43.981 52.026 0 1 1-87.962 0 43.981 52.026 0 1 1 87.962 0z" style="fill:#a9a9a9;fill-opacity:1;fill-rule:evenodd;stroke:none" transform="matrix(.18154 0 0 .15447 788.014 700.64)"/></clipPath><clipPath id="d" clipPathUnits="userSpaceOnUse"><path d="M87.962 52.106a43.981 52.026 0 1 1-87.962 0 43.981 52.026 0 1 1 87.962 0z" style="fill:#a9a9a9;fill-opacity:1;fill-rule:evenodd;stroke:none" transform="matrix(1.39939 0 0 1.19072 3.486 1.058)"/></clipPath><clipPath id="c" clipPathUnits="userSpaceOnUse"><path d="M87.962 52.106a43.981 52.026 0 1 1-87.962 0 43.981 52.026 0 1 1 87.962 0z" style="fill:#a9a9a9;fill-opacity:1;fill-rule:evenodd;stroke:none" transform="matrix(.18154 0 0 .15447 788.014 700.64)"/></clipPath><linearGradient osb:paint="solid" id="e" gradientTransform="matrix(0 0 0 0 -110555190 -6332783.3)"><stop offset="0" style="stop-color:#666;stop-opacity:1"/></linearGradient></defs><g clip-path="url(#a)" transform="matrix(7.70834 0 0 7.70834 -6070.79 -5399.71)"><path d="M509.778 597.159c-12.427 0-22.5 10.074-22.5 22.5 0 12.428 10.073 22.5 22.5 22.5s22.5-10.072 22.5-22.5c-.001-12.426-10.073-22.5-22.5-22.5zm-.559 36.414a3.069 3.069 0 0 1-3.054-3.055 3.067 3.067 0 0 1 3.054-3.053 3.066 3.066 0 0 1 3.054 3.053 3.068 3.068 0 0 1-3.054 3.055zm2.904-11.791c-.892 1.305-.594 3.129-3.052 3.129-1.602 0-2.385-1.305-2.385-2.496 0-4.432 6.519-5.436 6.519-9.086 0-2.012-1.34-3.203-3.576-3.203-4.767 0-2.905 4.916-6.518 4.916-1.304 0-2.421-.783-2.421-2.271 0-3.65 4.172-6.891 8.714-6.891 4.769 0 9.46 2.197 9.46 7.449.001 4.842-5.55 6.703-6.741 8.453z" style="fill:#333"/></g><g clip-path="url(#c)" transform="matrix(7.70834 0 0 7.70834 -5361.196 -5625.243)"><path d="M509.778 597.159c-12.427 0-22.5 10.074-22.5 22.5 0 12.428 10.073 22.5 22.5 22.5s22.5-10.072 22.5-22.5c-.001-12.426-10.073-22.5-22.5-22.5zm-.559 36.414a3.069 3.069 0 0 1-3.054-3.055 3.067 3.067 0 0 1 3.054-3.053 3.066 3.066 0 0 1 3.054 3.053 3.068 3.068 0 0 1-3.054 3.055zm2.904-11.791c-.892 1.305-.594 3.129-3.052 3.129-1.602 0-2.385-1.305-2.385-2.496 0-4.432 6.519-5.436 6.519-9.086 0-2.012-1.34-3.203-3.576-3.203-4.767 0-2.905 4.916-6.518 4.916-1.304 0-2.421-.783-2.421-2.271 0-3.65 4.172-6.891 8.714-6.891 4.769 0 9.46 2.197 9.46 7.449.001 4.842-5.55 6.703-6.741 8.453z" style="fill:#333"/></g><path d="M343.918 60.58h-27.692c-4.76 0-8.654 3.926-8.654 8.724v12.214c0 4.797 3.895 8.724 8.654 8.724h16.088l9.598 7.937c1.104.912 2.007.482 2.007-.957v-6.979c4.76 0 8.653-3.927 8.653-8.724V69.303c-.001-4.798-3.894-8.723-8.654-8.723z" style="fill:#ccc" transform="matrix(2.7887 0 0 2.50558 -856.343 -131.864)"/><use xlink:href="#g5796" width="1250" height="1250" transform="matrix(.9964 0 0 .99792 -869.96 -1254.256)"/><use xlink:href="#g5796" width="1250" height="1250" transform="matrix(.98862 0 0 .99792 -869.366 -1233.693)"/><use xlink:href="#rect4442" width="1250" height="1250" transform="translate(-707.533 -878.832)"/><use xlink:href="#g5772" width="1250" height="1250" transform="matrix(.69291 0 0 .70953 -1024.319 -1178.674)"/><use xlink:href="#g5772" width="1250" height="1250" transform="matrix(.69583 0 0 .74192 -1040.325 -1184.088)"/><use xlink:href="#g5772" width="1250" height="1250" transform="matrix(.69583 0 0 .74192 -996.325 -1186.588)"/><use xlink:href="#g5772" width="1250" height="1250" transform="matrix(.62898 0 0 1.16243 -921.566 -1288.81)"/><use xlink:href="#rect10675" width="1250" height="1250" transform="translate(-168.495 -1159.996)"/><use xlink:href="#use5758" width="1250" height="1250" transform="translate(-167.529 -1143.274)"/><use xlink:href="#g6043" width="1250" height="1250" transform="translate(-171.544 -1219.351)"/><use xlink:href="#rect10675" width="1250" height="1250" transform="translate(-126.512 -1159.05)"/><use xlink:href="#rect10675" width="1250" height="1250" transform="translate(-138.512 -1147.05)"/><use xlink:href="#g6043" width="1250" height="1250" transform="translate(-152.495 -1225.394)"/><use xlink:href="#rect10675" width="1250" height="1250" transform="translate(-107.463 -1165.092)"/><use xlink:href="#rect10675" width="1250" height="1250" transform="translate(-119.463 -1153.092)"/><use xlink:href="#use5756-0-3" width="1250" height="1250" style="stroke:url(#e);stroke-opacity:1" transform="matrix(1.13774 0 0 1.13997 -359.828 -1155.442)"/><use xlink:href="#use5756-0-3" width="1250" height="1250" style="stroke:url(#e);stroke-opacity:1" transform="matrix(1.13774 0 0 1.13997 -364.828 -1148.214)"/><use xlink:href="#use5756-0-3" width="1250" height="1250" style="stroke:url(#e);stroke-opacity:1" transform="matrix(1.13774 0 0 1.13997 -352.235 -1144.564)"/><text xml:space="preserve" x="-1214.505" y="-783.298" style="font-style:normal;font-weight:400;font-size:40px;line-height:125%;font-family:Sans;letter-spacing:0;word-spacing:0;fill:#000;fill-opacity:1;stroke:none"/></svg>