<?xml version="1.0" encoding="UTF-8" standalone="no"?>
<!--
  - Copyright (c) 2022. Bernard Bou
  -->

<!-- Generator: Adobe Illustrator 14.0.0, SVG Export Plug-In . SVG Version: 6.00 Build 43363)  -->

<svg
   xmlns:dc="http://purl.org/dc/elements/1.1/"
   xmlns:cc="http://creativecommons.org/ns#"
   xmlns:rdf="http://www.w3.org/1999/02/22-rdf-syntax-ns#"
   xmlns:svg="http://www.w3.org/2000/svg"
   xmlns="http://www.w3.org/2000/svg"
   xmlns:sodipodi="http://sodipodi.sourceforge.net/DTD/sodipodi-0.dtd"
   xmlns:inkscape="http://www.inkscape.org/namespaces/inkscape"
   version="1.1"
   x="0px"
   y="0px"
   width="136.53334"
   height="136.53334"
   viewBox="0 0 128 128"
   enable-background="new 0 0 780 650"
   xml:space="preserve"
   id="svg2"
   inkscape:version="0.92.1 r15371"
   sodipodi:docname="toolbar_zoomout.svg"><metadata
     id="metadata1456"><rdf:RDF><cc:Work
         rdf:about=""><dc:format>image/svg+xml</dc:format><dc:type
           rdf:resource="http://purl.org/dc/dcmitype/StillImage" /></cc:Work></rdf:RDF></metadata><defs
     id="defs1454"><clipPath
       clipPathUnits="userSpaceOnUse"
       id="clipPath9180"><ellipse
         style="fill:#a9a9a9;fill-opacity:1;fill-rule:evenodd;stroke:none"
         id="path9182"
         transform="matrix(1.3993902,0,0,1.1907217,3.486295,1.0575123)"
         cx="43.980995"
         cy="52.105968"
         rx="43.980995"
         ry="52.026299" /></clipPath><clipPath
       clipPathUnits="userSpaceOnUse"
       id="clipPath9184"><ellipse
         style="fill:#a9a9a9;fill-opacity:1;fill-rule:evenodd;stroke:none"
         id="path9186"
         transform="matrix(0.1815424,0,0,0.1544719,788.01368,700.63965)"
         cx="43.980995"
         cy="52.105968"
         rx="43.980995"
         ry="52.026299" /></clipPath><clipPath
       id="clipPath9184-1"
       clipPathUnits="userSpaceOnUse"><ellipse
         transform="matrix(0.1815424,0,0,0.1544719,788.01368,700.63965)"
         id="path9186-3"
         style="fill:#a9a9a9;fill-opacity:1;fill-rule:evenodd;stroke:none"
         cx="43.980995"
         cy="52.105968"
         rx="43.980995"
         ry="52.026299" /></clipPath><clipPath
       id="clipPath9180-6"
       clipPathUnits="userSpaceOnUse"><ellipse
         transform="matrix(1.3993902,0,0,1.1907217,3.486295,1.0575123)"
         id="path9182-5"
         style="fill:#a9a9a9;fill-opacity:1;fill-rule:evenodd;stroke:none"
         cx="43.980995"
         cy="52.105968"
         rx="43.980995"
         ry="52.026299" /></clipPath><clipPath
       id="clipPath9184-9"
       clipPathUnits="userSpaceOnUse"><ellipse
         transform="matrix(0.1815424,0,0,0.1544719,788.01368,700.63965)"
         id="path9186-6"
         style="fill:#a9a9a9;fill-opacity:1;fill-rule:evenodd;stroke:none"
         cx="43.980995"
         cy="52.105968"
         rx="43.980995"
         ry="52.026299" /></clipPath><clipPath
       id="clipPath9180-9"
       clipPathUnits="userSpaceOnUse"><ellipse
         transform="matrix(1.3993902,0,0,1.1907217,3.486295,1.0575123)"
         id="path9182-57"
         style="fill:#a9a9a9;fill-opacity:1;fill-rule:evenodd;stroke:none"
         cx="43.980995"
         cy="52.105968"
         rx="43.980995"
         ry="52.026299" /></clipPath><clipPath
       id="clipPath9180-5"
       clipPathUnits="userSpaceOnUse"><ellipse
         ry="52.026299"
         rx="43.980995"
         cy="52.105968"
         cx="43.980995"
         transform="matrix(1.3993902,0,0,1.1907217,3.486295,1.0575123)"
         id="path9182-3"
         style="fill:#a9a9a9;fill-opacity:1;fill-rule:evenodd;stroke:none" /></clipPath><clipPath
       id="clipPath9184-5"
       clipPathUnits="userSpaceOnUse"><ellipse
         ry="52.026299"
         rx="43.980995"
         cy="52.105968"
         cx="43.980995"
         transform="matrix(0.1815424,0,0,0.1544719,788.01368,700.63965)"
         id="path9186-62"
         style="fill:#a9a9a9;fill-opacity:1;fill-rule:evenodd;stroke:none" /></clipPath><clipPath
       clipPathUnits="userSpaceOnUse"
       id="clipPath9184-1-9"><ellipse
         ry="52.026299"
         rx="43.980995"
         cy="52.105968"
         cx="43.980995"
         style="fill:#a9a9a9;fill-opacity:1;fill-rule:evenodd;stroke:none"
         id="path9186-3-1"
         transform="matrix(0.1815424,0,0,0.1544719,788.01368,700.63965)" /></clipPath><clipPath
       clipPathUnits="userSpaceOnUse"
       id="clipPath9180-6-2"><ellipse
         ry="52.026299"
         rx="43.980995"
         cy="52.105968"
         cx="43.980995"
         style="fill:#a9a9a9;fill-opacity:1;fill-rule:evenodd;stroke:none"
         id="path9182-5-7"
         transform="matrix(1.3993902,0,0,1.1907217,3.486295,1.0575123)" /></clipPath><clipPath
       clipPathUnits="userSpaceOnUse"
       id="clipPath9184-9-0"><ellipse
         ry="52.026299"
         rx="43.980995"
         cy="52.105968"
         cx="43.980995"
         style="fill:#a9a9a9;fill-opacity:1;fill-rule:evenodd;stroke:none"
         id="path9186-6-9"
         transform="matrix(0.1815424,0,0,0.1544719,788.01368,700.63965)" /></clipPath><clipPath
       clipPathUnits="userSpaceOnUse"
       id="clipPath9180-9-3"><ellipse
         ry="52.026299"
         rx="43.980995"
         cy="52.105968"
         cx="43.980995"
         style="fill:#a9a9a9;fill-opacity:1;fill-rule:evenodd;stroke:none"
         id="path9182-57-6"
         transform="matrix(1.3993902,0,0,1.1907217,3.486295,1.0575123)" /></clipPath></defs><sodipodi:namedview
     pagecolor="#ffffff"
     bordercolor="#666666"
     borderopacity="1"
     objecttolerance="10"
     gridtolerance="10"
     guidetolerance="10"
     inkscape:pageopacity="0"
     inkscape:pageshadow="2"
     inkscape:window-width="1236"
     inkscape:window-height="848"
     id="namedview1452"
     showgrid="false"
     inkscape:zoom="2.6367187"
     inkscape:cx="51.96157"
     inkscape:cy="20.013588"
     inkscape:window-x="672"
     inkscape:window-y="282"
     inkscape:window-maximized="0"
     inkscape:current-layer="svg2" /><g
     id="Help"
     transform="matrix(7.7083383,0,0,7.7083383,-6070.7897,-5399.7099)"
     clip-path="url(#clipPath9184)"><path
       d="m 509.778,597.159 c -12.427,0 -22.5,10.074 -22.5,22.5 0,12.428 10.073,22.5 22.5,22.5 12.427,0 22.5,-10.072 22.5,-22.5 -10e-4,-12.426 -10.073,-22.5 -22.5,-22.5 z m -0.559,36.414 c -1.676,0 -3.054,-1.379 -3.054,-3.055 0,-1.676 1.378,-3.053 3.054,-3.053 1.677,0 3.054,1.377 3.054,3.053 0,1.676 -1.377,3.055 -3.054,3.055 z m 2.904,-11.791 c -0.892,1.305 -0.594,3.129 -3.052,3.129 -1.602,0 -2.385,-1.305 -2.385,-2.496 0,-4.432 6.519,-5.436 6.519,-9.086 0,-2.012 -1.34,-3.203 -3.576,-3.203 -4.767,0 -2.905,4.916 -6.518,4.916 -1.304,0 -2.421,-0.783 -2.421,-2.271 0,-3.65 4.172,-6.891 8.714,-6.891 4.769,0 9.46,2.197 9.46,7.449 10e-4,4.842 -5.55,6.703 -6.741,8.453 z"
       id="path695"
       inkscape:connector-curvature="0"
       style="fill:#333333" /></g><style
     id="style8"
     type="text/css">
      .Border { fill: lightGray; stroke: black; stroke-width: 4; }
      .Label { font-size:24; font-family:Arial; fill:black; }
   </style><style
     id="style8-7"
     type="text/css">
      .Border { fill: lightGray; stroke: black; stroke-width: 4; }
      .Label { font-size:24; font-family:Arial; fill:black; }
   </style><style
     id="style8-3"
     type="text/css">
      .Border { fill: lightGray; stroke: black; stroke-width: 4; }
      .Label { font-size:24; font-family:Arial; fill:black; }
   </style><style
     id="style8-6"
     type="text/css">
      .Border { fill: lightGray; stroke: black; stroke-width: 4; }
      .Label { font-size:24; font-family:Arial; fill:black; }
   </style><style
     type="text/css"
     id="style8-1">
      .Border { fill: lightGray; stroke: black; stroke-width: 4; }
      .Label { font-size:24; font-family:Arial; fill:black; }
   </style><style
     type="text/css"
     id="style8-7-0">
      .Border { fill: lightGray; stroke: black; stroke-width: 4; }
      .Label { font-size:24; font-family:Arial; fill:black; }
   </style><style
     type="text/css"
     id="style8-3-2">
      .Border { fill: lightGray; stroke: black; stroke-width: 4; }
      .Label { font-size:24; font-family:Arial; fill:black; }
   </style><style
     type="text/css"
     id="style8-6-7">
      .Border { fill: lightGray; stroke: black; stroke-width: 4; }
      .Label { font-size:24; font-family:Arial; fill:black; }
   </style><path
     style="fill:#333333;fill-opacity:1;fill-rule:evenodd;stroke:none"
     d=""
     id="path7612"
     inkscape:connector-curvature="0"
     clip-path="url(#clipPath9180)" /><style
     type="text/css"
     id="style8-5">
      .Border { fill: lightGray; stroke: black; stroke-width: 4; }
      .Label { font-size:24; font-family:Arial; fill:black; }
   </style><style
     type="text/css"
     id="style8-7-2">
      .Border { fill: lightGray; stroke: black; stroke-width: 4; }
      .Label { font-size:24; font-family:Arial; fill:black; }
   </style><style
     type="text/css"
     id="style8-3-7">
      .Border { fill: lightGray; stroke: black; stroke-width: 4; }
      .Label { font-size:24; font-family:Arial; fill:black; }
   </style><style
     type="text/css"
     id="style8-6-3">
      .Border { fill: lightGray; stroke: black; stroke-width: 4; }
      .Label { font-size:24; font-family:Arial; fill:black; }
   </style><style
     id="style8-1-4"
     type="text/css">
      .Border { fill: lightGray; stroke: black; stroke-width: 4; }
      .Label { font-size:24; font-family:Arial; fill:black; }
   </style><style
     id="style8-7-0-5"
     type="text/css">
      .Border { fill: lightGray; stroke: black; stroke-width: 4; }
      .Label { font-size:24; font-family:Arial; fill:black; }
   </style><style
     id="style8-3-2-7"
     type="text/css">
      .Border { fill: lightGray; stroke: black; stroke-width: 4; }
      .Label { font-size:24; font-family:Arial; fill:black; }
   </style><style
     id="style8-6-7-1"
     type="text/css">
      .Border { fill: lightGray; stroke: black; stroke-width: 4; }
      .Label { font-size:24; font-family:Arial; fill:black; }
   </style><g
     id="Help-8"
     transform="matrix(7.7083383,0,0,7.7083383,-5968.358,-5293.5573)"
     clip-path="url(#clipPath9184-1)"><path
       d="m 509.778,597.159 c -12.427,0 -22.5,10.074 -22.5,22.5 0,12.428 10.073,22.5 22.5,22.5 12.427,0 22.5,-10.072 22.5,-22.5 -10e-4,-12.426 -10.073,-22.5 -22.5,-22.5 z m -0.559,36.414 c -1.676,0 -3.054,-1.379 -3.054,-3.055 0,-1.676 1.378,-3.053 3.054,-3.053 1.677,0 3.054,1.377 3.054,3.053 0,1.676 -1.377,3.055 -3.054,3.055 z m 2.904,-11.791 c -0.892,1.305 -0.594,3.129 -3.052,3.129 -1.602,0 -2.385,-1.305 -2.385,-2.496 0,-4.432 6.519,-5.436 6.519,-9.086 0,-2.012 -1.34,-3.203 -3.576,-3.203 -4.767,0 -2.905,4.916 -6.518,4.916 -1.304,0 -2.421,-0.783 -2.421,-2.271 0,-3.65 4.172,-6.891 8.714,-6.891 4.769,0 9.46,2.197 9.46,7.449 10e-4,4.842 -5.55,6.703 -6.741,8.453 z"
       id="path695-4"
       inkscape:connector-curvature="0"
       style="fill:#333333" /></g><path
     style="fill:#333333;fill-opacity:1;fill-rule:evenodd;stroke:none"
     d=""
     id="path7612-5"
     inkscape:connector-curvature="0"
     clip-path="url(#clipPath9180-6)"
     transform="translate(102.43165,106.15259)" /><style
     type="text/css"
     id="style8-59">
      .Border { fill: lightGray; stroke: black; stroke-width: 4; }
      .Label { font-size:24; font-family:Arial; fill:black; }
   </style><style
     type="text/css"
     id="style8-7-7">
      .Border { fill: lightGray; stroke: black; stroke-width: 4; }
      .Label { font-size:24; font-family:Arial; fill:black; }
   </style><style
     type="text/css"
     id="style8-3-1">
      .Border { fill: lightGray; stroke: black; stroke-width: 4; }
      .Label { font-size:24; font-family:Arial; fill:black; }
   </style><style
     type="text/css"
     id="style8-6-74">
      .Border { fill: lightGray; stroke: black; stroke-width: 4; }
      .Label { font-size:24; font-family:Arial; fill:black; }
   </style><style
     id="style8-1-2"
     type="text/css">
      .Border { fill: lightGray; stroke: black; stroke-width: 4; }
      .Label { font-size:24; font-family:Arial; fill:black; }
   </style><style
     id="style8-7-0-0"
     type="text/css">
      .Border { fill: lightGray; stroke: black; stroke-width: 4; }
      .Label { font-size:24; font-family:Arial; fill:black; }
   </style><style
     id="style8-3-2-0"
     type="text/css">
      .Border { fill: lightGray; stroke: black; stroke-width: 4; }
      .Label { font-size:24; font-family:Arial; fill:black; }
   </style><style
     id="style8-6-7-2"
     type="text/css">
      .Border { fill: lightGray; stroke: black; stroke-width: 4; }
      .Label { font-size:24; font-family:Arial; fill:black; }
   </style><g
     id="Help-6"
     transform="matrix(7.7083383,0,0,7.7083383,-5839.6446,-5288.5224)"
     clip-path="url(#clipPath9184-9)"><path
       d="m 509.778,597.159 c -12.427,0 -22.5,10.074 -22.5,22.5 0,12.428 10.073,22.5 22.5,22.5 12.427,0 22.5,-10.072 22.5,-22.5 -10e-4,-12.426 -10.073,-22.5 -22.5,-22.5 z m -0.559,36.414 c -1.676,0 -3.054,-1.379 -3.054,-3.055 0,-1.676 1.378,-3.053 3.054,-3.053 1.677,0 3.054,1.377 3.054,3.053 0,1.676 -1.377,3.055 -3.054,3.055 z m 2.904,-11.791 c -0.892,1.305 -0.594,3.129 -3.052,3.129 -1.602,0 -2.385,-1.305 -2.385,-2.496 0,-4.432 6.519,-5.436 6.519,-9.086 0,-2.012 -1.34,-3.203 -3.576,-3.203 -4.767,0 -2.905,4.916 -6.518,4.916 -1.304,0 -2.421,-0.783 -2.421,-2.271 0,-3.65 4.172,-6.891 8.714,-6.891 4.769,0 9.46,2.197 9.46,7.449 10e-4,4.842 -5.55,6.703 -6.741,8.453 z"
       id="path695-0"
       inkscape:connector-curvature="0"
       style="fill:#333333" /></g><path
     style="fill:#333333;fill-opacity:1;fill-rule:evenodd;stroke:none"
     d=""
     id="path7612-6"
     inkscape:connector-curvature="0"
     clip-path="url(#clipPath9180-9)"
     transform="translate(231.14514,111.18748)" /><style
     type="text/css"
     id="style8-18">
      .Border { fill: lightGray; stroke: black; stroke-width: 4; }
      .Label { font-size:24; font-family:Arial; fill:black; }
   </style><style
     type="text/css"
     id="style8-7-79">
      .Border { fill: lightGray; stroke: black; stroke-width: 4; }
      .Label { font-size:24; font-family:Arial; fill:black; }
   </style><style
     type="text/css"
     id="style8-3-20">
      .Border { fill: lightGray; stroke: black; stroke-width: 4; }
      .Label { font-size:24; font-family:Arial; fill:black; }
   </style><style
     type="text/css"
     id="style8-6-2">
      .Border { fill: lightGray; stroke: black; stroke-width: 4; }
      .Label { font-size:24; font-family:Arial; fill:black; }
   </style><style
     id="style8-1-3"
     type="text/css">
      .Border { fill: lightGray; stroke: black; stroke-width: 4; }
      .Label { font-size:24; font-family:Arial; fill:black; }
   </style><style
     id="style8-7-0-7"
     type="text/css">
      .Border { fill: lightGray; stroke: black; stroke-width: 4; }
      .Label { font-size:24; font-family:Arial; fill:black; }
   </style><style
     id="style8-3-2-5"
     type="text/css">
      .Border { fill: lightGray; stroke: black; stroke-width: 4; }
      .Label { font-size:24; font-family:Arial; fill:black; }
   </style><style
     id="style8-6-7-9"
     type="text/css">
      .Border { fill: lightGray; stroke: black; stroke-width: 4; }
      .Label { font-size:24; font-family:Arial; fill:black; }
   </style><style
     id="style8-5-2"
     type="text/css">
      .Border { fill: lightGray; stroke: black; stroke-width: 4; }
      .Label { font-size:24; font-family:Arial; fill:black; }
   </style><style
     id="style8-7-2-8"
     type="text/css">
      .Border { fill: lightGray; stroke: black; stroke-width: 4; }
      .Label { font-size:24; font-family:Arial; fill:black; }
   </style><style
     id="style8-3-7-9"
     type="text/css">
      .Border { fill: lightGray; stroke: black; stroke-width: 4; }
      .Label { font-size:24; font-family:Arial; fill:black; }
   </style><style
     id="style8-6-3-7"
     type="text/css">
      .Border { fill: lightGray; stroke: black; stroke-width: 4; }
      .Label { font-size:24; font-family:Arial; fill:black; }
   </style><style
     type="text/css"
     id="style8-1-4-3">
      .Border { fill: lightGray; stroke: black; stroke-width: 4; }
      .Label { font-size:24; font-family:Arial; fill:black; }
   </style><style
     type="text/css"
     id="style8-7-0-5-6">
      .Border { fill: lightGray; stroke: black; stroke-width: 4; }
      .Label { font-size:24; font-family:Arial; fill:black; }
   </style><style
     type="text/css"
     id="style8-3-2-7-1">
      .Border { fill: lightGray; stroke: black; stroke-width: 4; }
      .Label { font-size:24; font-family:Arial; fill:black; }
   </style><style
     type="text/css"
     id="style8-6-7-1-2">
      .Border { fill: lightGray; stroke: black; stroke-width: 4; }
      .Label { font-size:24; font-family:Arial; fill:black; }
   </style><style
     id="style8-59-9"
     type="text/css">
      .Border { fill: lightGray; stroke: black; stroke-width: 4; }
      .Label { font-size:24; font-family:Arial; fill:black; }
   </style><style
     id="style8-7-7-4"
     type="text/css">
      .Border { fill: lightGray; stroke: black; stroke-width: 4; }
      .Label { font-size:24; font-family:Arial; fill:black; }
   </style><style
     id="style8-3-1-7"
     type="text/css">
      .Border { fill: lightGray; stroke: black; stroke-width: 4; }
      .Label { font-size:24; font-family:Arial; fill:black; }
   </style><style
     id="style8-6-74-8"
     type="text/css">
      .Border { fill: lightGray; stroke: black; stroke-width: 4; }
      .Label { font-size:24; font-family:Arial; fill:black; }
   </style><style
     type="text/css"
     id="style8-1-2-4">
      .Border { fill: lightGray; stroke: black; stroke-width: 4; }
      .Label { font-size:24; font-family:Arial; fill:black; }
   </style><style
     type="text/css"
     id="style8-7-0-0-5">
      .Border { fill: lightGray; stroke: black; stroke-width: 4; }
      .Label { font-size:24; font-family:Arial; fill:black; }
   </style><style
     type="text/css"
     id="style8-3-2-0-0">
      .Border { fill: lightGray; stroke: black; stroke-width: 4; }
      .Label { font-size:24; font-family:Arial; fill:black; }
   </style><style
     type="text/css"
     id="style8-6-7-2-3">
      .Border { fill: lightGray; stroke: black; stroke-width: 4; }
      .Label { font-size:24; font-family:Arial; fill:black; }
   </style><g
     id="Help-62"
     transform="matrix(7.7083383,0,0,7.7083383,-6068.9179,-5400.2226)"
     clip-path="url(#clipPath9184-5)"><path
       d="m 509.778,597.159 c -12.427,0 -22.5,10.074 -22.5,22.5 0,12.428 10.073,22.5 22.5,22.5 12.427,0 22.5,-10.072 22.5,-22.5 -10e-4,-12.426 -10.073,-22.5 -22.5,-22.5 z m -0.559,36.414 c -1.676,0 -3.054,-1.379 -3.054,-3.055 0,-1.676 1.378,-3.053 3.054,-3.053 1.677,0 3.054,1.377 3.054,3.053 0,1.676 -1.377,3.055 -3.054,3.055 z m 2.904,-11.791 c -0.892,1.305 -0.594,3.129 -3.052,3.129 -1.602,0 -2.385,-1.305 -2.385,-2.496 0,-4.432 6.519,-5.436 6.519,-9.086 0,-2.012 -1.34,-3.203 -3.576,-3.203 -4.767,0 -2.905,4.916 -6.518,4.916 -1.304,0 -2.421,-0.783 -2.421,-2.271 0,-3.65 4.172,-6.891 8.714,-6.891 4.769,0 9.46,2.197 9.46,7.449 10e-4,4.842 -5.55,6.703 -6.741,8.453 z"
       id="path695-6"
       inkscape:connector-curvature="0"
       style="fill:#333333" /></g><path
     style="fill:#333333;fill-opacity:1;fill-rule:evenodd;stroke:none"
     d=""
     id="path7612-2"
     inkscape:connector-curvature="0"
     clip-path="url(#clipPath9180-5)"
     transform="translate(1.8718026,-0.5126885)" /><g
     id="Help-8-9"
     transform="matrix(7.7083383,0,0,7.7083383,-5966.4862,-5294.07)"
     clip-path="url(#clipPath9184-1-9)"><path
       d="m 509.778,597.159 c -12.427,0 -22.5,10.074 -22.5,22.5 0,12.428 10.073,22.5 22.5,22.5 12.427,0 22.5,-10.072 22.5,-22.5 -10e-4,-12.426 -10.073,-22.5 -22.5,-22.5 z m -0.559,36.414 c -1.676,0 -3.054,-1.379 -3.054,-3.055 0,-1.676 1.378,-3.053 3.054,-3.053 1.677,0 3.054,1.377 3.054,3.053 0,1.676 -1.377,3.055 -3.054,3.055 z m 2.904,-11.791 c -0.892,1.305 -0.594,3.129 -3.052,3.129 -1.602,0 -2.385,-1.305 -2.385,-2.496 0,-4.432 6.519,-5.436 6.519,-9.086 0,-2.012 -1.34,-3.203 -3.576,-3.203 -4.767,0 -2.905,4.916 -6.518,4.916 -1.304,0 -2.421,-0.783 -2.421,-2.271 0,-3.65 4.172,-6.891 8.714,-6.891 4.769,0 9.46,2.197 9.46,7.449 10e-4,4.842 -5.55,6.703 -6.741,8.453 z"
       id="path695-4-3"
       inkscape:connector-curvature="0"
       style="fill:#333333" /></g><path
     style="fill:#333333;fill-opacity:1;fill-rule:evenodd;stroke:none"
     d=""
     id="path7612-5-1"
     inkscape:connector-curvature="0"
     clip-path="url(#clipPath9180-6-2)"
     transform="translate(104.30345,105.6399)" /><g
     id="Help-6-6"
     transform="matrix(7.7083383,0,0,7.7083383,-5837.7728,-5289.0351)"
     clip-path="url(#clipPath9184-9-0)"><path
       d="m 509.778,597.159 c -12.427,0 -22.5,10.074 -22.5,22.5 0,12.428 10.073,22.5 22.5,22.5 12.427,0 22.5,-10.072 22.5,-22.5 -10e-4,-12.426 -10.073,-22.5 -22.5,-22.5 z m -0.559,36.414 c -1.676,0 -3.054,-1.379 -3.054,-3.055 0,-1.676 1.378,-3.053 3.054,-3.053 1.677,0 3.054,1.377 3.054,3.053 0,1.676 -1.377,3.055 -3.054,3.055 z m 2.904,-11.791 c -0.892,1.305 -0.594,3.129 -3.052,3.129 -1.602,0 -2.385,-1.305 -2.385,-2.496 0,-4.432 6.519,-5.436 6.519,-9.086 0,-2.012 -1.34,-3.203 -3.576,-3.203 -4.767,0 -2.905,4.916 -6.518,4.916 -1.304,0 -2.421,-0.783 -2.421,-2.271 0,-3.65 4.172,-6.891 8.714,-6.891 4.769,0 9.46,2.197 9.46,7.449 10e-4,4.842 -5.55,6.703 -6.741,8.453 z"
       id="path695-0-1"
       inkscape:connector-curvature="0"
       style="fill:#333333" /></g><path
     style="fill:#333333;fill-opacity:1;fill-rule:evenodd;stroke:none"
     d=""
     id="path7612-6-0"
     inkscape:connector-curvature="0"
     clip-path="url(#clipPath9180-9-3)"
     transform="translate(233.01694,110.67479)" /><path
     style="opacity:1;fill:#666666;fill-opacity:1;fill-rule:nonzero;stroke:#666666;stroke-width:1;paint-order:markers fill stroke"
     d="M 36.888672 13.486328 C 24.912423 13.486328 15.269531 23.127266 15.269531 35.103516 L 15.269531 102.61133 C 15.269531 114.58758 24.912423 124.22852 36.888672 124.22852 L 102.12109 124.22852 C 114.09735 124.22852 123.73828 114.58758 123.73828 102.61133 L 123.73828 35.103516 C 123.73828 23.127266 114.09735 13.486328 102.12109 13.486328 L 36.888672 13.486328 z M 61.035156 18.888672 C 72.271873 18.888672 81.836911 23.028753 89.730469 31.308594 C 97.624035 39.588434 101.57031 49.6216 101.57031 61.408203 C 101.57031 65.889057 100.92122 70.321622 99.621094 74.705078 L 103.93945 79.234375 C 104.8681 80.208467 106.28376 81.743576 108.1875 83.837891 C 110.09123 85.932205 111.55466 87.514429 112.57617 88.585938 C 116.10507 92.287516 117.86914 96.769145 117.86914 102.0293 C 117.86914 107.28943 116.10507 111.79463 112.57617 115.54492 C 109.04729 119.2952 104.7745 121.16992 99.759766 121.16992 C 94.652172 121.16992 90.333573 119.31877 86.804688 115.61719 L 73.710938 101.88281 C 69.2534 103.34395 65.028374 104.07422 61.035156 104.07422 C 49.798453 104.07422 40.209521 99.910576 32.269531 91.582031 C 24.329539 83.253488 20.359375 73.194806 20.359375 61.408203 C 20.359375 49.6216 24.329539 39.588434 32.269531 31.308594 C 40.209521 23.028753 49.798453 18.888672 61.035156 18.888672 z M 61.035156 31.017578 C 53.048736 31.017578 46.199502 33.987683 40.488281 39.929688 C 34.77706 45.871694 31.921875 53.030944 31.921875 61.408203 C 31.921875 69.785453 34.77706 76.970229 40.488281 82.960938 C 46.199502 88.951647 53.048736 91.947266 61.035156 91.947266 C 69.021578 91.947266 75.846929 88.951647 81.511719 82.960938 C 87.176498 76.970229 90.009766 69.785453 90.009766 61.408203 C 90.009766 53.030944 87.176498 45.871694 81.511719 39.929688 C 75.846929 33.987683 69.021578 31.017578 61.035156 31.017578 z M 47.128906 55.707031 L 74.251953 55.707031 C 77.251921 55.707031 79.677734 58.139009 79.677734 61.130859 C 79.677734 64.128118 77.249212 66.556641 74.251953 66.556641 L 47.128906 66.556641 C 44.134357 66.556641 41.703125 64.128118 41.703125 61.130859 C 41.703125 58.13631 44.134357 55.707031 47.128906 55.707031 z "
     transform="scale(0.93749995)"
     id="rect860" /></svg>