<?xml version="1.0" encoding="UTF-8" standalone="no"?>
<svg
   width="66"
   height="350"
   version="1.1"
   id="svg610"
   sodipodi:docname="treebolic-fungi-izpack.svg"
   inkscape:version="1.2.2 (b0a8486541, 2022-12-01)"
   inkscape:export-filename="treebolic-fungi-izpack.png"
   inkscape:export-xdpi="96"
   inkscape:export-ydpi="96"
   xmlns:inkscape="http://www.inkscape.org/namespaces/inkscape"
   xmlns:sodipodi="http://sodipodi.sourceforge.net/DTD/sodipodi-0.dtd"
   xmlns:xlink="http://www.w3.org/1999/xlink"
   xmlns="http://www.w3.org/2000/svg"
   xmlns:svg="http://www.w3.org/2000/svg">
  <sodipodi:namedview
     id="namedview612"
     pagecolor="#505050"
     bordercolor="#ffffff"
     borderopacity="1"
     inkscape:showpageshadow="0"
     inkscape:pageopacity="0"
     inkscape:pagecheckerboard="1"
     inkscape:deskcolor="#505050"
     showgrid="false"
     inkscape:zoom="2.6971429"
     inkscape:cx="34.666314"
     inkscape:cy="147.74894"
     inkscape:window-width="1920"
     inkscape:window-height="1101"
     inkscape:window-x="0"
     inkscape:window-y="0"
     inkscape:window-maximized="1"
     inkscape:current-layer="svg610" />
  <defs
     id="defs558">
    <radialGradient
       xlink:href="#c"
       id="e"
       cx="102.143"
       cy="545.934"
       r="135"
       fx="102.143"
       fy="545.934"
       gradientUnits="userSpaceOnUse" />
    <radialGradient
       xlink:href="#d"
       id="g"
       cx="102.143"
       cy="545.934"
       r="135"
       fx="102.143"
       fy="545.934"
       gradientUnits="userSpaceOnUse" />
    <radialGradient
       xlink:href="#c"
       id="h"
       cx="102.143"
       cy="545.934"
       r="135"
       fx="102.143"
       fy="545.934"
       gradientUnits="userSpaceOnUse" />
    <radialGradient
       xlink:href="#d"
       id="j"
       cx="102.143"
       cy="545.934"
       r="135"
       fx="102.143"
       fy="545.934"
       gradientUnits="userSpaceOnUse" />
    <radialGradient
       xlink:href="#c"
       id="k"
       cx="102.143"
       cy="545.934"
       r="135"
       fx="102.143"
       fy="545.934"
       gradientUnits="userSpaceOnUse" />
    <radialGradient
       xlink:href="#d"
       id="m"
       cx="102.143"
       cy="545.934"
       r="135"
       fx="102.143"
       fy="545.934"
       gradientUnits="userSpaceOnUse" />
    <radialGradient
       xlink:href="#c"
       id="n"
       cx="102.143"
       cy="545.934"
       r="135"
       fx="102.143"
       fy="545.934"
       gradientUnits="userSpaceOnUse" />
    <radialGradient
       xlink:href="#d"
       id="p"
       cx="102.143"
       cy="545.934"
       r="135"
       fx="102.143"
       fy="545.934"
       gradientUnits="userSpaceOnUse" />
    <radialGradient
       xlink:href="#c"
       id="q"
       cx="102.143"
       cy="545.934"
       r="135"
       fx="102.143"
       fy="545.934"
       gradientUnits="userSpaceOnUse" />
    <radialGradient
       xlink:href="#d"
       id="s"
       cx="102.143"
       cy="545.934"
       r="135"
       fx="102.143"
       fy="545.934"
       gradientUnits="userSpaceOnUse" />
    <radialGradient
       xlink:href="#c"
       id="t"
       cx="102.143"
       cy="545.934"
       r="135"
       fx="102.143"
       fy="545.934"
       gradientUnits="userSpaceOnUse" />
    <radialGradient
       xlink:href="#d"
       id="v"
       cx="102.143"
       cy="545.934"
       r="135"
       fx="102.143"
       fy="545.934"
       gradientUnits="userSpaceOnUse" />
    <linearGradient
       id="c">
      <stop
         offset="0"
         style="stop-color:#999;stop-opacity:1"
         id="stop520" />
      <stop
         offset="1"
         style="stop-color:#999;stop-opacity:0"
         id="stop522" />
    </linearGradient>
    <linearGradient
       xlink:href="#a"
       id="f"
       x1="154.286"
       x2="605.714"
       y1="535.219"
       y2="535.219"
       gradientUnits="userSpaceOnUse" />
    <linearGradient
       id="a">
      <stop
         offset="0"
         style="stop-color:#081074;stop-opacity:1"
         id="stop526" />
      <stop
         offset=".5"
         style="stop-color:#5873c2;stop-opacity:1"
         id="stop528" />
      <stop
         offset=".75"
         style="stop-color:#0f99d2;stop-opacity:1"
         id="stop530" />
      <stop
         offset=".938"
         style="stop-color:#1660d4;stop-opacity:.6156863"
         id="stop532" />
      <stop
         offset="1"
         style="stop-color:#414cf6;stop-opacity:.21568628"
         id="stop534" />
    </linearGradient>
    <linearGradient
       id="d">
      <stop
         offset="0"
         style="stop-color:#fff;stop-opacity:1"
         id="stop537" />
      <stop
         offset="1"
         style="stop-color:#fff;stop-opacity:0"
         id="stop539" />
    </linearGradient>
    <linearGradient
       xlink:href="#a"
       id="i"
       x1="154.286"
       x2="605.714"
       y1="535.219"
       y2="535.219"
       gradientUnits="userSpaceOnUse" />
    <linearGradient
       xlink:href="#a"
       id="l"
       x1="154.286"
       x2="605.714"
       y1="535.219"
       y2="535.219"
       gradientUnits="userSpaceOnUse" />
    <linearGradient
       xlink:href="#a"
       id="o"
       x1="154.286"
       x2="605.714"
       y1="535.219"
       y2="535.219"
       gradientUnits="userSpaceOnUse" />
    <linearGradient
       xlink:href="#a"
       id="r"
       x1="154.286"
       x2="605.714"
       y1="535.219"
       y2="535.219"
       gradientUnits="userSpaceOnUse" />
    <linearGradient
       xlink:href="#b"
       id="u"
       x1="154.286"
       x2="605.714"
       y1="535.219"
       y2="535.219"
       gradientUnits="userSpaceOnUse" />
    <linearGradient
       id="b">
      <stop
         offset="0"
         style="stop-color:#770900;stop-opacity:1"
         id="stop547" />
      <stop
         offset=".5"
         style="stop-color:#da101b;stop-opacity:1"
         id="stop549" />
      <stop
         offset=".75"
         style="stop-color:#d2400f;stop-opacity:1"
         id="stop551" />
      <stop
         offset=".938"
         style="stop-color:#d44316;stop-opacity:.614583"
         id="stop553" />
      <stop
         offset="1"
         style="stop-color:#c30000;stop-opacity:.21875"
         id="stop555" />
    </linearGradient>
  </defs>
  <text
     xml:space="preserve"
     x="-266.1279"
     y="69.088226"
     style="font-style:normal;font-variant:normal;font-weight:normal;font-stretch:condensed;font-size:82.0589px;line-height:125%;font-family:Impact;-inkscape-font-specification:'Impact, Condensed';font-variant-ligatures:normal;font-variant-caps:normal;font-variant-numeric:normal;font-variant-east-asian:normal;text-align:start;writing-mode:lr-tb;text-anchor:start;fill:#784421;fill-opacity:1;stroke:#a05a2c;stroke-width:0.806628;stroke-miterlimit:4;stroke-dasharray:none;stroke-opacity:1"
     transform="matrix(-0.00322883,-1.2722531,0.78597269,-0.01356146,0,0)"
     id="text562"><tspan
       sodipodi:role="line"
       id="tspan731"
       x="-266.1279"
       y="69.088226"
       style="stroke-width:0.806628;fill:#784421;stroke:#a05a2c">Fungi</tspan></text>
  <path
     d="M336.616 423.305c-75.373 96.692-165.154 125.4-205.938 124.034"
     style="fill:none;stroke:#0a3f6b;stroke-width:10.62239647;stroke-linecap:butt;stroke-linejoin:miter;stroke-miterlimit:4;stroke-opacity:1;stroke-dasharray:none"
     transform="matrix(.09526 0 0 .09303 -2.156 8.716)"
     id="path568" />
  <path
     d="M498.072 135.483c-208.69 156.277-314.605 192.314-378.927 179.69"
     style="fill:none;stroke:#184086;stroke-width:10.62239647;stroke-linecap:butt;stroke-linejoin:miter;stroke-miterlimit:4;stroke-opacity:1;stroke-dasharray:none"
     transform="matrix(.09526 0 0 .09303 -2.156 8.716)"
     id="path570" />
  <path
     d="M636.463 426.485c-78.013-37.574-145.63-52.283-143.333-287.822-46.099 93.01-77.994 179.166-156.514 287.822-36.96 136.949-19.638 188.76 13.18 216.264"
     style="fill:none;stroke:#053f9d;stroke-width:10.62239647;stroke-linecap:butt;stroke-linejoin:miter;stroke-miterlimit:4;stroke-opacity:1;stroke-dasharray:none"
     transform="matrix(.09526 0 0 .09303 -2.156 8.716)"
     id="path572" />
  <path
     d="M237.143 545.934c0 74.558-60.442 135-135 135-74.559 0-135-60.442-135-135 0-74.559 60.441-135 135-135 74.558 0 135 60.441 135 135z"
     style="fill:url(#e);fill-opacity:1;stroke:none"
     transform="matrix(.02933 -.00905 .01301 .0204 20.938 61.696)"
     id="path574" />
  <path
     d="M605.714 535.22c0 124.658-101.055 225.714-225.714 225.714-124.659 0-225.714-101.056-225.714-225.715 0-124.658 101.055-225.714 225.714-225.714 124.659 0 225.714 101.056 225.714 225.714z"
     style="fill:url(#f);fill-opacity:1;stroke:none"
     transform="matrix(-.01356 -.01405 .0149 -.01278 28.115 80.05)"
     id="path576" />
  <path
     d="M237.143 545.934c0 74.558-60.442 135-135 135-74.559 0-135-60.442-135-135 0-74.559 60.441-135 135-135 74.558 0 135 60.441 135 135z"
     style="opacity:.87614698;fill:url(#g);fill-opacity:1;stroke:none"
     transform="matrix(.02015 0 0 .019 27.773 56.295)"
     id="path578" />
  <path
     d="M237.143 545.934c0 74.558-60.442 135-135 135-74.559 0-135-60.442-135-135 0-74.559 60.441-135 135-135 74.558 0 135 60.441 135 135z"
     style="fill:url(#h);fill-opacity:1;stroke:none"
     transform="matrix(.02933 -.00905 .01301 .0204 48.16 42.317)"
     id="path580" />
  <path
     d="M605.714 535.22c0 124.658-101.055 225.714-225.714 225.714-124.659 0-225.714-101.056-225.714-225.715 0-124.658 101.055-225.714 225.714-225.714 124.659 0 225.714 101.056 225.714 225.714z"
     style="fill:url(#i);fill-opacity:1;stroke:none"
     transform="matrix(-.01356 -.01405 .0149 -.01278 55.337 60.671)"
     id="path582" />
  <path
     d="M237.143 545.934c0 74.558-60.442 135-135 135-74.559 0-135-60.442-135-135 0-74.559 60.441-135 135-135 74.558 0 135 60.441 135 135z"
     style="opacity:.87614698;fill:url(#j);fill-opacity:1;stroke:none"
     transform="matrix(.02015 0 0 .019 54.995 36.915)"
     id="path584" />
  <path
     d="M237.143 545.934c0 74.558-60.442 135-135 135-74.559 0-135-60.442-135-135 0-74.559 60.441-135 135-135 74.558 0 135 60.441 135 135z"
     style="fill:url(#k);fill-opacity:1;stroke:none"
     transform="matrix(.02933 -.00905 .01301 .0204 .292 53.116)"
     id="path586" />
  <path
     d="M605.714 535.22c0 124.658-101.055 225.714-225.714 225.714-124.659 0-225.714-101.056-225.714-225.715 0-124.658 101.055-225.714 225.714-225.714 124.659 0 225.714 101.056 225.714 225.714z"
     style="fill:url(#l);fill-opacity:1;stroke:none"
     transform="matrix(-.01356 -.01405 .0149 -.01278 7.468 71.47)"
     id="path588" />
  <path
     d="M237.143 545.934c0 74.558-60.442 135-135 135-74.559 0-135-60.442-135-135 0-74.559 60.441-135 135-135 74.558 0 135 60.441 135 135z"
     style="opacity:.87614698;fill:url(#m);fill-opacity:1;stroke:none"
     transform="matrix(.02015 0 0 .019 7.126 47.715)"
     id="path590" />
  <path
     d="M237.143 545.934c0 74.558-60.442 135-135 135-74.559 0-135-60.442-135-135 0-74.559 60.441-135 135-135 74.558 0 135 60.441 135 135z"
     style="fill:url(#n);fill-opacity:1;stroke:none"
     transform="matrix(.02933 -.00905 .01301 .0204 19.753 42.169)"
     id="path592" />
  <path
     d="M605.714 535.22c0 124.658-101.055 225.714-225.714 225.714-124.659 0-225.714-101.056-225.714-225.715 0-124.658 101.055-225.714 225.714-225.714 124.659 0 225.714 101.056 225.714 225.714z"
     style="fill:url(#o);fill-opacity:1;stroke:none"
     transform="matrix(-.01356 -.01405 .0149 -.01278 26.93 60.523)"
     id="path594" />
  <path
     d="M237.143 545.934c0 74.558-60.442 135-135 135-74.559 0-135-60.442-135-135 0-74.559 60.441-135 135-135 74.558 0 135 60.441 135 135z"
     style="opacity:.87614698;fill:url(#p);fill-opacity:1;stroke:none"
     transform="matrix(.02015 0 0 .019 26.588 36.767)"
     id="path596" />
  <path
     d="M237.143 545.934c0 74.558-60.442 135-135 135-74.559 0-135-60.442-135-135 0-74.559 60.441-135 135-135 74.558 0 135 60.441 135 135z"
     style="fill:url(#q);fill-opacity:1;stroke:none"
     transform="matrix(.02933 -.00905 .01301 .0204 -1.435 31.073)"
     id="path598" />
  <path
     d="M605.714 535.22c0 124.658-101.055 225.714-225.714 225.714-124.659 0-225.714-101.056-225.714-225.715 0-124.658 101.055-225.714 225.714-225.714 124.659 0 225.714 101.056 225.714 225.714z"
     style="fill:url(#r);fill-opacity:1;stroke:none"
     transform="matrix(-.01356 -.01405 .0149 -.01278 5.742 49.428)"
     id="path600" />
  <path
     d="M237.143 545.934c0 74.558-60.442 135-135 135-74.559 0-135-60.442-135-135 0-74.559 60.441-135 135-135 74.558 0 135 60.441 135 135z"
     style="opacity:.87614698;fill:url(#s);fill-opacity:1;stroke:none"
     transform="matrix(.02015 0 0 .019 5.4 25.672)"
     id="path602" />
  <path
     d="M237.143 545.934c0 74.558-60.442 135-135 135-74.559 0-135-60.442-135-135 0-74.559 60.441-135 135-135 74.558 0 135 60.441 135 135z"
     style="fill:url(#t);fill-opacity:1;stroke:none"
     transform="matrix(.03048 -.0094 .01352 .0212 34.85 13.543)"
     id="path604" />
  <path
     d="M605.714 535.22c0 124.658-101.055 225.714-225.714 225.714-124.659 0-225.714-101.056-225.714-225.715 0-124.658 101.055-225.714 225.714-225.714 124.659 0 225.714 101.056 225.714 225.714z"
     style="fill:url(#u);fill-opacity:1;stroke:none"
     transform="matrix(-.0141 -.0146 .01549 -.01328 42.307 32.616)"
     id="path606" />
  <path
     d="M237.143 545.934c0 74.558-60.442 135-135 135-74.559 0-135-60.442-135-135 0-74.559 60.441-135 135-135 74.558 0 135 60.441 135 135z"
     style="opacity:.87614698;fill:url(#v);fill-opacity:1;stroke:none"
     transform="matrix(.02094 0 0 .01974 41.952 7.93)"
     id="path608" />
</svg>
