<svg xmlns="http://www.w3.org/2000/svg" xml:space="preserve" width="203.691" height="228.155" style="enable-background:new 32.163 68.509 203.691 228.155" viewBox="32.163 68.509 203.691 228.155"><path d="M-5017.124 2215.868c7.865 0 14.241 6.376 14.241 14.241v61.09c0 7.865-6.376 14.24-14.241 14.24-7.864 0-14.24-6.375-14.24-14.24v-61.09c0-7.865 6.376-14.241 14.24-14.241z" style="fill:#a4c639" transform="translate(5119.009 -2008.775)"/><path d="M-5049.635 2142.42c-.047.54-.088 1.086-.088 1.638v92.557c0 9.954 7.879 17.973 17.66 17.973h94.124c9.782 0 17.661-8.019 17.661-17.973v-92.557c0-.552-.02-1.099-.066-1.638h-129.291z" style="fill:#a4c639" transform="translate(5119.009 -2008.775)"/><path d="M-4952.876 2215.868c7.865 0 14.241 6.376 14.241 14.241v61.09c0 7.865-6.376 14.24-14.241 14.24-7.864 0-14.24-6.375-14.24-14.24v-61.09c0-7.865 6.376-14.241 14.24-14.241zM-5072.604 2150.658c7.864 0 14.24 6.376 14.24 14.241v61.09c0 7.865-6.376 14.241-14.24 14.241-7.865 0-14.241-6.376-14.241-14.241v-61.09c-.001-7.865 6.375-14.241 14.241-14.241zM-4897.395 2150.658c7.864 0 14.24 6.376 14.24 14.241v61.09c0 7.865-6.376 14.241-14.24 14.241-7.865 0-14.241-6.376-14.241-14.241v-61.09c0-7.865 6.376-14.241 14.241-14.241zM-5049.219 2136.34c.396-28.429 25.21-51.74 57.062-54.812h14.312c31.854 3.073 56.666 26.384 57.062 54.812h-128.436z" style="fill:#a4c639" transform="translate(5119.009 -2008.775)"/><path d="m-5044.266 2078.784 15.022 26.021M-4925.733 2078.784l-15.023 26.021" style="fill:none;stroke:#a4c639;stroke-width:3;stroke-linecap:round;stroke-linejoin:round" transform="translate(5119.009 -2008.775)"/><path d="M-5004.131 2110.862c.012 3.974-3.277 7.205-7.347 7.216-4.068.011-7.376-3.202-7.388-7.176v-.04c-.011-3.975 3.278-7.205 7.347-7.216 4.068-.011 7.376 3.201 7.388 7.176v.04zM-4949.135 2110.862c.012 3.974-3.277 7.205-7.347 7.216-4.068.011-7.376-3.202-7.388-7.176v-.04c-.011-3.975 3.278-7.205 7.347-7.216 4.068-.011 7.376 3.201 7.388 7.176v.04z" style="fill:#fff" transform="translate(5119.009 -2008.775)"/></svg>