<svg xmlns="http://www.w3.org/2000/svg" xmlns:xlink="http://www.w3.org/1999/xlink" xml:space="preserve" width="512em" height="168em" x="0em" y="0em" overflow="visible" viewBox="-0.26 -0.074 512 168"><path d="M511.48 144.699c0 12.486-10.121 22.612-22.605 22.612H22.61C10.125 167.312 0 157.186 0 144.699V22.61C0 10.125 10.125 0 22.61 0h466.264c12.484 0 22.605 10.125 22.605 22.61v122.089z"/><defs><path id="a" d="M110.844 73.646 87.781 60.331 43.295 34.644c-2.47-1.426-4.931-.562-4.931 2.418v104.651c0 2.234 1.759 3.197 3.905 1.959 2.145-1.24 45.512-26.279 45.512-26.279l23.062-13.314 22.169-12.798c2.601-1.503 2.351-3.563.156-4.745-2.194-1.183-22.324-12.89-22.324-12.89z"/></defs><clipPath id="d"><use xlink:href="#a" overflow="visible"/></clipPath><linearGradient id="b" x1="66.932" x2="66.932" y1="32.211" y2="145.514" gradientUnits="userSpaceOnUse"><stop offset="0" style="stop-color:#257cb0"/><stop offset=".286" style="stop-color:#4a93b5"/><stop offset=".767" style="stop-color:#78bcbb"/><stop offset="1" style="stop-color:#89cfbd"/></linearGradient><path fill="url(#b)" d="M38.365 32.211v113.303l57.134-56.651z" clip-path="url(#d)"/><linearGradient id="e" x1="38.365" x2="110.844" y1="60.331" y2="60.331" gradientUnits="userSpaceOnUse"><stop offset="0" style="stop-color:#52c1ad"/><stop offset="1" style="stop-color:#dee89a"/></linearGradient><path fill="url(#e)" d="M110.844 73.646 87.781 60.331 38.365 31.799v.412l57.134 56.652z" clip-path="url(#d)"/><linearGradient id="f" x1="74.604" x2="74.604" y1="88.863" y2="145.926" gradientUnits="userSpaceOnUse"><stop offset="0" style="stop-color:#ec413d"/><stop offset=".167" style="stop-color:#da4452"/><stop offset=".575" style="stop-color:#b0487a"/><stop offset=".862" style="stop-color:#954a92"/><stop offset="1" style="stop-color:#8a4a9d"/></linearGradient><path fill="url(#f)" d="M38.365 145.514v.412l49.416-28.533 23.062-13.315-15.344-15.215z" clip-path="url(#d)"/><linearGradient id="g" x1="116.35" x2="116.35" y1="73.647" y2="104.078" gradientUnits="userSpaceOnUse"><stop offset="0" style="stop-color:#f58879"/><stop offset=".119" style="stop-color:#f69079"/><stop offset=".713" style="stop-color:#fcb877"/><stop offset="1" style="stop-color:#fec874"/></linearGradient><path fill="url(#g)" d="M110.844 73.646 95.499 88.863l15.344 15.215L137.2 88.862z" clip-path="url(#d)"/><path fill="#F9F9F9" d="M398.058 111.011c-2.146 0-4.104-.396-5.877-1.187-1.773-.792-3.263-2.01-4.466-3.652h-.36c.24 1.924.36 3.748.36 5.471v13.559h-4.988V77.459h4.058l.69 4.51h.24c1.284-1.805 2.778-3.106 4.481-3.908s3.658-1.203 5.861-1.203c4.37 0 7.743 1.494 10.117 4.48 2.375 2.986 3.563 7.176 3.563 12.566 0 5.412-1.208 9.615-3.621 12.614-2.415 2.996-5.767 4.493-10.058 4.493zm-.722-29.914c-3.367 0-5.802.933-7.305 2.796-1.503 1.864-2.275 4.831-2.316 8.9v1.111c0 4.631.772 7.943 2.316 9.938s4.02 2.99 7.425 2.99c2.848 0 5.078-1.151 6.692-3.456 1.612-2.304 2.419-5.481 2.419-9.532 0-4.107-.807-7.261-2.419-9.455-1.613-2.196-3.885-3.292-6.812-3.292zm25.957 29.312h-4.99v-46.78h4.99v46.78zm28.693 0-.993-4.69h-.24c-1.644 2.066-3.282 3.465-4.916 4.194-1.633.733-3.673 1.098-6.117 1.098-3.267 0-5.827-.842-7.682-2.525s-2.781-4.077-2.781-7.185c0-6.653 5.322-10.141 15.964-10.463l5.594-.181v-2.044c0-2.586-.557-4.496-1.67-5.727-1.111-1.234-2.893-1.85-5.336-1.85-2.747 0-5.854.842-9.32 2.525l-1.534-3.818c1.625-.882 3.402-1.573 5.338-2.074a23.107 23.107 0 0 1 5.817-.752c3.928 0 6.839.871 8.734 2.615 1.893 1.744 2.84 4.54 2.84 8.389v22.487h-3.698zm-11.274-3.516c3.105 0 5.545-.852 7.32-2.555 1.772-1.703 2.661-4.089 2.661-7.157v-2.976l-4.993.209c-3.968.143-6.827.757-8.583 1.852-1.753 1.092-2.63 2.791-2.63 5.096 0 1.803.545 3.177 1.639 4.117 1.093.943 2.62 1.414 4.586 1.414zm17.869-29.434h5.35l7.216 18.791c1.583 4.29 2.566 7.386 2.948 9.291h.24c.261-1.024.808-2.771 1.638-5.249.832-2.476 3.554-10.085 8.162-22.833h5.354l-14.162 37.521c-1.402 3.708-3.041 6.339-4.917 7.895-1.873 1.552-4.174 2.327-6.897 2.327-1.524 0-3.027-.17-4.512-.51v-3.998c1.102.24 2.336.361 3.699.361 3.428 0 5.871-1.924 7.336-5.773l1.833-4.689-13.288-33.134zm-152.972 3.062c1.584 1.311 4.892 4.065 4.892 9.306 0 5.097-2.895 7.514-5.79 9.785-.896.895-1.93 1.863-1.93 3.381 0 1.513 1.033 2.341 1.794 2.962l2.482 1.926c3.032 2.551 5.786 4.896 5.786 9.653 0 6.478-6.272 13.023-18.124 13.023-9.995 0-14.817-4.754-14.817-9.857 0-2.48 1.235-5.993 5.307-8.408 4.27-2.619 10.063-2.96 13.163-3.172-.968-1.239-2.068-2.549-2.068-4.682 0-1.17.346-1.86.689-2.691-.761.07-1.518.139-2.208.139-7.303 0-11.438-5.445-11.438-10.818 0-3.171 1.449-6.688 4.409-9.235 3.93-3.239 8.616-3.792 12.341-3.792h14.194l-4.411 2.481h-4.271zm-4.895 30.602c-.551-.072-.897-.072-1.583-.072-.62 0-4.347.141-7.238 1.108-1.516.547-5.928 2.201-5.928 7.097 0 4.891 4.758 8.411 12.133 8.411 6.612 0 10.131-3.177 10.131-7.446 0-3.522-2.275-5.375-7.515-9.098zm2-13.097c1.583-1.587 1.719-3.79 1.719-5.032 0-4.961-2.962-12.68-8.681-12.68-1.794 0-3.722.895-4.825 2.275-1.17 1.447-1.518 3.306-1.518 5.1 0 4.617 2.688 12.268 8.618 12.268 1.723 0 3.58-.827 4.687-1.931zM262.22 110.02c-10.939 0-16.788-8.533-16.788-16.241 0-9.015 7.361-16.718 17.824-16.718 10.11 0 16.441 7.91 16.441 16.238.001 8.116-6.258 16.721-17.477 16.721zm8.6-5.573c1.654-2.204 2.067-4.955 2.067-7.641 0-6.057-2.89-17.615-11.423-17.615-2.27 0-4.54.896-6.191 2.344-2.684 2.405-3.168 5.434-3.168 8.396 0 6.807 3.372 18.02 11.7 18.02 2.683 0 5.436-1.305 7.015-3.504zm-45.895 5.573c-10.941 0-16.791-8.533-16.791-16.241 0-9.015 7.364-16.718 17.824-16.718 10.113 0 16.443 7.91 16.443 16.238.001 8.116-6.259 16.721-17.476 16.721zm8.602-5.573c1.651-2.204 2.065-4.955 2.065-7.641 0-6.057-2.892-17.615-11.425-17.615-2.269 0-4.541.896-6.191 2.344-2.684 2.405-3.165 5.434-3.165 8.396 0 6.807 3.37 18.02 11.699 18.02 2.684 0 5.435-1.305 7.017-3.504zm-30.649 4.494-9.894 2.283c-4.014.624-7.61 1.173-11.413 1.173-19.096 0-26.357-14.044-26.357-25.044 0-13.419 10.306-25.868 27.949-25.868 3.737 0 7.331.552 10.582 1.452 5.188 1.453 7.609 3.25 9.132 4.289l-5.744 5.465-2.42.551 1.729-2.768c-2.351-2.281-6.644-6.5-14.804-6.5-10.931 0-19.165 8.305-19.165 20.41 0 13.002 9.41 25.247 24.488 25.247 4.432 0 6.71-.898 8.787-1.73V96.766l-10.444.553 5.532-2.978h14.667l-1.797 1.729c-.488.417-.555.557-.693 1.105-.072.624-.137 2.632-.137 3.323v8.443z"/><path fill="#F9F9F9" d="M327.474 106.949c-2.284-.208-2.762-.621-2.762-3.322V64.473c.014-.149.023-.302.037-.446.279-2.42.97-2.835 3.117-4.082h-9.896l-5.19 2.491h5.289v.031l-.004-.025v42.709c0 1.381-.273 1.591-1.866 3.664h12.246l2.56-1.518c-1.175-.143-2.353-.21-3.531-.348zm28.15.636c-.753.413-1.509.896-2.262 1.237-2.271 1.03-4.606 1.306-6.671 1.306-2.193 0-5.631-.142-9.138-2.681-4.874-3.438-7.004-9.346-7.004-14.497 0-10.647 8.656-15.868 15.732-15.868 2.474 0 5.019.617 7.08 1.925 3.432 2.263 4.325 5.217 4.803 6.798l-16.141 6.529-5.291.412c1.715 8.725 7.623 13.805 14.152 13.805 3.503 0 6.046-1.234 8.381-2.4l-3.641 3.434zm-6.456-20.476c1.303-.479 1.99-.893 1.99-1.854 0-2.746-3.09-5.908-6.803-5.908-2.751 0-7.9 2.131-7.9 9.549 0 1.168.138 2.404.209 3.645l12.504-5.432zm13.087-9.557v4.533h-.551v-4.533h-1.5v-.47h3.55v.47h-1.499zm6.18 4.533V77.51h-.025l-1.396 4.575h-.431l-1.408-4.575h-.018v4.575h-.5v-5.003h.857l1.274 4.044h.018l1.255-4.044h.869v5.003h-.495z"/><path fill="#F9F9FA" d="M168.954 48.015h-3.438c0-.473-.326-1.812-.978-4.018h-4.963c-.673 2.17-1.01 3.509-1.01 4.018h-3.233c0-.279.836-2.571 2.508-6.875 1.672-4.304 2.508-6.675 2.508-7.111h4.061c0 .408.757 2.744 2.272 7.009s2.273 6.59 2.273 6.977zm-4.963-6.07c-1.225-3.695-1.837-5.693-1.837-5.994h-.172c0 .279-.634 2.277-1.901 5.994h3.91zm18.815 6.07h-2.653c0-.294-.985-1.844-2.954-4.651-2.062-2.958-3.237-4.98-3.523-6.069h-.172c.179 1.568.269 2.986.269 4.254 0 1.769.05 3.925.15 6.467h-2.643c.107-2.22.161-4.658.161-7.315 0-2.614-.054-4.838-.161-6.671h3.19c0 .38.884 1.895 2.653 4.544 1.883 2.814 2.965 4.723 3.244 5.726h.161c-.172-1.597-.258-3.029-.258-4.297 0-1.94-.05-3.932-.15-5.973h2.686c-.101 1.776-.15 4-.15 6.671-.001 2.691.049 5.129.15 7.314zm15.569-7.477c0 2.034-.652 3.81-1.955 5.328-1.304 1.519-3.13 2.277-5.479 2.277-1.06 0-2.521-.043-4.383-.129.093-2.163.14-4.602.14-7.315 0-2.606-.047-4.83-.14-6.671h1.88c.308 0 .766-.011 1.375-.032a45.567 45.567 0 0 1 1.192-.032c2.585 0 4.459.645 5.624 1.934 1.164 1.289 1.746 2.835 1.746 4.64zm-2.932.462c0-1.375-.401-2.533-1.203-3.476-.802-.941-2.027-1.412-3.674-1.412-.308 0-.73.032-1.268.097a90.8 90.8 0 0 1 .107 4.49c0 1.712.036 3.409.107 5.092.465.093.931.14 1.396.14 1.54 0 2.68-.479 3.421-1.435s1.114-2.121 1.114-3.496zm17.289 7.015h-3.18c-.831-2.535-1.468-4.1-1.912-4.694-.444-.595-1.16-.892-2.148-.892-.416 0-.813.004-1.192.011 0 1.841.032 3.699.097 5.575h-2.986c.093-2.163.14-4.602.14-7.315 0-2.606-.047-4.83-.14-6.671h1.858c.215 0 .664-.011 1.348-.032a62.19 62.19 0 0 1 1.896-.032c3.287 0 4.931 1.124 4.931 3.373 0 1.783-.938 3.025-2.814 3.728v.161c.723.2 1.357.765 1.901 1.691.543.927 1.277 2.626 2.201 5.097zm-4.028-9.883c0-1.425-.917-2.138-2.75-2.138-.673 0-1.268.05-1.783.15.079 1.11.118 2.557.118 4.34.394.015.727.021.999.021 2.277.001 3.416-.79 3.416-2.373zm19.426 2.632c0 2.198-.673 4.021-2.02 5.468-1.347 1.446-3.012 2.17-4.995 2.17-1.891 0-3.474-.664-4.748-1.993-1.275-1.328-1.912-3.017-1.912-5.064 0-2.198.673-4.021 2.02-5.468 1.346-1.446 3.011-2.17 4.995-2.17 1.891 0 3.473.662 4.748 1.987 1.275 1.325 1.912 3.014 1.912 5.07zm-2.964.311c0-1.497-.383-2.711-1.149-3.642-.767-.931-1.712-1.396-2.836-1.396-1.046 0-1.934.469-2.664 1.407S217.42 39.567 217.42 41c0 1.489.385 2.701 1.155 3.636s1.713 1.402 2.831 1.402c1.045 0 1.934-.471 2.664-1.413.73-.941 1.096-2.125 1.096-3.55zm9.038 6.94h-3.04c.093-2.22.14-4.658.14-7.315 0-2.614-.047-4.838-.14-6.671h3.04c-.093 1.805-.14 4.028-.14 6.671 0 2.699.047 5.138.14 7.315zm15.57-7.477c0 2.034-.652 3.81-1.955 5.328-1.304 1.519-3.13 2.277-5.479 2.277-1.06 0-2.521-.043-4.383-.129.093-2.163.14-4.602.14-7.315 0-2.606-.047-4.83-.14-6.671h1.88c.308 0 .766-.011 1.375-.032a45.567 45.567 0 0 1 1.192-.032c2.585 0 4.459.645 5.624 1.934 1.164 1.289 1.746 2.835 1.746 4.64zm-2.932.462c0-1.375-.401-2.533-1.203-3.476-.802-.941-2.027-1.412-3.674-1.412-.308 0-.73.032-1.268.097a90.8 90.8 0 0 1 .107 4.49c0 1.712.036 3.409.107 5.092.465.093.931.14 1.396.14 1.54 0 2.68-.479 3.421-1.435s1.114-2.121 1.114-3.496zm23.588 7.015h-3.438c0-.473-.326-1.812-.979-4.018h-4.963c-.673 2.17-1.01 3.509-1.01 4.018h-3.232c0-.279.836-2.571 2.508-6.875s2.508-6.675 2.508-7.111h4.061c0 .408.758 2.744 2.272 7.009s2.273 6.59 2.273 6.977zm-4.963-6.07c-1.225-3.695-1.838-5.693-1.838-5.994h-.172c0 .279-.633 2.277-1.9 5.994h3.91zm17.493-4.254c0 1.712-.636 2.976-1.907 3.792-1.271.816-2.83 1.225-4.678 1.225-.337 0-.576-.007-.72-.021 0 1.347.039 3.122.118 5.328h-3.019c.093-2.069.14-4.508.14-7.315 0-2.578-.047-4.802-.14-6.671h1.869c.265 0 .773-.011 1.525-.032s1.403-.032 1.955-.032c1.36 0 2.51.308 3.448.924s1.409 1.549 1.409 2.802zm-2.771.591c0-1.532-1.017-2.299-3.051-2.299a8.67 8.67 0 0 0-1.611.161c.079 1.354.118 2.886.118 4.598.179.015.387.021.623.021 2.614.001 3.921-.826 3.921-2.481zm15.655-.591c0 1.712-.636 2.976-1.906 3.792-1.271.816-2.831 1.225-4.679 1.225-.337 0-.576-.007-.72-.021 0 1.347.039 3.122.118 5.328h-3.019c.093-2.069.14-4.508.14-7.315 0-2.578-.047-4.802-.14-6.671h1.869c.265 0 .773-.011 1.525-.032s1.403-.032 1.955-.032c1.36 0 2.51.308 3.448.924s1.409 1.549 1.409 2.802zm-2.771.591c0-1.532-1.017-2.299-3.051-2.299a8.67 8.67 0 0 0-1.611.161c.079 1.354.118 2.886.118 4.598.179.015.387.021.623.021 2.614.001 3.921-.826 3.921-2.481zm23.836 2.482c0 2.198-.673 4.021-2.02 5.468s-3.012 2.17-4.995 2.17c-1.891 0-3.474-.664-4.748-1.993-1.274-1.328-1.912-3.017-1.912-5.064 0-2.198.673-4.021 2.02-5.468s3.012-2.17 4.995-2.17c1.891 0 3.474.662 4.748 1.987s1.912 3.014 1.912 5.07zm-2.965.311c0-1.497-.383-2.711-1.149-3.642s-1.712-1.396-2.836-1.396c-1.046 0-1.934.469-2.664 1.407s-1.096 2.123-1.096 3.556c0 1.489.385 2.701 1.155 3.636s1.713 1.402 2.83 1.402c1.046 0 1.934-.471 2.664-1.413.731-.941 1.096-2.125 1.096-3.55zm17.525 6.94h-2.653c0-.294-.984-1.844-2.954-4.651-2.062-2.958-3.237-4.98-3.523-6.069h-.172c.179 1.568.269 2.986.269 4.254 0 1.769.05 3.925.15 6.467h-2.643c.107-2.22.161-4.658.161-7.315 0-2.614-.054-4.838-.161-6.671h3.19c0 .38.885 1.895 2.653 4.544 1.884 2.814 2.965 4.723 3.244 5.726h.161c-.172-1.597-.258-3.029-.258-4.297 0-1.94-.05-3.932-.15-5.973h2.686c-.101 1.776-.15 4-.15 6.671 0 2.691.05 5.129.15 7.314z"/></svg>