<?xml version="1.0" encoding="UTF-8" standalone="no"?>
<!-- Created with Inkscape (http://www.inkscape.org/) -->

<svg
   id="svg2876"
   height="16"
   width="16"
   version="1.1"
   inkscape:version="1.1.2 (0a00cf5339, 2022-02-04)"
   sodipodi:docname="classwithrelation.svg"
   inkscape:export-filename="/home/bbou/Desktop/head.png"
   inkscape:export-xdpi="90"
   inkscape:export-ydpi="90"
   xmlns:inkscape="http://www.inkscape.org/namespaces/inkscape"
   xmlns:sodipodi="http://sodipodi.sourceforge.net/DTD/sodipodi-0.dtd"
   xmlns:xlink="http://www.w3.org/1999/xlink"
   xmlns="http://www.w3.org/2000/svg"
   xmlns:svg="http://www.w3.org/2000/svg"
   xmlns:rdf="http://www.w3.org/1999/02/22-rdf-syntax-ns#"
   xmlns:cc="http://creativecommons.org/ns#"
   xmlns:dc="http://purl.org/dc/elements/1.1/">
  <sodipodi:namedview
     pagecolor="#ffffff"
     bordercolor="#666666"
     borderopacity="1"
     objecttolerance="10"
     gridtolerance="10"
     guidetolerance="10"
     inkscape:pageopacity="0"
     inkscape:pageshadow="2"
     inkscape:window-width="1920"
     inkscape:window-height="1113"
     id="namedview23"
     showgrid="false"
     inkscape:zoom="7.375"
     inkscape:cx="7.9322034"
     inkscape:cy="14.033898"
     inkscape:window-x="0"
     inkscape:window-y="25"
     inkscape:window-maximized="1"
     inkscape:current-layer="svg2876"
     inkscape:pagecheckerboard="0" />
  <defs
     id="defs2878">
    <linearGradient
       y2="12"
       x2="31.5"
       y1="63"
       x1="31.5"
       gradientTransform="matrix(0.69631731,0,0,0.73642635,28.971376,23.90669)"
       gradientUnits="userSpaceOnUse"
       id="linearGradient3843"
       xlink:href="#linearGradient2816"
       inkscape:collect="always" />
    <radialGradient
       r="54.179893"
       fy="65.015877"
       fx="62.984127"
       cy="65.015877"
       cx="62.984127"
       gradientTransform="matrix(0.69631731,0,0,0.73642635,28.332992,17.546143)"
       gradientUnits="userSpaceOnUse"
       id="radialGradient3841"
       xlink:href="#linearGradient2794"
       inkscape:collect="always" />
    <linearGradient
       id="linearGradient2794">
      <stop
         id="stop2796"
         offset="0"
         style="stop-color:#545454;stop-opacity:1" />
      <stop
         id="stop2804"
         offset="0.9464286"
         style="stop-color:#545454;stop-opacity:1" />
      <stop
         id="stop2798"
         offset="1"
         style="stop-color:#c5c5c5;stop-opacity:0" />
    </linearGradient>
    <linearGradient
       id="linearGradient2816">
      <stop
         id="stop2818"
         offset="0"
         style="stop-color:#f07836;stop-opacity:1;" />
      <stop
         id="stop2820"
         offset="1"
         style="stop-color:white;stop-opacity:1" />
    </linearGradient>
  </defs>
  <metadata
     id="metadata2881">
    <rdf:RDF>
      <cc:Work
         rdf:about="">
        <dc:format>image/svg+xml</dc:format>
        <dc:type
           rdf:resource="http://purl.org/dc/dcmitype/StillImage" />
      </cc:Work>
    </rdf:RDF>
  </metadata>
  <g
     transform="matrix(0.18761205,0,0,0.18761205,-5.9205847,-4.60004)"
     id="g3836">
    <path
       inkscape:connector-curvature="0"
       d="m 109.91633,65.425548 a 37.726399,39.899503 0 0 1 -75.452798,0 37.726399,39.899503 0 1 1 75.452798,0 z"
       style="fill:url(#radialGradient3841);fill-opacity:1;fill-rule:nonzero;stroke:none"
       id="path2790" />
    <path
       inkscape:connector-curvature="0"
       d="m 112.34681,67.694316 a 37.726397,39.899501 0 0 1 -75.452794,0 37.726397,39.899501 0 1 1 75.452794,0 z"
       style="fill:#ff6600;fill-opacity:1;fill-rule:nonzero;stroke:#740000;stroke-width:2.6853416;stroke-linecap:butt;stroke-linejoin:round;stroke-miterlimit:4;stroke-opacity:1;stroke-dasharray:none;stroke-dashoffset:0"
       id="path1873" />
    <path
       inkscape:connector-curvature="0"
       d="m 95.469679,51.522678 a 22.282154,18.778872 0 0 1 -44.564308,0 22.282154,18.778872 0 1 1 44.564308,0 z"
       style="fill:url(#linearGradient3843);fill-opacity:1;fill-rule:nonzero;stroke:none"
       id="path2814" />
  </g>
  <g
     id="g976"
     transform="matrix(0.030214,0,0,0.030214,8.7808863,8.3171511)"
     style="stroke-width:8.27431">
    <rect
       id="_x3C_Slice_x3E_-7"
       style="fill:none;stroke-width:8.27431"
       y="0"
       x="0"
       height="256"
       width="256" />
    <g
       id="g833"
       transform="matrix(0.38327386,0,0,0.38327386,24.515866,24.49057)"
       style="fill:#680000;stroke-width:86.354">
	<path
   fill="#304156"
   d="m 436.84,286.167 c -30.836,0 -55.8,24.94 -55.8,55.685 0,30.812 24.964,55.754 55.8,55.754 30.722,0 55.685,-24.941 55.685,-55.754 0,-30.745 -24.963,-55.685 -55.685,-55.685 z"
   id="path825"
   style="fill:#680000;stroke-width:508.144" />

	<path
   fill="#304156"
   d="m 270.017,111.461 c 30.756,0 55.708,-24.94 55.708,-55.742 C 325.725,24.964 300.773,0 270.017,0 c -30.784,0 -55.696,24.964 -55.696,55.719 0,30.802 24.912,55.742 55.696,55.742 z"
   id="path827"
   style="fill:#680000;stroke-width:508.144" />

	<path
   fill="#304156"
   d="m 103.24,286.098 c -30.778,0 -55.713,24.964 -55.713,55.754 0,30.79 24.935,55.685 55.713,55.685 30.732,0 55.696,-24.895 55.696,-55.685 0,-30.79 -24.964,-55.754 -55.696,-55.754 z"
   id="path829"
   style="fill:#680000;stroke-width:508.144" />

	<path
   fill="#304156"
   d="m 436.84,47.763 c -57.101,0 -103.297,46.185 -103.297,103.321 0,9.925 1.45,19.482 4.041,28.602 l -69.139,39.449 -66.52,-37.872 c 2.965,-9.638 4.583,-19.69 4.583,-30.18 C 206.508,93.947 160.219,47.762 103.239,47.762 46.243,47.763 0,93.948 0,151.083 c 0,56.928 46.243,103.159 103.24,103.159 29.5,0 56.099,-12.378 74.908,-32.229 l 68.092,38.85 v 75.6 c -45.621,10.731 -79.439,51.608 -79.439,100.43 0,57.112 46.214,103.24 103.217,103.24 57.044,0 103.194,-46.128 103.194,-103.24 0,-48.96 -34.084,-89.929 -79.773,-100.522 v -77.073 l 67.349,-38.47 c 18.804,20.554 45.886,33.416 76.054,33.416 56.951,0 103.159,-46.231 103.159,-103.159 C 540,93.948 493.792,47.763 436.84,47.763 Z m -333.6,158.982 c -30.778,0 -55.713,-24.94 -55.713,-55.661 0,-30.836 24.935,-55.777 55.713,-55.777 30.732,0 55.696,24.94 55.696,55.777 0,30.72 -24.964,55.661 -55.696,55.661 z m 222.485,230.148 c 0,30.768 -24.952,55.73 -55.708,55.73 -30.784,0 -55.696,-24.963 -55.696,-55.73 0,-30.721 24.912,-55.685 55.696,-55.685 30.756,0 55.708,24.964 55.708,55.685 z M 436.84,206.745 c -30.836,0 -55.8,-24.94 -55.8,-55.661 0,-30.836 24.964,-55.777 55.8,-55.777 30.722,0 55.685,24.94 55.685,55.777 0,30.72 -24.963,55.661 -55.685,55.661 z"
   id="path831"
   style="fill:#680000;stroke-width:508.144" />

</g>
  </g>
</svg>
