<svg xmlns="http://www.w3.org/2000/svg" xmlns:xlink="http://www.w3.org/1999/xlink" width="16" height="16"><defs><linearGradient id="e" x1="121.918" x2="249.582" y1="185.75" y2="185.75" gradientUnits="userSpaceOnUse"><stop offset="0" style="stop-color:#db86b2;stop-opacity:1"/><stop offset="1" style="stop-color:#db86ce;stop-opacity:1"/></linearGradient><linearGradient xlink:href="#a" id="d" x1="31.5" x2="31.5" y1="63" y2="12" gradientTransform="matrix(.69632 0 0 .73643 28.971 23.907)" gradientUnits="userSpaceOnUse"/><linearGradient id="b"><stop offset="0" style="stop-color:#545454;stop-opacity:1"/><stop offset=".946" style="stop-color:#545454;stop-opacity:1"/><stop offset="1" style="stop-color:#c5c5c5;stop-opacity:0"/></linearGradient><linearGradient id="a"><stop offset="0" style="stop-color:#f07836;stop-opacity:1"/><stop offset="1" style="stop-color:white;stop-opacity:1"/></linearGradient><radialGradient xlink:href="#b" id="c" cx="62.984" cy="65.016" r="54.18" fx="62.984" fy="65.016" gradientTransform="matrix(.69632 0 0 .73643 28.333 17.546)" gradientUnits="userSpaceOnUse"/></defs><path d="M109.916 65.426a37.726 39.9 0 0 1-75.452 0 37.726 39.9 0 1 1 75.452 0z" style="fill:url(#c);fill-opacity:1;fill-rule:nonzero;stroke:none" transform="translate(-5.92 -4.6)scale(.18761)"/><path d="M112.347 67.694a37.726 39.9 0 0 1-75.453 0 37.726 39.9 0 1 1 75.453 0z" style="fill:#f60;fill-opacity:1;fill-rule:nonzero;stroke:#740000;stroke-width:2.6853416;stroke-linecap:butt;stroke-linejoin:round;stroke-miterlimit:4;stroke-opacity:1;stroke-dasharray:none;stroke-dashoffset:0" transform="translate(-5.92 -4.6)scale(.18761)"/><path d="M95.47 51.523a22.282 18.779 0 0 1-44.565 0 22.282 18.779 0 1 1 44.565 0z" style="fill:url(#d);fill-opacity:1;fill-rule:nonzero;stroke:none" transform="translate(-5.92 -4.6)scale(.18761)"/><path d="M0 0h256v256H0z" style="fill:none" transform="matrix(.02993 0 0 .02993 8.508 8.576)"/><g stroke="none" style="stroke:#000"><path d="M175.822 131.428v27.528l-19.465-19.466c-4.65-4.65-12.217-4.65-16.868 0a11.849 11.849 0 0 0-3.493 8.435c0 3.186 1.24 6.181 3.493 8.434l19.465 19.465h-27.526c-6.577 0-11.928 5.35-11.928 11.927s5.351 11.927 11.928 11.927h27.527l-19.465 19.467a11.885 11.885 0 0 0-3.488 8.433c0 3.055 1.162 6.108 3.488 8.434a11.848 11.848 0 0 0 8.434 3.494 11.85 11.85 0 0 0 8.434-3.494l19.465-19.464v27.527c0 6.576 5.352 11.927 11.928 11.927 6.576 0 11.928-5.351 11.928-11.927v-27.527l19.465 19.464a11.848 11.848 0 0 0 8.434 3.494 11.85 11.85 0 0 0 8.434-3.494 11.85 11.85 0 0 0 3.493-8.434c0-3.186-1.241-6.181-3.493-8.434l-19.466-19.466h27.528c6.577 0 11.928-5.35 11.928-11.927s-5.351-11.927-11.928-11.927h-27.527l19.465-19.465a11.888 11.888 0 0 0 3.488-8.434 11.89 11.89 0 0 0-3.488-8.435c-4.65-4.65-12.217-4.65-16.867 0l-19.465 19.465v-27.527c0-6.577-5.352-11.928-11.928-11.928-6.576 0-11.93 5.351-11.93 11.928z" style="opacity:.2;stroke:none" transform="translate(2.904 3.004)scale(.05055)"/><path d="M173.822 129.428v27.528l-19.465-19.466c-4.65-4.65-12.217-4.65-16.868 0a11.849 11.849 0 0 0-3.493 8.435c0 3.186 1.24 6.181 3.493 8.434l19.465 19.465h-27.526c-6.577 0-11.928 5.35-11.928 11.927s5.351 11.927 11.928 11.927h27.527l-19.465 19.467a11.885 11.885 0 0 0-3.488 8.433c0 3.055 1.162 6.108 3.488 8.434a11.848 11.848 0 0 0 8.434 3.494 11.85 11.85 0 0 0 8.434-3.494l19.465-19.464v27.527c0 6.576 5.352 11.927 11.928 11.927 6.576 0 11.928-5.351 11.928-11.927v-27.527l19.465 19.464a11.848 11.848 0 0 0 8.434 3.494 11.85 11.85 0 0 0 8.434-3.494 11.85 11.85 0 0 0 3.493-8.434c0-3.186-1.241-6.181-3.493-8.434l-19.466-19.466h27.528c6.577 0 11.928-5.35 11.928-11.927s-5.351-11.927-11.928-11.927h-27.527l19.465-19.465a11.888 11.888 0 0 0 3.488-8.434 11.89 11.89 0 0 0-3.488-8.435c-4.65-4.65-12.217-4.65-16.867 0l-19.465 19.465v-27.527c0-6.577-5.352-11.928-11.928-11.928-6.576 0-11.93 5.351-11.93 11.928z" style="fill:#a133b2;stroke:none" transform="translate(2.904 3.004)scale(.05055)"/><path d="M242.072 178.24h-38.191l27.006-27.006a7.51 7.51 0 0 0-10.621-10.62L193.26 167.62v-38.192a7.51 7.51 0 0 0-7.51-7.51 7.51 7.51 0 0 0-7.51 7.51v38.193l-27.006-27.007a7.51 7.51 0 0 0-10.621 10.62l27.006 27.006h-38.191a7.51 7.51 0 0 0-7.51 7.51 7.509 7.509 0 0 0 7.51 7.51h38.193l-27.008 27.007a7.51 7.51 0 0 0 10.621 10.62l27.006-27.006v38.192a7.51 7.51 0 0 0 7.51 7.509 7.509 7.509 0 0 0 7.51-7.509v-38.192l27.006 27.006a7.51 7.51 0 0 0 10.62-10.62l-27.007-27.007h38.193a7.51 7.51 0 0 0 7.51-7.51 7.509 7.509 0 0 0-7.51-7.51z" style="fill:url(#e);stroke:none" transform="translate(2.904 3.004)scale(.05055)"/><path d="M180.891 129.428v44.593l-31.531-31.532a4.864 4.864 0 0 0-6.872 0 4.833 4.833 0 0 0-1.423 3.437 4.83 4.83 0 0 0 1.423 3.436l31.53 31.53h-44.59a4.865 4.865 0 0 0-4.859 4.859c0 2.68 2.18 4.859 4.859 4.859h44.592l-31.531 31.531a4.864 4.864 0 0 0 0 6.872 4.829 4.829 0 0 0 3.436 1.423 4.83 4.83 0 0 0 3.436-1.423l31.531-31.53v44.591c0 2.68 2.18 4.858 4.859 4.858a4.864 4.864 0 0 0 4.859-4.858v-44.591l31.53 31.53a4.831 4.831 0 0 0 3.437 1.423 4.83 4.83 0 0 0 3.436-1.423 4.828 4.828 0 0 0 1.424-3.437 4.828 4.828 0 0 0-1.424-3.436l-31.531-31.531h44.592c2.68 0 4.859-2.18 4.859-4.859a4.865 4.865 0 0 0-4.859-4.859h-44.59l31.529-31.53a4.863 4.863 0 0 0 0-6.872 4.864 4.864 0 0 0-6.872 0l-31.53 31.53v-44.591c0-2.68-2.18-4.86-4.859-4.86a4.867 4.867 0 0 0-4.861 4.86z" style="fill:#e8b0cc;stroke:none" transform="translate(2.904 3.004)scale(.05055)"/></g></svg>