<svg xmlns="http://www.w3.org/2000/svg" xml:space="preserve" width="64" height="64" version="1.0" viewBox="0 0 256 256"><path d="M0-8.533h256v256H0z" style="fill:none" transform="translate(-4.693 -3.74)"/><g style="stroke-width:2.03844"><path d="M0 0h256v256H0z" style="fill:none;stroke-width:2.03844" transform="translate(60.513 4.531)scale(.49057)"/><g style="stroke-width:1.67961" transform="matrix(2.3815 0 0 2.3815 66.15 9.667)"><ellipse cx="8.154" cy="7.959" rx="7.073" ry="7.14" style="fill:#0038d4;fill-opacity:1;fill-rule:evenodd;stroke:none;stroke-width:1.67961" transform="matrix(3.3933 0 0 3.33171 -3.669 -2.306)"/><path d="m6.577 10.144-3.25-2.666-4.04 1.166L.82 4.73-1.54 1.248l4.197.246L5.24-1.824l1.063 4.068 3.953 1.43-3.54 2.268Z" style="fill:#fff;fill-opacity:1;stroke:none;stroke-width:1.67961" transform="matrix(3.32834 -.66176 .66075 3.33345 8.079 13.366)"/></g></g><g style="stroke-width:2.03844"><path d="M0 0h256v256H0z" style="fill:none;stroke-width:2.03844" transform="translate(4.513 116.531)scale(.49057)"/><g style="stroke-width:1.67961" transform="matrix(2.3815 0 0 2.3815 10.15 121.667)"><ellipse cx="8.154" cy="7.959" rx="7.073" ry="7.14" style="fill:#0038d4;fill-opacity:1;fill-rule:evenodd;stroke:none;stroke-width:1.67961" transform="matrix(3.3933 0 0 3.33171 -3.669 -2.306)"/><path d="m6.577 10.144-3.25-2.666-4.04 1.166L.82 4.73-1.54 1.248l4.197.246L5.24-1.824l1.063 4.068 3.953 1.43-3.54 2.268Z" style="fill:#fff;fill-opacity:1;stroke:none;stroke-width:1.67961" transform="matrix(3.32834 -.66176 .66075 3.33345 8.079 13.366)"/></g></g><g style="stroke-width:2.03844"><path d="M0 0h256v256H0z" style="fill:none;stroke-width:2.03844" transform="translate(124.513 116.531)scale(.49057)"/><g style="stroke-width:1.67961" transform="matrix(2.3815 0 0 2.3815 130.15 121.667)"><ellipse cx="8.154" cy="7.959" rx="7.073" ry="7.14" style="fill:#0038d4;fill-opacity:1;fill-rule:evenodd;stroke:none;stroke-width:1.67961" transform="matrix(3.3933 0 0 3.33171 -3.669 -2.306)"/><path d="m6.577 10.144-3.25-2.666-4.04 1.166L.82 4.73-1.54 1.248l4.197.246L5.24-1.824l1.063 4.068 3.953 1.43-3.54 2.268Z" style="fill:#fff;fill-opacity:1;stroke:none;stroke-width:1.67961" transform="matrix(3.32834 -.66176 .66075 3.33345 8.079 13.366)"/></g></g></svg>