<svg xmlns="http://www.w3.org/2000/svg" xml:space="preserve" width="64" height="64" version="1.0" viewBox="0 0 256 256"><defs><linearGradient id="c" x1="121.918" x2="249.582" y1="185.75" y2="185.75" gradientUnits="userSpaceOnUse"><stop offset="0" style="stop-color:#db86c2;stop-opacity:1"/><stop offset="1" style="stop-color:#d686db;stop-opacity:1"/></linearGradient><linearGradient id="b" x1="-228" x2="-228" y1="11" y2="245" gradientTransform="translate(357)" gradientUnits="userSpaceOnUse"><stop offset="0" style="stop-color:#494949;stop-opacity:1"/><stop offset="1" style="stop-color:#000;stop-opacity:1"/></linearGradient><linearGradient id="a" x1="-327.947" x2="-130.053" y1="29.053" y2="226.947" gradientTransform="translate(357)" gradientUnits="userSpaceOnUse"><stop offset="0" style="stop-color:#fff;stop-opacity:1"/><stop offset="1" style="stop-color:#dadada;stop-opacity:1"/></linearGradient></defs><path d="M0 0h256v256H0z" style="fill:none"/><g stroke="none" style="stroke:#000"><path d="M175.822 131.428v27.528l-19.465-19.466c-4.65-4.65-12.217-4.65-16.868 0a11.849 11.849 0 0 0-3.493 8.435c0 3.186 1.24 6.181 3.493 8.434l19.465 19.465h-27.526c-6.577 0-11.928 5.35-11.928 11.927s5.351 11.927 11.928 11.927h27.527l-19.465 19.467a11.885 11.885 0 0 0-3.488 8.433c0 3.055 1.162 6.108 3.488 8.434a11.848 11.848 0 0 0 8.434 3.494 11.85 11.85 0 0 0 8.434-3.494l19.465-19.464v27.527c0 6.576 5.352 11.927 11.928 11.927 6.576 0 11.928-5.351 11.928-11.927v-27.527l19.465 19.464a11.848 11.848 0 0 0 8.434 3.494 11.85 11.85 0 0 0 8.434-3.494 11.85 11.85 0 0 0 3.493-8.434c0-3.186-1.241-6.181-3.493-8.434l-19.466-19.466h27.528c6.577 0 11.928-5.35 11.928-11.927s-5.351-11.927-11.928-11.927h-27.527l19.465-19.465a11.888 11.888 0 0 0 3.488-8.434 11.89 11.89 0 0 0-3.488-8.435c-4.65-4.65-12.217-4.65-16.867 0l-19.465 19.465v-27.527c0-6.577-5.352-11.928-11.928-11.928-6.576 0-11.93 5.351-11.93 11.928z" style="opacity:.2;stroke:none" transform="matrix(1.68921 0 0 1.68921 -187.288 -186.203)"/><path d="M173.822 129.428v27.528l-19.465-19.466c-4.65-4.65-12.217-4.65-16.868 0a11.849 11.849 0 0 0-3.493 8.435c0 3.186 1.24 6.181 3.493 8.434l19.465 19.465h-27.526c-6.577 0-11.928 5.35-11.928 11.927s5.351 11.927 11.928 11.927h27.527l-19.465 19.467a11.885 11.885 0 0 0-3.488 8.433c0 3.055 1.162 6.108 3.488 8.434a11.848 11.848 0 0 0 8.434 3.494 11.85 11.85 0 0 0 8.434-3.494l19.465-19.464v27.527c0 6.576 5.352 11.927 11.928 11.927 6.576 0 11.928-5.351 11.928-11.927v-27.527l19.465 19.464a11.848 11.848 0 0 0 8.434 3.494 11.85 11.85 0 0 0 8.434-3.494 11.85 11.85 0 0 0 3.493-8.434c0-3.186-1.241-6.181-3.493-8.434l-19.466-19.466h27.528c6.577 0 11.928-5.35 11.928-11.927s-5.351-11.927-11.928-11.927h-27.527l19.465-19.465a11.888 11.888 0 0 0 3.488-8.434 11.89 11.89 0 0 0-3.488-8.435c-4.65-4.65-12.217-4.65-16.867 0l-19.465 19.465v-27.527c0-6.577-5.352-11.928-11.928-11.928-6.576 0-11.93 5.351-11.93 11.928z" style="fill:#8a33b2;stroke:none" transform="matrix(1.68921 0 0 1.68921 -187.288 -186.203)"/><path d="M242.072 178.24h-38.191l27.006-27.006a7.51 7.51 0 0 0-10.621-10.62L193.26 167.62v-38.192a7.51 7.51 0 0 0-7.51-7.51 7.51 7.51 0 0 0-7.51 7.51v38.193l-27.006-27.007a7.51 7.51 0 0 0-10.621 10.62l27.006 27.006h-38.191a7.51 7.51 0 0 0-7.51 7.51 7.509 7.509 0 0 0 7.51 7.51h38.193l-27.008 27.007a7.51 7.51 0 0 0 10.621 10.62l27.006-27.006v38.192a7.51 7.51 0 0 0 7.51 7.509 7.509 7.509 0 0 0 7.51-7.509v-38.192l27.006 27.006a7.51 7.51 0 0 0 10.62-10.62l-27.007-27.007h38.193a7.51 7.51 0 0 0 7.51-7.51 7.509 7.509 0 0 0-7.51-7.51z" style="fill:url(#c);stroke:none" transform="matrix(1.68921 0 0 1.68921 -187.288 -186.203)"/><path d="M180.891 129.428v44.593l-31.531-31.532a4.864 4.864 0 0 0-6.872 0 4.833 4.833 0 0 0-1.423 3.437 4.83 4.83 0 0 0 1.423 3.436l31.53 31.53h-44.59a4.865 4.865 0 0 0-4.859 4.859c0 2.68 2.18 4.859 4.859 4.859h44.592l-31.531 31.531a4.864 4.864 0 0 0 0 6.872 4.829 4.829 0 0 0 3.436 1.423 4.83 4.83 0 0 0 3.436-1.423l31.531-31.53v44.591c0 2.68 2.18 4.858 4.859 4.858a4.864 4.864 0 0 0 4.859-4.858v-44.591l31.53 31.53a4.831 4.831 0 0 0 3.437 1.423 4.83 4.83 0 0 0 3.436-1.423 4.828 4.828 0 0 0 1.424-3.437 4.828 4.828 0 0 0-1.424-3.436l-31.531-31.531h44.592c2.68 0 4.859-2.18 4.859-4.859a4.865 4.865 0 0 0-4.859-4.859h-44.59l31.529-31.53a4.863 4.863 0 0 0 0-6.872 4.864 4.864 0 0 0-6.872 0l-31.53 31.53v-44.591c0-2.68-2.18-4.86-4.859-4.86a4.867 4.867 0 0 0-4.861 4.86z" style="fill:#e8b0d7;stroke:none" transform="matrix(1.68921 0 0 1.68921 -187.288 -186.203)"/></g></svg>