<?xml version="1.0" encoding="UTF-8" standalone="no"?>
<!-- Created with Inkscape (http://www.inkscape.org/) -->

<svg
   xmlns:dc="http://purl.org/dc/elements/1.1/"
   xmlns:cc="http://creativecommons.org/ns#"
   xmlns:rdf="http://www.w3.org/1999/02/22-rdf-syntax-ns#"
   xmlns:svg="http://www.w3.org/2000/svg"
   xmlns="http://www.w3.org/2000/svg"
   xmlns:xlink="http://www.w3.org/1999/xlink"
   xmlns:sodipodi="http://sodipodi.sourceforge.net/DTD/sodipodi-0.dtd"
   xmlns:inkscape="http://www.inkscape.org/namespaces/inkscape"
   inkscape:export-ydpi="7.03125"
   inkscape:export-xdpi="7.03125"
   inkscape:export-filename="/opt/devel/grammarscope/current2/dist/logo/bullet10.png"
   inkscape:output_extension="org.inkscape.output.svg.inkscape"
   sodipodi:docname="focus.svg"
   version="1.0"
   inkscape:version="0.48.5 r10040"
   sodipodi:version="0.32"
   id="svg2"
   height="128"
   width="128">
  <sodipodi:namedview
     id="base"
     pagecolor="#ffffff"
     bordercolor="#666666"
     borderopacity="1.0"
     inkscape:pageopacity="0.0"
     inkscape:pageshadow="2"
     inkscape:zoom="3.7671222"
     inkscape:cx="39.649807"
     inkscape:cy="75.027596"
     inkscape:document-units="px"
     inkscape:current-layer="g3238"
     showgrid="false"
     inkscape:window-width="1222"
     inkscape:window-height="925"
     inkscape:window-x="473"
     inkscape:window-y="127"
     inkscape:showpageshadow="true"
     width="48px"
     height="48px"
     gridtolerance="10000"
     inkscape:grid-points="false"
     inkscape:grid-bbox="true"
     showborder="true"
     borderlayer="true"
     inkscape:guide-bbox="false"
     inkscape:object-paths="false"
     inkscape:snap-page="false"
     showguides="false"
     fit-margin-top="0"
     fit-margin-left="0"
     fit-margin-right="0"
     fit-margin-bottom="0"
     inkscape:window-maximized="0">
    <inkscape:grid
       id="GridFromPre046Settings"
       type="xygrid"
       originx="0px"
       originy="0px"
       spacingx="0.5px"
       spacingy="0.5px"
       color="#0000ff"
       empcolor="#0000ff"
       opacity="0.2"
       empopacity="0.4"
       empspacing="2"
       visible="true"
       enabled="true"
       snapvisiblegridlinesonly="true" />
  </sodipodi:namedview>
  <defs
     id="defs4">
    <linearGradient
       inkscape:collect="always"
       id="linearGradient20749-8">
      <stop
         style="stop-color: rgb(153, 153, 153); stop-opacity: 1;"
         offset="0"
         id="stop20751-96" />
      <stop
         style="stop-color: rgb(153, 153, 153); stop-opacity: 0;"
         offset="1"
         id="stop20753-4" />
    </linearGradient>
    <linearGradient
       id="linearGradient15834-3">
      <stop
         id="stop15842-3"
         offset="0"
         style="stop-color:#772b00;stop-opacity:1;" />
      <stop
         style="stop-color:#da441b;stop-opacity:1;"
         offset="0.5"
         id="stop15848-8" />
      <stop
         id="stop15850-6"
         offset="0.75"
         style="stop-color: rgb(210, 64, 15); stop-opacity: 1;" />
      <stop
         style="stop-color: rgb(212, 67, 22); stop-opacity: 0.614583;"
         offset="0.9375"
         id="stop15852-0" />
      <stop
         style="stop-color:#c33900;stop-opacity:0.21875;"
         offset="1"
         id="stop15838-4" />
    </linearGradient>
    <radialGradient
       inkscape:collect="always"
       xlink:href="#linearGradient20749-8"
       id="radialGradient3706"
       gradientUnits="userSpaceOnUse"
       cx="102.14286"
       cy="545.93359"
       fx="102.14286"
       fy="545.93359"
       r="135" />
    <clipPath
       id="clipPath3851"
       clipPathUnits="userSpaceOnUse">
      <rect
         ry="1.6549494"
         rx="8.2531538"
         y="1.2120939"
         x="-125.73676"
         height="178.81424"
         width="189.89505"
         id="rect3853"
         style="fill:#d45500;fill-opacity:1" />
    </clipPath>
    <linearGradient
       y2="12"
       x2="31.5"
       y1="63"
       x1="31.5"
       gradientTransform="matrix(0.69631731,0,0,0.73642635,28.971376,23.90669)"
       gradientUnits="userSpaceOnUse"
       id="linearGradient3843"
       xlink:href="#linearGradient2816"
       inkscape:collect="always" />
    <radialGradient
       r="54.179893"
       fy="65.015877"
       fx="62.984127"
       cy="65.015877"
       cx="62.984127"
       gradientTransform="matrix(0.69631731,0,0,0.73642635,28.332992,17.546143)"
       gradientUnits="userSpaceOnUse"
       id="radialGradient3841"
       xlink:href="#linearGradient2794"
       inkscape:collect="always" />
    <linearGradient
       id="linearGradient3700-7-9">
      <stop
         offset="0"
         style="stop-color:#383838;stop-opacity:1"
         id="stop3702-2" />
      <stop
         offset="1"
         style="stop-color:#797979;stop-opacity:1"
         id="stop3704-7-6" />
    </linearGradient>
    <linearGradient
       y2="902.36218"
       x2="48"
       y1="1052.3622"
       x1="48"
       gradientTransform="matrix(1.1609931,0,0,0.24238505,-7.853936,797.28527)"
       gradientUnits="userSpaceOnUse"
       id="linearGradient4484"
       xlink:href="#linearGradient3700-7-9"
       inkscape:collect="always" />
    <linearGradient
       id="linearGradient4075-2-6">
      <stop
         offset="0"
         style="stop-color:#ffdf60;stop-opacity:1"
         id="stop4077-6-9" />
      <stop
         offset="1"
         style="stop-color:#ffd917;stop-opacity:1"
         id="stop4079-1-9" />
    </linearGradient>
    <clipPath
       id="clipPath4066-3">
      <rect
         style="opacity:0.5;color:#000000;fill:#ff00ff;fill-opacity:1;fill-rule:nonzero;stroke:none;stroke-width:8;marker:none;visibility:visible;display:inline;overflow:visible;enable-background:accumulate"
         id="rect4068-1"
         y="48"
         x="6"
         ry="6"
         rx="6"
         height="38"
         width="84" />
    </clipPath>
    <linearGradient
       id="linearGradient4075-2">
      <stop
         offset="0"
         style="stop-color:#ffdf60;stop-opacity:1"
         id="stop4077-6" />
      <stop
         offset="1"
         style="stop-color:#ffd917;stop-opacity:1"
         id="stop4079-1" />
    </linearGradient>
    <clipPath
       id="clipPath4066">
      <rect
         style="opacity:0.5;color:#000000;fill:#ff00ff;fill-opacity:1;fill-rule:nonzero;stroke:none;stroke-width:8;marker:none;visibility:visible;display:inline;overflow:visible;enable-background:accumulate"
         id="rect4068"
         y="48"
         x="6"
         ry="6"
         rx="6"
         height="38"
         width="84" />
    </clipPath>
    <linearGradient
       gradientUnits="userSpaceOnUse"
       xlink:href="#linearGradient2816"
       id="linearGradient2822"
       y2="12"
       x2="31.5"
       y1="63"
       x1="31.5" />
    <radialGradient
       gradientUnits="userSpaceOnUse"
       xlink:href="#linearGradient2794"
       id="radialGradient2812"
       fy="65.015877"
       fx="62.984127"
       r="54.179893"
       cy="65.015877"
       cx="62.984127" />
    <linearGradient
       gradientUnits="userSpaceOnUse"
       xlink:href="#linearGradient2760"
       id="linearGradient2766"
       y2="8.9609833"
       x2="6.9292336"
       y1="121.07077"
       x1="6.9292336" />
    <linearGradient
       id="linearGradient2760">
      <stop
         id="stop2762"
         offset="0"
         style="stop-color:red;stop-opacity:1" />
      <stop
         id="stop2768"
         offset="0.61160713"
         style="stop-color:#a20000;stop-opacity:1" />
      <stop
         id="stop2764"
         offset="1"
         style="stop-color:#f66;stop-opacity:1" />
    </linearGradient>
    <linearGradient
       id="linearGradient2794">
      <stop
         id="stop2796"
         offset="0"
         style="stop-color:#545454;stop-opacity:1" />
      <stop
         id="stop2804"
         offset="0.9464286"
         style="stop-color:#545454;stop-opacity:1" />
      <stop
         id="stop2798"
         offset="1"
         style="stop-color:#c5c5c5;stop-opacity:0" />
    </linearGradient>
    <linearGradient
       id="linearGradient2816">
      <stop
         id="stop2818"
         offset="0"
         style="stop-color:#f07836;stop-opacity:1;" />
      <stop
         id="stop2820"
         offset="1"
         style="stop-color:white;stop-opacity:1" />
    </linearGradient>
    <linearGradient
       gradientTransform="translate(0.169976,0.01623174)"
       gradientUnits="userSpaceOnUse"
       y2="75.52829"
       x2="63.463215"
       y1="70.109543"
       x1="61.449543"
       id="linearGradient2923"
       xlink:href="#linearGradient2917"
       inkscape:collect="always" />
    <radialGradient
       r="170.91994"
       fy="231.25175"
       fx="-367.6416"
       cy="413.23447"
       cx="-416.22699"
       gradientTransform="matrix(0.172933,0.140463,-0.155164,0.07210879,222.6436,105.1597)"
       gradientUnits="userSpaceOnUse"
       id="radialGradient3138"
       xlink:href="#linearGradient32382"
       inkscape:collect="always" />
    <radialGradient
       r="170.91994"
       fy="474.55029"
       fx="-478.93063"
       cy="445.17426"
       cx="-471.99405"
       gradientTransform="matrix(0.232764,0.257749,-0.148367,0.162373,239.7677,122.9846)"
       gradientUnits="userSpaceOnUse"
       id="radialGradient2255"
       xlink:href="#linearGradient28778"
       inkscape:collect="always" />
    <radialGradient
       r="170.91994"
       fy="447.93506"
       fx="-446.17487"
       cy="413.23447"
       cx="-416.22699"
       gradientTransform="matrix(0.162268,0.141036,-0.122767,6.416779e-2,204.8173,108.6796)"
       gradientUnits="userSpaceOnUse"
       id="radialGradient2249"
       xlink:href="#linearGradient28778"
       inkscape:collect="always" />
    <radialGradient
       gradientUnits="userSpaceOnUse"
       gradientTransform="matrix(1,0,0,0.357143,0,515.2611)"
       r="5.7931032"
       fy="801.51721"
       fx="78.620689"
       cy="801.51721"
       cx="78.620689"
       id="radialGradient36934"
       xlink:href="#linearGradient36928"
       inkscape:collect="always" />
    <linearGradient
       id="linearGradient36928"
       inkscape:collect="always">
      <stop
         id="stop36930"
         offset="0"
         style="stop-color:#000000;stop-opacity:1;" />
      <stop
         id="stop36932"
         offset="1"
         style="stop-color:#000000;stop-opacity:0;" />
    </linearGradient>
    <linearGradient
       id="linearGradient32382"
       inkscape:collect="always">
      <stop
         id="stop32384"
         offset="0"
         style="stop-color:#ffffff;stop-opacity:1;" />
      <stop
         id="stop32386"
         offset="1"
         style="stop-color:#ffffff;stop-opacity:0;" />
    </linearGradient>
    <radialGradient
       r="5.1053205"
       fy="255.14407"
       fx="-745.34979"
       cy="254.21584"
       cx="-742.3244"
       gradientTransform="matrix(1,0,0,0.05820106,0,239.4202)"
       gradientUnits="userSpaceOnUse"
       id="radialGradient35166"
       xlink:href="#linearGradient33265"
       inkscape:collect="always" />
    <linearGradient
       id="linearGradient33265"
       inkscape:collect="always">
      <stop
         id="stop33267"
         offset="0"
         style="stop-color:#ffffff;stop-opacity:1;" />
      <stop
         id="stop33269"
         offset="1"
         style="stop-color:#ffffff;stop-opacity:0;" />
    </linearGradient>
    <linearGradient
       id="linearGradient32372"
       inkscape:collect="always">
      <stop
         id="stop32374"
         offset="0"
         style="stop-color:#000000;stop-opacity:1;" />
      <stop
         id="stop32376"
         offset="1"
         style="stop-color:#000000;stop-opacity:0;" />
    </linearGradient>
    <linearGradient
       id="linearGradient31433"
       inkscape:collect="always">
      <stop
         id="stop31435"
         offset="0"
         style="stop-color:#ffffff;stop-opacity:1;" />
      <stop
         id="stop31437"
         offset="1"
         style="stop-color:#ffffff;stop-opacity:0;" />
    </linearGradient>
    <linearGradient
       id="linearGradient28778"
       inkscape:collect="always">
      <stop
         id="stop28780"
         offset="0"
         style="stop-color:#8e8e8e;stop-opacity:1;" />
      <stop
         id="stop28782"
         offset="1"
         style="stop-color:#8e8e8e;stop-opacity:0;" />
    </linearGradient>
    <linearGradient
       id="linearGradient2845">
      <stop
         id="stop2847"
         offset="0"
         style="stop-color:black;stop-opacity:1;" />
      <stop
         style="stop-color:black;stop-opacity:0.61010832;"
         offset="0.09660669"
         id="stop2859" />
      <stop
         style="stop-color:black;stop-opacity:0.51624548;"
         offset="0.21978022"
         id="stop2853" />
      <stop
         id="stop2849"
         offset="1"
         style="stop-color:black;stop-opacity:0;" />
    </linearGradient>
    <linearGradient
       id="linearGradient2897"
       inkscape:collect="always">
      <stop
         id="stop2899"
         offset="0"
         style="stop-color:black;stop-opacity:1;" />
      <stop
         id="stop2901"
         offset="1"
         style="stop-color:black;stop-opacity:0;" />
    </linearGradient>
    <linearGradient
       id="linearGradient2917"
       inkscape:collect="always">
      <stop
         id="stop2919"
         offset="0"
         style="stop-color:black;stop-opacity:1;" />
      <stop
         id="stop2921"
         offset="1"
         style="stop-color:black;stop-opacity:0;" />
    </linearGradient>
    <radialGradient
       inkscape:collect="always"
       xlink:href="#linearGradient32382"
       id="radialGradient3257"
       gradientUnits="userSpaceOnUse"
       gradientTransform="matrix(0.42456804,-0.00396189,0.0013631,0.12768024,373.39156,-83.750543)"
       cx="-749.71906"
       cy="253.47478"
       fx="-749.71906"
       fy="253.47478"
       r="4.234355" />
    <linearGradient
       inkscape:collect="always"
       xlink:href="#linearGradient32382"
       id="linearGradient3261"
       gradientUnits="userSpaceOnUse"
       gradientTransform="matrix(0.16607044,0,0,0.15526284,180.06974,-87.87443)"
       x1="-751.59839"
       y1="238.11371"
       x2="-736.92934"
       y2="242.4993" />
    <linearGradient
       inkscape:collect="always"
       xlink:href="#linearGradient32372"
       id="linearGradient3264"
       gradientUnits="userSpaceOnUse"
       gradientTransform="matrix(0.16607044,0,0,0.15526284,180.06974,-87.87443)"
       x1="-757.66064"
       y1="620.91235"
       x2="-714.74719"
       y2="356.50623" />
    <linearGradient
       inkscape:collect="always"
       xlink:href="#linearGradient31433"
       id="linearGradient3267"
       gradientUnits="userSpaceOnUse"
       gradientTransform="matrix(0.16607044,0,0,0.15526284,180.06974,-54.164591)"
       spreadMethod="reflect"
       x1="-744.58466"
       y1="296.54315"
       x2="-728.62476"
       y2="296.41748" />
    <linearGradient
       inkscape:collect="always"
       xlink:href="#linearGradient31433"
       id="linearGradient3270"
       gradientUnits="userSpaceOnUse"
       gradientTransform="matrix(0.16607044,0,0,0.15526284,180.06974,-47.692306)"
       spreadMethod="reflect"
       x1="-744.58466"
       y1="296.54315"
       x2="-728.62476"
       y2="296.41748" />
    <linearGradient
       inkscape:collect="always"
       xlink:href="#linearGradient31433"
       id="linearGradient3273"
       gradientUnits="userSpaceOnUse"
       gradientTransform="matrix(0.16607044,0,0,0.15526284,180.06974,-50.928449)"
       spreadMethod="reflect"
       x1="-744.58466"
       y1="296.54315"
       x2="-728.62476"
       y2="296.41748" />
    <linearGradient
       inkscape:collect="always"
       xlink:href="#linearGradient31433"
       id="linearGradient3276"
       gradientUnits="userSpaceOnUse"
       gradientTransform="matrix(0.16607044,0,0,0.15526284,180.06974,-57.400734)"
       spreadMethod="reflect"
       x1="-744.58466"
       y1="296.54315"
       x2="-728.62476"
       y2="296.41748" />
    <linearGradient
       inkscape:collect="always"
       xlink:href="#linearGradient31433"
       id="linearGradient3279"
       gradientUnits="userSpaceOnUse"
       gradientTransform="matrix(0.16607044,0,0,0.15526284,180.06974,-60.636877)"
       spreadMethod="reflect"
       x1="-744.58466"
       y1="296.54315"
       x2="-728.62476"
       y2="296.41748" />
    <linearGradient
       inkscape:collect="always"
       xlink:href="#linearGradient31433"
       id="linearGradient3282"
       gradientUnits="userSpaceOnUse"
       gradientTransform="matrix(0.16607044,0,0,0.15526284,180.06974,-63.872948)"
       spreadMethod="reflect"
       x1="-744.58466"
       y1="296.54315"
       x2="-728.62476"
       y2="296.41748" />
    <linearGradient
       inkscape:collect="always"
       xlink:href="#linearGradient31433"
       id="linearGradient3285"
       gradientUnits="userSpaceOnUse"
       gradientTransform="matrix(0.16607044,0,0,0.15526284,180.06974,-67.10909)"
       spreadMethod="reflect"
       x1="-744.58466"
       y1="296.54315"
       x2="-728.62476"
       y2="296.41748" />
    <linearGradient
       inkscape:collect="always"
       xlink:href="#linearGradient31433"
       id="linearGradient3288"
       gradientUnits="userSpaceOnUse"
       gradientTransform="matrix(0.16607044,0,0,0.15526284,180.06974,-70.345233)"
       spreadMethod="reflect"
       x1="-744.58466"
       y1="296.54315"
       x2="-728.62476"
       y2="296.41748" />
    <linearGradient
       inkscape:collect="always"
       xlink:href="#linearGradient31433"
       id="linearGradient3291"
       gradientUnits="userSpaceOnUse"
       gradientTransform="matrix(0.16607044,0,0,0.15526284,180.06974,-73.581376)"
       spreadMethod="reflect"
       x1="-744.58466"
       y1="296.54315"
       x2="-728.62476"
       y2="296.41748" />
    <linearGradient
       inkscape:collect="always"
       xlink:href="#linearGradient31433"
       id="linearGradient3294"
       gradientUnits="userSpaceOnUse"
       gradientTransform="matrix(0.16607044,0,0,0.15526284,180.06974,-76.817518)"
       spreadMethod="reflect"
       x1="-744.58466"
       y1="296.54315"
       x2="-728.62476"
       y2="296.41748" />
    <linearGradient
       inkscape:collect="always"
       xlink:href="#linearGradient31433"
       id="linearGradient3297"
       gradientUnits="userSpaceOnUse"
       gradientTransform="matrix(0.16607044,0,0,0.15526284,180.06974,-80.053589)"
       spreadMethod="reflect"
       x1="-744.58466"
       y1="296.54315"
       x2="-728.62476"
       y2="296.41748" />
    <linearGradient
       inkscape:collect="always"
       xlink:href="#linearGradient31433"
       id="linearGradient3300"
       gradientUnits="userSpaceOnUse"
       gradientTransform="matrix(0.16607044,0,0,0.15526284,180.06974,-83.289732)"
       spreadMethod="reflect"
       x1="-744.58466"
       y1="296.54315"
       x2="-728.62476"
       y2="296.41748" />
    <linearGradient
       inkscape:collect="always"
       xlink:href="#linearGradient31433"
       id="linearGradient3303"
       gradientUnits="userSpaceOnUse"
       gradientTransform="matrix(0.16607044,0,0,0.15526284,180.06974,-92.99816)"
       spreadMethod="reflect"
       x1="-744.58466"
       y1="296.54315"
       x2="-728.62476"
       y2="296.41748" />
    <linearGradient
       inkscape:collect="always"
       xlink:href="#linearGradient31433"
       id="linearGradient3306"
       gradientUnits="userSpaceOnUse"
       gradientTransform="matrix(0.16607044,0,0,0.15526284,180.06974,-86.525874)"
       spreadMethod="reflect"
       x1="-744.58466"
       y1="296.54315"
       x2="-728.62476"
       y2="296.41748" />
    <linearGradient
       inkscape:collect="always"
       xlink:href="#linearGradient31433"
       id="linearGradient3309"
       gradientUnits="userSpaceOnUse"
       gradientTransform="matrix(0.16607044,0,0,0.15526284,180.06974,-89.762017)"
       spreadMethod="reflect"
       x1="-744.58466"
       y1="296.54315"
       x2="-728.62476"
       y2="296.41748" />
    <radialGradient
       inkscape:collect="always"
       xlink:href="#linearGradient31433"
       id="radialGradient3316"
       gradientUnits="userSpaceOnUse"
       gradientTransform="matrix(0.11360739,0.08869632,-0.07241447,0.07499563,164.66297,-22.465824)"
       cx="-419.35272"
       cy="396.00266"
       fx="-309.60486"
       fy="160.80678"
       r="170.91994" />
    <linearGradient
       inkscape:collect="always"
       xlink:href="#linearGradient2897"
       id="linearGradient3319"
       gradientUnits="userSpaceOnUse"
       gradientTransform="matrix(0.51051472,0,0,0.51051472,47.410439,-60.888495)"
       x1="11.043583"
       y1="52.22617"
       x2="46.833241"
       y2="52.22617" />
    <linearGradient
       gradientUnits="userSpaceOnUse"
       xlink:href="#linearGradient2816-3"
       id="linearGradient2822-5"
       y2="12"
       x2="31.5"
       y1="63"
       x1="31.5" />
    <radialGradient
       gradientUnits="userSpaceOnUse"
       xlink:href="#linearGradient2794-8"
       id="radialGradient2812-8"
       fy="65.015877"
       fx="62.984127"
       r="54.179893"
       cy="65.015877"
       cx="62.984127" />
    <linearGradient
       gradientUnits="userSpaceOnUse"
       xlink:href="#linearGradient2760-0"
       id="linearGradient2766-2"
       y2="8.9609833"
       x2="6.9292336"
       y1="121.07077"
       x1="6.9292336" />
    <linearGradient
       id="linearGradient2760-0">
      <stop
         id="stop2762-9"
         offset="0"
         style="stop-color:red;stop-opacity:1" />
      <stop
         id="stop2768-8"
         offset="0.61160713"
         style="stop-color:#a20000;stop-opacity:1" />
      <stop
         id="stop2764-7"
         offset="1"
         style="stop-color:#f66;stop-opacity:1" />
    </linearGradient>
    <linearGradient
       id="linearGradient2794-8">
      <stop
         id="stop2796-4"
         offset="0"
         style="stop-color:#545454;stop-opacity:1" />
      <stop
         id="stop2804-5"
         offset="0.9464286"
         style="stop-color:#545454;stop-opacity:1" />
      <stop
         id="stop2798-7"
         offset="1"
         style="stop-color:#c5c5c5;stop-opacity:0" />
    </linearGradient>
    <linearGradient
       id="linearGradient2816-3">
      <stop
         id="stop2818-7"
         offset="0"
         style="stop-color:#a20000;stop-opacity:1" />
      <stop
         id="stop2820-6"
         offset="1"
         style="stop-color:white;stop-opacity:1" />
    </linearGradient>
  </defs>
  <metadata
     id="metadata7">
    <rdf:RDF>
      <cc:Work
         rdf:about="">
        <dc:format>image/svg+xml</dc:format>
        <dc:type
           rdf:resource="http://purl.org/dc/dcmitype/StillImage" />
        <dc:creator>
          <cc:Agent>
            <dc:title>Lapo Calamandrei</dc:title>
          </cc:Agent>
        </dc:creator>
        <dc:title />
        <cc:license
           rdf:resource="http://creativecommons.org/licenses/GPL/2.0/" />
        <dc:subject>
          <rdf:Bag>
            <rdf:li>run</rdf:li>
            <rdf:li>launch</rdf:li>
            <rdf:li>exec</rdf:li>
          </rdf:Bag>
        </dc:subject>
      </cc:Work>
      <cc:License
         rdf:about="http://creativecommons.org/licenses/GPL/2.0/">
        <cc:permits
           rdf:resource="http://web.resource.org/cc/Reproduction" />
        <cc:permits
           rdf:resource="http://web.resource.org/cc/Distribution" />
        <cc:requires
           rdf:resource="http://web.resource.org/cc/Notice" />
        <cc:permits
           rdf:resource="http://web.resource.org/cc/DerivativeWorks" />
        <cc:requires
           rdf:resource="http://web.resource.org/cc/ShareAlike" />
        <cc:requires
           rdf:resource="http://web.resource.org/cc/SourceCode" />
      </cc:License>
    </rdf:RDF>
  </metadata>
  <g
     inkscape:label="Livello 1"
     inkscape:groupmode="layer"
     id="layer1"
     transform="translate(2.6285568,52.733904)">
    <g
       inkscape:label="ombre"
       id="layer5"
       transform="matrix(0.51188693,0,0,0.58594337,-5.936074,-60.575397)" />
    <g
       id="g2841"
       inkscape:label="Layer 1"
       transform="matrix(0.51188693,0,0,0.58594337,-5.936074,-60.575397)" />
    <g
       inkscape:label="bureau"
       id="layer2"
       transform="matrix(0.51188693,0,0,0.58594337,-5.936074,-60.575397)" />
    <g
       inkscape:label="barre"
       id="layer3"
       transform="matrix(0.51188693,0,0,0.58594337,-5.936074,-60.575397)" />
    <g
       inkscape:label="fichier"
       id="layer4"
       transform="matrix(0.51188693,0,0,0.58594337,-5.936074,-60.575397)" />
    <g
       id="g3465"
       transform="matrix(0.62597802,0,0,0.62597802,16.600795,-1.8110919)">
      <path
         id="path2790"
         style="fill:url(#radialGradient2812-8);fill-opacity:1;fill-rule:nonzero;stroke:none"
         transform="translate(5.724864,4.031744)"
         d="m 117.16402,65.015877 a 54.179893,54.179893 0 1 1 -108.3597864,0 54.179893,54.179893 0 1 1 108.3597864,0 z"
         inkscape:connector-curvature="0" />
      <path
         id="path1873"
         style="fill:url(#linearGradient2766-2);fill-opacity:1;fill-rule:nonzero;stroke:#740000;stroke-width:3.75;stroke-linecap:butt;stroke-linejoin:round;stroke-miterlimit:4;stroke-opacity:1;stroke-dasharray:none;stroke-dashoffset:0"
         transform="translate(1.69312,0)"
         d="m 117.16402,65.015877 a 54.179893,54.179893 0 1 1 -108.3597864,0 54.179893,54.179893 0 1 1 108.3597864,0 z"
         inkscape:connector-curvature="0" />
      <path
         id="path2814"
         style="fill:url(#linearGradient2822-5);fill-opacity:1;fill-rule:nonzero;stroke:none"
         transform="translate(1,2)"
         d="m 95.5,37.5 a 32,25.5 0 1 1 -64,0 32,25.5 0 1 1 64,0 z"
         inkscape:connector-curvature="0" />
    </g>
    <g
       id="g3249">
      <g
         transform="matrix(1.0508321,0,0,1.0508321,35.188098,-51.798552)"
         id="g3238">
        <g
           id="g3261"
           transform="matrix(1.2307413,0.33726446,-0.33726446,1.2307413,15.151504,-15.642439)">
          <path
             id="path3214"
             d="m 49.46,0.665 c 0,0 -0.202,0.365 -0.597,0.924 0.203,0.333 2.088,3.479 4.03,7.797 l 0.247,-0.223 0.222,0.503 c 1.8,4.03 3.062,7.771 3.758,11.141 l 0.047,0.223 -0.195,0.152 c -0.063,0.048 -0.113,0.082 -0.175,0.129 0.524,3.03 0.58,5.964 -0.225,8.436 l 0.031,0.012 c -1.064,1.323 -3.73,4.176 -7.69,5.422 0,0.006 0.003,0.014 0.003,0.02 l 0.077,0.365 -0.377,0.1 c -3.051,0.801 -6.237,0.504 -9.466,-0.881 l -0.141,-0.059 -0.06,-0.129 c -0.026,-0.057 -0.051,-0.113 -0.078,-0.17 -4.313,-1.616 -8.836,-0.84 -12.751,0.715 10e-4,0.045 0.018,0.08 0.027,0.121 l 0.063,0.297 -0.293,0.137 c -4.138,1.955 -7.367,4.555 -8.578,5.592 l 0.41,1.49 c 4.619,-4.07 13.762,-10.474 22.22,-6.584 9.996,4.598 18.354,-3.28 18.354,-3.28 C 61.647,21.4 49.46,0.665 49.46,0.665"
             inkscape:connector-curvature="0"
             style="fill:#d8d8d8" />
          <g
             id="g3216"
             style="fill:#ffffff">
            <path
               id="path3218"
               d="m 20.475,16.362 0.057,0.182 0.51,-0.135 c 0.289,-0.074 0.583,-0.157 0.887,-0.219 3,-0.653 6,-0.805 8.799,-0.86 l 0.275,-0.007 -0.135,-0.454 C 30.805,14.681 30.747,14.494 30.696,14.302 30.161,12.34 30.044,10.307 29.934,8.337 29.899,7.731 29.863,7.133 29.817,6.526 L 29.772,5.967 C 25.742,4.94 21.395,6.145 17.804,7.816 l 0.141,0.442 c 0.854,2.699 1.701,5.396 2.53,8.104"
               inkscape:connector-curvature="0" />
            <path
               id="path3220"
               d="M 41.455,7.333 41.576,7.7 c 0.66,2.048 1.325,4.253 2.023,6.735 l 0.105,0.379 0.364,-0.125 c 3.201,-1.083 6.109,-2.811 8.644,-5.136 L 52.895,9.386 C 50.952,5.068 49.067,1.923 48.865,1.589 48.853,1.569 48.82,1.513 48.82,1.513 c 0,0 -2.916,4.394 -8.06,6.02 0.108,-0.034 0.226,-0.038 0.333,-0.075 l 0.368,-0.121"
               inkscape:connector-curvature="0" />
            <path
               id="path3222"
               d="m 48.07,25.948 c -0.298,0.083 -0.602,0.16 -0.903,0.23 l -0.389,0.098 c 0.717,2.688 1.505,5.783 2.139,8.905 3.96,-1.246 6.626,-4.1 7.69,-5.422 l -0.031,-0.012 c 0.805,-2.472 0.749,-5.408 0.225,-8.436 -1.349,1.034 -2.521,1.856 -3.656,2.545 -1.384,0.853 -3.049,1.537 -5.075,2.092"
               inkscape:connector-curvature="0" />
            <path
               id="path3224"
               d="m 46.749,26.18 -0.068,-0.267 c -0.041,-0.151 -0.08,-0.299 -0.119,-0.448 l 0.05,0.19 c 0.043,0.167 0.091,0.353 0.137,0.525"
               inkscape:connector-curvature="0" />
            <path
               id="path3226"
               d="m 32.604,15.569 -1.511,-0.036 0.015,0.055 c 0.608,1.919 1.427,3.897 2.499,6.05 0.76,1.517 1.475,3.061 2.133,4.5 l 0.227,0.508 c 1.862,-0.106 3.343,-0.227 4.674,-0.391 2.034,-0.246 3.831,-0.535 5.493,-0.883 L 46.515,25.29 C 46.281,24.415 46.048,23.54 45.82,22.667 45.165,20.161 44.492,17.657 43.8,15.161 l -0.099,-0.344 -0.392,0.094 c -3.438,0.833 -7.3,0.739 -10.709,0.661"
               inkscape:connector-curvature="0" />
            <path
               id="path3228"
               d="m 35.36,26.679 c -3.573,0.199 -7.373,0.458 -11.04,1.153 l -0.358,0.066 -0.256,-0.786 c -0.465,-1.427 -0.934,-2.842 -1.377,-4.269 -0.608,-1.962 -1.21,-3.924 -1.813,-5.894 l -0.052,-0.165 -0.545,0.141 c -3.04,0.831 -5.732,2.646 -8.07,4.382 l 2.854,10.388 c 2.046,-1.438 4.401,-2.535 7.19,-3.297 0.563,-0.156 1.13,-0.29 1.702,-0.418 l 0.364,-0.074 0.105,0.328 c 0.511,1.556 1.019,3.116 1.498,4.679 0.211,0.692 0.372,1.403 0.557,2.229 3.915,-1.555 8.438,-2.331 12.751,-0.715 -0.859,-1.784 -1.675,-3.623 -2.468,-5.403 L 35.36,26.679"
               inkscape:connector-curvature="0" />
          </g>
          <path
             id="path3230"
             d="M 25.92,35.697 26.213,35.56 26.15,35.263 C 26.149,35.222 26.132,35.187 26.123,35.142 25.938,34.316 25.777,33.605 25.566,32.913 25.087,31.35 24.579,29.789 24.068,28.234 L 23.963,27.906 23.6,27.98 c -0.572,0.129 -1.14,0.262 -1.702,0.418 -2.789,0.762 -5.144,1.858 -7.19,3.297 L 11.854,21.307 c 2.342,-1.735 5.04,-3.551 8.07,-4.382 l 0.545,-0.141 0.052,0.165 c 0.603,1.97 1.204,3.932 1.813,5.894 0.444,1.427 0.913,2.842 1.377,4.269 l 0.256,0.786 0.358,-0.066 c 3.663,-0.696 7.462,-0.954 11.04,-1.153 l 1.042,2.346 c 0.793,1.78 1.608,3.619 2.468,5.403 0.027,0.057 0.052,0.113 0.078,0.17 l 0.06,0.129 0.141,0.059 c 3.229,1.385 6.415,1.682 9.466,0.881 l 0.377,-0.1 -0.077,-0.365 c 0,-0.006 -0.003,-0.014 -0.003,-0.02 -0.634,-3.122 -1.422,-6.218 -2.139,-8.905 l 0.389,-0.098 c 0.302,-0.07 0.605,-0.148 0.903,-0.23 2.025,-0.555 3.69,-1.239 5.074,-2.091 1.135,-0.688 2.308,-1.511 3.656,-2.545 0.062,-0.047 0.111,-0.081 0.175,-0.129 L 57.17,21.032 57.123,20.809 C 56.427,17.439 55.165,13.699 53.365,9.668 L 53.143,9.165 52.896,9.388 52.713,9.555 c -2.534,2.326 -5.442,4.053 -8.644,5.136 l -0.364,0.125 0.099,0.344 c 0.688,2.499 1.36,5 2.02,7.506 0.229,0.873 0.461,1.747 0.695,2.623 l -0.381,0.082 c -1.662,0.348 -3.459,0.637 -5.493,0.883 -1.331,0.164 -2.812,0.285 -4.674,0.391 l -0.227,-0.508 c -0.658,-1.438 -1.373,-2.982 -2.133,-4.5 -1.071,-2.15 -1.891,-4.128 -2.499,-6.05 l -0.015,-0.055 1.511,0.036 c 3.408,0.078 7.271,0.172 10.709,-0.661 l 0.392,-0.094 -0.105,-0.38 C 42.906,11.951 42.241,9.746 41.581,7.698 L 41.46,7.331 41.092,7.452 C 40.985,7.489 40.867,7.493 40.759,7.527 38.013,8.346 35.035,8.095 32.028,6.749 31.516,6.519 30.956,6.315 30.322,6.131 l -0.544,-0.165 0.045,0.559 c 0.046,0.606 0.082,1.204 0.117,1.811 0.109,1.97 0.227,4 0.762,5.965 0.051,0.191 0.11,0.379 0.172,0.567 l 0.135,0.454 -0.275,0.007 c -2.795,0.055 -5.797,0.207 -8.799,0.86 -0.305,0.062 -0.598,0.145 -0.887,0.219 l -0.51,0.135 -0.057,-0.182 C 19.652,13.653 18.806,10.956 17.952,8.258 L 17.811,7.816 17.372,8.035 C 17.29,8.076 16.833,8.119 16.755,8.16 13.291,9.923 10.848,12.036 8.847,13.133 V 13.125 L 8.575,10.744 C 8.447,10.299 7.703,10.166 6.679,10.448 5.636,10.733 5.002,11.32 5.125,11.769 l 14.09,51.12 c 0.121,0.445 1.078,0.578 2.106,0.289 1.03,-0.277 1.785,-0.871 1.668,-1.322 l -5.234,-19.08 -0.408,-1.49 c 1.208,-1.04 4.441,-3.64 8.579,-5.595 m 20.761,-9.784 0.068,0.267 c -0.046,-0.172 -0.094,-0.358 -0.138,-0.525 l -0.05,-0.19 c 0.04,0.149 0.079,0.297 0.12,0.448"
             inkscape:connector-curvature="0"
             style="fill:#25333a" />
        </g>
      </g>
    </g>
  </g>
</svg>
