<svg xmlns="http://www.w3.org/2000/svg" xml:space="preserve" width="128" height="128"><defs><linearGradient id="c" x1="63.999" x2="63.999" y1="3.1" y2="122.899" gradientUnits="userSpaceOnUse"><stop offset="0" style="stop-color:#f6f6f6;stop-opacity:1"/><stop offset="1" style="stop-color:#ccc;stop-opacity:1"/></linearGradient><linearGradient id="b"><stop offset="0" style="stop-color:#aaa;stop-opacity:1"/><stop offset="1" style="stop-color:#8c8c8c;stop-opacity:1"/></linearGradient><linearGradient id="a"><stop offset="0" style="stop-color:#e5e5e5;stop-opacity:1"/><stop offset="1" style="stop-color:#ababab;stop-opacity:1"/></linearGradient><clipPath id="e" clipPathUnits="userSpaceOnUse"><path d="M87.962 52.106a43.981 52.026 0 1 1-87.962 0 43.981 52.026 0 1 1 87.962 0z" style="fill:#a9a9a9;fill-opacity:1;fill-rule:evenodd;stroke:none" transform="matrix(1.39939 0 0 1.19072 3.486 1.058)"/></clipPath><clipPath id="d" clipPathUnits="userSpaceOnUse"><path d="M87.962 52.106a43.981 52.026 0 1 1-87.962 0 43.981 52.026 0 1 1 87.962 0z" style="fill:#a9a9a9;fill-opacity:1;fill-rule:evenodd;stroke:none" transform="matrix(.18154 0 0 .15447 788.014 700.64)"/></clipPath></defs><g clip-path="url(#d)" transform="matrix(7.70834 0 0 7.70834 -6070.79 -5399.71)"><path d="M509.778 597.159c-12.427 0-22.5 10.074-22.5 22.5 0 12.428 10.073 22.5 22.5 22.5s22.5-10.072 22.5-22.5c-.001-12.426-10.073-22.5-22.5-22.5zm-.559 36.414a3.069 3.069 0 0 1-3.054-3.055 3.067 3.067 0 0 1 3.054-3.053 3.066 3.066 0 0 1 3.054 3.053 3.068 3.068 0 0 1-3.054 3.055zm2.904-11.791c-.892 1.305-.594 3.129-3.052 3.129-1.602 0-2.385-1.305-2.385-2.496 0-4.432 6.519-5.436 6.519-9.086 0-2.012-1.34-3.203-3.576-3.203-4.767 0-2.905 4.916-6.518 4.916-1.304 0-2.421-.783-2.421-2.271 0-3.65 4.172-6.891 8.714-6.891 4.769 0 9.46 2.197 9.46 7.449.001 4.842-5.55 6.703-6.741 8.453z" style="fill:#333"/></g><path d="M49.543 115.93v-9.22l-3.44-1.436c-1.891-.79-5.135-2.655-7.207-4.143l-3.768-2.705-7.086 4.19c-3.897 2.303-7.413 4.188-7.813 4.188-.803 0-15.159-24.677-14.603-25.101.19-.145 3.501-2.079 7.356-4.296l7.01-4.031V55.569l-7.24-4.206C8.773 49.05 5.515 47 5.515 46.805c0-.193 3.227-5.93 7.17-12.747l7.171-12.396 7.66 4.415 7.658 4.414 4.286-2.948c2.356-1.621 5.59-3.488 7.184-4.149l2.9-1.2V4.07h30.27v18.067l3.814 1.72c2.098.946 5.353 2.835 7.235 4.198l3.42 2.478 7.654-4.458c4.21-2.452 7.704-4.381 7.766-4.288 3.714 5.637 14.09 24.734 13.743 25.295-.27.436-3.53 2.532-7.245 4.658l-6.755 3.865v17.864l7.196 4.055c3.958 2.23 7.197 4.323 7.199 4.65 0 .326-3.204 6.135-7.122 12.907l-7.123 12.314-7.56-4.462-7.561-4.462-4.13 2.842c-2.272 1.563-5.57 3.443-7.33 4.179l-3.201 1.337v18.32h-30.27v-9.219zm25.505-30.764c5.841-2.91 9.885-7.628 11.67-13.614 1.812-6.07 1.701-9.604-.482-15.44-3.303-8.827-10.191-13.68-20.171-14.211-6.163-.328-7.422-.093-11.93 2.228-21.388 11.014-13.52 43.413 10.543 43.413 4.189 0 6.805-.6 10.37-2.376z" style="fill:silver;fill-opacity:1;fill-rule:evenodd;stroke:none"/></svg>