<svg xmlns="http://www.w3.org/2000/svg" xml:space="preserve" width="128" height="128"><defs><clipPath id="b" clipPathUnits="userSpaceOnUse"><path d="M87.962 52.106a43.981 52.026 0 1 1-87.962 0 43.981 52.026 0 1 1 87.962 0z" style="fill:#a9a9a9;fill-opacity:1;fill-rule:evenodd;stroke:none" transform="matrix(1.39939 0 0 1.19072 3.486 1.058)"/></clipPath><clipPath id="a" clipPathUnits="userSpaceOnUse"><path d="M87.962 52.106a43.981 52.026 0 1 1-87.962 0 43.981 52.026 0 1 1 87.962 0z" style="fill:#a9a9a9;fill-opacity:1;fill-rule:evenodd;stroke:none" transform="matrix(.18154 0 0 .15447 788.014 700.64)"/></clipPath></defs><g clip-path="url(#a)" transform="matrix(7.70834 0 0 7.70834 -6070.79 -5399.71)"><path d="M509.778 597.159c-12.427 0-22.5 10.074-22.5 22.5 0 12.428 10.073 22.5 22.5 22.5s22.5-10.072 22.5-22.5c-.001-12.426-10.073-22.5-22.5-22.5zm-.559 36.414a3.069 3.069 0 0 1-3.054-3.055 3.067 3.067 0 0 1 3.054-3.053 3.066 3.066 0 0 1 3.054 3.053 3.068 3.068 0 0 1-3.054 3.055zm2.904-11.791c-.892 1.305-.594 3.129-3.052 3.129-1.602 0-2.385-1.305-2.385-2.496 0-4.432 6.519-5.436 6.519-9.086 0-2.012-1.34-3.203-3.576-3.203-4.767 0-2.905 4.916-6.518 4.916-1.304 0-2.421-.783-2.421-2.271 0-3.65 4.172-6.891 8.714-6.891 4.769 0 9.46 2.197 9.46 7.449.001 4.842-5.55 6.703-6.741 8.453z" style="fill:#333"/></g><path d="M122.057 105.474 95.01 78.432c-2.035-2.035-5.121-2.369-7.535-1.05l-5.768-5.768c4.913-6.977 7.83-15.464 7.83-24.629 0-23.65-19.246-42.893-42.898-42.893-23.651 0-42.894 19.24-42.894 42.893 0 23.655 19.24 42.897 42.894 42.897 9.128 0 17.577-2.884 24.536-7.76l5.805 5.81c-1.247 2.393-.897 5.419 1.106 7.427l27.048 27.043c2.467 2.473 6.513 2.473 8.98 0l7.95-7.945c2.462-2.47 2.462-6.51-.005-8.983zM46.636 74c-14.912 0-27.006-12.094-27.006-27.01 0-14.912 12.094-27.006 27.006-27.006 14.916 0 27.01 12.094 27.01 27.005 0 14.914-12.094 27.01-27.01 27.01z" style="fill:silver"/></svg>