<svg xmlns="http://www.w3.org/2000/svg" xmlns:xlink="http://www.w3.org/1999/xlink" xml:space="preserve" width="136.533" height="136.533" viewBox="0 0 128 128"><defs><clipPath id="b" clipPathUnits="userSpaceOnUse"><ellipse cx="43.981" cy="52.106" rx="43.981" ry="52.026" style="fill:#a9a9a9;fill-opacity:1;fill-rule:evenodd;stroke:none" transform="matrix(1.39939 0 0 1.19072 3.486 1.058)"/></clipPath><clipPath id="a" clipPathUnits="userSpaceOnUse"><ellipse cx="43.981" cy="52.106" rx="43.981" ry="52.026" style="fill:#a9a9a9;fill-opacity:1;fill-rule:evenodd;stroke:none" transform="matrix(.18154 0 0 .15447 788.014 700.64)"/></clipPath><linearGradient id="c" gradientTransform="matrix(0 0 0 0 -5525.517 -16387.922)"><stop offset="0" style="stop-color:#666;stop-opacity:1"/></linearGradient></defs><g clip-path="url(#a)" transform="matrix(7.70834 0 0 7.70834 -6070.79 -5399.71)"><path d="M509.778 597.159c-12.427 0-22.5 10.074-22.5 22.5 0 12.428 10.073 22.5 22.5 22.5s22.5-10.072 22.5-22.5c-.001-12.426-10.073-22.5-22.5-22.5zm-.559 36.414a3.069 3.069 0 0 1-3.054-3.055 3.067 3.067 0 0 1 3.054-3.053 3.066 3.066 0 0 1 3.054 3.053 3.068 3.068 0 0 1-3.054 3.055zm2.904-11.791c-.892 1.305-.594 3.129-3.052 3.129-1.602 0-2.385-1.305-2.385-2.496 0-4.432 6.519-5.436 6.519-9.086 0-2.012-1.34-3.203-3.576-3.203-4.767 0-2.905 4.916-6.518 4.916-1.304 0-2.421-.783-2.421-2.271 0-3.65 4.172-6.891 8.714-6.891 4.769 0 9.46 2.197 9.46 7.449.001 4.842-5.55 6.703-6.741 8.453z" style="fill:#333"/></g><g style="fill:#b3b3b3;fill-opacity:1"><path d="M1267.69 429.467c-3.598-3.604-9.449-3.604-13.049.002l-3.301 3.299a12.59 12.59 0 0 1 5.896 1.271l.98-.979a4.167 4.167 0 0 1 5.881-.001 4.171 4.171 0 0 1 0 5.887l-4.73 4.729c-1.614 1.621-4.262 1.62-5.883-.001a2.553 2.553 0 0 0-3.584.001 2.546 2.546 0 0 0 0 3.585c3.604 3.604 9.451 3.604 13.055 0l4.729-4.729c3.597-3.611 3.597-9.471.01-13.064z" style="fill:#b3b3b3;fill-opacity:1" transform="matrix(3.39346 .95789 -.90928 3.57489 -3790.095 -2720.274)"/><path d="M1250.553 452.48a4.17 4.17 0 0 1-5.879 0 4.166 4.166 0 0 1 0-5.886l4.729-4.729a4.166 4.166 0 0 1 5.883 0 2.534 2.534 0 1 0 3.584-3.585c-3.6-3.603-9.439-3.602-13.053.001l-4.729 4.729c-3.605 3.603-3.605 9.45 0 13.054 3.6 3.599 9.439 3.599 13.051 0l3.299-3.304c-2.02.062-4.047-.36-5.9-1.271z" style="fill:#b3b3b3;fill-opacity:1" transform="matrix(3.39346 .95789 -.90928 3.57489 -3790.095 -2720.274)"/></g><use xlink:href="#g5796" width="1250" height="1250" transform="matrix(.9964 0 0 .99792 -326.868 303.912)"/><use xlink:href="#g5796" width="1250" height="1250" transform="matrix(.98862 0 0 .99792 -326.274 324.475)"/><use xlink:href="#rect4442" width="1250" height="1250" transform="translate(-164.44 679.336)"/><use xlink:href="#g5772" width="1250" height="1250" transform="matrix(.69291 0 0 .70953 -481.227 379.494)"/><use xlink:href="#g5772" width="1250" height="1250" transform="matrix(.69583 0 0 .74192 -497.232 374.08)"/><use xlink:href="#g5772" width="1250" height="1250" transform="matrix(.69583 0 0 .74192 -453.232 371.58)"/><use xlink:href="#g5772" width="1250" height="1250" transform="matrix(.62898 0 0 1.16243 -378.473 269.358)"/><use xlink:href="#rect10675" width="1250" height="1250" transform="translate(374.597 398.172)"/><use xlink:href="#use5758" width="1250" height="1250" transform="translate(375.564 414.894)"/><use xlink:href="#g6043" width="1250" height="1250" transform="translate(371.549 338.816)"/><use xlink:href="#rect10675" width="1250" height="1250" transform="translate(416.58 399.118)"/><use xlink:href="#rect10675" width="1250" height="1250" transform="translate(404.58 411.118)"/><use xlink:href="#g6043" width="1250" height="1250" transform="translate(390.597 332.774)"/><use xlink:href="#rect10675" width="1250" height="1250" transform="translate(435.63 393.076)"/><use xlink:href="#rect10675" width="1250" height="1250" transform="translate(423.63 405.076)"/><use xlink:href="#use5756-0-3" width="1250" height="1250" style="stroke:url(#c);stroke-opacity:1" transform="matrix(1.13774 0 0 1.13997 183.264 402.725)"/><use xlink:href="#use5756-0-3" width="1250" height="1250" style="stroke:url(#c);stroke-opacity:1" transform="matrix(1.13774 0 0 1.13997 178.265 409.954)"/><use xlink:href="#use5756-0-3" width="1250" height="1250" style="stroke:url(#c);stroke-opacity:1" transform="matrix(1.13774 0 0 1.13997 190.857 413.604)"/></svg>