<svg xmlns="http://www.w3.org/2000/svg" xml:space="preserve" width="128" height="128"><defs><clipPath id="b" clipPathUnits="userSpaceOnUse"><path d="M126.293 63.905a61.63 62.957 0 1 1-123.259 0 61.63 62.957 0 1 1 123.26 0z" style="fill:red;fill-opacity:1;fill-rule:evenodd;stroke:none"/></clipPath><clipPath
	id="a" clipPathUnits="userSpaceOnUse"><path d="M126.293 63.905a61.63 62.957 0 1 1-123.259 0 61.63 62.957 0 1 1 123.26 0z" style="fill:red;fill-opacity:1;fill-rule:evenodd;stroke:none" transform="translate(787.561 700.502)scale(.12973)"/></clipPath></defs>
	<g clip-path="url(#a)" transform="translate(-6070.79 -5399.71)scale(7.70834)"><path d="M509.778 597.159c-12.427 0-22.5 10.074-22.5 22.5 0 12.428 10.073 22.5 22.5 22.5s22.5-10.072 22.5-22.5c-.001-12.426-10.073-22.5-22.5-22.5zm-.559 36.414a3.069 3.069 0 0 1-3.054-3.055 3.067 3.067 0 0 1 3.054-3.053 3.066 3.066 0 0 1 3.054 3.053 3.068 3.068 0 0 1-3.054 3.055zm2.904-11.791c-.892 1.305-.594 3.129-3.052 3.129-1.602 0-2.385-1.305-2.385-2.496 0-4.432 6.519-5.436 6.519-9.086 0-2.012-1.34-3.203-3.576-3.203-4.767 0-2.905 4.916-6.518 4.916-1.304 0-2.421-.783-2.421-2.271 0-3.65 4.172-6.891 8.714-6.891 4.769 0 9.46 2.197 9.46 7.449.001 4.842-5.55 6.703-6.741 8.453z" style="fill:#333"/></g>
	<g clip-path="url(#b)" transform="scale(.99098 1)"><circle cx="198.706" cy="184.595" r="6.451" style="fill:silver" transform="matrix(9.5174 0 0 9.60502 -1826.365 -1709.693)"/>
		<g style="fill:#fff"><path d="M-2048.947 704.42c-2.562.443-1.956 5.232 1.177 4.38 3.116-.87 1.385-4.806-1.177-4.38zm386.994 98.548c-3.618-.983-5.176 4.74-6.838 6.462-3.93 4.117-6.89 3.641-10.922 6.43-5.21 3.624 2.908 9.954-1.818 14.53-1.385 1.295.571 10.906 1.281 12.726 4.864 12.874 15.077-11.824 15.458-12.464 2.267-3.985 11.459-25.453 2.838-27.684m107.079-63.583c-.918-1.099-1.524-6.527-4.259-5.379-2.63 1.082-2.302 7.61-1.488 9.512 1.921 4.412 8.049-1.443 5.747-4.133m-240.242-100.942c1.817-2.395-2.337-6.364-4.674-3.494-2.7 3.362 1.87 7.282 4.674 3.494m-21.239 0c.57-1.083-.848-3.231-2.84-.28-.64 1.017 2.268 1.346 2.84.28zm37.666 9.675c7.235 1.673.173-9.315-6.803-5.379-.693.427 5.868 5.15 6.803 5.38m-79.573-45.921c10.351 1.28 16.461-15.367 5.106-13.694-5.418.87-12.342 12.89-5.106 13.694" style="fill:#fff" transform="matrix(.2362 0 0 .24579 489.494 -128.987)"/>
			<path
				d="M-1844.415 590.653c8.187 3.1 6.837 1.656 1.246 6.92-1.956 1.887 2.475 7.364 3.046 7.594.953.344 7.167-1.591 9.019-1.214 3.894.77 6.733 1.148 9.364-2.066 2.7-3.28-8.828-13.039-11.909-14.974-1.558-1-.57-12.644-9.087-8.741-6.128 2.82-14.039 7.774-1.68 12.48m-83.856 212.494c-4.604-1.853-9.018-5.281-13.657-6.724-6.145-1.853-10.61.065-16.67-4.543-1.35-1.033-7.2-3.132-8.966-1.722-1.454 1.263-2.475 2.755-3.08 4.51-.85 3.083-4.432-.132-5.004.64.433-.607 11.096-10.415 1.766-7.709-.069.021-11.217 5.921-8.897 1.837 1.8-3.198 12.1-1.541 9.157-7.478-1.212-2.477-8.69-9.315-10.992-10.808-6.664-4.313-11.165-1.345-17.673-6.757-2.874-2.378-7.945-1.836-10.005-3.772.103.099 3.41-8.528 2.44-8.2-5.435 1.739-.848 4.707-6.802 1.345-3.93-2.214-7.443.197-8.794 3.493-3.254-6.609-8.481.149-11.666-5.313-3.86-6.593-3.55 4.697-3.342 4.73-4.362-1.05-3.755-7.568-5.677-8.01-1.956-.476-4.154.606-6.387 2.033l-17.03 81.883c15.215 7.397 25.218 23.685 26.395 38.33.242 2.952-1.09 9.315-2.441 11.25-2.735 3.937-.502 7.184-2.597 12.235-3.271 7.84-4.085 12.678-4.327 18.647v43.756c.103.064.242.295.346.328 1.627.902 3.514 3.591 5.505 3.591 3.306 0 1.956-5.117 4.396-5.133 4.05 0-2.77 6.216-3.012 6.216 4.293 0 18.937 4.444 22.694-1.083-2.666 3.658-15.995-6.15-15.285-10.922.537-3.46 6.89-6.495 9.607-8.364 7.27-5.51-2.562-4.313-3.687-5.92-.433-.673 11.667-14.531 11.597-14.531-3.011.213-4.794-.558-4.794-4.018 0-1.378 8.153 2.017 9.191.918.468-.508-1.73-7.987 1.852-6.248 3.012 1.377 11.13.508 13.26-2.067 8.222-9.873-4.397-10.316-.208-19.959-5.003 11.76 19.127 11.874 20.65-.262.537-3.953 5.99-7.085 9.053-9.742 7.132-6.117-.605-10.447 10.819-15.793 3.618-1.706 13.052-1.607 14.973-4.264 4.535-6.511 5.85-12.235 8.188-19.32 1.09-3.198-1.022-4.903-.312-8.003.882-4.018 7.235-7.265 9.832-10.348 4.293-5.084 8.031-15.318-.416-18.73zm-89.172-197.996c.571-.246 2.406-4.116 2.77-4.821 3.271-6.118-1.09-5.773-6.059-10.218-4.69-4.23-9.295-4.887-14.297-9.643-4.086-3.838-7.063-11.283-12.204-4.838-2.527 3.198-5.348 4.034-8.932 2.116-5.418-2.854.364-3.494-.986-5.61-1.627-2.525-8.724-4.05-15.18-4.805v67.717c.102-.099.068-.23.242-.328 2.977-1.378 8.585 1.377 10.957-1.673 1.956-2.444-4.76-3.625.277-7.15.917-.64 8.014-1.542 8.256-2.247.243-.673 3.116-3.084 3.41-1.066.987 7.1 3.047 4.05 8.188 2.41 1.454-.442 15.284-2.46 14.47-4.296-4.396-9.758-5.47 1.984-9.572-5.79-1.055-2.033-6.923 4.346-5.348-2.64 1.627-7.331-16.877.197-19.37.902 1.852-1.164 21.274-12.202 21.274-8.331 0 8.43 7.98.934 13.45-.427 1.384-.344 7.702-5.707 8.152-2.165.277 2.083-8.655 8.43-6.854 10.89-.174-.262 20.044 2.395 20.529 1.312 2.458-5.248-9.486-10.857-13.173-9.299zm-44.209 95.826c-3.756-.902-7.599.361-10.645 2.526v2.28c5.418.623 11.096 3.083 15.682 2.443 3.947-.541-3.53-6.904-5.037-7.249zm509.225-134.48c-.676 1.116-1.887 2.006-4.397 1.552-6.664-1.169-5.955-3.715-11.996 3.262-1.246 1.483-6.924 5.25-8.828 3.942 1.021.645 4.535-4.605 6.093-8.739l-38.947-18.681h-24.614c-11.251 1.15-26.31 2.669-25.255 5.04-.78-1.848.103-3.662.571-5.04h-7.027c-1.056 3.122-.07 8.878-.347 8.739-3.514-1.762-2.7-4.972-7.633-1.71-1.766.314-3.48.89-5.107 1.71-1.817 2.424 1.09 4.78-3.34 5.145-4.64.367-4.64-2.529-9.053-.505-5.886 2.651-2.303-7.605-6.25-7.117 6.319-.75 19.751 5.547 24.685-2.39.069-.14-6.094-1.814-14.506-3.872h-75.834c-1.731 1.814-3.22 4.308-4.933 5.634-6.7 5.215-12.273 8.442-19.907 11.93-6.733 3.036-11.13 14.548-1.592 18.02 4.258 1.57 20.962-9.716 16.133 4.57-1.8 5.477 13.622 1.587 16.098-.42 2.163-1.796 3.375-6.593 5.747-9 6.144-6.157-4.397-4.169-4.19-7.744.278-5.966 13.83-3.838 15.58-10.867 1.765-6.995 11.06-.89 12.099-2.495-2.631 4.012-13.484 5.303-14.09 10.414-1.316 11.233 9.433 5.669 14.09 6.157 4.154.401 10.351-2.302 12.445 2.826 1.42 3.436-20.65.942-20.65 3.175 0 .767 6.387 2.895 4.258 4.256-3.93 2.494-7.374-3.384-10.784 1.465-1.627 2.285-1.211 10.012-4.794 8.826-6.526-2.198-14.904.296-21.274.296-5.28 0-9.226.698-8.188-6.802.571-4.117-6.889-2.111-7.945-.07-2.7 5.426 1.108 5.426 2.13 9.542-1.057-4.29-19.128 6.14-22.105 7.082-4.293 1.395-2.13 5.076-8.725 6.384-1.696.366-14.747 2.547-15.388 4.448-.571 1.727 16.773 3.14 10.386 14.81-2.198 3.924-19.162-1.065-23.23.557-1.592.646-3.721 14.408-3.79 16.45-.208 4.464 15.18 10.256 14.54 10.936 1.852-1.814 19.871-7.1 18.694-10.292-1.8-4.97 13.086-16.222 17.102-14.983 4.968 1.483 6.734-.89 10.957-2.965 4.432-2.25 7.6 5.25 10.386 7.238 2.943 2.129 6.56 2.844 9.901 4.17 3.012 1.168 4.605 8.198 6.734 8.32 2.44.14-1.09-8.007 6.128-7.466-5.782-4.047-11.321-8.25-16.999-12.245-.346-.227-6.387-4.989-2.06-5.494 3.688-.437 9.434 5.86 12.17 7.727 7.633 5.32 12.202 12.175 16.288 20.478 2.908 5.913 15.319-.646 6.18-7.605-.347-.28 6.525-4.483 6.889-4.64 4.638-2.11 2.734 8.303 3.583 10.047 3.012 5.896 18.452 7.047 23.627 6.035 13.623-2.651 6.994 7.361 1.853 16.03-.103.174-14.298.541-21.17 2.774 2.198-1.465 4.396-2.983 3.583-3.995-1.212-1.57-22.693-3.924-24.268-3.14-7.945 3.96-10.577 9.472-19.682 3.245-4.12-2.826-9.122-2.913-13.345-5.704-8.257-5.46 1.055-2.512-1.593-9.82-5.245-14.513-68.702 3.244-69.637 19.187-.467 8.285-11.095 8.041-14.869 14.861-4.293 7.745-7.703 12.263-5.574 20.775.952 3.837.814 15.751-4.795 16.85-5.314 1.099 12.377 17.827 12.308 17.74 3.964 4.761 7.027 9.297 11.77 13.483 10.074 8.896 7.166 1.866 18.124 1.866 10.143 0 16.773-4.552 26.137-5.616 6.024-.68 5.92 5.11 9.019 8.215 3.929 4.012 7.945-3.924 10.455-1.919 8.014 6.367 1.056 11.426-.14 20.932-.31 2.093 10.144 12.96 11.737 15.454 1.523 2.39 6.023 19.537 4.57 20.636-8.725 6.576-7.41 16.553-2.7 25.152 4.05 7.379 7.235 12.629 7.235 21.35 0 6.228 6.993 11.618 9.053 17.443.986 2.826 3.687 19.013 10.784 11.966 5.642-5.79 19.127-.75 26.778-8.285 2.406-2.337 14.904-13.117 14.003-16.833-2.233-8.651 9.676-5.86 8.31-12.942-1.386-7.134-4.294-12.088 3.755-16.972 8.292-5.041 14.038-7.902 12.636-19.519-.675-5.86-1.09-15.699-4.864-20.74-3.617-4.866 6.595-13.78 9.053-16.588 10.178-11.46 20.045-18.053 28.163-31.537 16.462-27.315-24.943.384-23.8-10.535.744-6.89-11.494-17.548-14.54-23.321-5.575-10.693-10.421-22.676-16.947-32.846 10.645-2.634 14.09 14.182 17.88 22.136 2.476 5.075 7.98 7.186 10.075 12.768 2.77 7.36.848 17.983 11.355 15.472 10.317-2.512 26.848-8.233 34.966-14.757 5.349-4.291 8.516-9.82 12.584-15.193 2.199-2.965-10.957-12.96-12.705-12.96-.848 0-12.169 10.518-12.48 6.28-.312-4.152-7.738-11.251-10.75-14.356-2.562-2.686-2.63-6.541 1.454-7.989 2.839-.994 4.397 5.198 5.505 6.61 2.44 2.949 8.187 6.298 11.736 7.466 2.475.855 5.002-3.523 7.34-2.564 5.954 2.32 5.78 6.925 13.449 7.466 6.595.436 10.212-.366 15.925-2.669 10.784-4.326 13.38 26.531 23.333 12.367.035 8.303-.242 15.437 3.514 23.095 1.246 2.581 12.67 26.53 12.913 26.53 5.141 0 9.019-16.78 9.4-20.547.674-6.646 2.873-9.088 6.058-11.792v-154.98h-12.671zm-147.878 210.45c2.199 3.558-6.023 12.994-7.2 6.976-.606-2.948 3.652-12.663 7.2-6.977zm-3.115-202.095c-1.454 1.971-8.897-.174-7.946-2.86 1.42-3.995 9.365.854 7.946 2.86zm27.453 64.225c-9.642 2.424-15.717-3.053-24.788-2.826-2.163.07-19.37 6.594-20.252 4.832-.675-5.809 5.037-22.188 13.052-20.565 6.127 1.168 2.336 9.942 10.177 6-.207.105 10.542-10.256 10.075-5.39-.14 1.012-4.431 2.721-3.756 3.454.484.523 22.935 12.611 15.492 14.495zm44.226-13.972c-3.964 2.896-13.19-4.169-13.9 3.402-.068.75 6.925 7.5 8.379 7.954 1.384.418 3.046 9.89 3.79 13.274 2.13 9.541-13.19 3.732-17.552 2.494-8.759-2.582 4.674-9.943 5.383-10.57.918-.838-10.04-7.99-11.493-10.082-8.153-11.67 4.898-7.623 9.538-10.484 2.267-1.43 4.535-4.238 7.443-3.68 1.211.227 11.009 5.686 8.412 7.692zm14.586 326.86h64.133v-54.432c-1.489-.328-2.735-.509-3.272-.509-1.817 0-1.489 4.363-1.42 5.347-.882-1.247-5.47-4.51-5.434-4.838-.606 3.69-2.528 5.543-3.965 8.872-1.8 4.363-9.225-6.412-13.45.738-3.27 5.543-6.213 4.248-10.575 8.364-2.199 2.1-.208 6.938-3.618 7.397-2.943.41-6.924 2.05-9.867 1.984-6.352-.163-9.295 3.132-14.575 6.216-4.57 2.657.71 10.627-.276 14.087-.658 2.362.796 4.56 2.319 6.774z"
				style="fill:#fff" transform="matrix(.2362 0 0 .24579 489.494 -128.987)" /></g>
		<path
			d="M55.788 124.451c-14.995-2.035-29.626-10.563-39.356-22.939-3.639-4.628-4.128-6.307-1.839-6.307 1.615 0 2.655-.815 2.655-2.08 0-.54.558-.967 1.508-1.157.887-.177 1.872-.888 2.39-1.723a24.3 24.3 0 0 1 2.008-2.697c.619-.702 1.283-1.799 1.476-2.437.253-.836.997-1.334 2.658-1.778 2.599-.695 3.502-1.936 4.048-5.558.186-1.235.86-2.79 1.514-3.5 1.382-1.496 2.162-3.46 1.878-4.728-.299-1.332-4.889-3.38-10.461-4.666-.89-.205-1.404-.66-1.404-1.24 0-.886-2.464-3.659-3.251-3.659-.214 0-1.522-.487-2.908-1.083-1.73-.745-2.52-1.382-2.52-2.036 0-.807-.407-.953-2.68-.958-3.946-.01-5.487-.208-5.487-.704 0-.243-.49-.314-1.087-.158-1.034.27-1.072.154-.774-2.365.437-3.7 3.167-12.175 5.293-16.432C18.669 17.78 35.9 5.214 56.039 2.269c6.13-.896 16.364-.35 22.611 1.205 2.748.685 5.14 1.39 5.318 1.567.177.177-2.401.321-5.729.321-5.457 0-6.163.106-7.199 1.08-.632.593-2.255 1.802-3.606 2.687-2.157 1.41-2.457 1.825-2.457 3.382 0 1.558.186 1.814 1.53 2.102.843.18 1.245.355.894.388-.35.033-.638.61-.638 1.281 0 .844-.358 1.31-1.159 1.512-.637.16-2.188.964-3.445 1.787-1.258.822-3.034 1.654-3.946 1.847-1.992.42-2.082.896-.383 2.009 2.214 1.45 1.641 2.344-1.501 2.344-1.528 0-2.898.194-3.044.432-.147.237-.418 1.377-.603 2.532-.321 2.007-.254 2.15 1.489 3.179L55.996 33l-1.763 1.548c-.97.852-1.763 1.857-1.763 2.235 0 .378-.784 1.285-1.742 2.015-2.089 1.594-3.4 4.606-3.288 7.557.045 1.188-.221 2.645-.591 3.238-.614.983-.412 1.386 2.297 4.585 4.323 5.105 3.973 4.969 9.486 3.7l4.713-1.086.854 1.132c.486.645 1.276 1.062 1.836.97 1.776-.293 2.2.385 1.634 2.613-.436 1.719-.367 2.25.437 3.368 2.66 3.698 3.495 6.91 2.147 8.259-.881.881-.6 3.906.578 6.215.57 1.118 1.037 2.508 1.037 3.088 0 1.148 3.32 8.467 4.043 8.914.245.151 1.1-.067 1.902-.485.801-.418 2.093-.761 2.872-.763 1.69-.004 5.986-3.712 5.986-5.168 0-.524.46-1.239 1.021-1.59.752-.469 1.021-1.19 1.021-2.732 0-3.018 2.772-5.334 3.155-2.637.316 2.224 1.99 1.363 3.627-1.864 1.906-3.758 2.426-7.28 1.146-7.771-.61-.235-1.243.116-2.061 1.139-1.317 1.647-1.698 1.49-2.577-1.066-.728-2.119-.463-2.596 4.12-7.41 1.738-1.826 3.671-4.322 4.297-5.549 1.507-2.953.962-3.52-2.597-2.698-2.121.49-2.737.482-3.066-.037-.666-1.048-.526-1.16 1.489-1.18 2.75-.03 8.378-2.81 10.006-4.945 1.757-2.303 1.702-3.515-.223-4.938-.864-.64-1.44-1.294-1.28-1.455.162-.16.766.136 1.344.66 1.1.995 4.004 1.291 5.9.602.884-.321 1.312-.028 2.431 1.662.747 1.13 1.69 2.053 2.094 2.053.449 0 .869.746 1.077 1.914.52 2.915 3.655 9.445 4.415 9.198.357-.116 1.014-1.343 1.459-2.726l.809-2.516.323 2.553c1.284 10.138.727 18.593-1.781 27.036-2.06 6.932-4.674 12.519-5.87 12.546-1.068.023-3.933 2.391-4.374 3.615-.168.464-1.16.987-2.255 1.187-3.188.583-4.252 1.54-4.252 3.825 0 2.7.423 3.603 1.69 3.603.933 0 .812.27-.948 2.108-1.11 1.159-3.817 3.455-6.017 5.103-11.171 8.37-22.96 12.264-36.663 12.11-3.747-.042-7.5-.17-8.343-.284zm2.68-105.078c.992-.305.773-.988-1.02-3.18-.913-1.114-1.898-2.43-2.19-2.924-.497-.845-.626-.848-2.169-.05-.902.466-1.64 1.06-1.64 1.322 0 .26-.591 1.065-1.314 1.788-1.474 1.474-1.42 2.484.147 2.716.646.096 1.444-.346 2.075-1.148 1.231-1.566 1.642-1.659 1.284-.291-.6 2.296 1.087 2.914 4.827 1.767z"
			style="fill:silver;fill-opacity:1;fill-rule:evenodd;stroke:none" />
		<path
			d="M72.277 35.375c-2.084-.897-2.425-1.249-2.425-2.501 0-1.836-1.351-2.248-5.962-1.818l-3.302.309.975-1.644c.811-1.365 1.25-1.621 2.59-1.513 1.104.088 1.615-.096 1.615-.583 0-.392.587-.86 1.303-1.04 1.324-.332 2.66.42 5.705 3.206 1.16 1.062 1.368 1.107 1.773.383.694-1.24 1.619-.99 2.623.712.498.842 1.064 1.528 1.26 1.523.981-.021 1.748-1.014 1.504-1.949-.157-.598.007-1.147.387-1.293.84-.322 1.27.11 1.27 1.275 0 1.295 1.78 2.093 4.67 2.093 2.644 0 3.204.78 1.838 2.56-.748.974-4.467 1.798-4.467.989 0-.292-1.23-.684-2.736-.873-2.04-.254-3.138-.134-4.314.474-.867.449-1.646.797-1.73.775-.084-.023-1.244-.511-2.577-1.085zm-1.915-5.492c0-.6-2.02-1.741-2.404-1.358-.15.151-.138.63.028 1.062.327.852 2.376 1.106 2.376.296zm13.014-2.629c.873-2.915 2.52-4.358 3.137-2.75.33.861 1.768 1.02 2.51.279.31-.31 1.23.144 2.526 1.247l2.04 1.734-3.829-.098c-2.106-.054-4.486.105-5.289.354-1.373.426-1.438.38-1.095-.766z"
			style="fill:silver;fill-opacity:1;fill-rule:evenodd;stroke:none" />
		<path
			d="m100.482 31.303-1.784-.511 1.227-.994 1.227-.994-1.612-1.663c-.887-.915-1.612-1.884-1.612-2.153 0-.67 3.842-1.82 4.822-1.444 1.242.477.928 1.1-.424.842-1.712-.327-2.152.748-.866 2.117 1.688 1.797 2.497 5.532 1.16 5.358-.195-.026-1.156-.277-2.138-.558z"
			style="fill:#a9a9a9;fill-opacity:1;fill-rule:evenodd;stroke:none" />
		<path
			d="M69.848 16.782c-.218-.217-.382-.573-.365-.79.073-.915.009-1.026-.595-1.029-.322-.002-.883-.106-1.245-.232l-.659-.23.93-.247c.51-.136 1.254-.254 1.651-.264l.722-.017-.035 1.037c-.033.97-.006 1.044.42 1.151.644.162 2.293-.061 3.02-.408.37-.177.779-.59 1.023-1.037a13.91 13.91 0 0 1 .832-1.317c.596-.806.544-1.197-.207-1.555-1.172-.56-.775-1.09 1.386-1.853.916-.323 1.307-.654 1.595-1.35.12-.286.374-.571.566-.632.472-.15 1.805.088 1.675.299-.057.093-.577.407-1.156.7-1.39.7-1.873 1.316-1.752 2.227.05.38.241.808.423.951.337.265.404.264 3.784-.036 1.17-.104 1.324-.078 1.685.283.218.218.343.451.277.517-.066.067-1.068.164-2.226.218-2.6.12-2.825.226-1.998.936l.614.526-1.095-.108c-1.306-.13-1.507.024-2.005 1.527-.263.794-.401.985-.69.954-1.011-.108-1.82-.101-3.902.03-2.2.14-2.291.131-2.673-.25z"
			style="fill:#333;fill-opacity:1;fill-rule:evenodd;stroke:none" />
		<path
			d="M69.848 16.782c-.218-.217-.382-.573-.365-.79.073-.915.009-1.026-.595-1.029-.322-.002-.883-.106-1.245-.232l-.659-.23.93-.247c.51-.136 1.254-.254 1.651-.264l.722-.017-.035 1.037c-.033.97-.006 1.044.42 1.151.644.162 2.293-.061 3.02-.408.37-.177.779-.59 1.023-1.037a13.91 13.91 0 0 1 .832-1.317c.596-.806.544-1.197-.207-1.555-1.172-.56-.775-1.09 1.386-1.853.916-.323 1.307-.654 1.595-1.35.12-.286.374-.571.566-.632.472-.15 1.805.088 1.675.299-.057.093-.577.407-1.156.7-1.39.7-1.873 1.316-1.752 2.227.05.38.241.808.423.951.337.265.404.264 3.784-.036 1.17-.104 1.324-.078 1.685.283.218.218.343.451.277.517-.066.067-1.068.164-2.226.218-2.6.12-2.825.226-1.998.936l.614.526-1.095-.108c-1.306-.13-1.507.024-2.005 1.527-.263.794-.401.985-.69.954-1.011-.108-1.82-.101-3.902.03-2.2.14-2.291.131-2.673-.25zm19.18-8.2c-.344-1.3-.336-1.377.117-1.269.24.057.863.164 1.384.237.963.135 1.994.55 1.988.8-.009.441-.401.555-1.848.537-1.22-.016-1.583-.083-1.641-.305zm-3.301 3.491c-.332-.232-.382-.36-.218-.557a.517.517 0 0 1 .53-.144c.41.144.982.636.982.842 0 .27-.838.179-1.294-.14z"
			style="fill:silver;fill-opacity:1;fill-rule:evenodd;stroke:none" />
		<path
			d="M102.036 41.91c-.199-.444-.886-1.395-1.525-2.115-1.21-1.359-1.369-1.778-.866-2.28.486-.487.75-.352 1.305.667.52.957 1.455 1.718 2.783 2.268.468.194.664.196.963.01.314-.197.416-.179.629.11.218.295.21.354-.063.414-.174.038-.84.444-1.48.9-.64.458-1.214.831-1.274.831-.06 0-.272-.362-.472-.805z"
			style="fill:#a9a9a9;fill-opacity:1;fill-rule:evenodd;stroke:none" />
		<path
			d="M94.697 51.425c-.065-.205-.744-1.21-1.509-2.232-.984-1.316-1.805-2.741-2.812-4.88-.783-1.66-1.643-3.404-1.912-3.873-.27-.47-.491-.917-.493-.996-.005-.318.765-.11 1.32.356.671.566 1.014 1.183 1.96 3.529.445 1.103.981 2.019 1.608 2.748 1.154 1.343 1.233 1.5 1.649 3.276.183.782.447 1.606.588 1.83.215.346.213.426-.013.513-.159.06-.316-.05-.386-.27zM74.537 29.7c.037-.189.263-.442.504-.562.24-.12.416-.292.391-.384-.025-.091-.905-.815-1.956-1.609-2.007-1.517-2.711-2.18-2.518-2.373.503-.503 4.124 2.441 5.505 4.475.464.683.39.847-.182.398-.629-.495-.916-.495-1.413.003-.355.355-.39.36-.33.052z"
			style="fill:silver;fill-opacity:1;fill-rule:evenodd;stroke:none" />
		<path d="M6.644 83.072a169.6 169.6 0 0 0-.69-2.457c-.829-2.908-.83-3.102-.006-2.217.87.935 1.134 1.978.903 3.561-.1.683-.193 1.184-.207 1.113z" style="fill:#f5f5f5;fill-opacity:1;fill-rule:evenodd;stroke:none" /></g></svg>