<svg xmlns="http://www.w3.org/2000/svg" xml:space="preserve" width="128" height="128"><defs><clipPath id="a" clipPathUnits="userSpaceOnUse"><path d="M126.293 63.905a61.63 62.957 0 1 1-123.259 0 61.63 62.957 0 1 1 123.26 0z" style="fill:red;fill-opacity:1;fill-rule:evenodd;stroke:none" transform="translate(787.561 700.502)scale(.12973)"/></clipPath></defs>
	<g clip-path="url(#a)" transform="translate(-6070.79 -5399.71)scale(7.70834)"><path d="M509.778 597.159c-12.427 0-22.5 10.074-22.5 22.5 0 12.428 10.073 22.5 22.5 22.5s22.5-10.072 22.5-22.5c-.001-12.426-10.073-22.5-22.5-22.5zm-.559 36.414a3.069 3.069 0 0 1-3.054-3.055 3.067 3.067 0 0 1 3.054-3.053 3.066 3.066 0 0 1 3.054 3.053 3.068 3.068 0 0 1-3.054 3.055zm2.904-11.791c-.892 1.305-.594 3.129-3.052 3.129-1.602 0-2.385-1.305-2.385-2.496 0-4.432 6.519-5.436 6.519-9.086 0-2.012-1.34-3.203-3.576-3.203-4.767 0-2.905 4.916-6.518 4.916-1.304 0-2.421-.783-2.421-2.271 0-3.65 4.172-6.891 8.714-6.891 4.769 0 9.46 2.197 9.46 7.449.001 4.842-5.55 6.703-6.741 8.453z" style="fill:#333"/></g>
	<path
		d="M122.5 49.218c-16.642 0-30.182 13.54-30.182 30.181 0 16.641 13.541 30.181 30.182 30.181s30.181-13.54 30.181-30.181c0-16.641-13.539-30.181-30.181-30.181zm0 56.156c-14.347 0-25.976-11.629-25.976-25.975 0-14.346 11.628-25.975 25.976-25.975 14.345 0 25.975 11.629 25.975 25.975 0 14.346-11.63 25.975-25.975 25.975zm54.773-21.113c.141-1.603.227-3.223.227-4.862 0-1.639-.086-3.259-.227-4.862l-10.918-1.293a43.973 43.973 0 0 0-2.794-10.446l8.815-6.581a54.783 54.783 0 0 0-4.873-8.417l-10.106 4.344a44.461 44.461 0 0 0-7.642-7.642l4.342-10.107a54.932 54.932 0 0 0-8.416-4.872l-6.582 8.814a43.929 43.929 0 0 0-10.445-2.793l-1.293-10.919a55.824 55.824 0 0 0-4.862-.226c-1.642 0-3.259.086-4.864.226l-1.291 10.919a43.911 43.911 0 0 0-10.446 2.793l-6.581-8.814a54.907 54.907 0 0 0-8.417 4.872l4.342 10.107a44.49 44.49 0 0 0-7.641 7.642L77.495 47.8a54.99 54.99 0 0 0-4.872 8.417l8.814 6.581a43.924 43.924 0 0 0-2.793 10.446l-10.919 1.292a55.867 55.867 0 0 0-.225 4.863c0 1.639.085 3.259.226 4.863l10.919 1.292A44.031 44.031 0 0 0 81.438 96l-8.814 6.581a54.942 54.942 0 0 0 4.872 8.417l10.107-4.343a44.52 44.52 0 0 0 7.641 7.641l-4.342 10.106a54.912 54.912 0 0 0 8.417 4.873l6.581-8.814a44.019 44.019 0 0 0 10.446 2.793l1.291 10.919a55.87 55.87 0 0 0 4.864.226c1.639 0 3.259-.086 4.862-.226l1.293-10.919a44.023 44.023 0 0 0 10.445-2.793l6.582 8.814a54.974 54.974 0 0 0 8.416-4.871l-4.342-10.108a44.562 44.562 0 0 0 7.642-7.641l10.106 4.343a54.912 54.912 0 0 0 4.873-8.417L163.561 96a43.986 43.986 0 0 0 2.794-10.446l10.918-1.293zM122.5 111.714c-17.819 0-32.315-14.497-32.315-32.314s14.496-32.314 32.315-32.314c17.817 0 32.314 14.497 32.314 32.314s-14.497 32.314-32.314 32.314z"
		style="fill:#ccc" transform="matrix(1.04482 0 0 1.04137 -62.766 -17.658)" /></svg>