<svg xmlns="http://www.w3.org/2000/svg" xml:space="preserve" width="128" height="128"><defs><clipPath id="a" clipPathUnits="userSpaceOnUse"><path d="M126.293 63.905a61.63 62.957 0 1 1-123.259 0 61.63 62.957 0 1 1 123.26 0z" style="fill:red;fill-opacity:1;fill-rule:evenodd;stroke:none" transform="translate(787.561 700.502)scale(.12973)"/></clipPath></defs>
	<g clip-path="url(#a)" transform="translate(-6070.79 -5399.71)scale(7.70834)"><path d="M509.778 597.159c-12.427 0-22.5 10.074-22.5 22.5 0 12.428 10.073 22.5 22.5 22.5s22.5-10.072 22.5-22.5c-.001-12.426-10.073-22.5-22.5-22.5zm-.559 36.414a3.069 3.069 0 0 1-3.054-3.055 3.067 3.067 0 0 1 3.054-3.053 3.066 3.066 0 0 1 3.054 3.053 3.068 3.068 0 0 1-3.054 3.055zm2.904-11.791c-.892 1.305-.594 3.129-3.052 3.129-1.602 0-2.385-1.305-2.385-2.496 0-4.432 6.519-5.436 6.519-9.086 0-2.012-1.34-3.203-3.576-3.203-4.767 0-2.905 4.916-6.518 4.916-1.304 0-2.421-.783-2.421-2.271 0-3.65 4.172-6.891 8.714-6.891 4.769 0 9.46 2.197 9.46 7.449.001 4.842-5.55 6.703-6.741 8.453z" style="fill:#333"/></g>
	<path
		d="m591.775 515.452-10.129-10.127a2.378 2.378 0 0 0-2.822-.393l-2.16-2.16a15.968 15.968 0 0 0 2.932-9.223c0-8.857-7.207-16.063-16.064-16.063s-16.063 7.205-16.063 16.063c0 8.858 7.205 16.064 16.063 16.064 3.418 0 6.582-1.08 9.188-2.906l2.174 2.176a2.38 2.38 0 0 0 .414 2.781l10.129 10.127a2.383 2.383 0 0 0 3.363 0l2.977-2.975a2.39 2.39 0 0 0-.002-3.364zm-28.244-11.787c-5.584 0-10.113-4.529-10.113-10.115 0-5.584 4.529-10.113 10.113-10.113 5.586 0 10.115 4.529 10.115 10.113 0 5.586-4.529 10.115-10.115 10.115z"
		style="fill:#ccc" transform="translate(-1436.856 -1252.068)scale(2.63505)" /></svg>