<svg xmlns="http://www.w3.org/2000/svg" xml:space="preserve" width="136.533" height="136.533" viewBox="0 0 128 128"><defs><clipPath id="a" clipPathUnits="userSpaceOnUse"><ellipse cx="43.981" cy="52.106" rx="43.981" ry="52.026" style="fill:#a9a9a9;fill-opacity:1;fill-rule:evenodd;stroke:none" transform="matrix(.18154 0 0 .15447 788.014 700.64)"/></clipPath><clipPath
	id="b" clipPathUnits="userSpaceOnUse"><ellipse cx="43.981" cy="52.106" rx="43.981" ry="52.026" style="fill:#a9a9a9;fill-opacity:1;fill-rule:evenodd;stroke:none" transform="matrix(.18154 0 0 .15447 788.014 700.64)"/></clipPath></defs>
	<g clip-path="url(#a)" transform="translate(-6070.79 -5399.71)scale(7.70834)"><path d="M509.778 597.159c-12.427 0-22.5 10.074-22.5 22.5 0 12.428 10.073 22.5 22.5 22.5s22.5-10.072 22.5-22.5c-.001-12.426-10.073-22.5-22.5-22.5zm-.559 36.414a3.069 3.069 0 0 1-3.054-3.055 3.067 3.067 0 0 1 3.054-3.053 3.066 3.066 0 0 1 3.054 3.053 3.068 3.068 0 0 1-3.054 3.055zm2.904-11.791c-.892 1.305-.594 3.129-3.052 3.129-1.602 0-2.385-1.305-2.385-2.496 0-4.432 6.519-5.436 6.519-9.086 0-2.012-1.34-3.203-3.576-3.203-4.767 0-2.905 4.916-6.518 4.916-1.304 0-2.421-.783-2.421-2.271 0-3.65 4.172-6.891 8.714-6.891 4.769 0 9.46 2.197 9.46 7.449.001 4.842-5.55 6.703-6.741 8.453z" style="fill:#333"/></g>
	<path
		d="M68.01 95.531c4.574-3.735 19.627-14.262 20.059-14.027.505.275.376 31.424-.132 31.855-.195.165-4.936-3.086-10.536-7.226-5.6-4.14-10.58-7.748-11.067-8.018-.628-.35-.143-1.099 1.675-2.584zm-31.305 1.614c.12-8.581.344-15.83.499-16.109.35-.629 25.233 15.192 25.166 16.001-.06.739-25.31 16.568-25.64 16.074-.133-.2-.145-7.385-.025-15.966z"
		style="fill:silver;fill-opacity:1;fill-rule:evenodd;stroke:none" transform="translate(1.494)" />
	<g clip-path="url(#b)" transform="translate(-6375.73 -5435.015)scale(7.70834)"><path d="M509.778 597.159c-12.427 0-22.5 10.074-22.5 22.5 0 12.428 10.073 22.5 22.5 22.5s22.5-10.072 22.5-22.5c-.001-12.426-10.073-22.5-22.5-22.5zm-.559 36.414a3.069 3.069 0 0 1-3.054-3.055 3.067 3.067 0 0 1 3.054-3.053 3.066 3.066 0 0 1 3.054 3.053 3.068 3.068 0 0 1-3.054 3.055zm2.904-11.791c-.892 1.305-.594 3.129-3.052 3.129-1.602 0-2.385-1.305-2.385-2.496 0-4.432 6.519-5.436 6.519-9.086 0-2.012-1.34-3.203-3.576-3.203-4.767 0-2.905 4.916-6.518 4.916-1.304 0-2.421-.783-2.421-2.271 0-3.65 4.172-6.891 8.714-6.891 4.769 0 9.46 2.197 9.46 7.449.001 4.842-5.55 6.703-6.741 8.453z" style="fill:#333"/></g>
	<path
		d="M63.825 31.115 34.89 61.207c-1.91-1.955-4.515-3.785-5.95-5.973 11.686-12.314 20.425-21.06 33.13-33.927.514-.591 2.404-1.127 3.62-.198 11.837 12.083 21.185 21.197 33.37 34.394-1.68 1.852-3.14 3.8-4.9 5.91-10.674-10.24-19.61-20.124-30.335-30.298Z"
		style="fill:silver;fill-opacity:1;fill-rule:evenodd;stroke:none;stroke-width:1;stroke-opacity:1" transform="translate(-.271 -.063)" />
	<path d="M24.532 80.522C13.033 77.27 7.742 64.185 13.984 54.44c9.213-14.383 31.776-6.41 30.478 10.77-.765 10.118-10.864 17.877-19.93 15.313z" style="fill:silver;fill-opacity:1;fill-rule:evenodd;stroke:none;stroke-width:1.04750836"
		transform="translate(-.271 -.063)" />
	<path d="M97.226 80.766c-11.5-3.3-16.79-16.578-10.548-26.468 9.213-14.596 31.775-6.505 30.477 10.929-.765 10.267-10.863 18.141-19.93 15.54Z" style="fill:silver;fill-opacity:1;fill-rule:evenodd;stroke:none;stroke-width:1.05521846"
		transform="translate(-.271 -.063)" /></svg>