<svg xmlns="http://www.w3.org/2000/svg" xml:space="preserve" width="136.533" height="136.533" viewBox="0 0 128 128"><path d="M509.778 597.159c-12.427 0-22.5 10.074-22.5 22.5 0 12.428 10.073 22.5 22.5 22.5s22.5-10.072 22.5-22.5c-.001-12.426-10.073-22.5-22.5-22.5zm-.559 36.414a3.069 3.069 0 0 1-3.054-3.055 3.067 3.067 0 0 1 3.054-3.053 3.066 3.066 0 0 1 3.054 3.053 3.068 3.068 0 0 1-3.054 3.055zm2.904-11.791c-.892 1.305-.594 3.129-3.052 3.129-1.602 0-2.385-1.305-2.385-2.496 0-4.432 6.519-5.436 6.519-9.086 0-2.012-1.34-3.203-3.576-3.203-4.767 0-2.905 4.916-6.518 4.916-1.304 0-2.421-.783-2.421-2.271 0-3.65 4.172-6.891 8.714-6.891 4.769 0 9.46 2.197 9.46 7.449.001 4.842-5.55 6.703-6.741 8.453z" style="fill:#333" transform="translate(-6070.79 -5399.71)scale(7.70834)"/><path d="M433 547h-12c-.6 0-1-.4-1-1v-13h-8v13c0 .6-.4 1-1 1h-12c-.6 0-1-.4-1-1v-20c0-.6.4-1 1-1s1 .4 1 1v19h10v-13c0-.6.4-1 1-1h10c.6 0 1 .4 1 1v13h10v-18c0-.6.4-1 1-1s1 .4 1 1v19c0 .6-.4 1-1 1z" style="fill:silver;fill-opacity:1;stroke:silver;stroke-width:1.55918088;stroke-miterlimit:4;stroke-dasharray:none;stroke-opacity:1" transform="translate(-936.037 -1199.89)scale(2.4051)"/><path d="M439 526c-.3 0-.5-.1-.7-.3L416 503.4l-22.3 22.3c-.4.4-1 .4-1.4 0-.4-.4-.4-1 0-1.4l23-23c.4-.4 1-.4 1.4 0l23 23c.4.4.4 1 0 1.4-.2.2-.4.3-.7.3z" style="fill:silver;fill-opacity:1;stroke:silver;stroke-width:1.63422711;stroke-miterlimit:4;stroke-dasharray:none;stroke-opacity:1" transform="matrix(2.40537 0 0 2.18905 -936.823 -1082.852)"/><path d="M431 512c-.6 0-1-.4-1-1v-6h-6c-.6 0-1-.4-1-1s.4-1 1-1h7c.6 0 1 .4 1 1v7c0 .6-.4 1-1 1z" style="fill:silver;fill-opacity:1;stroke:silver;stroke-width:1.55918088;stroke-miterlimit:4;stroke-dasharray:none;stroke-opacity:1" transform="translate(-935.36 -1192.445)scale(2.4051)"/></svg>