<svg xmlns="http://www.w3.org/2000/svg" xml:space="preserve" width="128" height="128"><defs><clipPath id="a" clipPathUnits="userSpaceOnUse"><path d="M87.962 52.106a43.981 52.026 0 1 1-87.962 0 43.981 52.026 0 1 1 87.962 0z" style="fill:#a9a9a9;fill-opacity:1;fill-rule:evenodd;stroke:none" transform="matrix(.18154 0 0 .15447 788.014 700.64)"/></clipPath></defs>
	<g clip-path="url(#a)" transform="translate(-6070.79 -5399.71)scale(7.70834)"><path d="M509.778 597.159c-12.427 0-22.5 10.074-22.5 22.5 0 12.428 10.073 22.5 22.5 22.5s22.5-10.072 22.5-22.5c-.001-12.426-10.073-22.5-22.5-22.5zm-.559 36.414a3.069 3.069 0 0 1-3.054-3.055 3.067 3.067 0 0 1 3.054-3.053 3.066 3.066 0 0 1 3.054 3.053 3.068 3.068 0 0 1-3.054 3.055zm2.904-11.791c-.892 1.305-.594 3.129-3.052 3.129-1.602 0-2.385-1.305-2.385-2.496 0-4.432 6.519-5.436 6.519-9.086 0-2.012-1.34-3.203-3.576-3.203-4.767 0-2.905 4.916-6.518 4.916-1.304 0-2.421-.783-2.421-2.271 0-3.65 4.172-6.891 8.714-6.891 4.769 0 9.46 2.197 9.46 7.449.001 4.842-5.55 6.703-6.741 8.453z" style="fill:#333"/></g>
	<g style="fill:silver"><path d="m232.569 79.617-16.755-3.49 2.864-5.115-5.023 3.029-3.585-16.924-3.585 16.924-5.023-3.029 2.864 5.115-16.755 3.49h-.001.001l16.755 3.49-2.864 5.114 5.023-3.029 3.585 16.925 3.585-16.925 5.023 3.029-2.864-5.114 16.755-3.49zm-22.499 4.302a4.301 4.301 0 1 1 0-8.602 4.302 4.302 0 1 1 0 8.602z" style="stroke-width:1;stroke-miterlimit:4;stroke-dasharray:none;fill-opacity:1;stroke-dashoffset:0;stroke:none;stroke-opacity:1;fill-rule:evenodd;stroke-linejoin:round;fill:silver" transform="translate(-528.812 -159.366)scale(2.82117)"/>
		<g style="fill:silver"><path d="M221.139 84.026a11.963 11.963 0 0 1-6.615 6.644l-1.24 5.861c6.939-1.307 12.404-6.779 13.703-13.723l-5.848 1.218zm-6.61-15.44a11.965 11.965 0 0 1 6.603 6.622l5.852 1.219c-1.305-6.932-6.764-12.395-13.695-13.702l1.24 5.861z" style="stroke-width:1;stroke-miterlimit:4;stroke-dasharray:none;fill-opacity:1;stroke-dashoffset:0;stroke:none;stroke-opacity:1;fill-rule:evenodd;stroke-linejoin:round;fill:silver" transform="translate(-528.812 -159.366)scale(2.82117)"/></g></g></svg>