<svg xmlns="http://www.w3.org/2000/svg" xmlns:xlink="http://www.w3.org/1999/xlink" width="303.503" height="335.1"><defs><linearGradient id="L"><stop offset="0" style="stop-color:#000;stop-opacity:1"/><stop offset="1" style="stop-color:#000;stop-opacity:0"/></linearGradient><linearGradient id="x"><stop offset="0" style="stop-color:#fff;stop-opacity:1"/><stop offset="1" style="stop-color:#fff;stop-opacity:0"/></linearGradient><linearGradient id="z"><stop offset="0" style="stop-color:#5b90c8;stop-opacity:1"/><stop offset=".316" style="stop-color:#8fb0d1;stop-opacity:1"/><stop offset="1" style="stop-color:#34679d;stop-opacity:1"/></linearGradient><linearGradient id="y"><stop offset="0" style="stop-color:#729fcf;stop-opacity:1"/><stop offset=".316" style="stop-color:#a5bfda;stop-opacity:1"/><stop offset="1" style="stop-color:#376ca4;stop-opacity:1"/></linearGradient><linearGradient id="w"><stop offset="0" style="stop-color:#fff;stop-opacity:1"/><stop offset="1" style="stop-color:#fff;stop-opacity:0"/></linearGradient><linearGradient id="u"><stop offset="0" style="stop-color:#e7e2b8;stop-opacity:1"/><stop offset="1" style="stop-color:#e7e2b8;stop-opacity:0"/></linearGradient><linearGradient id="r"><stop offset="0" style="stop-color:#fff;stop-opacity:1"/><stop offset=".329" style="stop-color:#fff;stop-opacity:.69"/><stop offset=".658" style="stop-color:#c2c2c2;stop-opacity:.34"/><stop offset="1" style="stop-color:#fff;stop-opacity:0"/></linearGradient><linearGradient id="q"><stop offset="0" style="stop-color:#959791;stop-opacity:1"/><stop offset=".5" style="stop-color:#f8f8f8;stop-opacity:1"/><stop offset="1" style="stop-color:#8c8c8c;stop-opacity:1"/></linearGradient><linearGradient id="p"><stop offset="0" style="stop-color:#f5f5f5;stop-opacity:.09"/><stop offset=".263" style="stop-color:#fff;stop-opacity:.89999998"/><stop offset=".748" style="stop-color:#c7c7c7;stop-opacity:.46000001"/><stop offset="1" style="stop-color:#fff;stop-opacity:.78039217"/></linearGradient><linearGradient id="B"><stop offset="0" style="stop-color:#72cf7b;stop-opacity:1"/><stop offset="1" style="stop-color:#57c552;stop-opacity:1"/></linearGradient><linearGradient id="C"><stop offset="0" style="stop-color:#b9e7c9;stop-opacity:1"/><stop offset="1" style="stop-color:#72cf79;stop-opacity:1"/></linearGradient><linearGradient id="A"><stop offset="0" style="stop-color:#3465a4;stop-opacity:1"/><stop offset="1" style="stop-color:#3465a4;stop-opacity:1"/></linearGradient><linearGradient id="D"><stop offset="0" style="stop-color:#000;stop-opacity:1"/><stop offset="1" style="stop-color:#000;stop-opacity:0"/></linearGradient><linearGradient id="s"><stop offset="0" style="stop-color:#ffd1d1;stop-opacity:1"/><stop offset=".5" style="stop-color:#ff1d1d;stop-opacity:1"/><stop offset="1" style="stop-color:#6f0000;stop-opacity:1"/></linearGradient><linearGradient id="t"><stop offset="0" style="stop-color:#c1c1c1;stop-opacity:1"/><stop offset="1" style="stop-color:#acacac;stop-opacity:1"/></linearGradient><linearGradient id="v"><stop offset="0" style="stop-color:#000;stop-opacity:1"/><stop offset="1" style="stop-color:#c9c9c9;stop-opacity:1"/></linearGradient><linearGradient id="b"><stop offset="0" style="stop-color:black;stop-opacity:1"/><stop offset="1" style="stop-color:black;stop-opacity:0"/></linearGradient><linearGradient id="a"><stop offset="0" style="stop-color:black;stop-opacity:0"/><stop offset=".5" style="stop-color:black;stop-opacity:1"/><stop offset="1" style="stop-color:black;stop-opacity:0"/></linearGradient><linearGradient id="E"><stop offset="0" style="stop-color:#eeebc9;stop-opacity:1"/><stop offset="1" style="stop-color:#ffd420;stop-opacity:1"/><stop offset="1" style="stop-color:#ffec00;stop-opacity:1"/></linearGradient><linearGradient id="d"><stop offset="0" style="stop-color:#729fcf;stop-opacity:1"/><stop offset="1" style="stop-color:#3465a4;stop-opacity:1"/></linearGradient><linearGradient id="c"><stop offset="0" style="stop-color:#fff;stop-opacity:1"/><stop offset="1" style="stop-color:#babdb6;stop-opacity:1"/></linearGradient><linearGradient id="e"><stop offset="0" style="stop-color:#000;stop-opacity:.068627454"/><stop offset="1" style="stop-color:#fff;stop-opacity:1"/></linearGradient><linearGradient id="o"><stop offset="0" style="stop-color:#000;stop-opacity:1"/><stop offset="1" style="stop-color:#000;stop-opacity:0"/></linearGradient><linearGradient id="n"><stop offset="0" style="stop-color:#b6b6b6;stop-opacity:1"/><stop offset=".5" style="stop-color:#f2f2f2;stop-opacity:1"/><stop offset=".676" style="stop-color:#fafafa;stop-opacity:1"/><stop offset=".841" style="stop-color:#d8d8d8;stop-opacity:1"/><stop offset=".875" style="stop-color:#f2f2f2;stop-opacity:1"/><stop offset="1" style="stop-color:#dbdbdb;stop-opacity:1"/></linearGradient><linearGradient id="m"><stop offset="0" style="stop-color:#fff;stop-opacity:1"/><stop offset="1" style="stop-color:#000;stop-opacity:1"/></linearGradient><linearGradient id="l"><stop offset="0" style="stop-color:#98a0a9;stop-opacity:1"/><stop offset="1" style="stop-color:#c3d0dd;stop-opacity:1"/></linearGradient><linearGradient id="k"><stop offset="0" style="stop-color:#fff;stop-opacity:1"/><stop offset="1" style="stop-color:#fff;stop-opacity:0"/></linearGradient><linearGradient id="j"><stop offset="0" style="stop-color:#3465a4;stop-opacity:1"/><stop offset="0" style="stop-color:#9fbce1;stop-opacity:1"/><stop offset="0" style="stop-color:#6b95ca;stop-opacity:1"/><stop offset=".75" style="stop-color:#3d6aa5;stop-opacity:1"/><stop offset="1" style="stop-color:#386eb4;stop-opacity:1"/></linearGradient><linearGradient id="i"><stop offset="0" style="stop-color:#fff;stop-opacity:1"/><stop offset="1" style="stop-color:#fff;stop-opacity:0"/></linearGradient><linearGradient id="h"><stop offset="0" style="stop-color:#000;stop-opacity:1"/><stop offset="1" style="stop-color:#000;stop-opacity:0"/></linearGradient><linearGradient id="g"><stop offset="0" style="stop-color:#fff;stop-opacity:1"/><stop offset=".379" style="stop-color:#fefefe;stop-opacity:1"/><stop offset="1" style="stop-color:#1d1d1d;stop-opacity:1"/></linearGradient><linearGradient id="f"><stop offset="0" style="stop-color:#fff;stop-opacity:1"/><stop offset="1" style="stop-color:#fff;stop-opacity:0"/></linearGradient><linearGradient id="G"><stop offset="0" style="stop-color:black;stop-opacity:1"/><stop offset="1" style="stop-color:black;stop-opacity:0"/></linearGradient><linearGradient id="F"><stop offset="0" style="stop-color:black;stop-opacity:0"/><stop offset=".5" style="stop-color:black;stop-opacity:1"/><stop offset="1" style="stop-color:black;stop-opacity:0"/></linearGradient><linearGradient id="I"><stop offset="0" style="stop-color:#729fcf;stop-opacity:1"/><stop offset="1" style="stop-color:#3465a4;stop-opacity:1"/></linearGradient><linearGradient id="H"><stop offset="0" style="stop-color:#fff;stop-opacity:1"/><stop offset="1" style="stop-color:#babdb6;stop-opacity:1"/></linearGradient><linearGradient id="J"><stop offset="0" style="stop-color:#000;stop-opacity:.068627454"/><stop offset="1" style="stop-color:#fff;stop-opacity:1"/></linearGradient><linearGradient id="K"><stop offset="0" style="stop-color:#fff;stop-opacity:1"/><stop offset="1" style="stop-color:#fff;stop-opacity:0"/></linearGradient><linearGradient xlink:href="#F" id="Q" x1="302.857" x2="302.857" y1="366.648" y2="609.505" gradientTransform="matrix(1.0306 0 0 1.45999 -.765 66.404)" gradientUnits="userSpaceOnUse"/><linearGradient xlink:href="#H" id="T" x1="10.496" x2="10.22" y1="93.338" y2="84.287" gradientTransform="matrix(38.82115 0 0 7.6041 -19.94 112.567)" gradientUnits="userSpaceOnUse"/><linearGradient xlink:href="#I" id="U" x1="6.587" x2="14.511" y1="22.133" y2="22.133" gradientTransform="matrix(16.43182 0 0 17.6877 -19.94 117.782)" gradientUnits="userSpaceOnUse"/><linearGradient xlink:href="#J" id="V" x1="35.433" x2="41.219" y1="4.953" y2="4.953" gradientTransform="matrix(4.3578 0 0 64.69156 -19.004 130.26)" gradientUnits="userSpaceOnUse"/><linearGradient xlink:href="#K" id="W" x1="73.362" x2="-2.758" y1="26.652" y2="21.27" gradientTransform="matrix(17.59295 0 0 16.47148 -37.096 113.741)" gradientUnits="userSpaceOnUse"/><linearGradient id="M"><stop offset="0" style="stop-color:#999;stop-opacity:1"/><stop offset="1" style="stop-color:#999;stop-opacity:0"/></linearGradient><linearGradient xlink:href="#N" id="Y" x1="154.286" x2="605.714" y1="535.219" y2="535.219" gradientUnits="userSpaceOnUse"/><linearGradient id="N"><stop offset="0" style="stop-color:#081074;stop-opacity:1"/><stop offset=".5" style="stop-color:#5873c2;stop-opacity:1"/><stop offset=".75" style="stop-color:#0f99d2;stop-opacity:1"/><stop offset=".938" style="stop-color:#1660d4;stop-opacity:.6156863"/><stop offset="1" style="stop-color:#414cf6;stop-opacity:.21568628"/></linearGradient><linearGradient id="O"><stop offset="0" style="stop-color:#fff;stop-opacity:1"/><stop offset="1" style="stop-color:#fff;stop-opacity:0"/></linearGradient><linearGradient xlink:href="#N" id="ab" x1="154.286" x2="605.714" y1="535.219" y2="535.219" gradientUnits="userSpaceOnUse"/><linearGradient xlink:href="#N" id="ae" x1="154.286" x2="605.714" y1="535.219" y2="535.219" gradientUnits="userSpaceOnUse"/><linearGradient xlink:href="#N" id="ah" x1="154.286" x2="605.714" y1="535.219" y2="535.219" gradientUnits="userSpaceOnUse"/><linearGradient xlink:href="#N" id="ak" x1="154.286" x2="605.714" y1="535.219" y2="535.219" gradientUnits="userSpaceOnUse"/><linearGradient xlink:href="#P" id="an" x1="154.286" x2="605.714" y1="535.219" y2="535.219" gradientUnits="userSpaceOnUse"/><linearGradient id="P"><stop offset="0" style="stop-color:#770900;stop-opacity:1"/><stop offset=".5" style="stop-color:#da101b;stop-opacity:1"/><stop offset=".75" style="stop-color:#d2400f;stop-opacity:1"/><stop offset=".938" style="stop-color:#d44316;stop-opacity:.614583"/><stop offset="1" style="stop-color:#c30000;stop-opacity:.21875"/></linearGradient><radialGradient xlink:href="#G" id="R" cx="605.714" cy="486.648" r="117.143" fx="605.714" fy="486.648" gradientTransform="matrix(1.0306 0 0 1.45999 -.562 66.404)" gradientUnits="userSpaceOnUse"/><radialGradient xlink:href="#G" id="S" cx="605.714" cy="486.648" r="117.143" fx="605.714" fy="486.648" gradientTransform="matrix(-1.0306 0 0 1.45999 744.008 66.404)" gradientUnits="userSpaceOnUse"/><radialGradient xlink:href="#M" id="X" cx="102.143" cy="545.934" r="135" fx="102.143" fy="545.934" gradientUnits="userSpaceOnUse"/><radialGradient xlink:href="#O" id="Z" cx="102.143" cy="545.934" r="135" fx="102.143" fy="545.934" gradientUnits="userSpaceOnUse"/><radialGradient xlink:href="#M" id="aa" cx="102.143" cy="545.934" r="135" fx="102.143" fy="545.934" gradientUnits="userSpaceOnUse"/><radialGradient xlink:href="#O" id="ac" cx="102.143" cy="545.934" r="135" fx="102.143" fy="545.934" gradientUnits="userSpaceOnUse"/><radialGradient xlink:href="#M" id="ad" cx="102.143" cy="545.934" r="135" fx="102.143" fy="545.934" gradientUnits="userSpaceOnUse"/><radialGradient xlink:href="#O" id="af" cx="102.143" cy="545.934" r="135" fx="102.143" fy="545.934" gradientUnits="userSpaceOnUse"/><radialGradient xlink:href="#M" id="ag" cx="102.143" cy="545.934" r="135" fx="102.143" fy="545.934" gradientUnits="userSpaceOnUse"/><radialGradient xlink:href="#O" id="ai" cx="102.143" cy="545.934" r="135" fx="102.143" fy="545.934" gradientUnits="userSpaceOnUse"/><radialGradient xlink:href="#M" id="aj" cx="102.143" cy="545.934" r="135" fx="102.143" fy="545.934" gradientUnits="userSpaceOnUse"/><radialGradient xlink:href="#O" id="al" cx="102.143" cy="545.934" r="135" fx="102.143" fy="545.934" gradientUnits="userSpaceOnUse"/><radialGradient xlink:href="#M" id="am" cx="102.143" cy="545.934" r="135" fx="102.143" fy="545.934" gradientUnits="userSpaceOnUse"/><radialGradient xlink:href="#O" id="ao" cx="102.143" cy="545.934" r="135" fx="102.143" fy="545.934" gradientUnits="userSpaceOnUse"/></defs><path d="M122.907 601.706h497.632v354.569H122.907z" style="opacity:.40206185;fill:url(#Q);fill-opacity:1;fill-rule:nonzero;stroke:none;stroke-width:1;marker:none;visibility:visible;display:inline;overflow:visible" transform="matrix(.23217 -.02631 .0276 .212 52.17 -14.503)"/><path d="M620.54 601.718v354.55c53.073.667 128.305-79.437 128.305-177.298 0-97.86-59.226-177.252-128.306-177.252z" style="opacity:.40206185;fill:url(#R);fill-opacity:1;fill-rule:nonzero;stroke:none;stroke-width:1;marker:none;visibility:visible;display:inline;overflow:visible" transform="matrix(.23217 -.02631 .0276 .212 52.17 -14.503)"/><path d="M122.907 601.718v354.55C69.834 956.935-5.398 876.831-5.398 778.97c0-97.86 59.225-177.252 128.305-177.252z" style="opacity:.40206185;fill:url(#S);fill-opacity:1;fill-rule:nonzero;stroke:none;stroke-width:1;marker:none;visibility:visible;display:inline;overflow:visible" transform="matrix(.23217 -.02631 .0276 .212 52.17 -14.503)"/><path d="M72.094 222.576c1.558-32.95 17.288-51.004 46.573-51.095l503.152-1.548c4.23-.016 9.754 3.444 10.178 7.742l55.905 567.083-22.567.975 10.796 110.904c1.047 10.754-3.112 19.947-18.382 20.02l-526.894 2.503c-43.45.206-88.107-35.767-86.012-80.079l27.251-576.505z" style="fill:#888a85;fill-opacity:1;fill-rule:nonzero;stroke:#204a87;stroke-width:48.0295639;stroke-linecap:round;stroke-linejoin:round;stroke-miterlimit:4;stroke-opacity:1;stroke-dashoffset:0;marker:none;visibility:visible;display:inline;overflow:visible" transform="matrix(.23217 -.02631 .0276 .212 52.17 -14.503)"/><path d="m651.315 727.686-500.76 2.15c-26.705 3.061-48.253 24.022-48.253 51.619 0 27.596 21.548 48.558 48.253 51.618l500.76 2.15v-1.074c-28.405-1.345-51.47-23.876-51.47-52.694s23.065-51.35 51.47-52.694v-1.075z" style="fill:url(#T);fill-opacity:1;fill-rule:nonzero;stroke:none;stroke-width:1;marker:none;visibility:visible;display:inline;overflow:visible" transform="matrix(.23217 -.02631 .0276 .212 52.17 -14.503)"/><path d="M129.109 176.015c-29.285 0-45.25 17.36-46.645 49.232l-28.416 553.21c-1.577 52.968 31.343 83.084 65.41 91.717-72.916-28.058-63.265-154.714 27.88-154.185H677.45l-56.832-532.563c-.441-4.142-5.969-7.411-10.186-7.411H129.109z" style="fill:url(#U);fill-opacity:1;fill-rule:nonzero;stroke:none;stroke-width:1;marker:none;visibility:visible;display:inline;overflow:visible" transform="matrix(.23217 -.02631 .0276 .212 52.17 -14.503)"/><path d="M135.406 195.987h34.313v509.382h-34.313z" style="opacity:.48044691;fill:url(#V);fill-opacity:1;fill-rule:nonzero;stroke:none;stroke-width:1;marker:none;visibility:visible;display:inline;overflow:visible" transform="matrix(.23217 -.02631 .0193 .2128 52.17 -14.503)"/><path d="M132.327 184.982c-28.89 0-40.09 12.598-41.466 43.947l-22.285 514.28c16.013-27.646 41.855-37.557 83.251-37.557h513.867l-48.483-513.38c-.385-4.079-5.889-7.29-10.05-7.29H132.328z" style="fill:none;stroke:url(#W);stroke-width:48.0295639;stroke-linecap:round;stroke-linejoin:miter;stroke-miterlimit:20;stroke-opacity:1;stroke-dasharray:none;stroke-dashoffset:0;marker:none;visibility:visible;display:inline;overflow:visible" transform="matrix(.23217 -.02631 .0276 .212 52.17 -14.503)"/><text xml:space="preserve" x="278.758" y="163.51" style="font-size:127.66687746px;font-style:normal;font-variant:normal;font-weight:400;font-stretch:condensed;text-align:start;line-height:125%;writing-mode:lr;text-anchor:start;fill:#0169c9;fill-opacity:1;stroke:#002350;stroke-width:.69631933999999995;stroke-miterlimit:4;stroke-opacity:1;stroke-dasharray:none;font-family:Impact;-inkscape-font-specification:Impact Condensed" transform="matrix(.66615 0 0 1.50117 -185.346 87.05)"><tspan>Word</tspan></text><text xml:space="preserve" x="556.779" y="163.51" style="font-size:127.66687775px;font-style:normal;font-variant:normal;font-weight:400;font-stretch:condensed;text-align:start;line-height:125%;writing-mode:lr-tb;text-anchor:start;fill:#002b3d;fill-opacity:1;stroke:#002350;stroke-width:.69631934;stroke-miterlimit:4;stroke-opacity:1;stroke-dasharray:none;font-family:Impact;-inkscape-font-specification:Impact Condensed" transform="matrix(.66615 0 0 1.50117 -185.346 87.05)"><tspan x="556.779" y="163.51" style="stroke-width:.69631934">Net</tspan></text><path d="M336.616 423.305c-75.373 96.692-165.154 125.4-205.938 124.034" style="fill:none;stroke:#0a3f6b;stroke-width:18.70209694;stroke-linecap:butt;stroke-linejoin:miter;stroke-miterlimit:4;stroke-opacity:1;stroke-dasharray:none" transform="matrix(.17041 0 0 .151 90.341 9.765)"/><path d="M498.072 135.483c-208.69 156.277-314.605 192.314-378.927 179.69" style="fill:none;stroke:#184086;stroke-width:18.70209694;stroke-linecap:butt;stroke-linejoin:miter;stroke-miterlimit:4;stroke-opacity:1;stroke-dasharray:none" transform="matrix(.17041 0 0 .151 90.341 9.765)"/><path d="M636.463 426.485c-78.013-37.574-145.63-52.283-143.333-287.822-46.099 93.01-77.994 179.166-156.514 287.822-36.96 136.949-19.638 188.76 13.18 216.264" style="fill:none;stroke:#053f9d;stroke-width:18.70209694;stroke-linecap:butt;stroke-linejoin:miter;stroke-miterlimit:4;stroke-opacity:1;stroke-dasharray:none" transform="matrix(.17041 0 0 .151 90.341 9.765)"/><path d="M237.143 545.934c0 74.558-60.442 135-135 135-74.559 0-135-60.442-135-135 0-74.559 60.441-135 135-135 74.558 0 135 60.441 135 135z" style="fill:url(#X);fill-opacity:1;stroke:none" transform="matrix(.05247 -.01468 .02328 .0331 131.654 95.754)"/><path d="M605.714 535.22c0 124.658-101.055 225.714-225.714 225.714-124.659 0-225.714-101.056-225.714-225.715 0-124.658 101.055-225.714 225.714-225.714 124.659 0 225.714 101.056 225.714 225.714z" style="fill:url(#Y);fill-opacity:1;stroke:none" transform="matrix(-.02426 -.0228 .02666 -.02074 144.492 125.543)"/><path d="M237.143 545.934c0 74.558-60.442 135-135 135-74.559 0-135-60.442-135-135 0-74.559 60.441-135 135-135 74.558 0 135 60.441 135 135z" style="opacity:.87614698;fill:url(#Z);fill-opacity:1;stroke:none" transform="matrix(.03605 0 0 .03083 143.88 86.987)"/><path d="M237.143 545.934c0 74.558-60.442 135-135 135-74.559 0-135-60.442-135-135 0-74.559 60.441-135 135-135 74.558 0 135 60.441 135 135z" style="fill:url(#aa);fill-opacity:1;stroke:none" transform="matrix(.05247 -.01468 .02328 .0331 180.352 64.3)"/><path d="M605.714 535.22c0 124.658-101.055 225.714-225.714 225.714-124.659 0-225.714-101.056-225.714-225.715 0-124.658 101.055-225.714 225.714-225.714 124.659 0 225.714 101.056 225.714 225.714z" style="fill:url(#ab);fill-opacity:1;stroke:none" transform="matrix(-.02426 -.0228 .02666 -.02074 193.19 94.09)"/><path d="M237.143 545.934c0 74.558-60.442 135-135 135-74.559 0-135-60.442-135-135 0-74.559 60.441-135 135-135 74.558 0 135 60.441 135 135z" style="opacity:.87614698;fill:url(#ac);fill-opacity:1;stroke:none" transform="matrix(.03605 0 0 .03083 192.578 55.534)"/><path d="M237.143 545.934c0 74.558-60.442 135-135 135-74.559 0-135-60.442-135-135 0-74.559 60.441-135 135-135 74.558 0 135 60.441 135 135z" style="fill:url(#ad);fill-opacity:1;stroke:none" transform="matrix(.05247 -.01468 .02328 .0331 94.72 81.828)"/><path d="M605.714 535.22c0 124.658-101.055 225.714-225.714 225.714-124.659 0-225.714-101.056-225.714-225.715 0-124.658 101.055-225.714 225.714-225.714 124.659 0 225.714 101.056 225.714 225.714z" style="fill:url(#ae);fill-opacity:1;stroke:none" transform="matrix(-.02426 -.0228 .02666 -.02074 107.558 111.617)"/><path d="M237.143 545.934c0 74.558-60.442 135-135 135-74.559 0-135-60.442-135-135 0-74.559 60.441-135 135-135 74.558 0 135 60.441 135 135z" style="opacity:.87614698;fill:url(#af);fill-opacity:1;stroke:none" transform="matrix(.03605 0 0 .03083 106.947 73.061)"/><path d="M237.143 545.934c0 74.558-60.442 135-135 135-74.559 0-135-60.442-135-135 0-74.559 60.441-135 135-135 74.558 0 135 60.441 135 135z" style="fill:url(#ag);fill-opacity:1;stroke:none" transform="matrix(.05247 -.01468 .02328 .0331 129.534 64.06)"/><path d="M605.714 535.22c0 124.658-101.055 225.714-225.714 225.714-124.659 0-225.714-101.056-225.714-225.715 0-124.658 101.055-225.714 225.714-225.714 124.659 0 225.714 101.056 225.714 225.714z" style="fill:url(#ah);fill-opacity:1;stroke:none" transform="matrix(-.02426 -.0228 .02666 -.02074 142.372 93.85)"/><path d="M237.143 545.934c0 74.558-60.442 135-135 135-74.559 0-135-60.442-135-135 0-74.559 60.441-135 135-135 74.558 0 135 60.441 135 135z" style="opacity:.87614698;fill:url(#ai);fill-opacity:1;stroke:none" transform="matrix(.03605 0 0 .03083 141.76 55.294)"/><path d="M237.143 545.934c0 74.558-60.442 135-135 135-74.559 0-135-60.442-135-135 0-74.559 60.441-135 135-135 74.558 0 135 60.441 135 135z" style="fill:url(#aj);fill-opacity:1;stroke:none" transform="matrix(.05247 -.01468 .02328 .0331 91.632 46.052)"/><path d="M605.714 535.22c0 124.658-101.055 225.714-225.714 225.714-124.659 0-225.714-101.056-225.714-225.715 0-124.658 101.055-225.714 225.714-225.714 124.659 0 225.714 101.056 225.714 225.714z" style="fill:url(#ak);fill-opacity:1;stroke:none" transform="matrix(-.02426 -.0228 .02666 -.02074 104.47 75.842)"/><path d="M237.143 545.934c0 74.558-60.442 135-135 135-74.559 0-135-60.442-135-135 0-74.559 60.441-135 135-135 74.558 0 135 60.441 135 135z" style="opacity:.87614698;fill:url(#al);fill-opacity:1;stroke:none" transform="matrix(.03605 0 0 .03083 103.858 37.286)"/><path d="M237.143 545.934c0 74.558-60.442 135-135 135-74.559 0-135-60.442-135-135 0-74.559 60.441-135 135-135 74.558 0 135 60.441 135 135z" style="fill:url(#am);fill-opacity:1;stroke:none" transform="matrix(.05453 -.01526 .02419 .0344 156.54 17.6)"/><path d="M605.714 535.22c0 124.658-101.055 225.714-225.714 225.714-124.659 0-225.714-101.056-225.714-225.715 0-124.658 101.055-225.714 225.714-225.714 124.659 0 225.714 101.056 225.714 225.714z" style="fill:url(#an);fill-opacity:1;stroke:none" transform="matrix(-.0252 -.0237 .0277 -.02156 169.881 48.556)"/><path d="M237.143 545.934c0 74.558-60.442 135-135 135-74.559 0-135-60.442-135-135 0-74.559 60.441-135 135-135 74.558 0 135 60.441 135 135z" style="opacity:.87614698;fill:url(#ao);fill-opacity:1;stroke:none" transform="matrix(.03746 0 0 .03203 169.246 8.49)"/></svg>