<svg xmlns="http://www.w3.org/2000/svg" xmlns:xlink="http://www.w3.org/1999/xlink" width="66" height="350"><defs><linearGradient id="L"><stop offset="0" style="stop-color:#000;stop-opacity:1"/><stop offset="1" style="stop-color:#000;stop-opacity:0"/></linearGradient><linearGradient id="x"><stop offset="0" style="stop-color:#fff;stop-opacity:1"/><stop offset="1" style="stop-color:#fff;stop-opacity:0"/></linearGradient><linearGradient id="z"><stop offset="0" style="stop-color:#5b90c8;stop-opacity:1"/><stop offset=".316" style="stop-color:#8fb0d1;stop-opacity:1"/><stop offset="1" style="stop-color:#34679d;stop-opacity:1"/></linearGradient><linearGradient id="y"><stop offset="0" style="stop-color:#729fcf;stop-opacity:1"/><stop offset=".316" style="stop-color:#a5bfda;stop-opacity:1"/><stop offset="1" style="stop-color:#376ca4;stop-opacity:1"/></linearGradient><linearGradient id="w"><stop offset="0" style="stop-color:#fff;stop-opacity:1"/><stop offset="1" style="stop-color:#fff;stop-opacity:0"/></linearGradient><linearGradient id="u"><stop offset="0" style="stop-color:#e7e2b8;stop-opacity:1"/><stop offset="1" style="stop-color:#e7e2b8;stop-opacity:0"/></linearGradient><linearGradient id="r"><stop offset="0" style="stop-color:#fff;stop-opacity:1"/><stop offset=".329" style="stop-color:#fff;stop-opacity:.69"/><stop offset=".658" style="stop-color:#c2c2c2;stop-opacity:.34"/><stop offset="1" style="stop-color:#fff;stop-opacity:0"/></linearGradient><linearGradient id="q"><stop offset="0" style="stop-color:#959791;stop-opacity:1"/><stop offset=".5" style="stop-color:#f8f8f8;stop-opacity:1"/><stop offset="1" style="stop-color:#8c8c8c;stop-opacity:1"/></linearGradient><linearGradient id="p"><stop offset="0" style="stop-color:#f5f5f5;stop-opacity:.09"/><stop offset=".263" style="stop-color:#fff;stop-opacity:.89999998"/><stop offset=".748" style="stop-color:#c7c7c7;stop-opacity:.46000001"/><stop offset="1" style="stop-color:#fff;stop-opacity:.78039217"/></linearGradient><linearGradient id="B"><stop offset="0" style="stop-color:#72cf7b;stop-opacity:1"/><stop offset="1" style="stop-color:#57c552;stop-opacity:1"/></linearGradient><linearGradient id="C"><stop offset="0" style="stop-color:#b9e7c9;stop-opacity:1"/><stop offset="1" style="stop-color:#72cf79;stop-opacity:1"/></linearGradient><linearGradient id="A"><stop offset="0" style="stop-color:#3465a4;stop-opacity:1"/><stop offset="1" style="stop-color:#3465a4;stop-opacity:1"/></linearGradient><linearGradient id="D"><stop offset="0" style="stop-color:#000;stop-opacity:1"/><stop offset="1" style="stop-color:#000;stop-opacity:0"/></linearGradient><linearGradient id="s"><stop offset="0" style="stop-color:#ffd1d1;stop-opacity:1"/><stop offset=".5" style="stop-color:#ff1d1d;stop-opacity:1"/><stop offset="1" style="stop-color:#6f0000;stop-opacity:1"/></linearGradient><linearGradient id="t"><stop offset="0" style="stop-color:#c1c1c1;stop-opacity:1"/><stop offset="1" style="stop-color:#acacac;stop-opacity:1"/></linearGradient><linearGradient id="v"><stop offset="0" style="stop-color:#000;stop-opacity:1"/><stop offset="1" style="stop-color:#c9c9c9;stop-opacity:1"/></linearGradient><linearGradient id="b"><stop offset="0" style="stop-color:black;stop-opacity:1"/><stop offset="1" style="stop-color:black;stop-opacity:0"/></linearGradient><linearGradient id="a"><stop offset="0" style="stop-color:black;stop-opacity:0"/><stop offset=".5" style="stop-color:black;stop-opacity:1"/><stop offset="1" style="stop-color:black;stop-opacity:0"/></linearGradient><linearGradient id="E"><stop offset="0" style="stop-color:#eeebc9;stop-opacity:1"/><stop offset="1" style="stop-color:#ffd420;stop-opacity:1"/><stop offset="1" style="stop-color:#ffec00;stop-opacity:1"/></linearGradient><linearGradient id="d"><stop offset="0" style="stop-color:#729fcf;stop-opacity:1"/><stop offset="1" style="stop-color:#3465a4;stop-opacity:1"/></linearGradient><linearGradient id="c"><stop offset="0" style="stop-color:#fff;stop-opacity:1"/><stop offset="1" style="stop-color:#babdb6;stop-opacity:1"/></linearGradient><linearGradient id="e"><stop offset="0" style="stop-color:#000;stop-opacity:.068627454"/><stop offset="1" style="stop-color:#fff;stop-opacity:1"/></linearGradient><linearGradient id="o"><stop offset="0" style="stop-color:#000;stop-opacity:1"/><stop offset="1" style="stop-color:#000;stop-opacity:0"/></linearGradient><linearGradient id="n"><stop offset="0" style="stop-color:#b6b6b6;stop-opacity:1"/><stop offset=".5" style="stop-color:#f2f2f2;stop-opacity:1"/><stop offset=".676" style="stop-color:#fafafa;stop-opacity:1"/><stop offset=".841" style="stop-color:#d8d8d8;stop-opacity:1"/><stop offset=".875" style="stop-color:#f2f2f2;stop-opacity:1"/><stop offset="1" style="stop-color:#dbdbdb;stop-opacity:1"/></linearGradient><linearGradient id="m"><stop offset="0" style="stop-color:#fff;stop-opacity:1"/><stop offset="1" style="stop-color:#000;stop-opacity:1"/></linearGradient><linearGradient id="l"><stop offset="0" style="stop-color:#98a0a9;stop-opacity:1"/><stop offset="1" style="stop-color:#c3d0dd;stop-opacity:1"/></linearGradient><linearGradient id="k"><stop offset="0" style="stop-color:#fff;stop-opacity:1"/><stop offset="1" style="stop-color:#fff;stop-opacity:0"/></linearGradient><linearGradient id="j"><stop offset="0" style="stop-color:#3465a4;stop-opacity:1"/><stop offset="0" style="stop-color:#9fbce1;stop-opacity:1"/><stop offset="0" style="stop-color:#6b95ca;stop-opacity:1"/><stop offset=".75" style="stop-color:#3d6aa5;stop-opacity:1"/><stop offset="1" style="stop-color:#386eb4;stop-opacity:1"/></linearGradient><linearGradient id="i"><stop offset="0" style="stop-color:#fff;stop-opacity:1"/><stop offset="1" style="stop-color:#fff;stop-opacity:0"/></linearGradient><linearGradient id="h"><stop offset="0" style="stop-color:#000;stop-opacity:1"/><stop offset="1" style="stop-color:#000;stop-opacity:0"/></linearGradient><linearGradient id="g"><stop offset="0" style="stop-color:#fff;stop-opacity:1"/><stop offset=".379" style="stop-color:#fefefe;stop-opacity:1"/><stop offset="1" style="stop-color:#1d1d1d;stop-opacity:1"/></linearGradient><linearGradient id="f"><stop offset="0" style="stop-color:#fff;stop-opacity:1"/><stop offset="1" style="stop-color:#fff;stop-opacity:0"/></linearGradient><linearGradient id="G"><stop offset="0" style="stop-color:black;stop-opacity:1"/><stop offset="1" style="stop-color:black;stop-opacity:0"/></linearGradient><linearGradient id="F"><stop offset="0" style="stop-color:black;stop-opacity:0"/><stop offset=".5" style="stop-color:black;stop-opacity:1"/><stop offset="1" style="stop-color:black;stop-opacity:0"/></linearGradient><linearGradient id="I"><stop offset="0" style="stop-color:#729fcf;stop-opacity:1"/><stop offset="1" style="stop-color:#3465a4;stop-opacity:1"/></linearGradient><linearGradient id="H"><stop offset="0" style="stop-color:#fff;stop-opacity:1"/><stop offset="1" style="stop-color:#babdb6;stop-opacity:1"/></linearGradient><linearGradient id="J"><stop offset="0" style="stop-color:#000;stop-opacity:.068627454"/><stop offset="1" style="stop-color:#fff;stop-opacity:1"/></linearGradient><linearGradient id="K"><stop offset="0" style="stop-color:#fff;stop-opacity:1"/><stop offset="1" style="stop-color:#fff;stop-opacity:0"/></linearGradient><linearGradient id="M"><stop offset="0" style="stop-color:#999;stop-opacity:1"/><stop offset="1" style="stop-color:#999;stop-opacity:0"/></linearGradient><linearGradient xlink:href="#N" id="R" x1="154.286" x2="605.714" y1="535.219" y2="535.219" gradientUnits="userSpaceOnUse"/><linearGradient id="N"><stop offset="0" style="stop-color:#081074;stop-opacity:1"/><stop offset=".5" style="stop-color:#5873c2;stop-opacity:1"/><stop offset=".75" style="stop-color:#0f99d2;stop-opacity:1"/><stop offset=".938" style="stop-color:#1660d4;stop-opacity:.6156863"/><stop offset="1" style="stop-color:#414cf6;stop-opacity:.21568628"/></linearGradient><linearGradient id="O"><stop offset="0" style="stop-color:#fff;stop-opacity:1"/><stop offset="1" style="stop-color:#fff;stop-opacity:0"/></linearGradient><linearGradient xlink:href="#N" id="U" x1="154.286" x2="605.714" y1="535.219" y2="535.219" gradientUnits="userSpaceOnUse"/><linearGradient xlink:href="#N" id="X" x1="154.286" x2="605.714" y1="535.219" y2="535.219" gradientUnits="userSpaceOnUse"/><linearGradient xlink:href="#N" id="aa" x1="154.286" x2="605.714" y1="535.219" y2="535.219" gradientUnits="userSpaceOnUse"/><linearGradient xlink:href="#N" id="ad" x1="154.286" x2="605.714" y1="535.219" y2="535.219" gradientUnits="userSpaceOnUse"/><linearGradient xlink:href="#P" id="ag" x1="154.286" x2="605.714" y1="535.219" y2="535.219" gradientUnits="userSpaceOnUse"/><linearGradient id="P"><stop offset="0" style="stop-color:#770900;stop-opacity:1"/><stop offset=".5" style="stop-color:#da101b;stop-opacity:1"/><stop offset=".75" style="stop-color:#d2400f;stop-opacity:1"/><stop offset=".938" style="stop-color:#d44316;stop-opacity:.614583"/><stop offset="1" style="stop-color:#c30000;stop-opacity:.21875"/></linearGradient><radialGradient xlink:href="#M" id="Q" cx="102.143" cy="545.934" r="135" fx="102.143" fy="545.934" gradientUnits="userSpaceOnUse"/><radialGradient xlink:href="#O" id="S" cx="102.143" cy="545.934" r="135" fx="102.143" fy="545.934" gradientUnits="userSpaceOnUse"/><radialGradient xlink:href="#M" id="T" cx="102.143" cy="545.934" r="135" fx="102.143" fy="545.934" gradientUnits="userSpaceOnUse"/><radialGradient xlink:href="#O" id="V" cx="102.143" cy="545.934" r="135" fx="102.143" fy="545.934" gradientUnits="userSpaceOnUse"/><radialGradient xlink:href="#M" id="W" cx="102.143" cy="545.934" r="135" fx="102.143" fy="545.934" gradientUnits="userSpaceOnUse"/><radialGradient xlink:href="#O" id="Y" cx="102.143" cy="545.934" r="135" fx="102.143" fy="545.934" gradientUnits="userSpaceOnUse"/><radialGradient xlink:href="#M" id="Z" cx="102.143" cy="545.934" r="135" fx="102.143" fy="545.934" gradientUnits="userSpaceOnUse"/><radialGradient xlink:href="#O" id="ab" cx="102.143" cy="545.934" r="135" fx="102.143" fy="545.934" gradientUnits="userSpaceOnUse"/><radialGradient xlink:href="#M" id="ac" cx="102.143" cy="545.934" r="135" fx="102.143" fy="545.934" gradientUnits="userSpaceOnUse"/><radialGradient xlink:href="#O" id="ae" cx="102.143" cy="545.934" r="135" fx="102.143" fy="545.934" gradientUnits="userSpaceOnUse"/><radialGradient xlink:href="#M" id="af" cx="102.143" cy="545.934" r="135" fx="102.143" fy="545.934" gradientUnits="userSpaceOnUse"/><radialGradient xlink:href="#O" id="ah" cx="102.143" cy="545.934" r="135" fx="102.143" fy="545.934" gradientUnits="userSpaceOnUse"/></defs><text xml:space="preserve" x="278.758" y="163.51" style="font-size:127.66687775px;font-style:normal;font-variant:normal;font-weight:400;font-stretch:condensed;text-align:start;line-height:125%;writing-mode:lr-tb;text-anchor:start;fill:#0169c9;fill-opacity:1;stroke:#002350;stroke-width:1.25494659;stroke-miterlimit:4;stroke-opacity:1;stroke-dasharray:none;font-family:Impact;-inkscape-font-specification:Impact Condensed" transform="matrix(-.00246 -.5141 .59882 -.00548 -33.688 471.524)"><tspan x="278.758" y="163.51" style="stroke-width:1.25494659">Word</tspan></text><text xml:space="preserve" x="556.779" y="163.51" style="font-size:127.66687775px;font-style:normal;font-variant:normal;font-weight:400;font-stretch:condensed;text-align:start;line-height:125%;writing-mode:lr-tb;text-anchor:start;fill:#002b3d;fill-opacity:1;stroke:#002350;stroke-width:1.25494659;stroke-miterlimit:4;stroke-opacity:1;stroke-dasharray:none;font-family:Impact;-inkscape-font-specification:Impact Condensed" transform="matrix(-.00246 -.5141 .59882 -.00548 -33.688 471.524)"><tspan x="556.779" y="163.51" style="stroke-width:1.25494659">Net</tspan></text><path d="M336.616 423.305c-75.373 96.692-165.154 125.4-205.938 124.034" style="fill:none;stroke:#0a3f6b;stroke-width:10.62239647;stroke-linecap:butt;stroke-linejoin:miter;stroke-miterlimit:4;stroke-opacity:1;stroke-dasharray:none" transform="matrix(.09526 0 0 .09303 -2.156 8.716)"/><path d="M498.072 135.483c-208.69 156.277-314.605 192.314-378.927 179.69" style="fill:none;stroke:#184086;stroke-width:10.62239647;stroke-linecap:butt;stroke-linejoin:miter;stroke-miterlimit:4;stroke-opacity:1;stroke-dasharray:none" transform="matrix(.09526 0 0 .09303 -2.156 8.716)"/><path d="M636.463 426.485c-78.013-37.574-145.63-52.283-143.333-287.822-46.099 93.01-77.994 179.166-156.514 287.822-36.96 136.949-19.638 188.76 13.18 216.264" style="fill:none;stroke:#053f9d;stroke-width:10.62239647;stroke-linecap:butt;stroke-linejoin:miter;stroke-miterlimit:4;stroke-opacity:1;stroke-dasharray:none" transform="matrix(.09526 0 0 .09303 -2.156 8.716)"/><path d="M237.143 545.934c0 74.558-60.442 135-135 135-74.559 0-135-60.442-135-135 0-74.559 60.441-135 135-135 74.558 0 135 60.441 135 135z" style="fill:url(#Q);fill-opacity:1;stroke:none" transform="matrix(.02933 -.00905 .01301 .0204 20.938 61.696)"/><path d="M605.714 535.22c0 124.658-101.055 225.714-225.714 225.714-124.659 0-225.714-101.056-225.714-225.715 0-124.658 101.055-225.714 225.714-225.714 124.659 0 225.714 101.056 225.714 225.714z" style="fill:url(#R);fill-opacity:1;stroke:none" transform="matrix(-.01356 -.01405 .0149 -.01278 28.115 80.05)"/><path d="M237.143 545.934c0 74.558-60.442 135-135 135-74.559 0-135-60.442-135-135 0-74.559 60.441-135 135-135 74.558 0 135 60.441 135 135z" style="opacity:.87614698;fill:url(#S);fill-opacity:1;stroke:none" transform="matrix(.02015 0 0 .019 27.773 56.295)"/><path d="M237.143 545.934c0 74.558-60.442 135-135 135-74.559 0-135-60.442-135-135 0-74.559 60.441-135 135-135 74.558 0 135 60.441 135 135z" style="fill:url(#T);fill-opacity:1;stroke:none" transform="matrix(.02933 -.00905 .01301 .0204 48.16 42.317)"/><path d="M605.714 535.22c0 124.658-101.055 225.714-225.714 225.714-124.659 0-225.714-101.056-225.714-225.715 0-124.658 101.055-225.714 225.714-225.714 124.659 0 225.714 101.056 225.714 225.714z" style="fill:url(#U);fill-opacity:1;stroke:none" transform="matrix(-.01356 -.01405 .0149 -.01278 55.337 60.671)"/><path d="M237.143 545.934c0 74.558-60.442 135-135 135-74.559 0-135-60.442-135-135 0-74.559 60.441-135 135-135 74.558 0 135 60.441 135 135z" style="opacity:.87614698;fill:url(#V);fill-opacity:1;stroke:none" transform="matrix(.02015 0 0 .019 54.995 36.915)"/><path d="M237.143 545.934c0 74.558-60.442 135-135 135-74.559 0-135-60.442-135-135 0-74.559 60.441-135 135-135 74.558 0 135 60.441 135 135z" style="fill:url(#W);fill-opacity:1;stroke:none" transform="matrix(.02933 -.00905 .01301 .0204 .292 53.116)"/><path d="M605.714 535.22c0 124.658-101.055 225.714-225.714 225.714-124.659 0-225.714-101.056-225.714-225.715 0-124.658 101.055-225.714 225.714-225.714 124.659 0 225.714 101.056 225.714 225.714z" style="fill:url(#X);fill-opacity:1;stroke:none" transform="matrix(-.01356 -.01405 .0149 -.01278 7.468 71.47)"/><path d="M237.143 545.934c0 74.558-60.442 135-135 135-74.559 0-135-60.442-135-135 0-74.559 60.441-135 135-135 74.558 0 135 60.441 135 135z" style="opacity:.87614698;fill:url(#Y);fill-opacity:1;stroke:none" transform="matrix(.02015 0 0 .019 7.126 47.715)"/><path d="M237.143 545.934c0 74.558-60.442 135-135 135-74.559 0-135-60.442-135-135 0-74.559 60.441-135 135-135 74.558 0 135 60.441 135 135z" style="fill:url(#Z);fill-opacity:1;stroke:none" transform="matrix(.02933 -.00905 .01301 .0204 19.753 42.169)"/><path d="M605.714 535.22c0 124.658-101.055 225.714-225.714 225.714-124.659 0-225.714-101.056-225.714-225.715 0-124.658 101.055-225.714 225.714-225.714 124.659 0 225.714 101.056 225.714 225.714z" style="fill:url(#aa);fill-opacity:1;stroke:none" transform="matrix(-.01356 -.01405 .0149 -.01278 26.93 60.523)"/><path d="M237.143 545.934c0 74.558-60.442 135-135 135-74.559 0-135-60.442-135-135 0-74.559 60.441-135 135-135 74.558 0 135 60.441 135 135z" style="opacity:.87614698;fill:url(#ab);fill-opacity:1;stroke:none" transform="matrix(.02015 0 0 .019 26.588 36.767)"/><path d="M237.143 545.934c0 74.558-60.442 135-135 135-74.559 0-135-60.442-135-135 0-74.559 60.441-135 135-135 74.558 0 135 60.441 135 135z" style="fill:url(#ac);fill-opacity:1;stroke:none" transform="matrix(.02933 -.00905 .01301 .0204 -1.435 31.073)"/><path d="M605.714 535.22c0 124.658-101.055 225.714-225.714 225.714-124.659 0-225.714-101.056-225.714-225.715 0-124.658 101.055-225.714 225.714-225.714 124.659 0 225.714 101.056 225.714 225.714z" style="fill:url(#ad);fill-opacity:1;stroke:none" transform="matrix(-.01356 -.01405 .0149 -.01278 5.742 49.428)"/><path d="M237.143 545.934c0 74.558-60.442 135-135 135-74.559 0-135-60.442-135-135 0-74.559 60.441-135 135-135 74.558 0 135 60.441 135 135z" style="opacity:.87614698;fill:url(#ae);fill-opacity:1;stroke:none" transform="matrix(.02015 0 0 .019 5.4 25.672)"/><path d="M237.143 545.934c0 74.558-60.442 135-135 135-74.559 0-135-60.442-135-135 0-74.559 60.441-135 135-135 74.558 0 135 60.441 135 135z" style="fill:url(#af);fill-opacity:1;stroke:none" transform="matrix(.03048 -.0094 .01352 .0212 34.85 13.543)"/><path d="M605.714 535.22c0 124.658-101.055 225.714-225.714 225.714-124.659 0-225.714-101.056-225.714-225.715 0-124.658 101.055-225.714 225.714-225.714 124.659 0 225.714 101.056 225.714 225.714z" style="fill:url(#ag);fill-opacity:1;stroke:none" transform="matrix(-.0141 -.0146 .01549 -.01328 42.307 32.616)"/><path d="M237.143 545.934c0 74.558-60.442 135-135 135-74.559 0-135-60.442-135-135 0-74.559 60.441-135 135-135 74.558 0 135 60.441 135 135z" style="opacity:.87614698;fill:url(#ah);fill-opacity:1;stroke:none" transform="matrix(.02094 0 0 .01974 41.952 7.93)"/></svg>